# Blender 4.5.4 LTS
# www.blender.org
mtllib carboard box.mtl
o Cube.001
v -1.042617 0.525545 1.042617
v -1.042617 0.525545 -1.042617
v 1.042617 0.525545 -1.042617
v 1.042617 0.525545 1.042617
v -1.042617 0.882787 1.042617
v -1.042617 0.882787 -1.042617
v 1.042617 0.882787 -1.042617
v 1.042617 0.882787 1.042617
vn -0.0000 1.0000 -0.0000
vn -0.0000 -0.0000 -1.0000
vn 1.0000 -0.0000 -0.0000
vn -1.0000 -0.0000 -0.0000
vn -0.0000 -0.0000 1.0000
s 0
f 7//1 6//1 5//1 8//1
f 3//2 2//2 6//2 7//2
f 4//3 3//3 7//3 8//3
f 2//4 1//4 5//4 6//4
f 1//5 4//5 8//5 5//5
o Cube
v -1.000000 -0.685247 1.000000
v -1.000000 0.685247 1.000000
v -1.000000 -0.685247 -1.000000
v -1.000000 0.685247 -1.000000
v 1.000000 -0.685247 1.000000
v 1.000000 0.685247 1.000000
v 1.000000 -0.685247 -1.000000
v 1.000000 0.685247 -1.000000
v -1.000000 0.685247 1.000000
v -1.000000 0.685247 -1.000000
v 1.000000 0.685247 -1.000000
v 1.000000 0.685247 1.000000
vn -1.0000 -0.0000 -0.0000
vn -0.0000 -0.0000 -1.0000
vn 1.0000 -0.0000 -0.0000
vn -0.0000 -0.0000 1.0000
vn -0.0000 -1.0000 -0.0000
vn -0.0000 1.0000 -0.0000
s 0
f 9//6 10//6 12//6 11//6
f 11//7 12//7 16//7 15//7
f 15//8 16//8 14//8 13//8
f 13//9 14//9 10//9 9//9
f 11//10 15//10 13//10 9//10
f 14//11 16//11 19//11 20//11
f 12//11 10//11 17//11 18//11
f 10//11 14//11 20//11 17//11
f 16//11 12//11 18//11 19//11
