<?xml version="1.0" encoding="UTF-8" standalone="no"?>
<!-- Created with Inkscape (http://www.inkscape.org/) -->

<svg
   width="210mm"
   height="297mm"
   viewBox="0 0 210 297"
   version="1.1"
   id="svg1"
   inkscape:version="1.4.2 (f4327f4, 2025-05-13)"
   sodipodi:docname="acoperis-fata.svg"
   xmlns:inkscape="http://www.inkscape.org/namespaces/inkscape"
   xmlns:sodipodi="http://sodipodi.sourceforge.net/DTD/sodipodi-0.dtd"
   xmlns="http://www.w3.org/2000/svg"
   xmlns:svg="http://www.w3.org/2000/svg">
  <sodipodi:namedview
     id="namedview1"
     pagecolor="#505050"
     bordercolor="#eeeeee"
     borderopacity="1"
     inkscape:showpageshadow="0"
     inkscape:pageopacity="0"
     inkscape:pagecheckerboard="0"
     inkscape:deskcolor="#505050"
     inkscape:document-units="mm"
     inkscape:zoom="0.37104025"
     inkscape:cx="-278.94548"
     inkscape:cy="602.36053"
     inkscape:window-width="1920"
     inkscape:window-height="1051"
     inkscape:window-x="-9"
     inkscape:window-y="-9"
     inkscape:window-maximized="1"
     inkscape:current-layer="layer1" />
  <defs
     id="defs1" />
  <g
     inkscape:label="Layer 1"
     inkscape:groupmode="layer"
     id="layer1">
    <path
       d="m 47.117319,143.66027 h 8.311991 12.267124 12.267128 12.26712 12.267198 12.26712 12.26713 12.26722 l 1.22176,-0.28688 0.61383,-0.40805 0.40653,-0.2704 0.67595,-0.97432 0.23651,-1.13339 -0.0265,-5.00475 -0.0883,-0.41086 -0.43848,-0.84133"
       style="fill:none;stroke:#ff0000;stroke-width:0.191802;stroke-linecap:butt;stroke-linejoin:bevel;stroke-dasharray:none"
       id="path178" />
    <path
       d="m 107.46089,145.78895 -0.45118,-0.86539 -0.26971,-0.29799 -1.02036,-0.67842 -1.22176,-0.28688 1.22176,-0.28688 1.02036,-0.67845 0.67597,-0.97432 0.23651,-1.13339 -0.0265,-5.00475 -0.0883,-0.41086 -0.52795,-1.01306 -0.26971,-0.29798 -1.02036,-0.67817 -1.22176,-0.28688 1.22176,-0.28724 1.02036,-0.67806 0.67597,-0.97431 0.23651,-1.13368 -0.0265,-5.00447 -0.0883,-0.41115 -0.52795,-1.01276 -0.26971,-0.29809 -1.02036,-0.67835 -1.22176,-0.28688 H 92.230682 79.963562 67.696434 55.42931 47.117319"
       style="fill:none;stroke:#ff0000;stroke-width:0.191802;stroke-linecap:butt;stroke-linejoin:bevel;stroke-dasharray:none"
       id="path180" />
    <path
       d="m 70.672941,145.815 -0.464705,-0.89144 -0.269608,-0.29799 -1.020432,-0.67842 -1.221762,-0.28688 1.221762,-0.28688 1.020432,-0.67845 0.675897,-0.97432 0.236511,-1.13339 -0.0265,-5.00475 -0.08832,-0.41086 -0.527979,-1.01306 -0.269608,-0.29798 -1.020432,-0.67817 -1.221762,-0.28688 h 12.267127 12.26712 12.267198 12.26712 12.26713 l 1.22186,-0.28724 0.12242,-0.0813"
       style="fill:none;stroke:#ff0000;stroke-width:0.191802;stroke-linecap:butt;stroke-linejoin:bevel;stroke-dasharray:none"
       id="path181" />
    <path
       d="m 47.117319,154.42526 h 8.311991 12.267124 12.267128 12.26712 12.267198 12.26712 12.26713 12.26722 l 1.22176,-0.28716 0.61383,-0.40777 0.40653,-0.2704 0.67595,-0.97432 0.23651,-1.13339 -0.0265,-5.00475 -0.0883,-0.41112 -0.52798,-1.01279 -0.26968,-0.29799 -1.02036,-0.67842 -1.22176,-0.28688 h 10.87727"
       style="fill:none;stroke:#ff0000;stroke-width:0.191802;stroke-linecap:butt;stroke-linejoin:bevel;stroke-dasharray:none"
       id="path182" />
    <path
       d="m 143.8771,163.74129 0.34032,-0.49068 0.23651,-1.13368 -0.0265,-5.00473 -0.0883,-0.41086 -0.52798,-1.01305 -0.26968,-0.29773 -1.02036,-0.67842 -1.22176,-0.28688 h 10.87727"
       style="fill:none;stroke:#ff0000;stroke-width:0.191802;stroke-linecap:butt;stroke-linejoin:bevel;stroke-dasharray:none"
       id="path184" />
    <path
       d="m 48.364375,186.71969 h 7.064935 12.267124 12.267128 12.26712 12.267198 12.26712 12.26713 12.26722 l 1.22176,-0.28688 0.61383,-0.40804 0.40653,-0.27012 0.67595,-0.97435 0.23651,-1.13365 -0.0265,-5.00465 -0.0883,-0.41088 -0.52798,-1.01313 -0.26968,-0.29773 -1.02036,-0.67842 -1.22176,-0.28688 h 12.26712"
       style="fill:none;stroke:#ff0000;stroke-width:0.191802;stroke-linecap:butt;stroke-linejoin:bevel;stroke-dasharray:none"
       id="path187" />
    <path
       d="m 62.028951,197.48468 h 5.667483 12.267128 12.26712 12.267198 12.26712 12.26713 12.26722 l 1.22176,-0.28688 0.61383,-0.40804 0.40653,-0.27041 0.67595,-0.97431 0.23651,-1.13339 -0.0265,-5.00466 -0.0883,-0.41114 -0.52798,-1.01287 -0.26968,-0.29799 -1.02036,-0.67816 -1.22176,-0.28714 h 12.26712"
       style="fill:none;stroke:#ff0000;stroke-width:0.191802;stroke-linecap:butt;stroke-linejoin:bevel;stroke-dasharray:none"
       id="path188" />
    <path
       d="m 58.519632,194.72001 0.06428,-0.30836 -0.0265,-5.00466 -0.08832,-0.41114 -0.527979,-1.01287 -0.269681,-0.29799 -1.020359,-0.67816 -1.221762,-0.28714 1.221762,-0.28688 1.020359,-0.67816 0.67597,-0.97435 0.236511,-1.13365 -0.0265,-5.00465 -0.08832,-0.41088 -0.527979,-1.01313 -0.269681,-0.29773 -1.020359,-0.67842 -1.221762,-0.28688 1.221762,-0.28688 1.020359,-0.67843 0.67597,-0.97434 0.236511,-1.13339 -0.0265,-5.00473 -0.08832,-0.41107 -0.527979,-1.01284 -0.269681,-0.29801 -1.020359,-0.67814 -1.221762,-0.28716 1.221762,-0.28688 1.020359,-0.67843 0.67597,-0.97405 0.236511,-1.13368 -0.0265,-5.00473 -0.08832,-0.41086 -0.527979,-1.01305 -0.269681,-0.29773 -1.020359,-0.67842 -1.221762,-0.28688 1.221762,-0.28716 1.020359,-0.67817 0.67597,-0.97432 0.236511,-1.13339 -0.0265,-5.00475 -0.08832,-0.41112 -0.527979,-1.01279 -0.269681,-0.29799 -1.020359,-0.67842 -1.221762,-0.28688 1.221762,-0.28688 1.020359,-0.67845 0.67597,-0.97432 0.236511,-1.13339 -0.0265,-5.00475 -0.08832,-0.41086 -0.527979,-1.01306 -0.269681,-0.29798 -1.020359,-0.67817 -1.221762,-0.28688 1.221762,-0.28724 1.020359,-0.67806 0.67597,-0.97431 0.236511,-1.13368 -0.0265,-5.00447 -0.08832,-0.41115 -0.527979,-1.01276 -0.269681,-0.29809 -1.020359,-0.67835 -1.221762,-0.28688 1.221762,-0.28695 1.020359,-0.67835 0.67597,-0.97432 0.236511,-1.13349 -0.0265,-5.00465 -0.08832,-0.41115 -0.527979,-1.01276 -0.269681,-0.29809 -1.020359,-0.67806 -1.221762,-0.28717 1.221762,-0.28695 1.020359,-0.67817 0.67597,-0.97432 0.236511,-1.13367 -0.0265,-5.00465"
       style="fill:none;stroke:#ff0000;stroke-width:0.191802;stroke-linecap:butt;stroke-linejoin:bevel;stroke-dasharray:none"
       id="path189" />
    <path
       d="m 70.847086,204.43133 -0.02208,-4.25934 -0.08832,-0.41115 -0.52798,-1.01287 -0.269607,-0.29798 -1.020433,-0.67835 -1.221761,-0.28696 1.221761,-0.28688 1.020433,-0.67845 0.675896,-0.97431 0.236511,-1.13339 -0.0265,-5.00466 -0.08832,-0.41114 -0.52798,-1.01287 -0.269607,-0.29799 -1.020433,-0.67816 -1.221761,-0.28714 1.221761,-0.28688 1.020433,-0.67816 0.675896,-0.97435 0.236511,-1.13365 -0.0265,-5.00465 -0.08832,-0.41088 -0.52798,-1.01313 -0.269607,-0.29773 -1.020433,-0.67842 -1.221761,-0.28688 1.221761,-0.28688 1.020433,-0.67843 0.675896,-0.97434 0.236511,-1.13339 -0.0265,-5.00473 -0.08832,-0.41107 -0.52798,-1.01284 -0.269607,-0.29801 -1.020433,-0.67814 -1.221761,-0.28716 1.221761,-0.28688 1.020433,-0.67843 0.675896,-0.97405 0.236511,-1.13368 -0.0265,-5.00473 -0.08832,-0.41086 -0.52798,-1.01305 -0.269607,-0.29773 -1.020433,-0.67842 -1.221761,-0.28688 1.221761,-0.28716 1.020433,-0.67817 0.675896,-0.97432 0.0449,-0.21459"
       style="fill:none;stroke:#ff0000;stroke-width:0.191802;stroke-linecap:butt;stroke-linejoin:bevel;stroke-dasharray:none"
       id="path190" />
    <path
       d="m 75.693626,208.24967 h 4.269936 12.26712 12.267198 12.26712 12.26713 12.26722 l 1.22176,-0.28716 0.61383,-0.40776 0.40653,-0.27041 0.67595,-0.97431 0.23651,-1.13368 -0.0265,-5.00436 -0.0883,-0.41115 -0.52798,-1.01287 -0.26968,-0.29798 -1.02036,-0.67835 -1.22176,-0.28696 h 12.26712"
       style="fill:none;stroke:#ff0000;stroke-width:0.191802;stroke-linecap:butt;stroke-linejoin:bevel;stroke-dasharray:none"
       id="path191" />
    <path
       d="m 89.358202,219.01448 h 2.87248 12.267198 12.26712 12.26713 12.26722 l 1.22176,-0.28698 0.61383,-0.40794 0.40653,-0.27041 0.67595,-0.97431 0.23651,-1.1335 -0.0265,-5.00465 -0.0883,-0.41086 -0.52798,-1.01305 -0.26968,-0.29809 -1.02036,-0.67806 -1.22176,-0.28696 h 12.26712"
       style="fill:none;stroke:#ff0000;stroke-width:0.191802;stroke-linecap:butt;stroke-linejoin:bevel;stroke-dasharray:none"
       id="path192" />
    <path
       d="m 103.02287,229.77948 h 1.47501 12.26712 12.26713 12.26722 l 1.22176,-0.28717 0.61383,-0.40776 0.40653,-0.2704 0.67595,-0.97432 0.23651,-1.1335 -0.0265,-5.00465 -0.0883,-0.41114 -0.52798,-1.01277 -0.26968,-0.29798 -1.02036,-0.67843 -1.22176,-0.28688 h 12.26712"
       style="fill:none;stroke:#ff0000;stroke-width:0.191802;stroke-linecap:butt;stroke-linejoin:bevel;stroke-dasharray:none"
       id="path193" />
    <path
       d="m 107.63089,233.40949 -0.005,-0.94307 -0.0883,-0.41089 -0.52798,-1.01303 -0.26968,-0.29772 -1.02036,-0.67843 -1.22176,-0.28687 1.22176,-0.28717 1.02036,-0.67816 0.67595,-0.97432 0.23651,-1.1335 -0.0265,-5.00465 -0.0883,-0.41114 -0.52798,-1.01277 -0.26969,-0.29798 -1.02035,-0.67843 -1.22177,-0.28688 1.22177,-0.28698 1.02035,-0.67835 0.67595,-0.97431 0.23651,-1.1335 -0.0265,-5.00465 -0.0883,-0.41086 -0.52798,-1.01305 -0.26968,-0.29809 -1.02036,-0.67806 -1.22176,-0.28696 1.22176,-0.28716 1.02036,-0.67817 0.67595,-0.97431 0.23651,-1.13368 -0.0265,-5.00436 -0.0883,-0.41115 -0.52798,-1.01287 -0.26968,-0.29798 -1.02036,-0.67835 -1.22176,-0.28696 1.22176,-0.28688 1.02036,-0.67845 0.67594,-0.97431 0.23651,-1.13339 -0.0265,-5.00466 -0.0883,-0.41114 -0.52798,-1.01287 -0.26968,-0.29799 -1.02036,-0.67816 -1.22176,-0.28714 1.22176,-0.28688 1.02036,-0.67816 0.67595,-0.97435 0.23651,-1.13365 -0.0265,-5.00465 -0.0883,-0.41088 -0.52798,-1.01313 -0.26968,-0.29773 -1.02036,-0.67842 -1.22176,-0.28688 1.22176,-0.28688 1.02036,-0.67843 0.67594,-0.97434 0.23651,-1.13339 -0.0265,-5.00473 -0.0883,-0.41107 -0.52798,-1.01284 -0.26968,-0.29801 -1.02036,-0.67814 -1.22176,-0.28716 1.22176,-0.28688 1.02036,-0.67843 0.67595,-0.97405 0.23651,-1.13368 -0.0265,-5.00473 -0.0883,-0.41086 -0.52798,-1.01305 -0.26968,-0.29773 -1.02036,-0.67842 -1.22176,-0.28688 1.22176,-0.28716 1.02036,-0.67817 0.67594,-0.97432 0.0449,-0.21434"
       style="fill:none;stroke:#ff0000;stroke-width:0.191802;stroke-linecap:butt;stroke-linejoin:bevel;stroke-dasharray:none"
       id="path194" />
    <path
       d="m 116.68772,240.54418 h 0.0773 12.26713 12.26722 l 1.22176,-0.28688 0.61383,-0.40804 0.40653,-0.27038 0.67595,-0.97406 0.23651,-1.13367 -0.0265,-5.00473 -0.0883,-0.41089 -0.52798,-1.01303 -0.26968,-0.29772 -1.02036,-0.67843 -1.22176,-0.28687 h 12.26712"
       style="fill:none;stroke:#ff0000;stroke-width:0.191802;stroke-linecap:butt;stroke-linejoin:bevel;stroke-dasharray:none"
       id="path195" />
    <path
       d="m 131.90927,167.15394 0.16266,0.31218 0.0883,0.41107 0.0265,5.00473 -0.23651,1.13339 -0.67587,0.97434 -1.02036,0.67843 -1.22186,0.28688 1.22186,0.28688 1.02036,0.67842 0.26961,0.29773 0.52795,1.01313 0.0883,0.41088 0.0265,5.00465 -0.23651,1.13365 -0.67587,0.97435 -1.02036,0.67816 -1.22186,0.28688 1.22186,0.28714 1.02036,0.67816 0.26961,0.29799 0.52795,1.01287 0.0883,0.41114 0.0265,5.00466 -0.23651,1.13339 -0.67587,0.97431 -1.02036,0.67845 -1.22186,0.28688 1.22186,0.28696 1.02036,0.67835 0.26961,0.29798 0.52795,1.01287 0.0883,0.41115 0.0265,5.00436 -0.23651,1.13368 -0.67587,0.97431 -1.02036,0.67817 -1.22186,0.28716 1.22186,0.28696 1.02036,0.67806 0.26961,0.29809 0.52795,1.01305 0.0883,0.41086 0.0265,5.00465 -0.23651,1.1335 -0.67587,0.97431 -1.02036,0.67835 -1.22186,0.28698 1.22186,0.28688 1.02036,0.67843 0.26961,0.29798 0.52795,1.01277 0.0883,0.41114 0.0265,5.00465 -0.23651,1.1335 -0.67587,0.97432 -1.02036,0.67816 -1.22186,0.28717 1.22186,0.28687 1.02036,0.67843 0.26961,0.29772 0.52795,1.01303 0.0883,0.41089 0.0265,5.00473 -0.23651,1.13367 -0.67587,0.97406 -1.02036,0.67842 -1.22186,0.28688 1.22186,0.28717 1.02036,0.67814 0.26961,0.29801 0.52795,1.01276 0.0883,0.41115 0.0265,5.00473 -0.23651,1.13339 -0.67587,0.97434 -1.02036,0.67842 -0.20486,0.048"
       style="fill:none;stroke:#ff0000;stroke-width:0.191802;stroke-linecap:butt;stroke-linejoin:bevel;stroke-dasharray:none"
       id="path196" />
    <path
       d="m 130.3523,251.30917 h 10.94705 l 1.22176,-0.28688 0.61383,-0.40804 0.40653,-0.27038 0.67595,-0.97434 0.23651,-1.13339 -0.0265,-5.00473 -0.0883,-0.41115 -0.52798,-1.01276 -0.26968,-0.29801 -1.02036,-0.67814 -1.22176,-0.28717 h 12.26712"
       style="fill:none;stroke:#ff0000;stroke-width:0.191802;stroke-linecap:butt;stroke-linejoin:bevel;stroke-dasharray:none"
       id="path197" />
    <path
       d="m 119.85118,243.03644 -0.0464,-0.21615 -0.52796,-1.01277 -0.2696,-0.29798 -1.02046,-0.67817 -1.22176,-0.28716 1.22176,-0.28688 1.02046,-0.67842 0.67587,-0.97406 0.23651,-1.13365 -0.0265,-5.00476 -0.0883,-0.41086 -0.52796,-1.01305 -0.2696,-0.29773 -1.02046,-0.67842 -1.22176,-0.28688 1.22176,-0.28716 1.02046,-0.67814 0.67587,-0.97434 0.23651,-1.13347 -0.0265,-5.00465 -0.0883,-0.41115 -0.52796,-1.01277 -0.2696,-0.29801 -1.02046,-0.67842 -1.22176,-0.28688 1.22176,-0.28698 1.02046,-0.67832 0.67587,-0.97435 0.23651,-1.13346 -0.0265,-5.00468 -0.0883,-0.41086 -0.52796,-1.01305 -0.2696,-0.29809 -1.02046,-0.67806 -1.22176,-0.28696 1.22176,-0.28716 1.02046,-0.67817 0.67587,-0.97432 0.23651,-1.13367 -0.0265,-5.00437 -0.0883,-0.41114 -0.52796,-1.01287 -0.2696,-0.29799 -1.02046,-0.67834 -1.22176,-0.28696 1.22176,-0.28688 1.02046,-0.67845 0.67587,-0.97432 0.23651,-1.13339 -0.0265,-5.00465 -0.0883,-0.41114 -0.52796,-1.01288 -0.2696,-0.29798 -1.02046,-0.67817 -1.22176,-0.28713 1.22176,-0.28688 1.02046,-0.67817 0.67587,-0.97434 0.23651,-1.13365 -0.0265,-5.00465 -0.0883,-0.41089 -0.52796,-1.01313 -0.2696,-0.29772 -1.02046,-0.67843 -1.22176,-0.28688 1.22176,-0.28688 1.02046,-0.67842 0.67587,-0.97434 0.23651,-1.13339 -0.0265,-5.00473 -0.0883,-0.41107 -0.52796,-1.01284 -0.2696,-0.29801 -1.02046,-0.67814 -1.22176,-0.28717 1.22176,-0.28688 1.02046,-0.67842 0.67587,-0.97406 0.23651,-1.13367 -0.0265,-5.00473 -0.0883,-0.41086 -0.52796,-1.01306 -0.2696,-0.29772 -1.02046,-0.67843 -1.22176,-0.28687 1.22176,-0.28717 1.02046,-0.67816 0.67587,-0.97432 0.23651,-1.13339 -0.0265,-5.00476 -0.0883,-0.41112 -0.52796,-1.01279 -0.2696,-0.29798 -1.02046,-0.67843 -1.22176,-0.28688 1.22176,-0.28688 1.02046,-0.67845 0.67587,-0.97431 0.23651,-1.13339 -0.0265,-5.00476 -0.0883,-0.41086 -0.52796,-1.01305 -0.2696,-0.29798 -1.02046,-0.67817 -1.22176,-0.28688 1.22176,-0.28724 1.02046,-0.67806 0.67587,-0.97432 0.23651,-1.13367 -0.0265,-5.00447 -0.0883,-0.41115 -0.52796,-1.01277 -0.2696,-0.29808 -1.02046,-0.67835 -1.22176,-0.28688 1.22176,-0.28696 1.02046,-0.67834 0.67587,-0.97432 0.23651,-1.1335 -0.0265,-5.00465 -0.0883,-0.41114 -0.52796,-1.01277 -0.2696,-0.29809 -1.02046,-0.67806 -1.22176,-0.28716 1.22176,-0.28696 1.02046,-0.67816 0.67587,-0.97432 0.23651,-1.13368 -0.0265,-5.00465 -0.0883,-0.41086 -0.52796,-1.01305 -0.2696,-0.2978 -1.02046,-0.67835 -1.22176,-0.28698 1.22176,-0.28688 1.02046,-0.678427 0.67587,-0.97431 0.23651,-1.13339 -0.0265,-5.004655 -0.0883,-0.411145 -0.52796,-1.012871 -0.2696,-0.297984 -1.02046,-0.678165 -1.22176,-0.287164 1.22176,-0.286879 1.02046,-0.678424 0.67587,-0.974058 0.23651,-1.13365 -0.0265,-5.004651 -0.0883,-0.410887 -0.52796,-1.013129 -0.2696,-0.297984 -1.02046,-0.678166 -1.22176,-0.286879 h 12.26712 12.26722 l 1.22177,-0.287164 0.61382,-0.407762 0.40653,-0.270377 0.67595,-0.974342 0.23651,-1.133392 -0.0265,-5.004729 -0.0883,-0.411067 -0.52798,-1.012845 -0.26968,-0.29801 -1.02036,-0.678424 -1.22176,-0.286879 h 12.26712"
       style="fill:none;stroke:#ff0000;stroke-width:0.191802;stroke-linecap:butt;stroke-linejoin:bevel;stroke-dasharray:none"
       id="path198" />
    <path
       d="m 130.35257,46.776356 h 10.94678 l 1.22176,-0.286879 0.61383,-0.408046 0.40653,-0.270404 0.67595,-0.974316 0.23651,-1.133392 -0.0265,-5.004754 -0.0883,-0.411145 -0.52798,-1.012768 -0.26968,-0.297984 -0.40654,-0.270119"
       style="fill:none;stroke:#ff0000;stroke-width:0.191802;stroke-linecap:butt;stroke-linejoin:bevel;stroke-dasharray:none"
       id="path199" />
    <path
       d="m 116.68799,57.541347 h 0.077 12.26712 12.26722 l 1.22177,-0.287163 0.61382,-0.407762 0.40653,-0.270404 0.67595,-0.974316 0.23651,-1.133676 -0.0265,-5.00447 -0.0883,-0.411145 -0.52798,-1.012768 -0.26968,-0.297984 -1.02036,-0.678449 -1.22176,-0.286854 h 12.26712"
       style="fill:none;stroke:#ff0000;stroke-width:0.191802;stroke-linecap:butt;stroke-linejoin:bevel;stroke-dasharray:none"
       id="path200" />
    <path
       d="m 103.02332,68.306055 h 1.47456 12.26712 12.26713 12.26722 l 1.22176,-0.28688 0.61383,-0.408046 0.40653,-0.270378 0.67595,-0.974341 0.23651,-1.133392 -0.0265,-5.004729 -0.0883,-0.410886 -0.52798,-1.013027 -0.26968,-0.298009 -1.02036,-0.678166 -1.22176,-0.286854 h 12.26712"
       style="fill:none;stroke:#ff0000;stroke-width:0.191802;stroke-linecap:butt;stroke-linejoin:bevel;stroke-dasharray:none"
       id="path201" />
    <path
       d="m 89.358982,79.071046 h 2.8717 12.267198 12.26712 l 1.22176,-0.287163 1.02046,-0.67814 0.67587,-0.974342 0.23651,-1.133392 -0.0265,-5.004729 -0.0883,-0.411067 -0.52795,-1.012845 -0.26961,-0.29801 -1.02046,-0.678424 -1.22176,-0.286879 1.22176,-0.28688 1.02046,-0.678424 0.67587,-0.974341 0.23651,-1.133392 -0.0265,-5.004729 -0.0883,-0.410886 -0.52795,-1.013027 -0.26961,-0.298009 -1.02046,-0.678166 -1.22176,-0.286854 1.22176,-0.287163 1.02046,-0.678166 0.67587,-0.974316 0.10501,-0.50251"
       style="fill:none;stroke:#ff0000;stroke-width:0.191802;stroke-linecap:butt;stroke-linejoin:bevel;stroke-dasharray:none"
       id="path202" />
    <path
       d="m 75.694313,89.835753 h 4.269249 12.26712 12.267198 l 1.22176,-0.286879 1.02036,-0.678424 0.67597,-0.974058 0.23651,-1.13365 -0.0265,-5.004651 -0.0883,-0.410887 -0.52795,-1.013129 -0.26971,-0.297984 -1.02036,-0.678165 -1.22176,-0.28688 1.22176,-0.287163 1.02036,-0.67814 0.67597,-0.974342 0.23651,-1.133392 -0.0265,-5.004729 -0.0883,-0.411067 -0.52795,-1.012845 -0.26971,-0.29801 -1.02036,-0.678424 -1.22176,-0.286879 1.22176,-0.28688 1.02036,-0.678424 0.67597,-0.974341 0.23651,-1.133392 -0.002,-0.571203"
       style="fill:none;stroke:#ff0000;stroke-width:0.191802;stroke-linecap:butt;stroke-linejoin:bevel;stroke-dasharray:none"
       id="path203" />
    <path
       d="m 62.029736,100.60074 h 5.666698 12.267128 12.26712 l 1.22184,-0.28688 1.02035,-0.678417 0.67598,-0.97432 0.23651,-1.13339 -0.0265,-5.004651 -0.0883,-0.411144 -0.52806,-1.012872 -0.26961,-0.297984 -1.02035,-0.678165 -1.22184,-0.287164 1.22184,-0.286879 1.02035,-0.678424 0.67598,-0.974058 0.23651,-1.13365 -0.0265,-5.004651 -0.0883,-0.410887 -0.52806,-1.013129 -0.26961,-0.297984 -1.02035,-0.678165 -1.22184,-0.28688 1.22184,-0.287163 1.02035,-0.67814 0.67598,-0.974342 0.23651,-1.133392 -0.01,-1.667692"
       style="fill:none;stroke:#ff0000;stroke-width:0.191802;stroke-linecap:butt;stroke-linejoin:bevel;stroke-dasharray:none"
       id="path204" />
    <path
       d="m 48.365307,111.36555 h 7.064003 12.267124 12.267128 12.26712 l 1.22184,-0.28695 1.02035,-0.67817 0.67598,-0.97432 0.23651,-1.13367 -0.0265,-5.00465 -0.0883,-0.41086 -0.52806,-1.01306 -0.26961,-0.2978 -1.02035,-0.67835 -1.22184,-0.28698 h 12.267198 12.26712 12.26713 12.26722 l 1.22176,-0.28688 0.61383,-0.408017 0.40653,-0.2704 0.67595,-0.97432 0.23651,-1.13339 -0.0265,-5.004651 -0.0883,-0.411144 -0.52798,-1.012872 -0.26968,-0.297984 -1.02036,-0.678165 -1.22176,-0.287164 h 12.26712"
       style="fill:none;stroke:#ff0000;stroke-width:0.191802;stroke-linecap:butt;stroke-linejoin:bevel;stroke-dasharray:none"
       id="path205" />
    <path
       d="m 47.117319,132.89553 h 8.311991 12.267124 l 1.221762,-0.28724 1.020432,-0.67806 0.675897,-0.97431 0.236511,-1.13368 -0.0265,-5.00447 -0.08832,-0.41115 -0.527979,-1.01276 -0.269608,-0.29809 -1.020432,-0.67835 -1.221762,-0.28688 1.221762,-0.28695 1.020432,-0.67835 0.675897,-0.97432 0.236511,-1.13349 -0.0265,-5.00465 -0.08832,-0.41115 -0.527979,-1.01276 -0.269608,-0.29809 -1.020432,-0.67806 -1.221762,-0.28717 1.221762,-0.28695 1.020432,-0.67817 0.675897,-0.97432 0.236511,-1.13367 -0.0265,-5.00465 -0.08832,-0.41086 -0.527979,-1.01306 -0.269608,-0.2978 -1.020432,-0.67835 -1.221762,-0.28698 1.221762,-0.28688 1.020432,-0.678417 0.675897,-0.97432 0.236511,-1.13339 -0.01963,-3.86015"
       style="fill:none;stroke:#ff0000;stroke-width:0.191802;stroke-linecap:butt;stroke-linejoin:bevel;stroke-dasharray:none"
       id="path206" />
    <path
       d="m 83.108392,214.09082 -0.0172,-3.15413 -0.0883,-0.41086 -0.52798,-1.01305 -0.26961,-0.29809 -1.02036,-0.67806 -1.22183,-0.28696 1.22183,-0.28716 1.02036,-0.67817 0.6759,-0.97431 0.23651,-1.13368 -0.0265,-5.00436 -0.0883,-0.41115 -0.52798,-1.01287 -0.26961,-0.29798 -1.02036,-0.67835 -1.22183,-0.28696 1.22183,-0.28688 1.02036,-0.67845 0.6759,-0.97431 0.23651,-1.13339 -0.0265,-5.00466 -0.0883,-0.41114 -0.52798,-1.01287 -0.26961,-0.29799 -1.02036,-0.67816 -1.22183,-0.28714 1.22183,-0.28688 1.02036,-0.67816 0.6759,-0.97435 0.23651,-1.13365 -0.0265,-5.00465 -0.0883,-0.41088 -0.52798,-1.01313 -0.26961,-0.29773 -1.02036,-0.67842 -1.22183,-0.28688 1.22183,-0.28688 1.02036,-0.67843 0.6759,-0.97434 0.23651,-1.13339 -0.0265,-5.00473 -0.0883,-0.41107 -0.52798,-1.01284 -0.26961,-0.29801 -1.02036,-0.67814 -1.22183,-0.28716 1.22183,-0.28688 1.02036,-0.67843 0.6759,-0.97405 0.23651,-1.13368 -0.0265,-5.00473 -0.0883,-0.41086 -0.52798,-1.01305 -0.26961,-0.29773 -1.02036,-0.67842 -1.22183,-0.28688 1.22183,-0.28716 1.02036,-0.67817 0.6759,-0.97432 0.23651,-1.13339 -0.0265,-5.00475 -0.0883,-0.41112 -0.52798,-1.01279 -0.26961,-0.29799 -1.02036,-0.67842 -1.22183,-0.28688 1.22183,-0.28688 1.02036,-0.67845 0.6759,-0.97432 0.23651,-1.13339 -0.0265,-5.00475 -0.0883,-0.41086 -0.52798,-1.01306 -0.26961,-0.29798 -1.02036,-0.67817 -1.22183,-0.28688 1.22183,-0.28724 1.02036,-0.67806 0.6759,-0.97431 0.23651,-1.13368 -0.0265,-5.00447 -0.0883,-0.41115 -0.52798,-1.01276 -0.26961,-0.29809 -1.02036,-0.67835 -1.22183,-0.28688 1.22183,-0.28695 1.02036,-0.67835 0.6759,-0.97432 0.23651,-1.13349 -0.0265,-5.00465 -0.0883,-0.41115 -0.52798,-1.01276 -0.26961,-0.29809 -1.02036,-0.67806 -1.22183,-0.28717 1.22183,-0.28695 1.02036,-0.67817 0.6759,-0.97432 0.23651,-1.13367 -0.0265,-5.00465 -0.0883,-0.41086 -0.52798,-1.01306 -0.26961,-0.2978 -1.02036,-0.67835 -1.22183,-0.28698 1.22183,-0.28688 1.02036,-0.678417 0.6759,-0.97432 0.23651,-1.13339 -0.0265,-5.004651 -0.0883,-0.411144 -0.52798,-1.012872 -0.26961,-0.297984 -1.02036,-0.678165 -1.22183,-0.287164 1.22183,-0.286879 1.02036,-0.678424 0.6759,-0.974058 0.23651,-1.13365 -0.0147,-2.763665"
       style="fill:none;stroke:#ff0000;stroke-width:0.191802;stroke-linecap:butt;stroke-linejoin:bevel;stroke-dasharray:none"
       id="path207" />
    <path
       d="m 143.91908,131.38581 0.29834,-0.42989 0.23651,-1.13368 -0.0265,-5.00447 -0.0883,-0.41115 -0.52798,-1.01276 -0.26968,-0.29809 -1.02036,-0.67835 -1.22176,-0.28688 H 129.03212 116.765 104.49787 l 1.22177,-0.28695 1.02035,-0.67835 0.67598,-0.97432 0.23651,-1.13349 -0.0265,-5.00465 -0.0883,-0.41115 -0.52796,-1.01276 -0.26971,-0.29809 -1.02035,-0.67806 -1.22177,-0.28717 1.22177,-0.28695 1.02035,-0.67817 0.67598,-0.97432 0.23651,-1.13367 -0.0265,-5.00465 -0.0883,-0.41086 -0.52796,-1.01306 -0.26971,-0.2978 -1.02035,-0.67835 -1.22177,-0.28698 1.22177,-0.28688 1.02035,-0.678417 0.67598,-0.97432 0.23651,-1.13339 -0.0265,-5.004651 -0.0883,-0.411144 -0.52796,-1.012872 -0.26971,-0.297984 -1.02035,-0.678165 -1.22177,-0.287164 h 12.26713 12.26712 12.26723 l 1.22176,-0.286879 0.61382,-0.40802 0.40654,-0.270404 0.67594,-0.974058 0.23651,-1.13365 -0.0265,-5.004651 -0.0883,-0.410887 -0.52798,-1.013129 -0.26968,-0.297984 -1.02036,-0.678165 -1.22176,-0.28688 h 12.26713"
       style="fill:none;stroke:#ff0000;stroke-width:0.191802;stroke-linecap:butt;stroke-linejoin:bevel;stroke-dasharray:none"
       id="path208" />
    <path
       d="m 131.95022,130.95592 0.23651,-1.13368 -0.0265,-5.00447 -0.0883,-0.41115 -0.52796,-1.01276 -0.2696,-0.29809 -1.02036,-0.67835 -1.22186,-0.28688 1.22186,-0.28695 1.02036,-0.67835 0.67587,-0.97432 0.23651,-1.13349 -0.0265,-5.00465 -0.0883,-0.41115 -0.52796,-1.01276 -0.2696,-0.29809 -1.02036,-0.67806 -1.22186,-0.28717 1.22186,-0.28695 1.02036,-0.67817 0.67587,-0.97432 0.23651,-1.13367 -0.0265,-5.00465 -0.0883,-0.41086 -0.52796,-1.01306 -0.2696,-0.2978 -1.02036,-0.67835 -1.22186,-0.28698 1.22186,-0.28688 1.02036,-0.678417 0.67587,-0.97432 0.23651,-1.13339 -0.0265,-5.004651 -0.0883,-0.411144 -0.52796,-1.012872 -0.2696,-0.297984 -1.02036,-0.678165 -1.22186,-0.287164 1.22186,-0.286879 1.02036,-0.678424 0.67587,-0.974058 0.23651,-1.13365 -0.0265,-5.004651 -0.0883,-0.410887 -0.52796,-1.013129 -0.2696,-0.297984 -1.02036,-0.678165 -1.22186,-0.28688 1.22186,-0.287163 1.02036,-0.67814 0.67587,-0.974342 0.23651,-1.133392 -0.0265,-5.004729 -0.0883,-0.411067 -0.52796,-1.012845 -0.2696,-0.29801 -1.02036,-0.678424 -1.22186,-0.286879 1.22186,-0.28688 1.02036,-0.678424 0.67587,-0.974341 0.23651,-1.133392 -0.0265,-5.004729 -0.0883,-0.410886 -0.52796,-1.013027 -0.2696,-0.298009 -1.02036,-0.678166 -1.22186,-0.286854 1.22186,-0.287163 1.02036,-0.678166 0.67587,-0.974316 0.23651,-1.133676 -0.0265,-5.00447 -0.0883,-0.411145 -0.52796,-1.012768 -0.2696,-0.297984 -1.02036,-0.678449 -0.20462,-0.04803"
       style="fill:none;stroke:#ff0000;stroke-width:0.191802;stroke-linecap:butt;stroke-linejoin:bevel;stroke-dasharray:none"
       id="path209" />
    <path
       d="m 95.369632,223.75002 -0.01,-2.04834 -0.0883,-0.41114 -0.52805,-1.01277 -0.26961,-0.29798 -1.02036,-0.67843 -1.22183,-0.28688 1.22183,-0.28698 1.02036,-0.67835 0.67597,-0.97431 0.23651,-1.1335 -0.0265,-5.00465 -0.0883,-0.41086 -0.52805,-1.01305 -0.26961,-0.29809 -1.02036,-0.67806 -1.22183,-0.28696 1.22183,-0.28716 1.02036,-0.67817 0.67597,-0.97431 0.23651,-1.13368 -0.0265,-5.00436 -0.0883,-0.41115 -0.52805,-1.01287 -0.26961,-0.29798 -1.02036,-0.67835 -1.22183,-0.28696 1.22183,-0.28688 1.02036,-0.67845 0.67597,-0.97431 0.23651,-1.13339 -0.0265,-5.00466 -0.0883,-0.41114 -0.52805,-1.01287 -0.26961,-0.29799 -1.02036,-0.67816 -1.22183,-0.28714 1.22183,-0.28688 1.02036,-0.67816 0.67597,-0.97435 0.23651,-1.13365 -0.0265,-5.00465 -0.0883,-0.41088 -0.52805,-1.01313 -0.26961,-0.29773 -1.02036,-0.67842 -1.22183,-0.28688 1.22183,-0.28688 1.02036,-0.67843 0.67597,-0.97434 0.23651,-1.13339 -0.0265,-5.00473 -0.0883,-0.41107 -0.52805,-1.01284 -0.26961,-0.29801 -1.02036,-0.67814 -1.22183,-0.28716 1.22183,-0.28688 1.02036,-0.67843 0.67597,-0.97405 0.23651,-1.13368 -0.0265,-5.00473 -0.0883,-0.41086 -0.52805,-1.01305 -0.26961,-0.29773 -1.02036,-0.67842 -1.22183,-0.28688 1.22183,-0.28716 1.02036,-0.67817 0.67597,-0.97432 0.23651,-1.13339 -0.0265,-5.00475 -0.0883,-0.41112 -0.52805,-1.01279 -0.26961,-0.29799 -1.02036,-0.67842 -1.22183,-0.28688 1.22183,-0.28688 1.02036,-0.67845 0.67597,-0.97432 0.23651,-1.13339 -0.0265,-5.00475 -0.0883,-0.41086 -0.52805,-1.01306 -0.26961,-0.29798 -1.02036,-0.67817 -1.22183,-0.28688 1.22183,-0.28724 1.02036,-0.67806 0.67597,-0.97431 0.23651,-1.13368 -0.0265,-5.00447 -0.0883,-0.41115 -0.52805,-1.01276 -0.26961,-0.29809 -1.02036,-0.67835 -1.22183,-0.28688 1.22183,-0.28695 1.02036,-0.67835 0.67597,-0.97432 0.23651,-1.13349 -0.0265,-5.00465 -0.0883,-0.41115 -0.52805,-1.01276 -0.26961,-0.29809 -1.02036,-0.67806 -1.22183,-0.28717 h 12.267198 12.26712 12.26712 12.26723 l 1.22176,-0.28695 0.61382,-0.40797 0.40654,-0.2702 0.67594,-0.97432 0.23651,-1.13367 -0.0265,-5.00465 -0.0883,-0.41086 -0.52798,-1.01306 -0.26968,-0.2978 -1.02036,-0.67835 -1.22176,-0.28698 h 12.26713"
       style="fill:none;stroke:#ff0000;stroke-width:0.191802;stroke-linecap:butt;stroke-linejoin:bevel;stroke-dasharray:none"
       id="path210" />
    <path
       d="m 153.56647,122.13054 h -12.26712 l 1.22176,-0.28695 0.61383,-0.40797 0.40653,-0.27038 0.67595,-0.97432 0.23651,-1.13349 -0.0265,-5.00465 -0.0883,-0.41115 -0.52798,-1.01276 -0.26968,-0.29809 -1.02036,-0.67806 -1.22176,-0.28717 h 12.26712"
       style="fill:none;stroke:#ff0000;stroke-width:0.191802;stroke-linecap:butt;stroke-linejoin:bevel;stroke-dasharray:none"
       id="path211" />
    <path
       d="m 143.13494,261.37898 0.40653,-0.27012 0.67595,-0.97434 0.23651,-1.13365 -0.0265,-5.00447 -0.0883,-0.41115 -0.52798,-1.01305 -0.26968,-0.29772 -1.02036,-0.67843 -1.22176,-0.28688 h 12.26712"
       style="fill:none;stroke:#ff0000;stroke-width:0.191802;stroke-linecap:butt;stroke-linejoin:bevel;stroke-dasharray:none"
       id="path212" />
    <path
       d="m 136.95697,140.04536 -4.40019,-8.01547 10.62281,-6.46036 4.40001,8.01546 z"
       style="fill:none;stroke:#000000;stroke-width:0.191802;stroke-linecap:butt;stroke-linejoin:bevel;stroke-dasharray:none"
       id="path216" />
    <path
       d="m 147.5796,164.50098 -4.40028,8.01527 -10.62281,-6.46092 4.40019,-8.01553 z"
       style="fill:none;stroke:#000000;stroke-width:0.191802;stroke-linecap:butt;stroke-linejoin:bevel;stroke-dasharray:none"
       id="path217" />
    <path
       d="m 156.71124,191.65154 0.01,-1.85873 -0.23651,-1.1335 -0.67587,-0.97432 -0.30796,-0.26464 -1.10551,-0.55599 -0.82873,-0.14462 1.22177,-0.28688 0.71247,-0.41341 0.80399,-0.88915 0.3899,-1.0975 v -5.39075 l -0.3899,-1.09731 -0.80399,-0.88907 -1.10551,-0.55599 -0.82873,-0.14462 0.41925,-0.0486 1.17303,-0.4248 0.91953,-0.78994 0.40626,-0.67635 0.23651,-1.1334 -5.1e-4,-1.88076 h -4.54396 v -43.90085 h 4.54464 l -1.7e-4,-1.89673 -0.23651,-1.13339 -0.40626,-0.67633 -0.91953,-0.79004 -1.17303,-0.4248 -0.41925,-0.0486 0.41925,-0.0486 1.17303,-0.42481 0.91953,-0.79003 0.52795,-1.01277 0.11482,-0.79696 v -4.61883 l -0.11482,-0.79696 -0.30153,-0.68635 -0.80399,-0.88915 -0.71247,-0.41342 -1.22177,-0.28716 1.22177,-0.28696 1.02043,-0.67816 0.67587,-0.97432 0.21001,-0.74758 v -2.52898"
       style="fill:none;stroke:#000000;stroke-width:0.191802;stroke-linecap:butt;stroke-linejoin:bevel;stroke-dasharray:none"
       id="path218" />
    <path
       d="m 156.6946,105.37484 v -2.08705 l -0.3899,-1.09732 -0.80399,-0.88907 -0.71247,-0.41368 -1.22177,-0.28698 0.41925,-0.0486 1.17303,-0.4248 0.91953,-0.789937 0.40626,-0.67633 0.23651,-1.13339 -0.0265,-5.004651 -0.3899,-1.0976 -0.80399,-0.88907 -0.71247,-0.413495 -1.22176,-0.287164 0.82872,-0.144614 0.76355,-0.328508 0.91953,-0.789958 0.40626,-0.676332 0.23651,-1.133651 -0.0265,-5.004651 -0.3899,-1.097316 -0.22646,-0.3267 -0.91952,-0.789932 -0.76356,-0.328508 -0.82872,-0.144614 1.22176,-0.287164 1.02044,-0.67814 0.67587,-0.974341 0.21001,-0.747581 v -5.39054 l -0.3899,-1.097497 -0.80399,-0.889174 -1.10552,-0.555966 -0.82872,-0.144615 0.82872,-0.144614 1.10552,-0.555992 0.80399,-0.889148 0.3899,-1.097497 v -5.39054 l -0.3899,-1.097497 -0.22645,-0.326416 -0.91952,-0.789958 -0.76356,-0.328508 -0.82872,-0.144614 1.22176,-0.287164 1.02043,-0.678165 0.26961,-0.297984 0.52795,-1.012871 0.11483,-0.797138 -0.0265,-5.00447 -0.3899,-1.097496 -0.80399,-0.889149 -0.34196,-0.227251 -1.17304,-0.424806 -0.41924,-0.04855 1.22176,-0.28688 0.37052,-0.186449 0.91952,-0.789933 0.40626,-0.676332 0.23652,-1.133392 -0.0265,-5.004754 -0.3899,-1.097497 -0.80399,-0.889148 -0.71248,-0.413417 -1.22176,-0.287138 0.82872,-0.144615 1.10552,-0.555708 0.57756,-0.562628 0.40627,-0.676358 0.21001,-0.747658 v -5.390747 l -0.21001,-0.747296 -0.40627,-0.676617 -108.959999,85.838244 -5.15e-4,35.19938"
       style="fill:none;stroke:#000000;stroke-width:0.191802;stroke-linecap:butt;stroke-linejoin:bevel;stroke-dasharray:none"
       id="path222" />
    <path
       d="m 47.11776,148.322 -4.41e-4,37.41534 108.960961,85.83825 0.40626,-0.67634 0.23651,-1.13339 v -4.61866 l -0.23651,-1.13367 -0.67587,-0.97432 -1.02043,-0.67817 -1.22177,-0.28716 1.22177,-0.28688 1.02043,-0.67814 0.67587,-0.97434 0.23651,-1.13365 -0.0265,-5.00447 -0.0883,-0.41115 -0.52795,-1.01305 -0.26961,-0.29772 -1.02043,-0.67843 -1.22177,-0.28688 1.22177,-0.28688 1.02043,-0.67842 0.67587,-0.97434 0.23651,-1.13339 -0.0265,-5.00473 -0.3899,-1.0975 -0.80399,-0.88915 -1.10551,-0.55599 -0.82872,-0.14461 1.22176,-0.28688 0.71247,-0.41352 0.80399,-0.88933 0.3899,-1.09732 0.0265,-5.00465 -0.23651,-1.13368 -0.40626,-0.67633 -0.91953,-0.78993 -0.76355,-0.32851 -0.82873,-0.14461 1.22177,-0.28717 1.02043,-0.67814 0.26961,-0.298 0.52795,-1.01288 0.0883,-0.41112 0.0265,-5.00465 -0.11482,-0.79695 -0.30153,-0.68638 -0.80399,-0.88915 -1.10551,-0.55599 -0.82873,-0.14461 1.22177,-0.28696 0.71247,-0.4137 0.57757,-0.56245 0.40626,-0.67651 0.21001,-0.74769 v -5.39046 l -0.3899,-1.0975 -0.80399,-0.88915 -1.10551,-0.5557 -0.82872,-0.14462 1.22176,-0.28716 0.71247,-0.41342 0.80399,-0.88915 0.3899,-1.09749 v -5.39047 l -0.21001,-0.74768 -0.67587,-0.97432 -0.64992,-0.49194 -1.17303,-0.42481 -0.41925,-0.0486 1.22177,-0.28688 0.37051,-0.18645 0.91953,-0.78993 0.52795,-1.01277 0.0883,-0.41114 0.0123,-2.37119"
       style="fill:none;stroke:#000000;stroke-width:0.191802;stroke-linecap:butt;stroke-linejoin:bevel;stroke-dasharray:none"
       id="path223" />
  </g>
</svg>
