<?xml version="1.0" encoding="UTF-8" standalone="no"?>
<!-- Created with Inkscape (http://www.inkscape.org/) -->

<svg
   width="210mm"
   height="297mm"
   viewBox="0 0 210 297"
   version="1.1"
   id="svg1"
   inkscape:version="1.4.2 (f4327f4, 2025-05-13)"
   sodipodi:docname="acoperis-frontal-dreapta.svg"
   xmlns:inkscape="http://www.inkscape.org/namespaces/inkscape"
   xmlns:sodipodi="http://sodipodi.sourceforge.net/DTD/sodipodi-0.dtd"
   xmlns="http://www.w3.org/2000/svg"
   xmlns:svg="http://www.w3.org/2000/svg">
  <sodipodi:namedview
     id="namedview1"
     pagecolor="#505050"
     bordercolor="#eeeeee"
     borderopacity="1"
     inkscape:showpageshadow="0"
     inkscape:pageopacity="0"
     inkscape:pagecheckerboard="0"
     inkscape:deskcolor="#505050"
     inkscape:document-units="mm"
     inkscape:zoom="0.74208053"
     inkscape:cx="233.80212"
     inkscape:cy="328.1315"
     inkscape:window-width="1920"
     inkscape:window-height="1051"
     inkscape:window-x="-9"
     inkscape:window-y="-9"
     inkscape:window-maximized="1"
     inkscape:current-layer="layer1" />
  <defs
     id="defs1" />
  <g
     inkscape:label="Layer 1"
     inkscape:groupmode="layer"
     id="layer1">
    <path
       d="m 155.60115,86.414838 0.10581,20.968752"
       style="fill:none;stroke:#ff0000;stroke-width:0.477698;stroke-linecap:butt;stroke-linejoin:bevel;stroke-dasharray:none"
       id="path340"
       sodipodi:nodetypes="cc" />
    <path
       d="m 129.28225,168.39829 -0.15327,-30.25055 -0.15519,-30.64073 0.72781,3.04856 1.69765,2.54151 1.55631,1.23142 2.73046,0.96121 12.42846,0.006 2.81165,-0.60302 2.41104,-1.69949 1.67187,-2.5564 0.69773,-3.05635 0.0192,3.67267"
       style="fill:none;stroke:#ff0000;stroke-width:0.477698;stroke-linecap:butt;stroke-linejoin:bevel;stroke-dasharray:none"
       id="path341"
       sodipodi:nodetypes="ccccccccccccc" />
    <path
       d="m 101.0156,173.25132 0.8387,-1.28289 0.69767,-3.05628 0.48674,2.03911"
       style="fill:none;stroke:#ff0000;stroke-width:0.477698;stroke-linecap:butt;stroke-linejoin:bevel;stroke-dasharray:none"
       id="path342" />
    <path
       d="m 75.664051,138.39465 0.728068,3.04875 1.696752,2.54151 1.556949,1.23123 2.730463,0.96115 12.428461,0.006 2.81172,-0.60302 2.411216,-1.69949 1.67161,-2.55646 0.69774,-3.05647 0.72781,3.04869 1.69701,2.54157 1.55695,1.23117 2.7304,0.96121 12.42782,0.006 2.81235,-0.60302 2.41104,-1.69943 1.67187,-2.55646 0.69702,-3.05653 0.72782,3.04875 1.69765,2.54151 1.5563,1.23123 2.7304,0.96115 12.42853,0.006 0.94681,-0.20285"
       style="fill:none;stroke:#ff0000;stroke-width:0.477698;stroke-linecap:butt;stroke-linejoin:bevel;stroke-dasharray:none"
       id="path343"
       sodipodi:nodetypes="ccccccccccccccccccccccccc" />
    <path
       d="m 59.303138,140.17522 0.03206,6.12813 -3.690811,-0.002 -2.729758,-0.96122 -1.556692,-1.23117 -1.697714,-2.54157 -0.727811,-3.04875"
       style="fill:none;stroke:#ff0000;stroke-width:0.477698;stroke-linecap:butt;stroke-linejoin:bevel;stroke-dasharray:none"
       id="path345"
       sodipodi:nodetypes="ccccccc" />
    <path
       d="m 75.403234,86.785168 0.105815,20.968752 0.728004,3.0485 1.697008,2.54157 1.556756,1.23141 2.7304,0.96116 12.428527,0.006 2.81165,-0.60302 2.41122,-1.69949 1.671676,-2.55646 0.69767,-3.05629 -0.0321,-6.10503"
       style="fill:none;stroke:#ff0000;stroke-width:0.477698;stroke-linecap:butt;stroke-linejoin:bevel;stroke-dasharray:none"
       id="path346"
       sodipodi:nodetypes="cccccccccccc" />
    <path
       d="m 99.425884,175.05867 -1.65449,1.16571 -2.81165,0.60302 -12.428523,-0.006 -2.730399,-0.96115 -1.556949,-1.23141 -1.696816,-2.54157 -0.728004,-3.04851 -0.697734,3.05629 -1.670972,2.55646 -2.411224,1.69949 -2.812101,0.60302 -12.428718,-0.006 -2.729758,-0.96115 -1.556948,-1.23142 -1.697458,-2.54157 -0.728068,-3.0485"
       style="fill:none;stroke:#ff0000;stroke-width:0.477698;stroke-linecap:butt;stroke-linejoin:bevel;stroke-dasharray:none"
       id="path347"
       sodipodi:nodetypes="ccccccccccccccccc" />
    <path
       d="m 102.56492,171.49024 -0.0128,-2.57809 -0.15519,-30.64092 -0.15519,-30.64073 0.728,3.0485 1.69675,2.54151 1.55701,1.23147 2.7304,0.96116 12.42782,0.006 2.81236,-0.60302 2.41097,-1.69948 1.67193,-2.55647 0.69703,-3.05628 -0.10581,-20.968812"
       style="fill:none;stroke:#ff0000;stroke-width:0.477698;stroke-linecap:butt;stroke-linejoin:bevel;stroke-dasharray:none"
       id="path348"
       sodipodi:nodetypes="cccccccccccccc" />
    <path
       d="m 72.416443,207.62049 19.109271,-0.0895 0.006,-23.49904 23.021516,-26.17054 6.57692,6.16355 7.485,5.13156 20.63524,-23.45823 -6.57692,-6.16429 -7.48499,-5.1315 40.57384,-46.124512 -0.006,-1.95608 -41.91473,0.19366"
       style="fill:none;stroke:#000000;stroke-width:0.477698;stroke-linecap:butt;stroke-linejoin:bevel;stroke-dasharray:none"
       id="path349"
       sodipodi:nodetypes="cccccccccccc" />
    <path
       d="m 75.517258,128.65311 0.159683,31.1788 -16.513927,0.0754 -0.159684,-31.1788 z"
       style="fill:none;stroke:#000000;stroke-width:0.477698;stroke-linecap:butt;stroke-linejoin:bevel;stroke-dasharray:none"
       id="path350"
       sodipodi:nodetypes="ccccc" />
    <path
       d="m 131.91383,86.524228 -13.71606,0.0631 0.075,14.863782 -32.064428,0.1483 -0.07503,-14.863782 -37.462894,0.17282 0.576528,113.972342 0.398889,1.79675 1.392263,2.39345 1.403742,1.24747 3.543119,1.37904 14.507812,-0.0674"
       style="fill:none;stroke:#000000;stroke-width:0.477698;stroke-linecap:butt;stroke-linejoin:bevel;stroke-dasharray:none"
       id="path351"
       sodipodi:nodetypes="cccccccccccc" />
    <path
       d="m 133.83773,86.515338 -1.9239,0.006"
       style="fill:none;stroke:#0000ff;stroke-width:0.477698;stroke-linecap:butt;stroke-linejoin:bevel;stroke-dasharray:none"
       id="path352" />
  </g>
</svg>
