<?xml version="1.0" encoding="UTF-8" standalone="no"?>
<!-- Created with Inkscape (http://www.inkscape.org/) -->

<svg
   width="210mm"
   height="297mm"
   viewBox="0 0 210 297"
   version="1.1"
   id="svg1"
   inkscape:version="1.4.2 (f4327f4, 2025-05-13)"
   sodipodi:docname="acoperis-spate.svg"
   xmlns:inkscape="http://www.inkscape.org/namespaces/inkscape"
   xmlns:sodipodi="http://sodipodi.sourceforge.net/DTD/sodipodi-0.dtd"
   xmlns="http://www.w3.org/2000/svg"
   xmlns:svg="http://www.w3.org/2000/svg">
  <sodipodi:namedview
     id="namedview1"
     pagecolor="#505050"
     bordercolor="#eeeeee"
     borderopacity="1"
     inkscape:showpageshadow="0"
     inkscape:pageopacity="0"
     inkscape:pagecheckerboard="0"
     inkscape:deskcolor="#505050"
     inkscape:document-units="mm"
     inkscape:zoom="0.74208053"
     inkscape:cx="352.38763"
     inkscape:cy="718.92467"
     inkscape:window-width="1920"
     inkscape:window-height="1051"
     inkscape:window-x="-9"
     inkscape:window-y="-9"
     inkscape:window-maximized="1"
     inkscape:current-layer="layer1" />
  <defs
     id="defs1" />
  <g
     inkscape:label="Layer 1"
     inkscape:groupmode="layer"
     id="layer1">
    <path
       d="M 44.114583,274.40682 H 55.884438"
       style="fill:none;stroke:#ff0000;stroke-width:0.226225;stroke-linecap:butt;stroke-linejoin:bevel;stroke-dasharray:none"
       id="path18"
       sodipodi:nodetypes="cc" />
    <path
       d="m 44.114583,262.25598 14.602222,0.0548"
       style="fill:none;stroke:#ff0000;stroke-width:0.226225;stroke-linecap:butt;stroke-linejoin:bevel;stroke-dasharray:none"
       id="path20"
       sodipodi:nodetypes="cc" />
    <path
       d="m 44.114583,213.65325 14.602766,0.0548"
       style="fill:none;stroke:#ff0000;stroke-width:0.226225;stroke-linecap:butt;stroke-linejoin:bevel;stroke-dasharray:none"
       id="path21"
       sodipodi:nodetypes="cc" />
    <path
       d="m 44.114583,201.50262 14.602766,0.0545"
       style="fill:none;stroke:#ff0000;stroke-width:0.226225;stroke-linecap:butt;stroke-linejoin:bevel;stroke-dasharray:none"
       id="path22"
       sodipodi:nodetypes="cc" />
    <path
       d="m 44.114583,165.05041 14.603068,0.0548"
       style="fill:none;stroke:#ff0000;stroke-width:0.226225;stroke-linecap:butt;stroke-linejoin:bevel;stroke-dasharray:none"
       id="path23"
       sodipodi:nodetypes="cc" />
    <path
       d="m 44.114583,189.35177 14.602766,0.0548"
       style="fill:none;stroke:#ff0000;stroke-width:0.226225;stroke-linecap:butt;stroke-linejoin:bevel;stroke-dasharray:none"
       id="path24"
       sodipodi:nodetypes="cc" />
    <path
       d="m 44.114583,152.89957 14.603068,0.0548"
       style="fill:none;stroke:#ff0000;stroke-width:0.226225;stroke-linecap:butt;stroke-linejoin:bevel;stroke-dasharray:none"
       id="path25"
       sodipodi:nodetypes="cc" />
    <path
       d="m 44.114583,140.74905 14.603401,0.0545"
       style="fill:none;stroke:#ff0000;stroke-width:0.226225;stroke-linecap:butt;stroke-linejoin:bevel;stroke-dasharray:none"
       id="path26"
       sodipodi:nodetypes="cc" />
    <path
       d="m 44.114583,225.80409 14.602434,0.0545"
       style="fill:none;stroke:#ff0000;stroke-width:0.226225;stroke-linecap:butt;stroke-linejoin:bevel;stroke-dasharray:none"
       id="path27"
       sodipodi:nodetypes="cc" />
    <path
       d="m 44.114583,104.29682 14.603401,0.0548"
       style="fill:none;stroke:#ff0000;stroke-width:0.226225;stroke-linecap:butt;stroke-linejoin:bevel;stroke-dasharray:none"
       id="path28"
       sodipodi:nodetypes="cc" />
    <path
       d="m 44.114583,250.10546 14.602434,0.0548"
       style="fill:none;stroke:#ff0000;stroke-width:0.226225;stroke-linecap:butt;stroke-linejoin:bevel;stroke-dasharray:none"
       id="path29"
       sodipodi:nodetypes="cc" />
    <path
       d="m 44.114583,31.392615 14.604036,0.05451"
       style="fill:none;stroke:#ff0000;stroke-width:0.226225;stroke-linecap:butt;stroke-linejoin:bevel;stroke-dasharray:none"
       id="path30"
       sodipodi:nodetypes="cc" />
    <path
       d="m 44.114583,79.99534 14.603734,0.05451"
       style="fill:none;stroke:#ff0000;stroke-width:0.226225;stroke-linecap:butt;stroke-linejoin:bevel;stroke-dasharray:none"
       id="path31"
       sodipodi:nodetypes="cc" />
    <path
       d="m 134.31289,104.35164 0.51716,-0.0548 14.60191,0.0548 0.51704,-0.0548 14.60192,0.0548 0.51704,-0.0548 h 8.70493"
       style="fill:none;stroke:#ff0000;stroke-width:0.226225;stroke-linecap:butt;stroke-linejoin:bevel;stroke-dasharray:none"
       id="path44"
       sodipodi:nodetypes="ccccccc" />
    <path
       d="m 134.82908,189.35177 14.60225,0.0548 0.51671,-0.0548 14.60225,0.0548 -1.44532,0.47949 -0.80134,0.55528 -0.61111,0.7049 -0.48045,1.23878 -0.0327,5.64861 0.0793,0.34891"
       style="fill:none;stroke:#ff0000;stroke-width:0.226225;stroke-linecap:butt;stroke-linejoin:bevel;stroke-dasharray:none"
       id="path46"
       sodipodi:nodetypes="cccccccccc" />
    <path
       d="m 88.955371,213.70805 0.516738,-0.0548 14.602221,0.0548 -1.44562,0.47949 -0.80134,0.55528 -0.61111,0.70479 -0.48045,1.23878 -0.0327,5.64894 0.29119,1.27942 0.83312,1.09974 1.2579,0.76547 1.50559,0.32413"
       style="fill:none;stroke:#ff0000;stroke-width:0.226225;stroke-linecap:butt;stroke-linejoin:bevel;stroke-dasharray:none"
       id="path47"
       sodipodi:nodetypes="cccccccccccc" />
    <path
       d="m 119.19329,213.70805 0.51682,-0.0548 14.60226,0.0548 -1.44574,0.47949 -0.80135,0.55528 -0.61101,0.70479 -0.48054,1.23878 -0.0212,3.56079"
       style="fill:none;stroke:#ff0000;stroke-width:0.226225;stroke-linecap:butt;stroke-linejoin:bevel;stroke-dasharray:none"
       id="path48"
       sodipodi:nodetypes="cccccccc" />
    <path
       d="m 149.43163,177.25576 0.51674,-0.0548 14.60222,0.0548 0.51683,-0.0548 h 10.24422"
       style="fill:none;stroke:#ff0000;stroke-width:0.226225;stroke-linecap:butt;stroke-linejoin:bevel;stroke-dasharray:none"
       id="path49"
       sodipodi:nodetypes="ccccc" />
    <path
       d="m 104.0753,80.049847 0.51673,-0.05451 14.60222,0.05451 0.51671,-0.05451 14.60225,0.05451 0.51684,-0.05451 h 5.26078"
       style="fill:none;stroke:#ff0000;stroke-width:0.226225;stroke-linecap:butt;stroke-linejoin:bevel;stroke-dasharray:none"
       id="path50" />
    <path
       d="m 104.07496,116.50216 0.51674,-0.0545 14.60222,0.0545"
       style="fill:none;stroke:#ff0000;stroke-width:0.226225;stroke-linecap:butt;stroke-linejoin:bevel;stroke-dasharray:none"
       id="path52" />
    <path
       d="m 164.55092,116.50216 0.51671,-0.0545 h 10.24401"
       style="fill:none;stroke:#ff0000;stroke-width:0.226225;stroke-linecap:butt;stroke-linejoin:bevel;stroke-dasharray:none"
       id="path53"
       sodipodi:nodetypes="ccc" />
    <path
       d="m 164.55029,189.40658 0.51683,-0.0548 h 8.70877"
       style="fill:none;stroke:#ff0000;stroke-width:0.226225;stroke-linecap:butt;stroke-linejoin:bevel;stroke-dasharray:none"
       id="path56" />
    <path
       d="m 88.955704,165.10524 0.516707,-0.0548 14.602249,0.0548 0.51671,-0.0548 14.60225,0.0548 0.51683,-0.0548 14.60222,0.0548 0.51674,-0.0548 14.60222,0.0548 0.51674,-0.0548 14.60222,0.0548 0.51683,-0.0548 h 10.24422"
       style="fill:none;stroke:#ff0000;stroke-width:0.226225;stroke-linecap:butt;stroke-linejoin:bevel;stroke-dasharray:none"
       id="path57"
       sodipodi:nodetypes="ccccccccccccc" />
    <path
       d="m 134.31237,201.55721 0.51671,-0.0545 14.60225,0.0545 -1.44544,0.47949 -0.80122,0.55529 -0.61144,0.70478 -0.48012,1.23879 -0.0272,4.80893"
       style="fill:none;stroke:#ff0000;stroke-width:0.226225;stroke-linecap:butt;stroke-linejoin:bevel;stroke-dasharray:none"
       id="path58"
       sodipodi:nodetypes="cccccccc" />
    <path
       d="m 149.43133,201.55721 0.51671,-0.0545 h 6.98622"
       style="fill:none;stroke:#ff0000;stroke-width:0.226225;stroke-linecap:butt;stroke-linejoin:bevel;stroke-dasharray:none"
       id="path59" />
    <path
       d="m 44.114583,237.95461 14.602434,0.0548 0.516828,-0.0548 14.602264,0.0548"
       style="fill:none;stroke:#ff0000;stroke-width:0.226225;stroke-linecap:butt;stroke-linejoin:bevel;stroke-dasharray:none"
       id="path60"
       sodipodi:nodetypes="cccc" />
    <path
       d="m 44.114583,128.5982 14.603401,0.0548 0.516738,-0.0548 14.602234,0.0548 0.516828,-0.0548 14.602222,0.0548 0.516738,-0.0548 14.602216,0.0548 0.51674,-0.0548 14.60222,0.0548 0.51683,-0.0548 14.60214,0.0548 0.51682,-0.0548 14.60225,0.0548 0.51671,-0.0548 14.60225,0.0548 0.51671,-0.0548 h 10.24401"
       style="fill:none;stroke:#ff0000;stroke-width:0.226225;stroke-linecap:butt;stroke-linejoin:bevel;stroke-dasharray:none"
       id="path63"
       sodipodi:nodetypes="cccccccccccccccccc" />
    <path
       d="m 44.114583,116.44765 14.603401,0.0545 0.516738,-0.0545 14.602234,0.0545"
       style="fill:none;stroke:#ff0000;stroke-width:0.226225;stroke-linecap:butt;stroke-linejoin:bevel;stroke-dasharray:none"
       id="path64"
       sodipodi:nodetypes="cccc" />
    <path
       d="m 44.114583,67.844498 14.603734,0.0548 0.51704,-0.0548 14.601932,0.0548 0.51704,-0.0548 14.601919,0.0548 0.517131,-0.0548 14.601921,0.0548 0.51704,-0.0548 14.60191,0.0548 0.51705,-0.0548 h 3.53845"
       style="fill:none;stroke:#ff0000;stroke-width:0.226225;stroke-linecap:butt;stroke-linejoin:bevel;stroke-dasharray:none"
       id="path65"
       sodipodi:nodetypes="cccccccccccc" />
    <path
       d="m 44.114583,92.145982 14.603734,0.0548 0.516707,-0.0548 14.602265,0.0548"
       style="fill:none;stroke:#ff0000;stroke-width:0.226225;stroke-linecap:butt;stroke-linejoin:bevel;stroke-dasharray:none"
       id="path66"
       sodipodi:nodetypes="cccc" />
    <path
       d="m 72.847023,261.93217 -1.257872,-0.76544 -0.833119,-1.09978 -0.291192,-1.27959 0.03266,-5.64906 0.480543,-1.23846 0.61114,-0.70481 0.801218,-0.55557 1.445742,-0.4792"
       style="fill:none;stroke:#ff0000;stroke-width:0.226225;stroke-linecap:butt;stroke-linejoin:bevel;stroke-dasharray:none"
       id="path67"
       sodipodi:nodetypes="ccccccccc" />
    <path
       d="m 85.71476,252.88503 0.382209,-0.98519 0.611141,-0.70481 0.801309,-0.55557 1.44565,-0.4792 -14.602253,-0.0548 -0.516707,0.0548 -14.602264,-0.0548 -0.516828,0.0548 -1.445621,0.4792 -0.801339,0.55557 -0.61111,0.70481 -0.480452,1.23846 -0.03266,5.64906 0.291192,1.27959 0.832998,1.09978 1.257902,0.76544 1.505582,0.32381"
       style="fill:none;stroke:#ff0000;stroke-width:0.226225;stroke-linecap:butt;stroke-linejoin:bevel;stroke-dasharray:none"
       id="path68"
       sodipodi:nodetypes="cccccccccccccccccc" />
    <path
       d="m 164.55092,128.65301 -1.44565,0.47949 -0.801,0.55528 -0.61144,0.70479 -0.48024,1.23878 -0.0329,5.64905 0.2915,1.2793 0.83278,1.09978 1.25787,0.76543 1.5058,0.32414"
       style="fill:none;stroke:#ff0000;stroke-width:0.226225;stroke-linecap:butt;stroke-linejoin:bevel;stroke-dasharray:none"
       id="path69"
       sodipodi:nodetypes="cccccccccc" />
    <path
       d="m 89.472744,140.74905 -1.505915,-0.32414 -1.257873,-0.76543 -0.832694,-1.09978 -0.291495,-1.2793 0.03296,-5.64905 0.480121,-1.23878 0.611473,-0.70479 0.801005,-0.55528 1.445711,-0.47949"
       style="fill:none;stroke:#ff0000;stroke-width:0.226225;stroke-linecap:butt;stroke-linejoin:bevel;stroke-dasharray:none"
       id="path70"
       sodipodi:nodetypes="cccccccccc" />
    <path
       d="m 134.31289,128.65301 -1.44563,0.47949 -0.80101,0.55528 -0.61144,0.70479 -0.48015,1.23878 -0.0329,5.64905 0.29149,1.2793 0.83267,1.09978 1.2579,0.76543 1.50588,0.32414"
       style="fill:none;stroke:#ff0000;stroke-width:0.226225;stroke-linecap:butt;stroke-linejoin:bevel;stroke-dasharray:none"
       id="path71"
       sodipodi:nodetypes="cccccccccc" />
    <path
       d="m 104.5917,140.74905 -1.50579,-0.32414 -1.25791,-0.76543 -0.83278,-1.09978 -0.29149,-1.2793 0.0329,-5.64905 0.48024,-1.23878 0.61135,-0.70479 0.801,-0.55528 1.44571,-0.47949"
       style="fill:none;stroke:#ff0000;stroke-width:0.226225;stroke-linecap:butt;stroke-linejoin:bevel;stroke-dasharray:none"
       id="path72"
       sodipodi:nodetypes="cccccccccc" />
    <path
       d="m 149.94867,140.74905 -1.5058,-0.32414 -1.25799,-0.76543 -0.83266,-1.09978 -0.29149,-1.2793 0.0329,-5.64905 0.48025,-1.23878 0.61135,-0.70479 0.801,-0.55528 1.44575,-0.47949"
       style="fill:none;stroke:#ff0000;stroke-width:0.226225;stroke-linecap:butt;stroke-linejoin:bevel;stroke-dasharray:none"
       id="path73"
       sodipodi:nodetypes="cccccccccc" />
    <path
       d="m 119.71075,140.74905 -1.50588,-0.32414 -1.25791,-0.76543 -0.83278,-1.09978 -0.2915,-1.2793 0.0329,-5.64905 0.48015,-1.23878 0.61144,-0.70479 0.80101,-0.55528 1.44563,-0.47949"
       style="fill:none;stroke:#ff0000;stroke-width:0.226225;stroke-linecap:butt;stroke-linejoin:bevel;stroke-dasharray:none"
       id="path74"
       sodipodi:nodetypes="cccccccccc" />
    <path
       d="m 58.717984,128.65301 -1.44562,0.47949 -0.801006,0.55528 -0.611473,0.70479 -0.480241,1.23878 -0.03296,5.64905 0.291495,1.2793 0.832785,1.09978 1.257903,0.76543 1.505794,0.32414"
       style="fill:none;stroke:#ff0000;stroke-width:0.226225;stroke-linecap:butt;stroke-linejoin:bevel;stroke-dasharray:none"
       id="path75"
       sodipodi:nodetypes="cccccccccc" />
    <path
       d="m 104.59137,152.89957 -1.50546,-0.32381 -1.25791,-0.76577 -0.83308,-1.09977 -0.055,-0.24135"
       style="fill:none;stroke:#ff0000;stroke-width:0.226225;stroke-linecap:butt;stroke-linejoin:bevel;stroke-dasharray:none"
       id="path76" />
    <path
       d="m 119.19392,140.80356 -1.44562,0.47949 -0.80134,0.55526 -0.61111,0.70481 -0.48045,1.23878 -0.0327,5.64902 0.29119,1.2793 0.83308,1.09977 1.2579,0.76577 1.50559,0.32381"
       style="fill:none;stroke:#ff0000;stroke-width:0.226225;stroke-linecap:butt;stroke-linejoin:bevel;stroke-dasharray:none"
       id="path77"
       sodipodi:nodetypes="cccccccccc" />
    <path
       d="m 100.96918,143.18179 0.24765,-0.63867 0.61111,-0.70481 0.80125,-0.55526 1.44571,-0.47949"
       style="fill:none;stroke:#ff0000;stroke-width:0.226225;stroke-linecap:butt;stroke-linejoin:bevel;stroke-dasharray:none"
       id="path78" />
    <path
       d="m 134.82941,152.89957 -1.50558,-0.32381 -1.2579,-0.76577 -0.83301,-1.09977 -0.29119,-1.2793 0.0327,-5.64902 0.48045,-1.23878 0.61111,-0.70481 0.80134,-0.55526 1.44562,-0.47949"
       style="fill:none;stroke:#ff0000;stroke-width:0.226225;stroke-linecap:butt;stroke-linejoin:bevel;stroke-dasharray:none"
       id="path79" />
    <path
       d="m 146.29685,150.4689 0.055,0.24135 0.83301,1.09978 1.25799,0.76576 1.50549,0.32381"
       style="fill:none;stroke:#ff0000;stroke-width:0.226225;stroke-linecap:butt;stroke-linejoin:bevel;stroke-dasharray:none"
       id="path80" />
    <path
       d="m 165.06742,152.89957 -1.50558,-0.32381 -1.25788,-0.76577 -0.83311,-1.09977 -0.29119,-1.2793 0.0327,-5.64902 0.48045,-1.23878 0.61115,-0.70481 0.8013,-0.55526 1.44565,-0.47949"
       style="fill:none;stroke:#ff0000;stroke-width:0.226225;stroke-linecap:butt;stroke-linejoin:bevel;stroke-dasharray:none"
       id="path81"
       sodipodi:nodetypes="cccccccccc" />
    <path
       d="m 74.353784,140.74905 -1.505915,-0.32414 -1.257872,-0.76543 -0.832786,-1.09978 -0.291495,-1.2793 0.03296,-5.64905 0.480119,-1.23878 0.611474,-0.70479 0.801006,-0.55528 1.44562,-0.47949"
       style="fill:none;stroke:#ff0000;stroke-width:0.226225;stroke-linecap:butt;stroke-linejoin:bevel;stroke-dasharray:none"
       id="path82"
       sodipodi:nodetypes="cccccccccc" />
    <path
       d="m 146.32618,143.18179 0.24765,-0.63867 0.61103,-0.70481 0.80133,-0.55526 1.44574,-0.47949"
       style="fill:none;stroke:#ff0000;stroke-width:0.226225;stroke-linecap:butt;stroke-linejoin:bevel;stroke-dasharray:none"
       id="path83" />
    <path
       d="m 89.472411,152.89957 -1.505582,-0.32381 -1.257873,-0.76577 -0.832997,-1.09977 -0.291192,-1.2793 0.03266,-5.64902 0.480452,-1.23878 0.611141,-0.70481 0.801339,-0.55526 1.445711,-0.47949"
       style="fill:none;stroke:#ff0000;stroke-width:0.226225;stroke-linecap:butt;stroke-linejoin:bevel;stroke-dasharray:none"
       id="path84" />
    <path
       d="m 175.31164,140.74905 h -10.24401 l -0.51671,0.0545 -14.60225,-0.0545 -0.51671,0.0545 -14.60225,-0.0545 -0.51682,0.0545 -14.60214,-0.0545 -0.51683,0.0545 -14.60222,-0.0545 -0.51674,0.0545 -14.602216,-0.0545 -0.516738,0.0545 -14.602222,-0.0545 -0.516828,0.0545 -14.602234,-0.0545 -0.516738,0.0545 -1.44562,0.47949 -0.801339,0.55526 -0.61114,0.70481 -0.480453,1.23878 -0.03266,5.64902 0.291193,1.2793 0.833118,1.09977 1.257902,0.76577 1.505552,0.32381"
       style="fill:none;stroke:#ff0000;stroke-width:0.226225;stroke-linecap:butt;stroke-linejoin:bevel;stroke-dasharray:none"
       id="path85"
       sodipodi:nodetypes="cccccccccccccccccccccccccc" />
    <path
       d="m 73.836956,140.80356 -1.445621,0.47949 -0.801338,0.55526 -0.611141,0.70481 -0.480452,1.23878 -0.03266,5.64902 0.291193,1.2793 0.832997,1.09977 1.257872,0.76577 1.505583,0.32381"
       style="fill:none;stroke:#ff0000;stroke-width:0.226225;stroke-linecap:butt;stroke-linejoin:bevel;stroke-dasharray:none"
       id="path86"
       sodipodi:nodetypes="cccccccccc" />
    <path
       d="m 119.19362,152.9544 -1.44532,0.47949 -0.80134,0.55526 -0.61111,0.70481 -0.48045,1.23878 -0.0327,5.64902 0.29119,1.2793 0.83308,1.09978 1.25758,0.76576 1.50591,0.32381"
       style="fill:none;stroke:#ff0000;stroke-width:0.226225;stroke-linecap:butt;stroke-linejoin:bevel;stroke-dasharray:none"
       id="path87"
       sodipodi:nodetypes="cccccccccc" />
    <path
       d="m 149.43163,152.9544 -1.44541,0.47949 -0.80134,0.55526 -0.61102,0.70481 -0.48054,1.23878 -0.0327,5.64902 0.29119,1.2793 0.83301,1.09978 1.25769,0.76576 1.50578,0.32381"
       style="fill:none;stroke:#ff0000;stroke-width:0.226225;stroke-linecap:butt;stroke-linejoin:bevel;stroke-dasharray:none"
       id="path88"
       sodipodi:nodetypes="cccccccccc" />
    <path
       d="m 165.06742,165.05041 -1.50589,-0.32381 -1.25757,-0.76576 -0.83311,-1.09978 -0.29119,-1.2793 0.0327,-5.64902 0.48045,-1.23878 0.61115,-0.70481 0.8013,-0.55526 1.44532,-0.47949"
       style="fill:none;stroke:#ff0000;stroke-width:0.226225;stroke-linecap:butt;stroke-linejoin:bevel;stroke-dasharray:none"
       id="path89"
       sodipodi:nodetypes="cccccccccc" />
    <path
       d="m 73.836623,152.9544 -14.602143,-0.0548 -0.516829,0.0548 -1.445287,0.47949 -0.801339,0.55526 -0.61114,0.70481 -0.480453,1.23878 -0.03266,5.64902 0.291193,1.2793 0.833118,1.09978 1.25757,0.76576 1.505884,0.32381"
       style="fill:none;stroke:#ff0000;stroke-width:0.226225;stroke-linecap:butt;stroke-linejoin:bevel;stroke-dasharray:none"
       id="path90"
       sodipodi:nodetypes="cccccccccccc" />
    <path
       d="m 104.07466,152.9544 -1.44541,0.47949 -0.80125,0.55526 -0.6111,0.70481 -0.48046,1.23878 -0.0327,5.64902 0.29119,1.2793 0.8331,1.09978 1.25756,0.76576 1.5058,0.32381"
       style="fill:none;stroke:#ff0000;stroke-width:0.226225;stroke-linecap:butt;stroke-linejoin:bevel;stroke-dasharray:none"
       id="path91"
       sodipodi:nodetypes="cccccccccc" />
    <path
       d="m 134.31267,152.9544 -1.44541,0.47949 -0.80133,0.55526 -0.61112,0.70481 -0.48045,1.23878 -0.0326,5.64902 0.29119,1.2793 0.83299,1.09978 1.25757,0.76576 1.50592,0.32381"
       style="fill:none;stroke:#ff0000;stroke-width:0.226225;stroke-linecap:butt;stroke-linejoin:bevel;stroke-dasharray:none"
       id="path92"
       sodipodi:nodetypes="cccccccccc" />
    <path
       d="m 175.31164,152.89957 h -10.24422 l -0.51683,0.0548 -14.60222,-0.0548 -0.51674,0.0548 -14.60222,-0.0548 -0.51674,0.0548 -14.60222,-0.0548 -0.51683,0.0548 -14.60225,-0.0548 -0.51671,0.0548 -14.602249,-0.0548 -0.516707,0.0548 -14.602253,-0.0548 -0.516828,0.0548 -1.445288,0.47949 -0.801338,0.55526 -0.611141,0.70481 -0.480452,1.23878 -0.03266,5.64902 0.291193,1.2793 0.832997,1.09978 1.257569,0.76576 1.505886,0.32381"
       style="fill:none;stroke:#ff0000;stroke-width:0.226225;stroke-linecap:butt;stroke-linejoin:bevel;stroke-dasharray:none"
       id="path93"
       sodipodi:nodetypes="cccccccccccccccccccccccc" />
    <path
       d="m 88.955704,152.9544 -1.445409,0.47949 -0.801339,0.55526 -0.61114,0.70481 -0.480453,1.23878 -0.03266,5.64902 0.291193,1.2793 0.832997,1.09978 1.257661,0.76576 1.505794,0.32381"
       style="fill:none;stroke:#ff0000;stroke-width:0.226225;stroke-linecap:butt;stroke-linejoin:bevel;stroke-dasharray:none"
       id="path94"
       sodipodi:nodetypes="cccccccccc" />
    <path
       d="m 164.55059,165.10524 -1.44562,0.47917 -0.80101,0.55557 -0.61144,0.70482 -0.48015,1.23858 -0.0329,5.64893 0.29149,1.2796 0.83279,1.09977 1.2579,0.76547 1.50589,0.32381"
       style="fill:none;stroke:#ff0000;stroke-width:0.226225;stroke-linecap:butt;stroke-linejoin:bevel;stroke-dasharray:none"
       id="path95"
       sodipodi:nodetypes="cccccccccc" />
    <path
       d="m 149.43163,165.10524 -1.44574,0.47917 -0.80101,0.55557 -0.61132,0.70482 -0.48024,1.23858 -0.0329,5.64893 0.29149,1.2796 0.83279,1.09977 1.25791,0.76547 1.50578,0.32381"
       style="fill:none;stroke:#ff0000;stroke-width:0.226225;stroke-linecap:butt;stroke-linejoin:bevel;stroke-dasharray:none"
       id="path96"
       sodipodi:nodetypes="cccccccccc" />
    <path
       d="m 119.71045,177.20096 -1.50592,-0.32381 -1.25787,-0.76547 -0.83278,-1.09977 -0.2915,-1.2796 0.0329,-5.64893 0.48011,-1.23858 0.61145,-0.70482 0.80101,-0.55557 1.44564,-0.47917"
       style="fill:none;stroke:#ff0000;stroke-width:0.226225;stroke-linecap:butt;stroke-linejoin:bevel;stroke-dasharray:none"
       id="path97"
       sodipodi:nodetypes="cccccccccc" />
    <path
       d="m 134.82941,177.20096 -1.50592,-0.32381 -1.25787,-0.76547 -0.8327,-1.09977 -0.29149,-1.2796 0.0329,-5.64893 0.48013,-1.23858 0.61144,-0.70482 0.801,-0.55557 1.44574,-0.47917"
       style="fill:none;stroke:#ff0000;stroke-width:0.226225;stroke-linecap:butt;stroke-linejoin:bevel;stroke-dasharray:none"
       id="path98"
       sodipodi:nodetypes="cccccccccc" />
    <path
       d="m 104.59137,177.20096 -1.50579,-0.32381 -1.25788,-0.76547 -0.83278,-1.09977 -0.2915,-1.2796 0.0329,-5.64893 0.48011,-1.23858 0.61144,-0.70482 0.80101,-0.55557 1.44565,-0.47917"
       style="fill:none;stroke:#ff0000;stroke-width:0.226225;stroke-linecap:butt;stroke-linejoin:bevel;stroke-dasharray:none"
       id="path99"
       sodipodi:nodetypes="cccccccccc" />
    <path
       d="m 74.353451,177.20096 -1.505884,-0.32381 -1.257903,-0.76547 -0.832665,-1.09977 -0.291494,-1.2796 0.03296,-5.64893 0.480149,-1.23858 0.611444,-0.70482 0.801006,-0.55557 1.44562,-0.47917"
       style="fill:none;stroke:#ff0000;stroke-width:0.226225;stroke-linecap:butt;stroke-linejoin:bevel;stroke-dasharray:none"
       id="path100"
       sodipodi:nodetypes="cccccccccc" />
    <path
       d="m 119.71011,189.35177 -1.50558,-0.32381 -1.25787,-0.76568 -0.83303,-1.09986 -0.29119,-1.2793 0.0327,-5.6489 0.48045,-1.2389 0.61114,-0.70479 0.80131,-0.55528 1.44565,-0.47949"
       style="fill:none;stroke:#ff0000;stroke-width:0.226225;stroke-linecap:butt;stroke-linejoin:bevel;stroke-dasharray:none"
       id="path101"
       sodipodi:nodetypes="cccccccccc" />
    <path
       d="m 104.07466,177.25576 -1.44565,0.47949 -0.80131,0.55528 -0.61114,0.70479 -0.48046,1.2389 -0.0327,5.6489 0.2912,1.2793 0.83311,1.09986 1.25787,0.76568 1.50559,0.32381"
       style="fill:none;stroke:#ff0000;stroke-width:0.226225;stroke-linecap:butt;stroke-linejoin:bevel;stroke-dasharray:none"
       id="path102"
       sodipodi:nodetypes="cccccccccc" />
    <path
       d="m 59.23448,177.20096 -1.505885,-0.32381 -1.257902,-0.76547 -0.832786,-1.09977 -0.291495,-1.2796 0.03296,-5.64893 0.48015,-1.23858 0.611443,-0.70482 0.801006,-0.55557 1.445621,-0.47917 0.516828,-0.0548 14.602143,0.0548 0.516829,-0.0548 14.602252,0.0548 -1.445742,0.47917 -0.801006,0.55557 -0.611352,0.70482 -0.480241,1.23858 -0.03296,5.64893 0.291495,1.2796 0.832665,1.09977 1.257993,0.76547 1.505794,0.32381"
       style="fill:none;stroke:#ff0000;stroke-width:0.226225;stroke-linecap:butt;stroke-linejoin:bevel;stroke-dasharray:none"
       id="path103"
       sodipodi:nodetypes="ccccccccccccccccccccccc" />
    <path
       d="m 165.06712,189.35177 -1.50559,-0.32381 -1.2579,-0.76568 -0.83312,-1.09986 -0.29119,-1.2793 0.0327,-5.6489 0.48045,-1.2389 0.61111,-0.70479 0.80133,-0.55528 1.44563,-0.47949"
       style="fill:none;stroke:#ff0000;stroke-width:0.226225;stroke-linecap:butt;stroke-linejoin:bevel;stroke-dasharray:none"
       id="path104"
       sodipodi:nodetypes="cccccccccc" />
    <path
       d="m 134.31267,177.25576 -1.44574,0.47949 -0.80131,0.55528 -0.61114,0.70479 -0.48045,1.2389 -0.0327,5.6489 0.29119,1.2793 0.83303,1.09986 1.25787,0.76568 1.50558,0.32381 -0.51671,0.0548 -14.60225,-0.0548 -0.51682,0.0548 -14.60213,-0.0548 -0.51684,0.0548 -14.602212,-0.0548 -1.50549,-0.32381 -1.257994,-0.76568 -0.832997,-1.09986 -0.291193,-1.2793 0.03266,-5.6489 0.480543,-1.2389 0.61102,-0.70479 0.801338,-0.55528 1.445742,-0.47949 -14.602253,-0.0548 -0.516828,0.0548 -14.602143,-0.0548 -0.516829,0.0548 -14.603068,-0.0548"
       style="fill:none;stroke:#ff0000;stroke-width:0.226225;stroke-linecap:butt;stroke-linejoin:bevel;stroke-dasharray:none"
       id="path105"
       sodipodi:nodetypes="cccccccccccccccccccccccccccccc" />
    <path
       d="m 88.955704,177.25576 0.516707,-0.0548 14.602249,0.0548 0.51671,-0.0548 14.60225,0.0548 0.51683,-0.0548 14.60222,0.0548 0.51674,-0.0548 14.60222,0.0548 -1.44574,0.47949 -0.80122,0.55528 -0.61111,0.70479 -0.48045,1.2389 -0.0327,5.6489 0.2912,1.2793 0.83311,1.09986 1.25791,0.76568 1.50546,0.32381"
       style="fill:none;stroke:#ff0000;stroke-width:0.226225;stroke-linecap:butt;stroke-linejoin:bevel;stroke-dasharray:none"
       id="path106"
       sodipodi:nodetypes="cccccccccccccccccc" />
    <path
       d="m 119.19329,189.40658 -1.44532,0.47949 -0.80131,0.55528 -0.61114,0.7049 -0.48045,1.23878 -0.0327,5.64861 0.2912,1.27963 0.83302,1.09986 1.25757,0.76535 1.50588,0.32414"
       style="fill:none;stroke:#ff0000;stroke-width:0.226225;stroke-linecap:butt;stroke-linejoin:bevel;stroke-dasharray:none"
       id="path107"
       sodipodi:nodetypes="cccccccccc" />
    <path
       d="m 89.472109,189.35177 -0.516738,0.0548 -14.602222,-0.0548 -1.505582,-0.32381 -1.257903,-0.76568 -0.832997,-1.09986 -0.291192,-1.2793 0.03266,-5.6489 0.480452,-1.2389 0.611111,-0.70479 0.801338,-0.55528 1.445621,-0.47949"
       style="fill:none;stroke:#ff0000;stroke-width:0.226225;stroke-linecap:butt;stroke-linejoin:bevel;stroke-dasharray:none"
       id="path108"
       sodipodi:nodetypes="cccccccccccc" />
    <path
       d="m 134.82908,201.50262 -1.5058,-0.32414 -1.25766,-0.76535 -0.83303,-1.09986 -0.29119,-1.27963 0.0327,-5.64861 0.48045,-1.23878 0.61115,-0.7049 0.8013,-0.55528 1.44544,-0.47949"
       style="fill:none;stroke:#ff0000;stroke-width:0.226225;stroke-linecap:butt;stroke-linejoin:bevel;stroke-dasharray:none"
       id="path109"
       sodipodi:nodetypes="cccccccccc" />
    <path
       d="m 58.717651,177.25576 -1.44562,0.47949 -0.801338,0.55528 -0.611111,0.70479 -0.480452,1.2389 -0.03266,5.6489 0.291192,1.2793 0.833088,1.09986 1.257903,0.76568 1.505582,0.32381"
       style="fill:none;stroke:#ff0000;stroke-width:0.226225;stroke-linecap:butt;stroke-linejoin:bevel;stroke-dasharray:none"
       id="path110"
       sodipodi:nodetypes="cccccccccc" />
    <path
       d="m 104.07433,189.40658 -1.44532,0.47949 -0.80131,0.55528 -0.61114,0.7049 -0.48046,1.23878 -0.0327,5.64861 0.2912,1.27963 0.83311,1.09986 1.25757,0.76535 1.50589,0.32414"
       style="fill:none;stroke:#ff0000;stroke-width:0.226225;stroke-linecap:butt;stroke-linejoin:bevel;stroke-dasharray:none"
       id="path111"
       sodipodi:nodetypes="cccccccccc" />
    <path
       d="m 149.43133,189.40658 -1.44544,0.47949 -0.80122,0.55528 -0.61111,0.7049 -0.48045,1.23878 -0.0327,5.64861 0.2912,1.27963 0.83311,1.09986 1.25757,0.76535 1.5058,0.32414"
       style="fill:none;stroke:#ff0000;stroke-width:0.226225;stroke-linecap:butt;stroke-linejoin:bevel;stroke-dasharray:none"
       id="path112"
       sodipodi:nodetypes="cccccccccc" />
    <path
       d="m 89.472109,201.50262 -1.505794,-0.32414 -1.257691,-0.76535 -0.832998,-1.09986 -0.291191,-1.27963 0.03266,-5.64861 0.480544,-1.23878 0.611019,-0.7049 0.801339,-0.55528 1.445408,-0.47949"
       style="fill:none;stroke:#ff0000;stroke-width:0.226225;stroke-linecap:butt;stroke-linejoin:bevel;stroke-dasharray:none"
       id="path113"
       sodipodi:nodetypes="cccccccccc" />
    <path
       d="m 74.353149,201.50262 -1.505914,-0.32414 -1.257571,-0.76535 -0.832997,-1.09986 -0.291192,-1.27963 0.03266,-5.64861 0.480452,-1.23878 0.611111,-0.7049 0.801338,-0.55528 1.445409,-0.47949"
       style="fill:none;stroke:#ff0000;stroke-width:0.226225;stroke-linecap:butt;stroke-linejoin:bevel;stroke-dasharray:none"
       id="path114"
       sodipodi:nodetypes="cccccccccc" />
    <path
       d="m 119.19329,201.55721 0.51682,-0.0545 14.60226,0.0545 -1.44544,0.47949 -0.80131,0.55529 -0.61135,0.70478 -0.48024,1.23879 -0.0329,5.64892 0.29149,1.27942 0.83303,1.09975 1.25766,0.76568 1.50579,0.32392"
       style="fill:none;stroke:#ff0000;stroke-width:0.226225;stroke-linecap:butt;stroke-linejoin:bevel;stroke-dasharray:none"
       id="path115"
       sodipodi:nodetypes="cccccccccccc" />
    <path
       d="m 74.353149,189.35177 -0.516738,0.0548 -14.602234,-0.0548 -0.516828,0.0548 -1.445318,0.47949 -0.801338,0.55528 -0.611111,0.7049 -0.480452,1.23878 -0.03266,5.64861 0.291192,1.27963 0.833088,1.09986 1.257571,0.76535 1.505914,0.32414"
       style="fill:none;stroke:#ff0000;stroke-width:0.226225;stroke-linecap:butt;stroke-linejoin:bevel;stroke-dasharray:none"
       id="path116"
       sodipodi:nodetypes="ccccccccccccc" />
    <path
       d="m 104.07433,201.55721 -1.44532,0.47949 -0.80131,0.55529 -0.61144,0.70478 -0.48016,1.23879 -0.0329,5.64892 0.29149,1.27942 0.83312,1.09975 1.25757,0.76568 1.50588,0.32392"
       style="fill:none;stroke:#ff0000;stroke-width:0.226225;stroke-linecap:butt;stroke-linejoin:bevel;stroke-dasharray:none"
       id="path117"
       sodipodi:nodetypes="cccccccccc" />
    <path
       d="m 74.353149,213.65325 -1.505914,-0.32392 -1.257571,-0.76568 -0.832997,-1.09975 -0.291495,-1.27942 0.03296,-5.64892 0.480241,-1.23879 0.611323,-0.70478 0.801337,-0.55529 1.445409,-0.47949"
       style="fill:none;stroke:#ff0000;stroke-width:0.226225;stroke-linecap:butt;stroke-linejoin:bevel;stroke-dasharray:none"
       id="path118"
       sodipodi:nodetypes="cccccccccc" />
    <path
       d="m 104.07433,213.70805 0.51682,-0.0548 14.60214,0.0548 -1.44562,0.47949 -0.80134,0.55528 -0.61111,0.70479 -0.48046,1.23878 -0.0327,5.64894 0.29119,1.27942 0.833,1.09974 1.2579,0.76547 1.50559,0.32413"
       style="fill:none;stroke:#ff0000;stroke-width:0.226225;stroke-linecap:butt;stroke-linejoin:bevel;stroke-dasharray:none"
       id="path119"
       sodipodi:nodetypes="cccccccccccc" />
    <path
       d="m 88.955371,201.55721 -14.602222,-0.0545 -0.516738,0.0545 -14.602234,-0.0545 -0.516828,0.0545 -1.445318,0.47949 -0.801338,0.55529 -0.611443,0.70478 -0.48012,1.23879 -0.03296,5.64892 0.291494,1.27942 0.833089,1.09975 1.25757,0.76568 1.505915,0.32392"
       style="fill:none;stroke:#ff0000;stroke-width:0.226225;stroke-linecap:butt;stroke-linejoin:bevel;stroke-dasharray:none"
       id="path120"
       sodipodi:nodetypes="cccccccccccccc" />
    <path
       d="m 89.472109,213.65325 -1.505794,-0.32392 -1.257691,-0.76568 -0.832998,-1.09975 -0.291494,-1.27942 0.03296,-5.64892 0.480241,-1.23879 0.611323,-0.70478 0.801338,-0.55529 1.445408,-0.47949 0.516738,-0.0545 14.60223,0.0545 0.51683,-0.0545 14.60212,0.0545 -1.44531,0.47949 -0.80131,0.55529 -0.61144,0.70478 -0.48015,1.23879 -0.0329,5.64892 0.29149,1.27942 0.83303,1.09975 1.25757,0.76568 1.50588,0.32392"
       style="fill:none;stroke:#ff0000;stroke-width:0.226225;stroke-linecap:butt;stroke-linejoin:bevel;stroke-dasharray:none"
       id="path121"
       sodipodi:nodetypes="ccccccccccccccccccccccc" />
    <path
       d="m 59.233845,225.80409 -1.505582,-0.32413 -1.257873,-0.76547 -0.832997,-1.09974 -0.291192,-1.27942 0.03266,-5.64894 0.480452,-1.23878 0.611141,-0.70479 0.801308,-0.55528 1.44565,-0.47949 0.516829,-0.0548 14.602234,0.0548 0.516738,-0.0548 14.602222,0.0548 -1.445742,0.47949 -0.801217,0.55528 -0.611111,0.70479 -0.480452,1.23878 -0.03266,5.64894 0.291193,1.27942 0.833118,1.09974 1.257902,0.76547 1.505461,0.32413"
       style="fill:none;stroke:#ff0000;stroke-width:0.226225;stroke-linecap:butt;stroke-linejoin:bevel;stroke-dasharray:none"
       id="path122"
       sodipodi:nodetypes="ccccccccccccccccccccccc" />
    <path
       d="m 73.836411,213.70805 -1.445741,0.47949 -0.801308,0.55528 -0.61102,0.70479 -0.480573,1.23878 -0.03266,5.64894 0.291193,1.27942 0.833026,1.09974 1.257873,0.76547 1.505582,0.32413"
       style="fill:none;stroke:#ff0000;stroke-width:0.226225;stroke-linecap:butt;stroke-linejoin:bevel;stroke-dasharray:none"
       id="path123"
       sodipodi:nodetypes="cccccccccc" />
    <path
       d="m 88.955069,225.85857 -1.445439,0.47949 -0.801217,0.55529 -0.611111,0.70481 -0.480453,1.23878 -0.03266,5.64902 0.291193,1.27963 0.833118,1.09945 1.25757,0.76576 1.505794,0.32381"
       style="fill:none;stroke:#ff0000;stroke-width:0.226225;stroke-linecap:butt;stroke-linejoin:bevel;stroke-dasharray:none"
       id="path124"
       sodipodi:nodetypes="cccccccccc" />
    <path
       d="m 104.59086,237.95461 -1.50592,-0.32381 -1.25757,-0.76576 -0.83312,-1.09945 -0.29119,-1.27963 0.0327,-5.64902 0.48044,-1.23878 0.61112,-0.70481 0.80134,-0.55529 1.44531,-0.47949 -14.602244,-0.0545 -0.516708,0.0545 -14.602252,-0.0545 -0.516708,0.0545 -1.445438,0.47949 -0.801308,0.55529 -0.611021,0.70481 -0.480572,1.23878 -0.03266,5.64902 0.291192,1.27963 0.833028,1.09945 1.257661,0.76576 1.505794,0.32381"
       style="fill:none;stroke:#ff0000;stroke-width:0.226225;stroke-linecap:butt;stroke-linejoin:bevel;stroke-dasharray:none"
       id="path125"
       sodipodi:nodetypes="ccccccccccccccccccccccc" />
    <path
       d="m 73.836109,225.85857 -14.602264,-0.0545 -0.516828,0.0545 -1.445319,0.47949 -0.801308,0.55529 -0.61114,0.70481 -0.480453,1.23878 -0.03266,5.64902 0.291193,1.27963 0.832997,1.09945 1.25757,0.76576 1.505885,0.32381"
       style="fill:none;stroke:#ff0000;stroke-width:0.226225;stroke-linecap:butt;stroke-linejoin:bevel;stroke-dasharray:none"
       id="path126"
       sodipodi:nodetypes="cccccccccccc" />
    <path
       d="m 89.471776,250.10546 -1.505794,-0.32381 -1.257569,-0.76576 -0.833119,-1.09978 -0.291494,-1.2793 0.03296,-5.64902 0.48012,-1.23878 0.611443,-0.70482 0.801217,-0.55528 1.445439,-0.47949"
       style="fill:none;stroke:#ff0000;stroke-width:0.226225;stroke-linecap:butt;stroke-linejoin:bevel;stroke-dasharray:none"
       id="path128"
       sodipodi:nodetypes="cccccccccc" />
    <path
       d="m 106.40931,237.95461 h -1.81845 l -0.51684,0.0548 -14.602244,-0.0548 -0.516707,0.0548 -14.602253,-0.0548 -0.516707,0.0548 -1.445439,0.47949 -0.801308,0.55528 -0.611352,0.70482 -0.480241,1.23878 -0.03296,5.64902 0.291495,1.2793 0.833027,1.09978 1.257661,0.76576 1.505794,0.32381"
       style="fill:none;stroke:#ff0000;stroke-width:0.226225;stroke-linecap:butt;stroke-linejoin:bevel;stroke-dasharray:none"
       id="path129"
       sodipodi:nodetypes="cccccccccccccccc" />
    <path
       d="m 59.233845,250.10546 -1.505885,-0.32381 -1.25757,-0.76576 -0.832997,-1.09978 -0.291495,-1.2793 0.03296,-5.64902 0.48015,-1.23878 0.611443,-0.70482 0.801308,-0.55528 1.445318,-0.47949"
       style="fill:none;stroke:#ff0000;stroke-width:0.226225;stroke-linecap:butt;stroke-linejoin:bevel;stroke-dasharray:none"
       id="path130"
       sodipodi:nodetypes="cccccccccc" />
    <path
       d="m 165.06763,128.5982 -1.50579,-0.3238 -1.25757,-0.76577 -0.8331,-1.09977 -0.29119,-1.2793 0.0327,-5.64905 0.48058,-1.23879 0.61111,-0.70478 0.80124,-0.55528 1.44541,-0.4795 -14.60225,-0.0545 -0.51671,0.0545"
       style="fill:none;stroke:#ff0000;stroke-width:0.226225;stroke-linecap:butt;stroke-linejoin:bevel;stroke-dasharray:none"
       id="path131"
       sodipodi:nodetypes="cccccccccccc" />
    <path
       d="m 88.956006,116.50216 -1.445409,0.4795 -0.801308,0.55528 -0.61114,0.70478 -0.480453,1.23879 -0.03266,5.64905 0.291193,1.2793 0.833028,1.09977 1.257539,0.76577 1.505915,0.3238"
       style="fill:none;stroke:#ff0000;stroke-width:0.226225;stroke-linecap:butt;stroke-linejoin:bevel;stroke-dasharray:none"
       id="path132"
       sodipodi:nodetypes="cccccccccc" />
    <path
       d="m 149.94867,128.5982 -1.5058,-0.3238 -1.25765,-0.76577 -0.833,-1.09977 -0.2912,-1.2793 0.0327,-5.64905 0.48045,-1.23879 0.61114,-0.70478 0.80134,-0.55528 1.44541,-0.4795 -14.60225,-0.0545 -0.51683,0.0545 -14.60213,-0.0545 -0.51683,0.0545 -1.44528,0.4795 -0.80134,0.55528 -0.61114,0.70478 -0.48045,1.23879 -0.0327,5.64905 0.29119,1.2793 0.83311,1.09977 1.25758,0.76577 1.50588,0.3238"
       style="fill:none;stroke:#ff0000;stroke-width:0.226225;stroke-linecap:butt;stroke-linejoin:bevel;stroke-dasharray:none"
       id="path133"
       sodipodi:nodetypes="ccccccccccccccccccccccc" />
    <path
       d="m 59.234722,128.5982 -1.505794,-0.3238 -1.25757,-0.76577 -0.833118,-1.09977 -0.291193,-1.2793 0.03266,-5.64905 0.480572,-1.23879 0.611142,-0.70478 0.801216,-0.55528 1.445409,-0.4795"
       style="fill:none;stroke:#ff0000;stroke-width:0.226225;stroke-linecap:butt;stroke-linejoin:bevel;stroke-dasharray:none"
       id="path134"
       sodipodi:nodetypes="cccccccccc" />
    <path
       d="m 59.235659,31.392615 -1.505884,-0.324132 -1.257903,-0.765471 -0.832695,-1.099746 -0.291495,-1.279622 0.03296,-5.648729 0.48015,-1.238786 0.611443,-0.704783 0.471048,-0.326784"
       style="fill:none;stroke:#ff0000;stroke-width:0.226225;stroke-linecap:butt;stroke-linejoin:bevel;stroke-dasharray:none"
       id="path135"
       sodipodi:nodetypes="ccccccccc" />
    <path
       d="m 85.74772,40.786905 0.129116,0.566882 0.833118,1.099775 1.257873,0.765762 1.505582,0.323812"
       style="fill:none;stroke:#ff0000;stroke-width:0.226225;stroke-linecap:butt;stroke-linejoin:bevel;stroke-dasharray:none"
       id="path136"
       sodipodi:nodetypes="ccccc" />
    <path
       d="m 74.354329,43.543136 -1.505492,-0.323812 -1.257873,-0.765762 -0.833118,-1.099775 -0.291192,-1.279301 0.03266,-5.649021 0.480543,-1.238786 0.611141,-0.704812 0.801218,-0.55528 0.736689,-0.244265"
       style="fill:none;stroke:#ff0000;stroke-width:0.226225;stroke-linecap:butt;stroke-linejoin:bevel;stroke-dasharray:none"
       id="path137"
       sodipodi:nodetypes="cccccccccc" />
    <path
       d="M 72.726917,31.392615 H 59.235659 l -0.51704,0.05451 -1.445408,0.479494 -0.801339,0.555281 -0.611111,0.704812 -0.480452,1.238784 -0.03266,5.649022 0.291192,1.279301 0.832997,1.099776 1.257904,0.765762 1.505581,0.323811"
       style="fill:none;stroke:#ff0000;stroke-width:0.226225;stroke-linecap:butt;stroke-linejoin:bevel;stroke-dasharray:none"
       id="path138"
       sodipodi:nodetypes="cccccccccccc" />
    <path
       d="m 100.70826,51.580794 -0.003,0.644533 0.29119,1.279302 0.83303,1.099775 1.25756,0.765441 1.50589,0.324132"
       style="fill:none;stroke:#ff0000;stroke-width:0.226225;stroke-linecap:butt;stroke-linejoin:bevel;stroke-dasharray:none"
       id="path139"
       sodipodi:nodetypes="cccccc" />
    <path
       d="m 74.354329,55.693977 -1.505794,-0.324132 -1.257571,-0.765441 -0.833118,-1.099775 -0.291192,-1.279302 0.03266,-5.649021 0.480543,-1.238785 0.611141,-0.704812 0.801218,-0.555281 1.445408,-0.479493 -14.602234,-0.0548 -0.516737,0.0548 -14.604037,-0.0548"
       style="fill:none;stroke:#ff0000;stroke-width:0.226225;stroke-linecap:butt;stroke-linejoin:bevel;stroke-dasharray:none"
       id="path140"
       sodipodi:nodetypes="ccccccccccccc" />
    <path
       d="m 73.837591,43.597935 0.516738,-0.0548 14.602221,0.0548 -1.445318,0.479493 -0.801308,0.555281 -0.61114,0.704812 -0.480453,1.238785 -0.03266,5.649021 0.291193,1.279302 0.833118,1.099775 1.25757,0.765441 1.505884,0.324132"
       style="fill:none;stroke:#ff0000;stroke-width:0.226225;stroke-linecap:butt;stroke-linejoin:bevel;stroke-dasharray:none"
       id="path141"
       sodipodi:nodetypes="cccccccccccc" />
    <path
       d="m 88.95655,55.748485 0.516829,-0.05451 14.602131,0.05451 -1.44562,0.479494 -0.80101,0.55528 -0.61144,0.704783 -0.48015,1.238902 -0.0329,5.648934 0.2915,1.2793 0.83269,1.099747 1.2579,0.765762 1.50589,0.323811"
       style="fill:none;stroke:#ff0000;stroke-width:0.226225;stroke-linecap:butt;stroke-linejoin:bevel;stroke-dasharray:none"
       id="path142"
       sodipodi:nodetypes="cccccccccccc" />
    <path
       d="m 119.7113,67.844498 -1.5058,-0.323811 -1.25787,-0.765762 -0.83281,-1.099747 -0.2915,-1.2793 0.0121,-1.88157"
       style="fill:none;stroke:#ff0000;stroke-width:0.226225;stroke-linecap:butt;stroke-linejoin:bevel;stroke-dasharray:none"
       id="path143"
       sodipodi:nodetypes="cccccc" />
    <path
       d="m 58.718619,43.597935 -1.445408,0.479493 -0.801339,0.555281 -0.611111,0.704812 -0.480452,1.238785 -0.03266,5.649021 0.291192,1.279302 0.832997,1.099775 1.257692,0.765441 1.505793,0.324132"
       style="fill:none;stroke:#ff0000;stroke-width:0.226225;stroke-linecap:butt;stroke-linejoin:bevel;stroke-dasharray:none"
       id="path144"
       sodipodi:nodetypes="cccccccccc" />
    <path
       d="m 73.837591,55.748485 0.516738,-0.05451 14.602221,0.05451 -1.44562,0.479494 -0.801006,0.55528 -0.611443,0.704783 -0.48015,1.238902 -0.03296,5.648934 0.291494,1.2793 0.832786,1.099747 1.257902,0.765762 1.505885,0.323811"
       style="fill:none;stroke:#ff0000;stroke-width:0.226225;stroke-linecap:butt;stroke-linejoin:bevel;stroke-dasharray:none"
       id="path145"
       sodipodi:nodetypes="cccccccccccc" />
    <path
       d="m 119.19425,67.899326 -1.44541,0.479494 -0.80121,0.555281 -0.61114,0.704783 -0.48058,1.238901 -0.0327,5.648934 0.2912,1.279301 0.83312,1.099863 1.25787,0.765645 1.50546,0.323812"
       style="fill:none;stroke:#ff0000;stroke-width:0.226225;stroke-linecap:butt;stroke-linejoin:bevel;stroke-dasharray:none"
       id="path146"
       sodipodi:nodetypes="cccccccccc" />
    <path
       d="m 74.354329,67.844498 -1.505794,-0.323811 -1.257903,-0.765762 -0.832786,-1.099747 -0.291495,-1.2793 0.03296,-5.648934 0.48024,-1.238902 0.611444,-0.704783 0.800884,-0.55528 1.445741,-0.479494 -14.602234,-0.05451 -0.516737,0.05451 -1.445742,0.479494 -0.801005,0.55528 -0.611322,0.704783 -0.480241,1.238902 -0.03296,5.648934 0.291494,1.2793 0.832696,1.099747 1.257993,0.765762 1.505794,0.323811"
       style="fill:none;stroke:#ff0000;stroke-width:0.226225;stroke-linecap:butt;stroke-linejoin:bevel;stroke-dasharray:none"
       id="path147"
       sodipodi:nodetypes="ccccccccccccccccccccc" />
    <path
       d="m 104.0753,67.899326 -1.44541,0.479494 -0.80134,0.555281 -0.61111,0.704783 -0.48049,1.238901 -0.0327,5.648934 0.29119,1.279301 0.833,1.099863 1.2579,0.765645 1.50558,0.323812"
       style="fill:none;stroke:#ff0000;stroke-width:0.226225;stroke-linecap:butt;stroke-linejoin:bevel;stroke-dasharray:none"
       id="path148"
       sodipodi:nodetypes="cccccccccc" />
    <path
       d="m 134.83005,79.99534 -1.50559,-0.323812 -1.25787,-0.765645 -0.83312,-1.099863 -0.29119,-1.279301 0.0182,-3.118925"
       style="fill:none;stroke:#ff0000;stroke-width:0.226225;stroke-linecap:butt;stroke-linejoin:bevel;stroke-dasharray:none"
       id="path149"
       sodipodi:nodetypes="cccccc" />
    <path
       d="m 59.235024,79.99534 -1.505461,-0.323812 -1.257993,-0.765645 -0.833028,-1.099863 -0.291193,-1.279301 0.03266,-5.648934 0.480573,-1.238901 0.61102,-0.704783 0.801308,-0.555281 1.445439,-0.479494"
       style="fill:none;stroke:#ff0000;stroke-width:0.226225;stroke-linecap:butt;stroke-linejoin:bevel;stroke-dasharray:none"
       id="path150"
       sodipodi:nodetypes="cccccccccc" />
    <path
       d="m 73.837289,67.899326 -1.445439,0.479494 -0.801218,0.555281 -0.611111,0.704783 -0.480482,1.238901 -0.03266,5.648934 0.291192,1.279301 0.833119,1.099863 1.257902,0.765645 1.505583,0.323812"
       style="fill:none;stroke:#ff0000;stroke-width:0.226225;stroke-linecap:butt;stroke-linejoin:bevel;stroke-dasharray:none"
       id="path151"
       sodipodi:nodetypes="cccccccccc" />
    <path
       d="m 89.473076,79.99534 -1.505582,-0.323812 -1.257902,-0.765645 -0.832998,-1.099863 -0.291192,-1.279301 0.03266,-5.648934 0.480482,-1.238901 0.611111,-0.704783 0.801339,-0.555281 1.445317,-0.479494"
       style="fill:none;stroke:#ff0000;stroke-width:0.226225;stroke-linecap:butt;stroke-linejoin:bevel;stroke-dasharray:none"
       id="path152"
       sodipodi:nodetypes="cccccccccc" />
    <path
       d="m 134.83005,92.145982 -1.50593,-0.32391 -1.25753,-0.76535 -0.83312,-1.09986 -0.29119,-1.27962 0.0327,-5.64894 0.48046,-1.238577 0.61113,-0.704783 0.80132,-0.555601 1.44532,-0.479494"
       style="fill:none;stroke:#ff0000;stroke-width:0.226225;stroke-linecap:butt;stroke-linejoin:bevel;stroke-dasharray:none"
       id="path153"
       sodipodi:nodetypes="cccccccccc" />
    <path
       d="m 119.71096,92.145982 -1.50579,-0.32391 -1.25754,-0.76535 -0.83312,-1.09986 -0.29119,-1.27962 0.0327,-5.64894 0.48057,-1.238577 0.61114,-0.704783 0.80122,-0.555601 1.44541,-0.479494"
       style="fill:none;stroke:#ff0000;stroke-width:0.226225;stroke-linecap:butt;stroke-linejoin:bevel;stroke-dasharray:none"
       id="path154"
       sodipodi:nodetypes="cccccccccc" />
    <path
       d="m 146.08636,84.321072 -0.0241,4.35617 0.29119,1.27962 0.83303,1.09986 1.25754,0.76535 1.50592,0.32391"
       style="fill:none;stroke:#ff0000;stroke-width:0.226225;stroke-linecap:butt;stroke-linejoin:bevel;stroke-dasharray:none"
       id="path155"
       sodipodi:nodetypes="cccccc" />
    <path
       d="M 156.93182,92.145982 H 149.949 l -0.51673,0.0548 -14.60222,-0.0548 -0.51684,0.0548 -14.60225,-0.0548 -0.51671,0.0548 -14.60222,-0.0548 -0.51673,0.0548 -14.602224,-0.0548 -1.505914,-0.32391 -1.25757,-0.76535 -0.832998,-1.09986 -0.291192,-1.27962 0.03266,-5.64894 0.480482,-1.238577 0.611111,-0.704783 0.801339,-0.555601 1.445317,-0.479494"
       style="fill:none;stroke:#ff0000;stroke-width:0.226225;stroke-linecap:butt;stroke-linejoin:bevel;stroke-dasharray:none"
       id="path156"
       sodipodi:nodetypes="ccccccccccccccccccc" />
    <path
       d="m 161.21291,95.179152 -0.0329,5.648928 0.2915,1.27941 0.83279,1.09975 1.2579,0.76568 1.50579,0.3239"
       style="fill:none;stroke:#ff0000;stroke-width:0.226225;stroke-linecap:butt;stroke-linejoin:bevel;stroke-dasharray:none"
       id="path157"
       sodipodi:nodetypes="cccccc" />
    <path
       d="m 149.949,104.29682 -1.50591,-0.3239 -1.25787,-0.76568 -0.8327,-1.09975 -0.2915,-1.27941 0.0329,-5.648928 0.48012,-1.23879 0.61147,-0.70478 0.80101,-0.55528 1.44571,-0.4795"
       style="fill:none;stroke:#ff0000;stroke-width:0.226225;stroke-linecap:butt;stroke-linejoin:bevel;stroke-dasharray:none"
       id="path158"
       sodipodi:nodetypes="cccccccccc" />
    <path
       d="m 104.59203,104.29682 -1.50579,-0.3239 -1.25799,-0.76568 -0.8327,-1.09975 -0.2915,-1.27941 0.0329,-5.648928 0.48024,-1.23879 0.61135,-0.70478 0.80101,-0.55528 1.44574,-0.4795"
       style="fill:none;stroke:#ff0000;stroke-width:0.226225;stroke-linecap:butt;stroke-linejoin:bevel;stroke-dasharray:none"
       id="path159"
       sodipodi:nodetypes="cccccccccc" />
    <path
       d="m 104.59203,92.145982 -1.50579,-0.32391 -1.25769,-0.76535 -0.833,-1.09986 -0.29119,-1.27962 0.0327,-5.64894 0.48047,-1.238577 0.61112,-0.704783 0.80134,-0.555601 1.4454,-0.479494 -14.602213,-0.05451 -0.516829,0.05451 -14.60213,-0.05451 -0.516829,0.05451 -14.602264,-0.05451 -0.516708,0.05451 -1.445438,0.479494 -0.801309,0.555601 -0.61102,0.704783 -0.480573,1.238577 -0.03266,5.64894 0.291192,1.27962 0.833028,1.09986 1.257661,0.76535 1.505794,0.32391"
       style="fill:none;stroke:#ff0000;stroke-width:0.226225;stroke-linecap:butt;stroke-linejoin:bevel;stroke-dasharray:none"
       id="path160"
       sodipodi:nodetypes="ccccccccccccccccccccccccc" />
    <path
       d="m 119.71096,104.29682 -1.50579,-0.3239 -1.25787,-0.76568 -0.83279,-1.09975 -0.29149,-1.27941 0.0329,-5.648928 0.48024,-1.23879 0.61148,-0.70478 0.801,-0.55528 1.44562,-0.4795"
       style="fill:none;stroke:#ff0000;stroke-width:0.226225;stroke-linecap:butt;stroke-linejoin:bevel;stroke-dasharray:none"
       id="path161"
       sodipodi:nodetypes="cccccccccc" />
    <path
       d="m 73.837289,80.049847 -1.445439,0.479494 -0.801218,0.555601 -0.611111,0.704783 -0.480482,1.238577 -0.03266,5.64894 0.291192,1.27962 0.833119,1.09986 1.257569,0.76535 1.505916,0.32391"
       style="fill:none;stroke:#ff0000;stroke-width:0.226225;stroke-linecap:butt;stroke-linejoin:bevel;stroke-dasharray:none"
       id="path162"
       sodipodi:nodetypes="cccccccccc" />
    <path
       d="m 134.31321,92.200802 -1.44562,0.4795 -0.801,0.55528 -0.61148,0.70478 -0.48011,1.23879 -0.0329,5.648928 0.29149,1.27941 0.83278,1.09975 1.25787,0.76568 1.50592,0.3239"
       style="fill:none;stroke:#ff0000;stroke-width:0.226225;stroke-linecap:butt;stroke-linejoin:bevel;stroke-dasharray:none"
       id="path163"
       sodipodi:nodetypes="cccccccccc" />
    <path
       d="m 89.473076,104.29682 -1.505914,-0.3239 -1.257873,-0.76568 -0.832695,-1.09975 -0.291494,-1.27941 0.03296,-5.648928 0.480151,-1.23879 0.611443,-0.70478 0.801005,-0.55528 1.445651,-0.4795"
       style="fill:none;stroke:#ff0000;stroke-width:0.226225;stroke-linecap:butt;stroke-linejoin:bevel;stroke-dasharray:none"
       id="path164"
       sodipodi:nodetypes="cccccccccc" />
    <path
       d="m 164.55092,104.35164 -1.4454,0.4795 -0.80125,0.55528 -0.61112,0.70478 -0.48056,1.23878 -0.0327,5.64874 0.29119,1.27962 0.83308,1.09974 1.25791,0.76547 1.50546,0.3241"
       style="fill:none;stroke:#ff0000;stroke-width:0.226225;stroke-linecap:butt;stroke-linejoin:bevel;stroke-dasharray:none"
       id="path165"
       sodipodi:nodetypes="cccccccccc" />
    <path
       d="m 58.718317,92.200802 -1.445741,0.4795 -0.801006,0.55528 -0.611353,0.70478 -0.48024,1.23879 -0.03297,5.648928 0.291495,1.27941 0.832816,1.09975 1.257873,0.76568 1.505794,0.3239"
       style="fill:none;stroke:#ff0000;stroke-width:0.226225;stroke-linecap:butt;stroke-linejoin:bevel;stroke-dasharray:none"
       id="path166"
       sodipodi:nodetypes="cccccccccc" />
    <path
       d="m 89.472744,116.44765 -1.505582,-0.3241 -1.257873,-0.76547 -0.833027,-1.09974 -0.291192,-1.27962 0.03266,-5.64874 0.480452,-1.23878 0.611141,-0.70478 0.801309,-0.55528 1.445408,-0.4795"
       style="fill:none;stroke:#ff0000;stroke-width:0.226225;stroke-linecap:butt;stroke-linejoin:bevel;stroke-dasharray:none"
       id="path167"
       sodipodi:nodetypes="cccccccccc" />
    <path
       d="m 134.82971,116.44765 -1.50559,-0.3241 -1.25787,-0.76547 -0.83299,-1.09974 -0.29119,-1.27962 0.0326,-5.64874 0.48045,-1.23878 0.61115,-0.70478 0.80134,-0.55528 1.44528,-0.4795 -14.60191,-0.0548 -0.51705,0.0548 -14.60189,-0.0548 -0.51706,0.0548"
       style="fill:none;stroke:#ff0000;stroke-width:0.226225;stroke-linecap:butt;stroke-linejoin:bevel;stroke-dasharray:none"
       id="path168"
       sodipodi:nodetypes="cccccccccccccc" />
    <path
       d="m 119.71075,116.44765 -1.50558,-0.3241 -1.25787,-0.76547 -0.83312,-1.09974 -0.2912,-1.27962 0.0327,-5.64874 0.48046,-1.23878 0.61113,-0.70478 0.80134,-0.55528 1.4453,-0.4795"
       style="fill:none;stroke:#ff0000;stroke-width:0.226225;stroke-linecap:butt;stroke-linejoin:bevel;stroke-dasharray:none"
       id="path169"
       sodipodi:nodetypes="cccccccccc" />
    <path
       d="m 74.353784,116.44765 -1.505582,-0.3241 -1.257872,-0.76547 -0.833119,-1.09974 -0.291192,-1.27962 0.03266,-5.64874 0.480452,-1.23878 0.611142,-0.70478 0.801307,-0.55528 1.445318,-0.4795"
       style="fill:none;stroke:#ff0000;stroke-width:0.226225;stroke-linecap:butt;stroke-linejoin:bevel;stroke-dasharray:none"
       id="path170"
       sodipodi:nodetypes="cccccccccc" />
    <path
       d="m 149.43196,104.35164 -1.44541,0.4795 -0.80133,0.55528 -0.61114,0.70478 -0.48046,1.23878 -0.0327,5.64874 0.29119,1.27962 0.83301,1.09974 1.25787,0.76547 1.50558,0.3241"
       style="fill:none;stroke:#ff0000;stroke-width:0.226225;stroke-linecap:butt;stroke-linejoin:bevel;stroke-dasharray:none"
       id="path171"
       sodipodi:nodetypes="cccccccccc" />
    <path
       d="m 104.5917,116.44765 -1.50546,-0.3241 -1.25799,-0.76547 -0.83303,-1.09974 -0.29119,-1.27962 0.0327,-5.64874 0.48054,-1.23878 0.61105,-0.70478 0.80132,-0.55528 1.4454,-0.4795 -14.601883,-0.0548 -0.517071,0.0548 -14.601889,-0.0548 -1.505914,-0.32389 -1.257873,-0.76568 -0.832816,-1.09975 -0.291495,-1.27941 0.03296,-5.648928 0.48015,-1.23879 0.611443,-0.70478 0.801006,-0.55529 1.44565,-0.47949 0.516829,-0.0548 14.602131,0.0548 0.516829,-0.0548"
       style="fill:none;stroke:#ff0000;stroke-width:0.226225;stroke-linecap:butt;stroke-linejoin:bevel;stroke-dasharray:none"
       id="path172"
       sodipodi:nodetypes="ccccccccccccccccccccccccc" />
    <path
       d="m 74.353784,128.5982 -1.505915,-0.3238 -1.257539,-0.76577 -0.833119,-1.09977 -0.291192,-1.2793 0.03266,-5.64905 0.480452,-1.23879 0.611142,-0.70478 0.801307,-0.55528 1.445318,-0.4795 0.516829,-0.0545 14.602222,0.0545 0.516738,-0.0545 14.602213,0.0545 -1.4454,0.4795 -0.80132,0.55528 -0.61105,0.70478 -0.48054,1.23879 -0.0327,5.64905 0.29119,1.2793 0.83303,1.09977 1.25765,0.76577 1.5058,0.3238"
       style="fill:none;stroke:#ff0000;stroke-width:0.226225;stroke-linecap:butt;stroke-linejoin:bevel;stroke-dasharray:none"
       id="path173"
       sodipodi:nodetypes="ccccccccccccccccccccccc" />
    <path
       d="m 134.82971,128.5982 -1.50588,-0.3238 -1.25758,-0.76577 -0.83299,-1.09977 -0.29119,-1.2793 0.0326,-5.64905 0.48045,-1.23879 0.61115,-0.70478 0.80134,-0.55528 1.44528,-0.4795"
       style="fill:none;stroke:#ff0000;stroke-width:0.226225;stroke-linecap:butt;stroke-linejoin:bevel;stroke-dasharray:none"
       id="path174"
       sodipodi:nodetypes="cccccccccc" />
    <path
       d="m 74.354117,104.29682 -0.517161,0.0548 -14.601932,-0.0548 -0.51704,0.0548 -1.445408,0.4795 -0.801218,0.55528 -0.611141,0.70478 -0.480573,1.23879 -0.03266,5.64873 0.291192,1.27962 0.833119,1.09974 1.257871,0.76548 1.505492,0.3241"
       style="fill:none;stroke:#ff0000;stroke-width:0.226225;stroke-linecap:butt;stroke-linejoin:bevel;stroke-dasharray:none"
       id="path175"
       sodipodi:nodetypes="ccccccccccccc" />
    <path
       d="m 56.971435,273.62246 -0.501378,-0.30521 -0.832997,-1.09975 -0.291192,-1.2793 0.03266,-5.64905 0.480452,-1.23878 0.611111,-0.70479 0.801338,-0.55528 1.445409,-0.47949 0.516738,-0.0548 h 13.492528"
       style="fill:none;stroke:#ff0000;stroke-width:0.226225;stroke-linecap:butt;stroke-linejoin:bevel;stroke-dasharray:none"
       id="path176"
       sodipodi:nodetypes="ccccccccccc" />
    <path
       d="m 131.52019,150.6143 15.42139,3.2e-4 v -7.57854 h -15.42139 z"
       style="fill:none;stroke:#000000;stroke-width:0.226225;stroke-linecap:butt;stroke-linejoin:bevel;stroke-dasharray:none"
       id="path219"
       sodipodi:nodetypes="ccccc" />
    <path
       d="m 86.163221,143.03608 v 7.57822 l 15.421359,3.2e-4 v -7.57854 z"
       style="fill:none;stroke:#000000;stroke-width:0.226225;stroke-linecap:butt;stroke-linejoin:bevel;stroke-dasharray:none"
       id="path220"
       sodipodi:nodetypes="ccccc" />
    <path
       d="m 40.239578,194.94632 -0.0121,-2.12581 0.291192,-1.27942 0.833088,-1.09974 0.801248,-0.55528 0.940735,-0.37101 1.021382,-0.16322 -1.021382,-0.16324 -1.362223,-0.62757 -0.990871,-1.00361 -0.371958,-0.77471 -0.141211,-0.89956 v -5.21342 l 0.291495,-1.27942 0.832785,-1.09975 0.37976,-0.29871 1.362556,-0.62757 1.021381,-0.16323 -1.021381,-0.16323 -0.941068,-0.3708 -0.801248,-0.55529 -0.611111,-0.70477 -0.480451,-1.23879 -0.03266,-5.64905 0.141514,-0.89944 0.371655,-0.77482 0.991203,-1.00353 1.362224,-0.62757 1.02138,-0.16323 -1.505794,-0.32381 -0.87781,-0.46693 -0.9909,-1.00362 -0.371958,-0.77474 -0.141212,-0.89955 v -5.21355 l 0.141212,-0.89943 0.651024,-1.14326 1.133292,-0.89163 0.456685,-0.21016 1.505461,-0.32414 -1.02138,-0.16322 -1.362224,-0.62758 -0.9909,-1.00361 -0.480544,-1.23849 v -6.08482 l 0.480544,-1.23879 0.9909,-1.00361 1.362526,-0.62728 1.021411,-0.16323 -1.505794,-0.32413 -1.257994,-0.76544 -0.611049,-0.70481 -0.480544,-1.23879 3.03e-4,-6.08453 0.258535,-0.8438 0.501044,-0.76342 0.711834,-0.63518 0.877811,-0.46693 1.505794,-0.32381 -1.505794,-0.32381 -1.257691,-0.76577 -0.832998,-1.09977 -0.291192,-1.27931 0.03266,-5.64905 0.480482,-1.23878 0.990991,-1.00361 1.362194,-0.62725 1.021411,-0.16324 -1.021411,-0.16351 -1.362194,-0.62728 -0.990991,-1.0035 -0.480482,-1.2389 -0.03266,-5.64894 0.141514,-0.89954 0.650722,-1.14348 1.133292,-0.8913 1.445408,-0.47949 0.517041,-0.0548 -1.505885,-0.3239 -1.257902,-0.76567 -0.611111,-0.70479 -0.480482,-1.23889 -0.0121,-2.350488"
       style="fill:none;stroke:#000000;stroke-width:0.226225;stroke-linecap:butt;stroke-linejoin:bevel;stroke-dasharray:none"
       id="path221"
       sodipodi:nodetypes="ccccccccccccccccccccccccccccccccccccccccccccccccccccccccccccccccccccccccccccccccccc" />
    <path
       d="m 40.244688,195.82077 -0.0061,-0.87445"
       style="fill:none;stroke:#0000ff;stroke-width:0.226225;stroke-linecap:butt;stroke-linejoin:bevel;stroke-dasharray:none"
       id="path225" />
    <path
       d="m 40.242239,98.038622 -0.01512,-2.42399 0.141514,-0.89956 0.651024,-1.14315 1.132989,-0.89162 0.456565,-0.21017 1.505885,-0.32412 -0.516708,-0.0545 -1.445742,-0.47949 -0.801004,-0.55529 -0.611444,-0.7051 -0.480151,-1.23858 -0.03266,-5.64893 0.291192,-1.279626 0.221948,-0.394759 0.9909,-1.003498 1.362314,-0.627568 1.021381,-0.163232 -1.505582,-0.323812 -1.257872,-0.765645 -0.611141,-0.7049 -0.480453,-1.238785 -0.03266,-5.648934 0.291193,-1.279417 0.221947,-0.394963 0.9909,-1.003498 0.421549,-0.256507 1.445439,-0.479494 0.51704,-0.0548 -1.505915,-0.323811 -0.878113,-0.466931 -0.711743,-0.634885 -0.500833,-0.763692 -0.291494,-1.279301 v -5.213251 l 0.141514,-0.899466 0.651025,-1.143556 1.132959,-0.891626 1.44565,-0.479494 0.516829,-0.05451 -0.516829,-0.0548 -1.44565,-0.479494 -0.801006,-0.555279 -0.833118,-1.099775 -0.291193,-1.279302 v -5.213542 l 0.291193,-1.279301 0.833118,-1.099775 0.801339,-0.555281 1.445317,-0.479493 0.516829,-0.0548 -0.516829,-0.0548 -1.445317,-0.479494 -1.133292,-0.891654 -0.651025,-1.143149 -0.108554,-0.464074 v -6.084501 l 0.258534,-0.843822 0.833119,-1.099775 0.801338,-0.55528 0.940948,-0.370799 1.021501,-0.163232 -1.021501,-0.163523 -1.362527,-0.627248 -0.711712,-0.635177 -0.650814,-1.143469 -0.141514,-0.899553 0.03296,-5.64873 0.108555,-0.464075 0.651025,-1.143439 0.332074,-0.336054 1.25757,-0.765762 1.505885,-0.323812 -1.505885,-0.323811 -0.87781,-0.467048 -0.991203,-1.003526 -0.48015,-1.238786 v -6.084529 l 0.258535,-0.8438222 0.501045,-0.7634 134.289963,96.8896252 2.9e-4,49.42979"
       style="fill:none;stroke:#000000;stroke-width:0.226225;stroke-linecap:butt;stroke-linejoin:bevel;stroke-dasharray:none"
       id="path226"
       sodipodi:nodetypes="cccccccccccccccccccccccccccccccccccccccccccccccccccccccccccccccccccccccccccccccccc" />
    <path
       d="m 175.31143,155.71063 2.1e-4,32.53324 -134.292827,96.88787 -0.500833,-0.76339 -0.291495,-1.27963 0.03296,-5.64861 0.258535,-0.84394 0.501045,-0.7634 0.711833,-0.63509 1.362224,-0.62754 1.021501,-0.16324 -1.505915,-0.32381 -1.257569,-0.76576 -0.833119,-1.09974 -0.291192,-1.27931 0.03266,-5.64904 0.480452,-1.23879 0.611111,-0.70478 0.801338,-0.55528 1.445318,-0.4795 0.516829,-0.0548 -1.505582,-0.32382 -0.878144,-0.46663 -0.711834,-0.63518 -0.501044,-0.7634 -0.291192,-1.2796 0.03266,-5.64904 0.480453,-1.23847 0.99087,-1.00362 1.362526,-0.62756 1.021502,-0.16323 -1.505886,-0.32382 -0.878142,-0.46696 -0.99087,-1.00361 -0.221646,-0.39496 -0.291495,-1.2793 0.03296,-5.64902 0.258535,-0.84382 0.833118,-1.09978 1.257571,-0.76544 1.505884,-0.32413 -1.505884,-0.32381 -1.257571,-0.76576 -0.833118,-1.09947 -0.258535,-0.84394 -0.03266,-5.64892 0.141211,-0.89956 0.371958,-0.775 0.990901,-1.00362 0.878113,-0.46663 1.505582,-0.32381 -1.021502,-0.16324 -1.362193,-0.62756 -0.990901,-1.0035 -0.480452,-1.2389 v -6.08442 l 0.258837,-0.84382 0.832787,-1.09975 1.257872,-0.76576 1.505794,-0.32381 -0.516708,-0.0548 -1.44562,-0.47949 -1.133412,-0.89142 -0.650693,-1.14348 -0.108857,-0.46407 3.33e-4,-6.08441 0.480119,-1.23878 0.611444,-0.70479 0.801247,-0.55528 1.445409,-0.47949 0.516708,-0.0545 -0.516708,-0.0548 -1.445409,-0.47949 -0.801247,-0.55528 -0.611111,-0.7049 -0.480452,-1.23879 -0.01512,-2.64867"
       style="fill:none;stroke:#000000;stroke-width:0.226225;stroke-linecap:butt;stroke-linejoin:bevel;stroke-dasharray:none"
       id="path228"
       sodipodi:nodetypes="ccccccccccccccccccccccccccccccccccccccccccccccccccccccccccccccccccccccccccccc" />
    <path
       d="M 44.114583,19.241773 H 55.885919"
       style="fill:none;stroke:#ff0000;stroke-width:0.226225;stroke-linecap:butt;stroke-linejoin:bevel;stroke-dasharray:none"
       id="path230"
       sodipodi:nodetypes="cc" />
    <path
       d="m 175.31143,155.71063 v -0.87437"
       style="fill:none;stroke:#0000ff;stroke-width:0.226225;stroke-linecap:butt;stroke-linejoin:bevel;stroke-dasharray:none"
       id="path245" />
  </g>
</svg>
