<?xml version="1.0" encoding="UTF-8" standalone="no"?>
<!-- Created with Inkscape (http://www.inkscape.org/) -->

<svg
   width="210mm"
   height="297mm"
   viewBox="0 0 210 297"
   version="1.1"
   id="svg1"
   inkscape:version="1.4.2 (f4327f4, 2025-05-13)"
   sodipodi:docname="acoperis-frontal-stanga.svg"
   xmlns:inkscape="http://www.inkscape.org/namespaces/inkscape"
   xmlns:sodipodi="http://sodipodi.sourceforge.net/DTD/sodipodi-0.dtd"
   xmlns="http://www.w3.org/2000/svg"
   xmlns:svg="http://www.w3.org/2000/svg">
  <sodipodi:namedview
     id="namedview1"
     pagecolor="#505050"
     bordercolor="#eeeeee"
     borderopacity="1"
     inkscape:showpageshadow="0"
     inkscape:pageopacity="0"
     inkscape:pagecheckerboard="0"
     inkscape:deskcolor="#505050"
     inkscape:document-units="mm"
     inkscape:zoom="0.74208053"
     inkscape:cx="396.8572"
     inkscape:cy="559.91228"
     inkscape:window-width="1920"
     inkscape:window-height="1051"
     inkscape:window-x="-9"
     inkscape:window-y="-9"
     inkscape:window-maximized="1"
     inkscape:current-layer="layer1" />
  <defs
     id="defs1" />
  <g
     inkscape:label="Layer 1"
     inkscape:groupmode="layer"
     id="layer1">
    <g
       id="Layer1004"
       transform="matrix(2.2137049,0,0,2.3300978,-2286.7694,-1627.8337)">
      <path
         d="m 1055.4933,761.4066 0.307,-1.4137 0.7381,-1.1834 1.0651,-0.7869 1.2426,-0.2799 h 1.2072 l 0.016,2.8346"
         style="fill:none;stroke:#ff0000;stroke-width:0.216;stroke-linecap:butt;stroke-linejoin:bevel;stroke-dasharray:none"
         id="path637" />
      <path
         d="m 1090.8634,747.2516 0.078,13.9562 0.079,14.173 0.3073,-1.4137 0.738,-1.1834 1.0651,-0.7869 1.2426,-0.2799 h 5.4936 l 1.2073,0.4437 0.6883,0.5693 0.7513,1.1748 0.3228,1.4098"
         style="fill:none;stroke:#ff0000;stroke-width:0.216;stroke-linecap:butt;stroke-linejoin:bevel;stroke-dasharray:none"
         id="path638" />
      <path
         d="m 1079.0397,745.9451 0.01,1.1559 0.08,14.1731 0.08,14.173 0.307,-1.4137 0.738,-1.1834 1.0651,-0.7869 1.2426,-0.28 5.4936,10e-5 1.2073,0.4437 0.6886,0.5693 0.7509,1.1747 0.3229,1.4099 0.015,2.6146"
         style="fill:none;stroke:#ff0000;stroke-width:0.216;stroke-linecap:butt;stroke-linejoin:bevel;stroke-dasharray:none"
         id="path639" />
      <path
         d="m 1099.7002,757.5442 -5.4055,-3e-4 -1.2426,0.2799 -1.0651,0.7869 -0.738,1.1834 -0.3073,1.4137 -0.3228,-1.4099 -0.751,-1.1747 -0.6886,-0.5693 -1.2073,-0.4437 -5.4936,-10e-5 -1.2426,0.28 -1.0651,0.7869 -0.738,1.1834 -0.307,1.4137 -0.3229,-1.4099 -0.7512,-1.1747 -0.6887,-0.5694 -1.2069,-0.4436 -5.4936,-1e-4 -1.2429,0.2799 -1.0651,0.787 -0.7378,1.1833 -0.3072,1.4137 -0.1529,-0.667"
         style="fill:none;stroke:#ff0000;stroke-width:0.216;stroke-linecap:butt;stroke-linejoin:bevel;stroke-dasharray:none"
         id="path640" />
      <path
         d="m 1067.4035,778.128 -0.015,-2.6147 0.3073,-1.4137 0.7378,-1.1833 1.0651,-0.787 1.2429,-0.2799 5.4936,1e-4 1.2069,0.4436 0.6887,0.5694 0.7512,1.1747 0.3229,1.4099 0.015,2.6146"
         style="fill:none;stroke:#ff0000;stroke-width:0.216;stroke-linecap:butt;stroke-linejoin:bevel;stroke-dasharray:none"
         id="path641" />
      <path
         d="m 1067.13,729.364 0.1,17.8033 0.08,14.173 0.079,14.173 -0.3228,-1.4098 -0.751,-1.1748 -0.6886,-0.5693 -1.2072,-0.4436 -5.4937,-10e-5 -1.2425,0.2799 -1.0652,0.7869 -0.738,1.1834 -0.307,1.4137"
         style="fill:none;stroke:#ff0000;stroke-width:0.216;stroke-linecap:butt;stroke-linejoin:bevel;stroke-dasharray:none"
         id="path642" />
      <path
         d="m 1078.7233,745.6912 0.3229,1.4098 0.1989,-0.9164"
         style="fill:none;stroke:#ff0000;stroke-width:0.216;stroke-linecap:butt;stroke-linejoin:bevel;stroke-dasharray:none"
         id="path643" />
      <path
         d="m 1077.2835,743.9471 -1.207,-0.4436 -5.4936,-10e-5 -1.2429,0.2799 -1.0651,0.787 -0.7377,1.1833 -0.3073,1.4137 -0.3229,-1.4098 -0.751,-1.1748 -0.6886,-0.5693 -1.2072,-0.4437 h -5.4936 l -1.2426,0.2799 -1.0651,0.7869 -0.7381,1.1834 -0.307,1.4137"
         style="fill:none;stroke:#ff0000;stroke-width:0.216;stroke-linecap:butt;stroke-linejoin:bevel;stroke-dasharray:none"
         id="path644" />
      <path
         d="m 1064.0283,778.1469 8.1183,-0.0455 -0.2917,3.5801 0.3319,3.5764 14.173,-0.0795 0.2917,-3.5799 -0.3319,-3.5766 20.1631,-0.1131 -12.8445,-14.9603 3.2835,-2.4081 2.8772,-2.8811 -9.2339,-10.7552 -3.2835,2.408 -2.8773,2.8815 -10.3016,-11.9988 -0.1162,-10.8689 -7.3504,0.0406"
         style="fill:none;stroke:#000000;stroke-width:0.216;stroke-linecap:butt;stroke-linejoin:bevel;stroke-dasharray:none"
         id="path645" />
      <path
         d="m 1067.2871,765.8791 -0.079,-14.4146 -7.2914,0.042 0.079,14.4147 z"
         style="fill:none;stroke:#000000;stroke-width:0.216;stroke-linecap:butt;stroke-linejoin:bevel;stroke-dasharray:none"
         id="path646" />
      <path
         d="m 1063.178,778.1517 0.8503,-0.005"
         style="fill:none;stroke:#0000ff;stroke-width:0.216;stroke-linecap:butt;stroke-linejoin:bevel;stroke-dasharray:none"
         id="path647" />
      <path
         d="m 1065.7856,729.3713 -7.5089,0.0415 -0.8193,0.2419 -0.7401,0.4123 -0.6144,0.5835 -0.6038,1.1134 -0.1674,0.8332 0.2558,45.5971 7.5905,-0.0425"
         style="fill:none;stroke:#000000;stroke-width:0.216;stroke-linecap:butt;stroke-linejoin:bevel;stroke-dasharray:none"
         id="path648" />
      <path
         d="m 1065.7856,729.3713 0.8504,-0.005"
         style="fill:none;stroke:#0000ff;stroke-width:0.216;stroke-linecap:butt;stroke-linejoin:bevel;stroke-dasharray:none"
         id="path649" />
      <path
         d="m 1076.2991,787.1777 h 0.8504"
         style="fill:none;stroke:#0000ff;stroke-width:0.216;stroke-linecap:butt;stroke-linejoin:bevel;stroke-dasharray:none"
         id="path650" />
    </g>
  </g>
</svg>
