<?xml version="1.0" encoding="UTF-8" standalone="no"?>
<!-- Created with Inkscape (http://www.inkscape.org/) -->

<svg
   width="210mm"
   height="297mm"
   viewBox="0 0 210 297"
   version="1.1"
   id="svg1"
   inkscape:version="1.4.2 (f4327f4, 2025-05-13)"
   sodipodi:docname="acoperis-dreapta.svg"
   xmlns:inkscape="http://www.inkscape.org/namespaces/inkscape"
   xmlns:sodipodi="http://sodipodi.sourceforge.net/DTD/sodipodi-0.dtd"
   xmlns="http://www.w3.org/2000/svg"
   xmlns:svg="http://www.w3.org/2000/svg">
  <sodipodi:namedview
     id="namedview1"
     pagecolor="#505050"
     bordercolor="#eeeeee"
     borderopacity="1"
     inkscape:showpageshadow="0"
     inkscape:pageopacity="0"
     inkscape:pagecheckerboard="0"
     inkscape:deskcolor="#505050"
     inkscape:document-units="mm"
     inkscape:zoom="0.74208053"
     inkscape:cx="224.36918"
     inkscape:cy="476.36339"
     inkscape:window-width="1920"
     inkscape:window-height="1051"
     inkscape:window-x="-9"
     inkscape:window-y="-9"
     inkscape:window-maximized="1"
     inkscape:current-layer="layer1" />
  <defs
     id="defs1" />
  <g
     inkscape:label="Layer 1"
     inkscape:groupmode="layer"
     id="layer1">
    <path
       d="M 22.78734,219.82593 V 208.30224"
       style="fill:none;stroke:#ff0000;stroke-width:0.219831;stroke-linecap:butt;stroke-linejoin:bevel;stroke-dasharray:none"
       id="path32" />
    <path
       d="m 34.505554,191.81283 v 13.21426 l -0.312578,1.475 -0.738505,1.23145 -1.060604,0.81562 -1.233752,0.28512 -5.447906,-0.0323 -1.194678,-0.47043 -0.679403,-0.59872 -0.295818,-0.49299"
       style="fill:none;stroke:#ff0000;stroke-width:0.219831;stroke-linecap:butt;stroke-linejoin:bevel;stroke-dasharray:none"
       id="path33" />
    <path
       d="m 46.223472,175.32338 v 0.0965 14.80364 14.80355 l -0.312283,1.475 -0.738505,1.23145 -1.060604,0.81562 -1.233752,0.28512 -5.447906,-0.0323 -1.194678,-0.47043 -0.679701,-0.59872 -0.738207,-1.2313 -0.312282,-1.4745 v 14.79916"
       style="fill:none;stroke:#ff0000;stroke-width:0.219831;stroke-linecap:butt;stroke-linejoin:bevel;stroke-dasharray:none"
       id="path34" />
    <path
       d="m 43.561697,179.06896 0.550383,-0.12701 1.060604,-0.81562 0.738505,-1.23134 0.312283,-1.47509 0.312279,1.47447 0.738505,1.23134 0.679701,0.59868 1.19438,0.47043 5.447906,0.0323 1.23405,-0.28512 1.060604,-0.81562 0.738208,-1.23134 0.31258,-1.47509 v 14.80364 14.80355 l -0.31258,1.475 -0.738208,1.23145 -1.060604,0.81562 -1.23405,0.28512 -5.447906,-0.0323 -1.19438,-0.47043 -0.679701,-0.59872 -0.738505,-1.2313 -0.312279,-1.4745 v 14.79916"
       style="fill:none;stroke:#ff0000;stroke-width:0.219831;stroke-linecap:butt;stroke-linejoin:bevel;stroke-dasharray:none"
       id="path35" />
    <path
       d="m 57.941685,158.83406 v 1.7823 14.80354 l 0.312279,1.47447 0.738208,1.23134 0.6797,0.59868 1.194679,0.47043 5.447905,0.0323 1.233752,-0.28512 1.060604,-0.81562 0.738506,-1.23134 0.312282,-1.47509 v 14.80364 14.80355 l -0.312282,1.475 -0.738506,1.23145 -1.060604,0.81562 -1.233752,0.28512 -5.447905,-0.0323 -1.194679,-0.47043 -0.6797,-0.59872 -0.738208,-1.2313 -0.312279,-1.4745 v 14.79946"
       style="fill:none;stroke:#ff0000;stroke-width:0.219831;stroke-linecap:butt;stroke-linejoin:bevel;stroke-dasharray:none"
       id="path36" />
    <path
       d="m 69.6596,142.34495 v 3.46786 14.80355 14.80354 l 0.312279,1.47447 0.738506,1.23134 0.679701,0.59868 1.194678,0.47043 5.447599,0.0323 1.234061,-0.28512 1.06059,-0.81562 0.738526,-1.23134 0.312282,-1.47509 v 14.80364 14.80355 l -0.312282,1.475 -0.738526,1.23145 -1.06059,0.81562 -1.234061,0.28512 -5.447599,-0.0323 -1.194678,-0.47043 -0.679701,-0.59872 -0.738506,-1.2313 -0.312279,-1.4745 v 14.79967"
       style="fill:none;stroke:#ff0000;stroke-width:0.219831;stroke-linecap:butt;stroke-linejoin:bevel;stroke-dasharray:none"
       id="path37" />
    <path
       d="m 93.096035,109.36606 v 6.83954 14.80366 14.80355 14.80355 14.80354 14.80364 14.80355 l -0.312592,1.475 -0.738497,1.23145 -1.060618,0.81562 -1.233752,0.28512 -5.447804,-0.0323 -1.194763,-0.47043 -0.679717,-0.59872 -0.738188,-1.2313 -0.312282,-1.4745 v 14.79967"
       style="fill:none;stroke:#ff0000;stroke-width:0.219831;stroke-linecap:butt;stroke-linejoin:bevel;stroke-dasharray:none"
       id="path38" />
    <path
       d="m 102.37955,149.58773 h -6.358562 l -1.19477,-0.47052 -0.679713,-0.5986 -0.738188,-1.23142 -0.312282,-1.47438 -0.312592,1.475 -0.738497,1.23134 -1.060618,0.81573 -1.233752,0.28512 -5.447804,-0.0323 -1.194763,-0.47052 -0.679717,-0.5986 -0.738188,-1.23142 -0.312282,-1.47438 -0.312282,1.475 -0.738526,1.23134 -1.06059,0.81573 -1.234061,0.28512 -5.447599,-0.0323 -1.194678,-0.47052 -0.679701,-0.5986 -0.738506,-1.23142 -0.312279,-1.47438 -0.312282,1.475 -0.738506,1.23134 -1.060604,0.81573 -1.233752,0.28512 -1.817058,-0.0118"
       style="fill:none;stroke:#ff0000;stroke-width:0.219831;stroke-linecap:butt;stroke-linejoin:bevel;stroke-dasharray:none"
       id="path39" />
    <path
       d="m 105.89339,91.369048 -0.0141,10.033002 v 14.80355 14.80366 l -0.31237,1.475 -0.73841,1.23134 -1.06059,0.81574 -1.23406,0.28511 -6.512982,-0.0323 -1.19476,-0.47043 -0.679719,-0.59869 -0.738188,-1.23133 -0.312282,-1.47438 -0.312592,1.475 -0.738497,1.23134 -1.060618,0.81573 -1.233752,0.28512 -5.447804,-0.0323 -1.194763,-0.47043 -0.679717,-0.59869 -0.738188,-1.23133 -0.312283,-1.47438 -0.312282,1.475 -0.738525,1.23134 -1.06059,0.81573 -1.234061,0.28512 -3.009845,-0.0178"
       style="fill:none;stroke:#ff0000;stroke-width:0.219831;stroke-linecap:butt;stroke-linejoin:bevel;stroke-dasharray:none"
       id="path40" />
    <path
       d="m 105.89002,156.74521 -0.0112,3.87115 v 14.80354 l -0.31237,1.47509 -0.73841,1.23134 -1.06059,0.81562 -1.23407,0.28512 -6.512972,-0.0323 -1.19476,-0.47042 -0.679721,-0.59869 -0.738188,-1.23134 -0.312283,-1.47447 -0.312591,1.4751 -0.738497,1.23133 -1.060618,0.81562 -1.233752,0.28512 -5.447805,-0.0323 -1.194762,-0.47042 -0.679718,-0.59869 -0.738188,-1.23134 -0.312282,-1.47446 v -14.80355 -14.80355 -14.80355 -5.15376"
       style="fill:none;stroke:#ff0000;stroke-width:0.219831;stroke-linecap:butt;stroke-linejoin:bevel;stroke-dasharray:none"
       id="path41" />
    <path
       d="m 157.77592,164.39723 -1.02947,-0.006 -1.19468,-0.47043 -0.67969,-0.59872 -0.73822,-1.23133 -0.31228,-1.47447 -0.31228,1.475 -0.7385,1.23145 -1.06059,0.81562 -1.23406,0.28512 -5.44761,-0.0323 -1.19468,-0.47043 -0.67969,-0.59872 -0.73821,-1.23133 -0.31259,-1.47447 -0.31229,1.475 -0.73849,1.23145 -1.06059,0.81562 -1.23376,0.28512 -5.44791,-0.0323 -1.19468,-0.47043 -0.67969,-0.59872 -0.73822,-1.23133 -0.31228,-1.47447 -0.31267,1.475 -0.73811,1.23145 -1.06062,0.81562 -1.23414,0.28512 -5.44781,-0.0323 -1.19436,-0.47043 -0.67981,-0.59872 -0.73841,-1.23133 -0.31228,-1.47447 -0.31237,1.475 -0.73841,1.23145 -1.06062,0.81562 -1.23383,0.28512 -6.51773,-0.0323 -1.19471,-0.47043 -0.67969,-0.59872 -0.73821,-1.23133 -0.31229,-1.47447 -0.31236,1.475 -0.73842,1.23145 -1.06059,0.81562 -1.23406,0.28512 -6.512972,-0.0323 -1.19477,-0.47043 -0.679713,-0.59872 -0.738188,-1.23133 -0.312282,-1.47447 -0.312592,1.475 -0.738497,1.23145 -1.060618,0.81562 -1.233752,0.28512 -5.447804,-0.0323 -1.194763,-0.47043 -0.679717,-0.59872 -0.738188,-1.23133 -0.312282,-1.47447 -0.312282,1.475 -0.738526,1.23145 -1.06059,0.81562 -1.234061,0.28512 -5.447599,-0.0323 -1.194678,-0.47043 -0.679701,-0.59872 -0.738506,-1.23133 -0.312279,-1.47447 -0.312282,1.475 -0.738506,1.23145 -1.060604,0.81562 -1.233752,0.28512 -5.447905,-0.0323 -1.194679,-0.47043 -0.6797,-0.59872 -0.738208,-1.23133 -0.312279,-1.47447 -0.31258,1.475 -0.738208,1.23145 -1.060604,0.81562 -1.23405,0.28512 -0.624064,-0.003"
       style="fill:none;stroke:#ff0000;stroke-width:0.219831;stroke-linecap:butt;stroke-linejoin:bevel;stroke-dasharray:none"
       id="path42" />
    <path
       d="m 34.764681,191.44777 0.05316,0.25018 0.738208,1.23142 0.679701,0.5986 1.194678,0.47043 5.447906,0.0323 1.233752,-0.28511 1.060604,-0.81574 0.738505,-1.23134 0.312282,-1.475 0.31228,1.47438 0.738505,1.23142 0.679701,0.5986 1.19438,0.47043 5.447906,0.0323 1.23405,-0.28511 1.060604,-0.81574 0.738207,-1.23134 0.312581,-1.475 0.312279,1.47438 0.738208,1.23143 0.6797,0.59859 1.194678,0.47043 5.447906,0.0323 1.233752,-0.28512 1.060604,-0.81574 0.738506,-1.23133 0.312282,-1.47501 0.312279,1.47438 0.738506,1.23143 0.6797,0.5986 1.194679,0.47042 5.447596,0.0323 1.234061,-0.28512 1.06059,-0.81574 0.738526,-1.23133 0.312282,-1.475 0.312282,1.47438 0.738188,1.23142 0.679717,0.5986 1.194763,0.47043 5.447804,0.0323 1.233752,-0.28512 1.060618,-0.81574 0.738497,-1.23133 0.312592,-1.475 0.312282,1.47438 0.738188,1.23142 0.67971,0.5986 1.19477,0.47043 6.512972,0.0323 1.23406,-0.28512 1.06059,-0.81574 0.73842,-1.23133 0.31236,-1.475 0.31229,1.47438 0.73821,1.23142 0.67969,0.5986 1.19471,0.47043 6.51773,0.0323 1.23383,-0.28512 1.06062,-0.81574 0.73841,-1.23133 0.31237,-1.475 0.31228,1.47438 0.73841,1.23142 0.67981,0.5986 1.19436,0.47043 5.44781,0.0323 1.23414,-0.28512 1.06062,-0.81573 0.73811,-1.23134 0.31267,-1.475 0.31228,1.47438 0.73822,1.23142 0.67969,0.5986 1.19468,0.47043 5.44791,0.0323 1.23376,-0.28511 1.06059,-0.81574 0.73849,-1.23134 0.31229,-1.475 0.31259,1.47438 0.73821,1.23142 0.67969,0.5986 1.19468,0.47043 5.44761,0.0323 1.23406,-0.28511 1.06059,-0.81574 0.7385,-1.23134 0.31228,-1.475 0.31228,1.47438 0.73822,1.23143 0.67969,0.59859 1.19468,0.47043 5.44791,0.0323 1.23375,-0.28511 1.06062,-0.81574 0.7385,-1.23133 0.31256,-1.47501 0.31228,1.47438 0.73822,1.23143 0.67969,0.5986 1.19468,0.47042 5.44792,0.0323 1.23375,-0.28512 1.06062,-0.81574 0.73849,-1.23133"
       style="fill:none;stroke:#ff0000;stroke-width:0.219831;stroke-linecap:butt;stroke-linejoin:bevel;stroke-dasharray:none"
       id="path43" />
    <path
       d="m 76.28365,223.60141 h 2.168997 l 0.813777,-0.25314 1.06059,-0.81574 0.53551,-0.78429 0.462421,-1.4155 0.05285,-0.50604 0.312282,1.4745 0.738497,1.23163 0.324089,0.32514 1.10284,0.63715 0.867413,0.13856 h 5.027633 l 1.234061,-0.28511 1.06059,-0.81574 0.53551,-0.78459 0.462421,-1.41517 0.05285,-0.50605 0.05257,0.50605 0.462421,1.41517 0.859916,1.10973 1.10253,0.63745 0.44755,0.10629 6.930082,3.2e-4 0.81358,-0.25314 1.06059,-0.81562 0.73842,-1.23163 0.31239,-1.47417 0.32347,1.47417 0.73822,1.23163 1.06059,0.81562 0.81389,0.25314 6.5098,0.0326 1.23383,-0.28541 0.73614,-0.49027 0.61256,-0.69698 0.45033,-0.85983 0.31237,-1.47405 0.15742,1.00007 0.60522,1.33381 0.28808,0.37192 1.0604,0.81565 0.81377,0.25314 5.44781,0.0326 0.86752,-0.13856 1.10284,-0.63712 0.85991,-1.10976 0.46242,-1.41517 0.0526,-0.50625 0.15742,1.0001 0.60492,1.3341 0.61256,0.69698 1.10247,0.63745 0.44752,0.10629 3.17736,3.2e-4"
       style="fill:none;stroke:#000000;stroke-width:0.219831;stroke-linecap:butt;stroke-linejoin:bevel;stroke-dasharray:none"
       id="path213" />
    <path
       d="m 101.43081,97.637548 -88.986517,125.219242 0.35532,0.27327 1.194681,0.47043 h 5.867784 l 0.813873,-0.25314 0.736226,-0.49059 0.612463,-0.69698 0.450323,-0.8595 0.312377,-1.47438 0.312282,1.47438 0.738506,1.23145 0.679698,0.59857 0.747136,0.3639 0.867522,0.13856 5.447807,-0.032 1.194777,-0.47055 0.355322,-0.27327 0.859885,-1.10965 0.462422,-1.41529 0.05285,-0.50592 0.312282,1.47405 0.450025,0.85982 0.612564,0.69699 0.736223,0.49059 1.23405,0.28512 5.447608,-0.032 1.19468,-0.47022 0.679698,-0.5986 0.738506,-1.23142 0.312282,-1.47438 0.312279,1.47438 0.450323,0.85979 0.612564,0.69698 1.102453,0.63745 0.867522,0.13826 5.447906,-0.032 1.194681,-0.47052 0.679698,-0.59839 0.738505,-1.23134 0.312282,-1.47438 0.05285,0.50596 0.462123,1.41546 0.535805,0.7843 1.060306,0.81574 1.23405,0.28541 5.447906,-0.032 1.194383,-0.47046 0.679697,-0.59836 0.738506,-1.23166 0.312282,-1.47417 0.312577,1.47417 0.450126,0.85983 0.967783,0.97019 1.194678,0.47046 h 2.855525"
       style="fill:none;stroke:#000000;stroke-width:0.219831;stroke-linecap:butt;stroke-linejoin:bevel;stroke-dasharray:none"
       id="path229" />
    <path
       d="m 96.020988,105.177 6.512972,0.0323 1.23406,-0.28512 1.06059,-0.81562 0.73842,-1.23145 0.31236,-1.475 0.31229,1.4745 0.73821,1.23133 0.67969,0.59869 1.19471,0.47043 6.51773,0.0323 0.34132,-0.079"
       style="fill:none;stroke:#ff0000;stroke-width:0.219831;stroke-linecap:butt;stroke-linejoin:bevel;stroke-dasharray:none"
       id="path231" />
    <path
       d="m 105.87605,219.82741 0.003,-14.80032 0.31228,1.4745 0.73822,1.2313 0.67969,0.59872 1.19468,0.47043 6.51775,0.0323 1.23384,-0.28512 1.06062,-0.81562 0.73838,-1.23145 0.31239,-1.475 V 190.2236 175.41996 l -0.31239,1.47509 -0.73838,1.23134 -1.06062,0.81562 -1.23384,0.28512 -6.51775,-0.0323 -1.19468,-0.47043 -0.67969,-0.59868 -0.73822,-1.23134 -0.31228,-1.47447 v 14.80364 14.80355 l -0.31237,1.475 -0.73841,1.23145 -1.06059,0.81562 -1.23406,0.28512 -6.512982,-0.0323 -1.19476,-0.47043 -0.679717,-0.59872 -0.738188,-1.2313 -0.312282,-1.4745 v 14.79999"
       style="fill:none;stroke:#ff0000;stroke-width:0.219831;stroke-linecap:butt;stroke-linejoin:bevel;stroke-dasharray:none"
       id="path232" />
    <path
       d="m 126.23488,120.00811 -4.64277,-0.0266 -1.19436,-0.47043 -0.67981,-0.59868 -0.73841,-1.23134 -0.31228,-1.4745 -0.31237,1.47512 -0.73841,1.23134 -1.06062,0.81562 -1.23383,0.28511 -6.51773,-0.0323 -1.19471,-0.47043 -0.67969,-0.59868 -0.73821,-1.23134 -0.31229,-1.4745 -0.31236,1.47512 -0.73842,1.23134 -1.06059,0.81562 -1.23406,0.28512 -6.512972,-0.0323 -1.19477,-0.47043 -0.679713,-0.59868 -0.738188,-1.23134 -0.312282,-1.4745 -0.312592,1.47512 -0.738497,1.23134 -1.060618,0.81562 -1.233752,0.28512 -4.203145,-0.0237"
       style="fill:none;stroke:#ff0000;stroke-width:0.219831;stroke-linecap:butt;stroke-linejoin:bevel;stroke-dasharray:none"
       id="path233" />
    <path
       d="m 118.66725,109.3578 v 6.8478 14.80366 14.80355 14.80355 14.80354 l 0.31228,1.47447 0.73841,1.23134 0.67981,0.59868 1.19436,0.47043 5.44781,0.0323 1.23414,-0.28512 1.06062,-0.81562 0.73811,-1.23134 0.31267,-1.47509 v 14.80364 14.80355 l -0.31267,1.475 -0.73811,1.23145 -1.06062,0.81562 -1.23414,0.28512 -5.44781,-0.0323 -1.19436,-0.47043 -0.67981,-0.59872 -0.73841,-1.2313 -0.31228,-1.4745 v 14.80032"
       style="fill:none;stroke:#ff0000;stroke-width:0.219831;stroke-linecap:butt;stroke-linejoin:bevel;stroke-dasharray:none"
       id="path234" />
    <path
       d="m 136.74858,134.80455 -3.43825,-0.0207 -1.19468,-0.47043 -0.67969,-0.59869 -0.73822,-1.23134 -0.31228,-1.47438 -0.31267,1.47501 -0.73811,1.23133 -1.06062,0.81574 -1.23414,0.28512 -5.44781,-0.0323 -1.19436,-0.47042 -0.67981,-0.59869 -0.73841,-1.23134 -0.31228,-1.47438 -0.31237,1.47501 -0.73841,1.23133 -1.06062,0.81574 -1.23383,0.28512 -6.51773,-0.0323 -1.19471,-0.47043 -0.67969,-0.59868 -0.73821,-1.23134 -0.31229,-1.47438 0.0141,10.93241"
       style="fill:none;stroke:#ff0000;stroke-width:0.219831;stroke-linecap:butt;stroke-linejoin:bevel;stroke-dasharray:none"
       id="path235" />
    <path
       d="m 130.38546,219.8277 v -14.80061 l 0.31228,1.4745 0.73822,1.2313 0.67969,0.59872 1.19468,0.47043 5.44791,0.0323 1.23376,-0.28512 1.06059,-0.81562 0.73849,-1.23145 0.31229,-1.475 V 190.2236 175.41996 l -0.31229,1.47509 -0.73849,1.23134 -1.06059,0.81562 -1.23376,0.28512 -5.44791,-0.0323 -1.19468,-0.47043 -0.67969,-0.59868 -0.73822,-1.23134 -0.31228,-1.47447 v -14.80354 -14.80355 -14.80355 -5.16003"
       style="fill:none;stroke:#ff0000;stroke-width:0.219831;stroke-linecap:butt;stroke-linejoin:bevel;stroke-dasharray:none"
       id="path236" />
    <path
       d="m 153.82158,158.83229 v 1.78407 14.80354 14.80364 14.80355 l -0.31228,1.475 -0.7385,1.23145 -1.06059,0.81562 -1.23406,0.28512 -5.44761,-0.0323 -1.19468,-0.47043 -0.67969,-0.59872 -0.73821,-1.2313 -0.31259,-1.4745 v 14.80062"
       style="fill:none;stroke:#ff0000;stroke-width:0.219831;stroke-linecap:butt;stroke-linejoin:bevel;stroke-dasharray:none"
       id="path237" />
    <path
       d="m 109.40673,149.59066 5.91529,0.0296 1.23383,-0.28512 1.06062,-0.81574 0.73841,-1.23133 0.31237,-1.475 0.31228,1.47438 0.73841,1.23142 0.67981,0.5986 1.19436,0.47052 5.44781,0.0323 1.23414,-0.28512 1.06062,-0.81574 0.73811,-1.23133 0.31267,-1.475 0.31228,1.47438 0.73822,1.23142 0.67969,0.5986 1.19468,0.47052 5.44791,0.0323 1.23376,-0.28512 1.06059,-0.81574 0.73849,-1.23133 0.31229,-1.475 0.31259,1.47438 0.73821,1.23142 0.67969,0.5986 1.19468,0.47052 2.23368,0.0118"
       style="fill:none;stroke:#ff0000;stroke-width:0.219831;stroke-linecap:butt;stroke-linejoin:bevel;stroke-dasharray:none"
       id="path238" />
    <path
       d="m 168.22271,179.09946 -0.95273,-0.37507 -0.67969,-0.59868 -0.73822,-1.23134 -0.31228,-1.47447 -0.31256,1.47509 -0.7385,1.23134 -1.06062,0.81562 -1.23375,0.28512 -5.44791,-0.0323 -1.19468,-0.47042 -0.67969,-0.59869 -0.73822,-1.23134 -0.31228,-1.47447 -0.31228,1.4751 -0.7385,1.23133 -1.06059,0.81562 -1.23406,0.28512 -5.44761,-0.0323 -1.19468,-0.47042 -0.67969,-0.59869 -0.73821,-1.23134 -0.31259,-1.47446 v -14.80355 -14.80355 -3.47207"
       style="fill:none;stroke:#ff0000;stroke-width:0.219831;stroke-linecap:butt;stroke-linejoin:bevel;stroke-dasharray:none"
       id="path239" />
    <path
       d="m 109.54725,141.79618 -7.30148,-0.003 -0.006,15.09692 7.30297,0.003 z"
       style="fill:none;stroke:#000000;stroke-width:0.219831;stroke-linecap:butt;stroke-linejoin:bevel;stroke-dasharray:none"
       id="path240" />
    <path
       d="m 137.33101,223.60348 h 1.8471 l 0.44755,-0.10629 1.10256,-0.63723 0.61245,-0.69687 0.60522,-1.3341 0.15742,-1.00019 0.31259,1.4745 0.73822,1.23163 0.67969,0.59839 0.74712,0.36408 0.86753,0.13827 5.02763,3.2e-4 1.23406,-0.28512 1.06059,-0.81562 0.7385,-1.23133 0.31228,-1.4745 0.31229,1.4745 0.73821,1.23163 1.06062,0.81565 0.81375,0.25314 5.44792,0.0323 1.23375,-0.28511 0.73653,-0.4906 0.61225,-0.69698 0.45033,-0.8595 0.31257,-1.47438 0.31228,1.47438 0.73821,1.23166 0.67969,0.59837 1.19468,0.47042 5.86789,3.3e-4 1.19468,-0.47043 0.96788,-0.9702 0.45034,-0.85952 0.31228,-1.47447 0.31228,1.47447 0.7385,1.23133 0.67969,0.59872 1.19448,0.47043 5.44783,0.0323 1.23403,-0.28512 1.06062,-0.81562 0.73819,-1.23133 0.31259,-1.4745 0.31228,1.4745 0.45011,0.85938 0.61248,0.69698 1.10256,0.63744 0.44752,0.10659 5.44783,0.0323 1.23373,-0.28541 0.73625,-0.49027 -88.99339,-125.244822"
       style="fill:none;stroke:#000000;stroke-width:0.219831;stroke-linecap:butt;stroke-linejoin:bevel;stroke-dasharray:none"
       id="path241" />
    <path
       d="m 109.81796,96.903818 -3.93269,-5.53477 -3.93323,5.53477"
       style="fill:none;stroke:#000000;stroke-width:0.219831;stroke-linecap:butt;stroke-linejoin:bevel;stroke-dasharray:none"
       id="path243" />
    <path
       d="m 75.4403,223.60141 h 0.84335"
       style="fill:none;stroke:#0000ff;stroke-width:0.219831;stroke-linecap:butt;stroke-linejoin:bevel;stroke-dasharray:none"
       id="path246" />
    <path
       d="m 136.48768,223.60348 h 0.84333"
       style="fill:none;stroke:#0000ff;stroke-width:0.219831;stroke-linecap:butt;stroke-linejoin:bevel;stroke-dasharray:none"
       id="path247" />
    <path
       d="M 188.97594,219.82853 V 208.30662"
       style="fill:none;stroke:#ff0000;stroke-width:0.219831;stroke-linecap:butt;stroke-linejoin:bevel;stroke-dasharray:none"
       id="path272" />
    <path
       d="m 165.53979,175.32368 v 0.0962 14.80364 14.80355 l -0.31256,1.475 -0.7385,1.23145 -1.06062,0.81562 -1.23375,0.28512 -5.44791,-0.0323 -1.19468,-0.47043 -0.67969,-0.59872 -0.73822,-1.2313 -0.31228,-1.4745 v 14.80094"
       style="fill:none;stroke:#ff0000;stroke-width:0.219831;stroke-linecap:butt;stroke-linejoin:bevel;stroke-dasharray:none"
       id="path273" />
    <path
       d="m 165.53979,219.82833 v -14.80124 l 0.31228,1.4745 0.73822,1.2313 0.67969,0.59872 1.19468,0.47043 5.44792,0.0323 1.23375,-0.28512 1.06062,-0.81562 0.73849,-1.23145 0.31228,-1.475 v 14.80124"
       style="fill:none;stroke:#ff0000;stroke-width:0.219831;stroke-linecap:butt;stroke-linejoin:bevel;stroke-dasharray:none"
       id="path274" />
    <path
       d="m 177.25772,191.81552 v 0.0426 6.58447 6.58438"
       style="fill:none;stroke:#ff0000;stroke-width:0.219831;stroke-linecap:butt;stroke-linejoin:bevel;stroke-dasharray:none"
       id="path791" />
  </g>
</svg>
