<?xml version="1.0" encoding="UTF-8" standalone="no"?>
<!-- Created with Inkscape (http://www.inkscape.org/) -->

<svg
   width="210mm"
   height="297mm"
   viewBox="0 0 210 297"
   version="1.1"
   id="svg1"
   inkscape:version="1.4.2 (f4327f4, 2025-05-13)"
   sodipodi:docname="acoperis-stanga.svg"
   xmlns:inkscape="http://www.inkscape.org/namespaces/inkscape"
   xmlns:sodipodi="http://sodipodi.sourceforge.net/DTD/sodipodi-0.dtd"
   xmlns="http://www.w3.org/2000/svg"
   xmlns:svg="http://www.w3.org/2000/svg">
  <sodipodi:namedview
     id="namedview1"
     pagecolor="#505050"
     bordercolor="#eeeeee"
     borderopacity="1"
     inkscape:showpageshadow="0"
     inkscape:pageopacity="0"
     inkscape:pagecheckerboard="0"
     inkscape:deskcolor="#505050"
     inkscape:document-units="mm"
     inkscape:zoom="0.74208053"
     inkscape:cx="334.86932"
     inkscape:cy="522.18052"
     inkscape:window-width="1920"
     inkscape:window-height="1051"
     inkscape:window-x="-9"
     inkscape:window-y="-9"
     inkscape:window-maximized="1"
     inkscape:current-layer="layer1" />
  <defs
     id="defs1" />
  <g
     inkscape:label="Layer 1"
     inkscape:groupmode="layer"
     id="layer1">
    <path
       d="m 182.24864,92.170719 -0.0128,11.202891"
       style="fill:none;stroke:#ff0000;stroke-width:0.207066;stroke-linecap:butt;stroke-linejoin:bevel;stroke-dasharray:none"
       id="path249-8" />
    <path
       d="m 73.304089,167.35333 v -3.38828 l 0.01795,-14.39705 0.01795,-14.39706 0.01795,-14.39706 0.01795,-14.39706 -0.283174,-1.4341 -0.671928,-1.19894 -0.619356,-0.58288 -1.089355,-0.45924 -4.969978,-0.0392 -1.125899,0.27556 -0.968565,0.7915 -0.675186,1.1968 -0.286687,1.43381 -0.01795,14.39706 -0.01795,14.39706 -0.01795,14.39706 0.01026,1.74899"
       style="fill:none;stroke:#ff0000;stroke-width:0.207066;stroke-linecap:butt;stroke-linejoin:bevel;stroke-dasharray:none"
       id="path251-2" />
    <path
       d="m 160.81428,135.41736 -0.0103,-0.10913 0.0179,-14.39706 0.0179,-14.39706 -0.28317,-1.4341 -0.67193,-1.19885 -0.61936,-0.58297 -1.08935,-0.45924 -4.96998,-0.0392 -1.1259,0.27556 -0.96857,0.79141 -0.67518,1.19681 -0.28669,1.43381 -0.0179,14.39706 -0.018,14.39706 -0.0179,14.39706 0.0103,1.75072"
       style="fill:none;stroke:#ff0000;stroke-width:0.207066;stroke-linecap:butt;stroke-linejoin:bevel;stroke-dasharray:none"
       id="path252-9" />
    <path
       d="m 106.43772,92.05177 -0.0179,14.37685 -0.28346,-1.4341 -0.6719,-1.19885 -0.61935,-0.58297 -1.08936,-0.45924 -5.945801,-0.0406 -1.125899,0.27556 -0.968848,0.7915 -0.674903,1.19672 -0.286969,1.43378 0.02564,-14.376848"
       style="fill:none;stroke:#ff0000;stroke-width:0.207066;stroke-linecap:butt;stroke-linejoin:bevel;stroke-dasharray:none"
       id="path253-1" />
    <path
       d="m 94.644748,199.46005 v -6.66727 l 0.01795,-14.39706 0.01795,-14.39704 0.01795,-14.39705 0.01795,-14.39718 0.01795,-14.39706 0.01795,-14.39706 -0.283174,-1.4341 -0.671928,-1.19884 -0.619356,-0.58297 -1.089355,-0.45924 -4.969978,-0.0392 -1.125899,0.27556 -0.968565,0.79141 -0.675186,1.19683 -0.286687,1.43378 -0.01795,14.39706 -0.01795,14.39706 -0.01795,14.39706 -0.01795,14.39715 -0.01795,14.39706 7.18e-4,5.02779"
       style="fill:none;stroke:#ff0000;stroke-width:0.207066;stroke-linecap:butt;stroke-linejoin:bevel;stroke-dasharray:none"
       id="path254-3" />
    <path
       d="m 84.088052,92.016641 -0.02565,14.376929 -0.283174,-1.43409 -0.672185,-1.19894 -0.619356,-0.58288 -1.089098,-0.45924 -4.969978,-0.0392 -1.126155,0.27556 -0.968592,0.79141 -0.674903,1.19681 -0.286969,1.4338 0.02565,-14.376957"
       style="fill:none;stroke:#ff0000;stroke-width:0.207066;stroke-linecap:butt;stroke-linejoin:bevel;stroke-dasharray:none"
       id="path255-5" />
    <path
       d="m 51.963254,135.24681 -0.009,-0.10942 0.01821,-14.39706 0.01821,-14.39706 0.2867,-1.43381 0.67518,-1.1968 0.968573,-0.7915 1.126174,-0.27556 4.969708,0.0392 1.089352,0.45924 0.619359,0.58288 0.671921,1.19894 0.283463,1.43409 0.02564,-14.376958"
       style="fill:none;stroke:#ff0000;stroke-width:0.207066;stroke-linecap:butt;stroke-linejoin:bevel;stroke-dasharray:none"
       id="path256-9" />
    <path
       d="m 171.28032,119.73694 -0.048,-0.24331 -0.67219,-1.19885 -0.61909,-0.58297 -1.08936,-0.45924 -4.96998,-0.0392 -1.1259,0.27556 -0.96856,0.79153 -0.67519,1.19669 -0.28697,1.4338 -0.28317,-1.43409 -0.67193,-1.19885 -0.61935,-0.58297 -1.08936,-0.45924 -4.96998,-0.0392 -1.1259,0.27556 -0.96856,0.79141 -0.67519,1.19681 -0.28668,1.43381 -0.28318,-1.4341 -0.67221,-1.19885 -0.61936,-0.58297 -1.08907,-0.45924 -4.96998,-0.0392 -1.12618,0.27556 -0.96856,0.79141 -0.6749,1.19681 -0.28697,1.43381 -0.28318,-1.4341 -0.67192,-1.19896 -0.61936,-0.58286 -1.08935,-0.45924 -4.96998,-0.0392 -1.1259,0.27557 -0.96857,0.7914 -0.67518,1.19681 -0.28672,1.43381 -0.28317,-1.4341 -0.67218,-1.19896 -0.61936,-0.58286 -1.08935,-0.45923 -4.9697,-0.0392 -1.12618,0.27556 -0.96857,0.79149 -0.67518,1.19681 -0.28672,1.4338 -0.28317,-1.43409 -0.6719,-1.19897 -0.61936,-0.58285 -1.08935,-0.45924 -5.94191,-0.0409 -1.12589,0.27556 -0.9686,0.7915 -0.67526,1.1968 -0.28669,1.43381 -0.28335,-1.43421 -0.67193,-1.19885 -0.61935,-0.58285 -1.08936,-0.45936 -5.9458,-0.0406 -1.125899,0.27557 -0.968848,0.79149 -0.674903,1.19672 -0.286969,1.43378 -0.283174,-1.4341 -0.671928,-1.19885 -0.619356,-0.58296 -1.089355,-0.45924 -4.969978,-0.0392 -1.125899,0.27556 -0.968566,0.79152 -0.675185,1.19672 -0.286687,1.43378 -0.283174,-1.4341 -0.67221,-1.19885 -0.619356,-0.58296 -1.089073,-0.45924 -4.969978,-0.0392 -1.126181,0.27556 -0.968566,0.79141 -0.674903,1.1968 -0.286969,1.43381 -0.283174,-1.4341 -0.671928,-1.19893 -0.619356,-0.58288 -1.089355,-0.45924 -4.969978,-0.0392 -1.125899,0.27556 -0.968591,0.79141 -0.67516,1.1968 -0.286713,1.43381 -0.28344,-1.4341 -0.671921,-1.19896 -0.619361,-0.58285 -1.089349,-0.45924 -4.969709,-0.0392 -1.126173,0.27556 -0.968574,0.79149 -0.67518,1.19681 -0.2867,1.43381 -0.283131,-1.4341 -0.671923,-1.19896 -0.619359,-0.58286 -1.089352,-0.45924 -4.969978,-0.0392 -1.125901,0.27557 -0.968574,0.79149 -0.67518,1.19681"
       style="fill:none;stroke:#ff0000;stroke-width:0.207066;stroke-linecap:butt;stroke-linejoin:bevel;stroke-dasharray:none"
       id="path257-8" />
    <path
       d="m 41.29302,119.19339 0.009,-12.86696 0.286972,-1.43378 0.675178,-1.19672 0.968574,-0.7915 1.125901,-0.27556 4.969981,0.0392 1.089352,0.45933 0.619358,0.58285 0.671923,1.19885 0.283171,1.43421 0.02436,-14.376962"
       style="fill:none;stroke:#ff0000;stroke-width:0.207066;stroke-linecap:butt;stroke-linejoin:bevel;stroke-dasharray:none"
       id="path258-4" />
    <path
       d="m 41.326946,91.949579 -0.02539,14.376851 -0.283171,-1.4341 -0.671921,-1.19885 -0.619361,-0.58297 -1.089349,-0.45924 -4.969981,-0.0392 -1.125901,0.27556 -0.968574,0.7915 -0.269331,0.47752"
       style="fill:none;stroke:#ff0000;stroke-width:0.207066;stroke-linecap:butt;stroke-linejoin:bevel;stroke-dasharray:none"
       id="path259-0" />
    <path
       d="m 160.8681,92.137202 -0.0256,14.376848 0.28697,-1.43381 0.67518,-1.1968 0.96857,-0.79141 1.1259,-0.27556 4.96998,0.0392 1.08935,0.45924 0.6191,0.58296 0.67219,1.19885 0.28317,1.4341 0.0256,-14.376848"
       style="fill:none;stroke:#ff0000;stroke-width:0.207066;stroke-linecap:butt;stroke-linejoin:bevel;stroke-dasharray:none"
       id="path260-7" />
    <path
       d="m 171.5243,119.39555 0.0103,-12.86474 0.28671,-1.43378 0.67516,-1.19672 0.9686,-0.7915 1.12615,-0.27556 4.96972,0.0392 1.08936,0.45924 0.61935,0.58297 0.26925,0.48017"
       style="fill:none;stroke:#ff0000;stroke-width:0.207066;stroke-linecap:butt;stroke-linejoin:bevel;stroke-dasharray:none"
       id="path261-6" />
    <path
       d="m 139.39373,167.46102 v -3.39225 l 0.0179,-14.39706 0.018,-14.39706 0.0179,-14.39706 0.018,-14.39706 0.28697,-1.43381 0.67493,-1.1968 0.96856,-0.79141 1.12618,-0.27556 4.96998,0.0392 1.08907,0.45924 0.61936,0.58288 0.67218,1.19893 0.28318,1.4341 0.0256,-14.37696"
       style="fill:none;stroke:#ff0000;stroke-width:0.207066;stroke-linecap:butt;stroke-linejoin:bevel;stroke-dasharray:none"
       id="path262-3" />
    <path
       d="m 128.68342,183.48294 -7.1e-4,-5.03387 0.018,-14.39706 0.018,-14.39705 0.0179,-14.39707 0.018,-14.39706 0.0179,-14.39706 0.28668,-1.43381 0.67519,-1.1968 0.96856,-0.79149 1.1259,-0.27557 4.96998,0.0392 1.08936,0.45924 0.61935,0.58286 0.67193,1.19896 0.28317,1.4341 0.0256,-14.376965"
       style="fill:none;stroke:#ff0000;stroke-width:0.207066;stroke-linecap:butt;stroke-linejoin:bevel;stroke-dasharray:none"
       id="path263-6" />
    <path
       d="m 117.97301,199.50474 v -6.6754 l 0.0179,-14.39706 0.0179,-14.39703 0.0179,-14.39705 0.0179,-14.39706 0.0179,-14.39706 0.0179,-14.39706 0.28669,-1.43381 0.67518,-1.19681 0.96857,-0.79149 1.12618,-0.27556 4.9697,0.0392 1.08935,0.45924 0.61936,0.58285 0.67221,1.19896 0.28317,1.4341 0.0257,-14.376963"
       style="fill:none;stroke:#ff0000;stroke-width:0.207066;stroke-linecap:butt;stroke-linejoin:bevel;stroke-dasharray:none"
       id="path264-1" />
    <path
       d="m 106.36135,153.4006 0.0103,-3.78069 0.0179,-14.39706 0.0179,-14.39706 0.0179,-14.39717 0.28669,-1.43378 0.67518,-1.19672 0.96857,-0.7915 1.1259,-0.27556 5.9419,0.0406 1.08935,0.45936 0.61936,0.58285 0.67193,1.19885 0.28317,1.43421 0.0256,-14.376962"
       style="fill:none;stroke:#ff0000;stroke-width:0.207066;stroke-linecap:butt;stroke-linejoin:bevel;stroke-dasharray:none"
       id="path265-5" />
    <path
       d="m 49.513323,131.5553 0.868693,0.36621 0.619359,0.58285 0.671922,1.19896 0.283172,1.4341 0.2867,-1.43381 0.67518,-1.1968 0.968573,-0.79141 1.126174,-0.27556 4.969708,0.0392 1.089352,0.45924 0.619359,0.58285 0.671921,1.19896 0.283453,1.4341 0.286687,-1.43381 0.675185,-1.1968 0.968566,-0.79141 1.125899,-0.27556 4.969978,0.0392 1.089355,0.45924 0.619356,0.58296 0.671928,1.19885 0.283174,1.4341 0.286969,-1.43381 0.674903,-1.19669 0.968592,-0.79152 1.126155,-0.27556 4.969978,0.0392 1.089098,0.45923 0.619356,0.58297 0.672185,1.19885 0.283174,1.4341 0.286713,-1.43381 0.67516,-1.19669 0.968591,-0.79152 1.125899,-0.27556 4.969978,0.0392 1.089355,0.45923 0.619355,0.58297 0.671929,1.19885 0.283148,1.4341 0.286995,-1.4337 0.674903,-1.1968 0.968848,-0.7915 1.125899,-0.27556 5.94578,0.0409 1.08935,0.45924 0.61936,0.58286 0.67193,1.19896 0.28335,1.4341 0.28671,-1.43381 0.67516,-1.19681 0.96867,-0.79149 1.1259,-0.27556 5.9419,0.0406 1.08936,0.45924 0.61935,0.58285 0.67193,1.19896 0.28317,1.4341 0.28669,-1.43381 0.67519,-1.1968 0.96856,-0.79141 1.12618,-0.27556 4.96973,0.0392 1.08932,0.45923 0.61939,0.58286 0.67218,1.19896 0.28317,1.4341 0.28669,-1.43381 0.67519,-1.1968 0.96856,-0.79141 1.12593,-0.27557 4.96998,0.0392 1.08932,0.45924 0.61939,0.58297 0.6719,1.19885 0.28317,1.4341 0.28697,-1.43381 0.67493,-1.19681 0.96857,-0.79141 1.12617,-0.27556 4.96998,0.0392 1.08907,0.45924 0.61936,0.58297 0.67219,1.19885 0.28317,1.4341 0.28671,-1.43381 0.67519,-1.19669 0.96856,-0.79153 1.1259,-0.27556 4.96998,0.0392 1.08935,0.45924 0.61936,0.58297 0.67193,1.19885 0.28317,1.4341 0.28697,-1.43381 0.67519,-1.19669 0.96856,-0.79153 0.50201,-0.12295"
       style="fill:none;stroke:#ff0000;stroke-width:0.207066;stroke-linecap:butt;stroke-linejoin:bevel;stroke-dasharray:none"
       id="path266-4" />
    <path
       d="m 56.939657,88.302472 -2.249359,-0.0029 -0.408384,0.103083 -1.006569,0.618011 -0.785827,1.078085 -0.185465,0.434447 -0.286972,1.433493 -0.142408,-0.972908 -0.550239,-1.298303 -0.557928,-0.678652 -0.671108,-0.477926 -1.12545,-0.279304 -4.97007,0.02304 -1.090257,0.455899 -0.884073,0.942148 -0.411913,0.83558 -0.2867,1.433492 -0.283081,-1.434385 -0.672193,-1.198963 -0.966673,-0.79475 -1.125178,-0.279016 -4.586929,-0.0058 -1.125902,0.275849 -0.968573,0.791812 -0.675181,1.196516 -0.2867,1.433492 -0.142408,-0.972928 -0.32506,-0.896336 -0.78311,-1.080417 -0.671377,-0.478128 -1.125178,-0.279017 -4.970071,0.02304 -1.090436,0.455784 -0.324519,0.265195 85.086024,128.010815 1.25871,-1.88285"
       style="fill:none;stroke:#000000;stroke-width:0.207066;stroke-linecap:butt;stroke-linejoin:bevel;stroke-dasharray:none"
       id="path267-2" />
    <path
       d="m 155.06869,88.453325 -2.21805,-0.0029 -1.09018,0.455784 -0.62089,0.581039 -0.67519,1.196717 -0.28669,1.433492 -0.28309,-1.434413 -0.18465,-0.435081 -0.7831,-1.080072 -0.67111,-0.478244 -1.12518,-0.279016 -4.97008,0.02304 -1.09043,0.45587 -0.88416,0.942147 -0.5535,1.296662 -0.1449,0.972439 -0.14258,-0.972928 -0.5505,-1.298303 -0.88184,-0.944998 -1.08925,-0.458923 -5.35322,-0.0086 -1.09043,0.455784 -0.88417,0.942234 -0.5535,1.296575 -0.14489,0.97241 -0.28307,-1.434385 -0.67219,-1.198848 -0.29558,-0.316621 -1.00529,-0.621264 -0.40794,-0.103948 -4.96988,-0.03887 -1.126,0.275849 -0.96856,0.791697 -0.67491,1.196804 -0.28699,1.433204 -0.28307,-1.434097 -0.40984,-0.836818 -0.88181,-0.944998 -1.08925,-0.458922 -6.32207,-0.0086 -1.09053,0.455784 -0.88406,0.942262 -0.41163,0.835494 -0.29674,1.433492 -0.28336,-1.434414 -0.40958,-0.836818 -0.8817,-0.944998 -1.08936,-0.459239 -6.322321,-0.0086 -0.74276,0.245039 -0.968592,0.791697 -0.263247,0.361224 -0.5535,1.296345 -0.144895,0.972439 -0.283353,-1.434414 -0.672031,-1.198531 -0.619356,-0.582968 -0.681135,-0.355235 -0.791537,-0.13562 -4.969799,0.02304 -0.74276,0.245327 -0.968566,0.791496 -0.675186,1.196803 -0.286687,1.433493 -0.283097,-1.434385 -0.184645,-0.435081 -0.7831,-1.080504 -0.671108,-0.477811 -0.742145,-0.247343 -5.353116,-0.0086 -0.74276,0.245039 -0.968566,0.791813 -0.263273,0.361223 -0.5535,1.296547 -0.144895,0.972525 -0.283353,-1.434384 -0.672005,-1.198964 -0.619356,-0.582853 -1.089355,-0.459239 -4.969978,-0.03887 -1.125899,0.275849 -0.672467,0.476084 -0.785562,1.077969 -0.423581,1.375703 -0.04873,0.491949 -0.283076,-1.434298 -0.672192,-1.198647 -0.619449,-0.582968 -1.089352,-0.459239 -2.334403,-0.0029"
       style="fill:none;stroke:#000000;stroke-width:0.207066;stroke-linecap:butt;stroke-linejoin:bevel;stroke-dasharray:none"
       id="path269-0" />
    <path
       d="m 155.06869,88.453325 0.76935,10e-4"
       style="fill:none;stroke:#0000ff;stroke-width:0.207066;stroke-linecap:butt;stroke-linejoin:bevel;stroke-dasharray:none"
       id="path270-9" />
    <path
       d="m 108.12597,214.23541 83.56198,-125.003287 -0.32389,-0.266347 -1.08926,-0.459239 -5.35322,-0.0086 -0.74265,0.245327 -0.67229,0.476084 -0.78582,1.077969 -0.32733,0.895328 -0.1449,0.97241 -0.28335,-1.434096 -0.6719,-1.198935 -0.9667,-0.79475 -1.12544,-0.279016 -4.58666,-0.0058 -0.79153,0.133606 -0.68204,0.352787 -0.62089,0.58124 -0.67519,1.196516 -0.28671,1.433492 -0.28307,-1.434414 -0.67218,-1.198531 -0.9667,-0.794865 -1.12518,-0.279016 -4.58684,-0.0058 -1.12597,0.275561 -0.96857,0.792014 -0.67493,1.196516 -0.28669,1.433492 -0.28335,-1.434413 -0.18439,-0.434765 -0.7831,-1.080503 -1.00531,-0.621466 -0.40792,-0.103947 -2.36599,-0.0029"
       style="fill:none;stroke:#000000;stroke-width:0.207066;stroke-linecap:butt;stroke-linejoin:bevel;stroke-dasharray:none"
       id="path271-7" />
    <path
       d="m 106.34345,167.79765 -0.0128,10.61635 -0.28335,-1.4341 -0.67201,-1.19882 -0.61935,-0.58296 -1.08936,-0.45924 -5.945699,-0.0409 -1.125899,0.27556 -0.968848,0.79141 -0.675006,1.1968 -0.286866,1.43378 -0.283174,-1.43409 -0.671928,-1.19894 -0.619356,-0.58285 -1.089355,-0.45924 -4.969978,-0.0392 -1.125899,0.27556 -0.968566,0.79152 -0.675288,1.19681 -0.286687,1.43378 -0.283071,-1.4341 -0.672211,-1.19893 -0.619355,-0.58286 -1.089073,-0.45923 -3.136709,-0.0259"
       style="fill:none;stroke:#ff0000;stroke-width:0.207066;stroke-linecap:butt;stroke-linejoin:bevel;stroke-dasharray:none"
       id="path275-3" />
    <path
       d="m 103.13483,160.33776 -5.396456,-0.0366 -1.125899,0.27556 -0.968848,0.79152 -0.675006,1.19681 -0.286892,1.43381 -0.283148,-1.43413 -0.671929,-1.19893 -0.619356,-0.58286 -1.089354,-0.45923 -4.969978,-0.0392 -1.125899,0.27556 -0.968592,0.79152 -0.675159,1.1968 -0.286713,1.43378 -0.283174,-1.43409 -0.672185,-1.19894 -0.619356,-0.58285 -1.089098,-0.45924 -4.969978,-0.0392 -1.126155,0.27556 -0.968592,0.79152 -0.67498,1.19681 -0.286892,1.43369 -0.283174,-1.43409 -0.671929,-1.19885 -0.619355,-0.58297 -1.089355,-0.45924 -2.037738,-0.0173"
       style="fill:none;stroke:#ff0000;stroke-width:0.207066;stroke-linecap:butt;stroke-linejoin:bevel;stroke-dasharray:none"
       id="path276-7" />
    <path
       d="m 106.28218,216.9812 0.0128,-9.77308 0.0179,-14.39706 0.0179,-14.39706 0.28672,-1.43378 0.67518,-1.1968 0.96857,-0.79141 1.1259,-0.27556 5.94198,0.0409 1.08927,0.45924 0.61944,0.58297 0.67193,1.19882 0.28317,1.4341 0.28671,-1.43378 0.67516,-1.19672 0.96859,-0.7915 1.12616,-0.27556 4.96972,0.0392 1.08936,0.45924 0.61935,0.58297 0.67219,1.19882 0.28309,1.43413 0.28669,-1.43381 0.67526,-1.19672 0.96859,-0.7915 1.1259,-0.27556 2.74603,0.0202"
       style="fill:none;stroke:#ff0000;stroke-width:0.207066;stroke-linecap:butt;stroke-linejoin:bevel;stroke-dasharray:none"
       id="path277-2" />
    <path
       d="m 87.746845,189.08422 4.23527,0.0334 1.089252,0.45924 0.619459,0.58286 0.671928,1.19893 0.283072,1.4341 0.286969,-1.43378 0.675006,-1.19681 0.968745,-0.79141 1.125899,-0.27556 5.945805,0.0409 1.08935,0.45924 0.61936,0.58297 0.672,1.19882 0.28336,1.43409 0.28671,-1.43378 0.67516,-1.19671 0.96859,-0.7915 1.1259,-0.27556 5.9419,0.0406 1.08936,0.45924 0.61943,0.58297 0.67193,1.19882 0.28307,1.43409 0.28671,-1.43378 0.67526,-1.19671 0.96857,-0.7915 1.1261,-0.27556 3.83421,0.0302"
       style="fill:none;stroke:#ff0000;stroke-width:0.207066;stroke-linecap:butt;stroke-linejoin:bevel;stroke-dasharray:none"
       id="path278-6" />
    <path
       d="m 109.54527,160.35095 5.80122,0.009 1.08935,0.45923 0.61936,0.58297 0.67192,1.19882 0.28318,1.43412 0.28669,-1.4338 0.67518,-1.19681 0.96857,-0.79141 1.12618,-0.27555 4.96972,0.0392 1.08933,0.45923 0.61938,0.58297 0.67218,1.19885 0.28318,1.43409 0.28669,-1.4338 0.67518,-1.19672 0.96857,-0.7915 1.12592,-0.27555 4.96998,0.0392 1.08933,0.45923 0.61938,0.58297 0.6719,1.19885 0.28318,1.43409 0.28689,-1.43381 0.675,-1.19668 0.96857,-0.79153 1.12618,-0.27555 1.65767,0.0115"
       style="fill:none;stroke:#ff0000;stroke-width:0.207066;stroke-linecap:butt;stroke-linejoin:bevel;stroke-dasharray:none"
       id="path279-0" />
    <path
       d="m 97.373136,203.56844 0.311409,-0.0763 5.945775,0.0409 1.08936,0.45924 0.61935,0.58296 0.67203,1.19882 0.28336,1.4341 0.28668,-1.43378 0.67519,-1.19672 0.96856,-0.79149 1.1259,-0.27556 5.94191,0.0406"
       style="fill:none;stroke:#ff0000;stroke-width:0.207066;stroke-linecap:butt;stroke-linejoin:bevel;stroke-dasharray:none"
       id="path280-1" />
    <path
       d="m 153.72485,145.99535 -0.56934,-0.003 -1.1259,0.27556 -0.96857,0.7915 -0.67518,1.19672 -0.28669,1.43378 -0.28317,-1.4341 -0.67222,-1.19882 -0.61935,-0.58297 -1.08907,-0.45924 -4.96998,-0.0392 -1.12618,0.27556 -0.96857,0.7915 -0.6749,1.19672 -0.28697,1.43378 -0.28317,-1.4341 -0.67193,-1.19885 -0.61936,-0.58294 -1.08935,-0.45924 -4.96998,-0.0392 -1.1259,0.27556 -0.96856,0.79141 -0.67519,1.19681 -0.28671,1.43378 -0.28318,-1.4341 -0.67218,-1.19885 -0.61936,-0.58294 -1.08935,-0.45926 -4.9697,-0.0392 -1.12618,0.27556 -0.96856,0.79138 -0.67519,1.19683 -0.28671,1.43378 -0.28318,-1.4341 -0.6719,-1.19893 -0.61935,-0.58288 -1.08936,-0.45924 -5.942,-0.0406 -1.1259,0.27556 -0.96857,0.79138 -0.67518,1.19683 -0.28669,1.43378 -0.28335,-1.4341 -0.67193,-1.19893 -0.61946,-0.58288 -1.08925,-0.45924 -5.945806,-0.0406 -1.125899,0.27556 -0.968848,0.7915 -0.674903,1.19683 -0.286969,1.43378 -0.283174,-1.4341 -0.671928,-1.19893 -0.619356,-0.58288 -1.089355,-0.45924 -4.969978,-0.0392 -1.125899,0.27556 -0.968566,0.79149 -0.675185,1.19684 -0.286687,1.43369 -0.283174,-1.43413 -0.672211,-1.19882 -0.619355,-0.58296 -1.089073,-0.45924 -4.969978,-0.0392 -1.126181,0.27556 -0.968566,0.79149 -0.674903,1.19672 -0.286969,1.43378 -0.283174,-1.43408 -0.671929,-1.19882 -0.619355,-0.58296 -1.089355,-0.45924 -4.969978,-0.0392 -1.125899,0.27556 -0.968591,0.79149 -0.67516,1.19672 -0.286713,1.43378 -0.28344,-1.4341 -0.671921,-1.19881 -0.619359,-0.58297 -1.089352,-0.45924 -0.938899,-0.006"
       style="fill:none;stroke:#ff0000;stroke-width:0.207066;stroke-linecap:butt;stroke-linejoin:bevel;stroke-dasharray:none"
       id="path281-6" />
    <path
       d="m 109.70225,153.26446 -6.65654,-0.009 -0.0103,14.67711 6.65489,0.009 z"
       style="fill:none;stroke:#000000;stroke-width:0.207066;stroke-linecap:butt;stroke-linejoin:bevel;stroke-dasharray:none"
       id="path282" />
  </g>
</svg>
