<?xml version="1.0" encoding="UTF-8" standalone="no"?>
<!-- Created with Inkscape (http://www.inkscape.org/) -->

<svg
   width="210mm"
   height="297mm"
   viewBox="0 0 210 297"
   version="1.1"
   id="svg1"
   inkscape:version="1.4.2 (f4327f4, 2025-05-13)"
   sodipodi:docname="fatada-casa.svg"
   xmlns:inkscape="http://www.inkscape.org/namespaces/inkscape"
   xmlns:sodipodi="http://sodipodi.sourceforge.net/DTD/sodipodi-0.dtd"
   xmlns="http://www.w3.org/2000/svg"
   xmlns:svg="http://www.w3.org/2000/svg">
  <sodipodi:namedview
     id="namedview1"
     pagecolor="#505050"
     bordercolor="#eeeeee"
     borderopacity="1"
     inkscape:showpageshadow="0"
     inkscape:pageopacity="0"
     inkscape:pagecheckerboard="0"
     inkscape:deskcolor="#505050"
     inkscape:document-units="mm"
     inkscape:zoom="0.74208053"
     inkscape:cx="396.8572"
     inkscape:cy="559.91228"
     inkscape:window-width="1920"
     inkscape:window-height="1051"
     inkscape:window-x="-9"
     inkscape:window-y="-9"
     inkscape:window-maximized="1"
     inkscape:current-layer="layer1" />
  <defs
     id="defs1" />
  <g
     inkscape:label="Layer 1"
     inkscape:groupmode="layer"
     id="layer1">
    <g
       id="Layer1008"
       transform="matrix(2.2050338,0,0,1.8468399,-2479.4555,-919.56568)">
      <path
         d="m 1152.235,554.166 -4.074,0.5701 -4.0209,-0.567"
         style="fill:none;stroke:#ff0000;stroke-width:0.216;stroke-linecap:butt;stroke-linejoin:bevel;stroke-dasharray:none"
         id="path829" />
      <path
         d="m 1152.1548,560.9405 -3.9938,0.5701 -3.9407,-0.5669"
         style="fill:none;stroke:#ff0000;stroke-width:0.216;stroke-linecap:butt;stroke-linejoin:bevel;stroke-dasharray:none"
         id="path830" />
      <path
         d="m 1144.1401,569.3541 4.0209,0.5669 4.074,-0.5701"
         style="fill:none;stroke:#ff0000;stroke-width:0.216;stroke-linecap:butt;stroke-linejoin:bevel;stroke-dasharray:none"
         id="path831" />
      <path
         d="m 1152.8473,578.1298 -4.6863,0.5701 -4.6329,-0.5669"
         style="fill:none;stroke:#ff0000;stroke-width:0.216;stroke-linecap:butt;stroke-linejoin:bevel;stroke-dasharray:none"
         id="path832" />
      <path
         d="m 1144.2203,562.5795 3.9407,0.567 3.9938,-0.5701"
         style="fill:none;stroke:#ff0000;stroke-width:0.216;stroke-linecap:butt;stroke-linejoin:bevel;stroke-dasharray:none"
         id="path833" />
      <path
         d="m 1198.5423,554.1691 -3.6538,1.0489 -4.8634,-1.0489"
         style="fill:none;stroke:#ff0000;stroke-width:0.216;stroke-linecap:butt;stroke-linejoin:bevel;stroke-dasharray:none"
         id="path834" />
      <path
         d="m 1198.4621,560.9437 -3.5736,1.0488 -4.7832,-1.0488"
         style="fill:none;stroke:#ff0000;stroke-width:0.216;stroke-linecap:butt;stroke-linejoin:bevel;stroke-dasharray:none"
         id="path835" />
      <path
         d="m 1190.0251,569.3541 4.8634,1.0488 3.6538,-1.0488"
         style="fill:none;stroke:#ff0000;stroke-width:0.216;stroke-linecap:butt;stroke-linejoin:bevel;stroke-dasharray:none"
         id="path836" />
      <path
         d="m 1199.1543,578.133 -4.2658,1.0488 -5.4757,-1.0488"
         style="fill:none;stroke:#ff0000;stroke-width:0.216;stroke-linecap:butt;stroke-linejoin:bevel;stroke-dasharray:none"
         id="path837" />
      <path
         d="m 1190.1053,562.5795 4.7832,1.0489 3.5736,-1.0489"
         style="fill:none;stroke:#ff0000;stroke-width:0.216;stroke-linecap:butt;stroke-linejoin:bevel;stroke-dasharray:none"
         id="path838" />
      <path
         d="m 1181.971,607.194 v -21.2598 h -21.2599 v 21.2598 z"
         style="fill:none;stroke:#ff0000;stroke-width:0.216;stroke-linecap:butt;stroke-linejoin:bevel;stroke-dasharray:none"
         id="path839" />
      <path
         d="m 1156.2488,549.5376 h -1.8663 v -1.5486 l -0.9331,-1.5485 v -1.5489 l 0.9331,-1.5485 v -1.5486 l -0.9331,-1.5486 v -1.5485 l 0.9331,-1.5486 v -1.5486 h 1.8663 v 1.5486 l 0.9335,1.5486 v 1.5485 l -0.9335,1.5486 v 1.5486 l 0.9335,1.5485 v 1.5489 l -0.9335,1.5485 z"
         style="fill:none;stroke:#000000;stroke-width:0.216;stroke-linecap:butt;stroke-linejoin:bevel;stroke-dasharray:none"
         id="path840" />
      <path
         d="m 1170.3816,595.7144 v -5.451 h -5.4509 v 5.451 z"
         style="fill:none;stroke:#000000;stroke-width:0.216;stroke-linecap:butt;stroke-linejoin:bevel;stroke-dasharray:none"
         id="path841" />
      <path
         d="m 1164.9318,597.5283 v 5.451 h 5.451 v -5.451 z"
         style="fill:none;stroke:#000000;stroke-width:0.216;stroke-linecap:butt;stroke-linejoin:bevel;stroke-dasharray:none"
         id="path842" />
      <path
         d="m 1169.384,543.3431 h -1.8663 l -0.9332,1.5485 v 1.5489 l 0.9332,1.5485 v 1.5486 h 1.8663 v -1.5486 l 0.9332,-1.5485 v -1.5489 z"
         style="fill:none;stroke:#000000;stroke-width:0.216;stroke-linecap:butt;stroke-linejoin:bevel;stroke-dasharray:none"
         id="path843" />
      <path
         d="m 1162.8164,543.3431 h -1.8663 l -0.9332,1.5485 v 1.5489 l 0.9332,1.5485 v 1.5486 h 1.8663 v -1.5486 l 0.9335,-1.5485 v -1.5489 z"
         style="fill:none;stroke:#000000;stroke-width:0.216;stroke-linecap:butt;stroke-linejoin:bevel;stroke-dasharray:none"
         id="path844" />
      <path
         d="m 1183.8929,532.7392 h 8.1748 v 11.0721 h 7.0866 v 10.1968 l -0.2849,0.161 h -0.3271 l 0.3481,6.535 -0.4283,0.2396 v 1.6358 l 0.4283,0.2396 -0.3481,6.535 h 0.3271 l 0.2849,0.161 v 22.4016 l -9.8841,11.2986 m -10.2847,11.8216 -7.6444,8.8195"
         style="fill:none;stroke:#000000;stroke-width:0.216;stroke-linecap:butt;stroke-linejoin:bevel;stroke-dasharray:none"
         id="path845" />
      <path
         d="m 1186.4336,549.5376 h 1.8663 v -1.5486 l 0.9332,-1.5485 v -1.5489 l -0.9332,-1.5485 v -1.5486 l 0.9332,-1.5486 v -1.5485 l -0.9332,-1.5486 v -1.5486 h -1.8663 v 1.5486 l -0.9335,1.5486 v 1.5485 l 0.9335,1.5486 v 1.5486 l -0.9335,1.5485 v 1.5489 l 0.9335,1.5485 z"
         style="fill:none;stroke:#000000;stroke-width:0.216;stroke-linecap:butt;stroke-linejoin:bevel;stroke-dasharray:none"
         id="path846" />
      <path
         d="m 1172.2427,595.7132 v -5.451 h 5.451 v 5.451 z"
         style="fill:none;stroke:#000000;stroke-width:0.216;stroke-linecap:butt;stroke-linejoin:bevel;stroke-dasharray:none"
         id="path847" />
      <path
         d="m 1152.5624,554.166 0.2849,-0.161 v -1.6359 l 36.5655,0.003 v 1.6358 l 0.2849,0.161 h 0.3274 l -0.3484,6.535 0.4286,0.2396 v 1.6358 l -0.4286,0.2396 0.3484,6.535 h -0.3274 l -0.2849,0.161 v 8.6179 l -2.8823,-0.5956 v 1.6362 l -14.5247,-1.5707 -0.6647,1.2447 -0.6645,-1.2447 -14.5247,1.5707 v -1.6362 l -3.3046,0.5924 v -8.6179 l -0.2849,-0.161 h -0.3274 l 0.3484,-6.535 -0.4286,-0.2395 v -1.6359 l 0.4286,-0.2395 -0.3484,-6.535 z"
         style="fill:none;stroke:#000000;stroke-width:0.216;stroke-linecap:butt;stroke-linejoin:bevel;stroke-dasharray:none"
         id="path848" />
      <path
         d="m 1177.6949,597.5271 v 5.451 h -5.451 v -5.451 z"
         style="fill:none;stroke:#000000;stroke-width:0.216;stroke-linecap:butt;stroke-linejoin:bevel;stroke-dasharray:none"
         id="path849" />
      <path
         d="m 1175.8997,543.3431 0.9332,1.5485 v 1.5489 l -0.9332,1.5485 v 1.5486 h -1.8663 v -1.5486 l -0.9334,-1.5485 v -1.5489 l 0.9408,-1.5485 z"
         style="fill:none;stroke:#000000;stroke-width:0.216;stroke-linecap:butt;stroke-linejoin:bevel;stroke-dasharray:none"
         id="path850" />
      <path
         d="m 1183.8929,532.7392 h -0.8504"
         style="fill:none;stroke:#0000ff;stroke-width:0.216;stroke-linecap:butt;stroke-linejoin:bevel;stroke-dasharray:none"
         id="path851" />
      <path
         d="m 1158.9919,532.7392 h -0.8504"
         style="fill:none;stroke:#0000ff;stroke-width:0.216;stroke-linecap:butt;stroke-linejoin:bevel;stroke-dasharray:none"
         id="path852" />
      <path
         d="m 1171.3411,623.8561 -7.6476,-8.8192 m -10.3125,-11.7975 -9.8529,-11.3227 v -22.4016 l 0.2849,-0.161 h 0.3271 l -0.3481,-6.535 0.4283,-0.2396 v -1.6358 l -0.4283,-0.2396 0.3481,-6.535 h -0.3271 l -0.2849,-0.161 v -10.1968 h 7.0866 v -11.0721 h 7.5268"
         style="fill:none;stroke:#000000;stroke-width:0.216;stroke-linecap:butt;stroke-linejoin:bevel;stroke-dasharray:none"
         id="path853" />
      <path
         d="m 1187.2389,587.8027 0.089,1.4694 -0.399,3.4174 0.055,2.9924 v 0 l 0.2952,1.7992 -0.073,0.3938 0.1254,0.7116 0.065,0.365 -0.2053,0.6149 -0.197,-0.0245 h 3e-4 l -0.3776,-1.6227 -0.052,-1.4719 -0.115,-1.6807 0.013,-1.1792 -0.053,-1.609 0.1437,-1.3365 0.151,-1.5547 -0.074,-1.2796"
         style="fill:none;stroke:#ff0000;stroke-width:0.216;stroke-linecap:butt;stroke-linejoin:bevel;stroke-dasharray:none"
         id="path854" />
      <path
         d="m 1192.0872,585.6661 0.05,1.0426 -0.2988,2.6331 -0.022,2.1747 -0.088,2.1024 -0.1436,0.9979 -0.2039,0.7336 -0.073,0.3938 0.1254,0.7118 0.065,0.3652 -0.2054,0.6147 -0.1969,-0.0245 h 2e-4 l -0.3776,-1.6226 -0.052,-1.472 -0.115,-1.6805 0.013,-1.1795 -0.053,-1.6089 0.1437,-1.3367 0.151,-1.5545 -0.074,-1.2796"
         style="fill:none;stroke:#ff0000;stroke-width:0.216;stroke-linecap:butt;stroke-linejoin:bevel;stroke-dasharray:none"
         id="path855" />
      <path
         d="m 1154.4483,586.8734 0.05,1.0426 -0.2988,2.6331 -0.022,2.1747 -0.088,2.1024 -0.1436,0.9979 -0.2039,0.7336 -0.073,0.3938 0.1253,0.7118 0.065,0.3652 -0.2054,0.6147 -0.1969,-0.0245 h 3e-4 l -0.3777,-1.6226 -0.052,-1.472 -0.1151,-1.6805 0.013,-1.1795 -0.053,-1.6089 0.1437,-1.3367 0.151,-1.5545 -0.074,-1.2796"
         style="fill:none;stroke:#ff0000;stroke-width:0.216;stroke-linecap:butt;stroke-linejoin:bevel;stroke-dasharray:none"
         id="path856" />
      <path
         d="m 1158.9919,532.7391 h 4.5241"
         style="fill:none;stroke:#000000;stroke-width:0.216;stroke-linecap:butt;stroke-linejoin:miter;stroke-dasharray:none"
         id="path857" />
      <path
         d="m 1179.1854,532.7391 h 3.8571"
         style="fill:none;stroke:#000000;stroke-width:0.216;stroke-linecap:butt;stroke-linejoin:miter;stroke-dasharray:none"
         id="path858" />
      <path
         d="m 1182.7233,543.3431 h -1.8663 l -0.9335,1.5485 v 1.5489 l 0.9335,1.5485 v 1.5486 h 1.8663 v -1.5486 l 0.9332,-1.5485 v -1.5489 z"
         style="fill:none;stroke:#000000;stroke-width:0.216;stroke-linecap:butt;stroke-linejoin:bevel;stroke-dasharray:none"
         id="path859" />
      <path
         d="m 1163.1316,615.5258 0.5619,-0.4888 3.7931,-3.2999"
         style="fill:none;stroke:#000000;stroke-width:0.216;stroke-linecap:butt;stroke-linejoin:miter;stroke-dasharray:none"
         id="path860" />
      <path
         d="m 1152.847,603.7041 0.5617,-0.4887 3.8821,-3.3773"
         style="fill:none;stroke:#000000;stroke-width:0.216;stroke-linecap:butt;stroke-linejoin:miter;stroke-dasharray:none"
         id="path861" />
      <path
         d="m 1163.1316,615.5258 -1.0245,0.9815 -1.9827,1.4978 -0.197,0.1117 -0.3213,0.1585 -0.3435,0.0312 -0.792,0.0935 -1.0559,-0.1367 -0.8659,-0.1886 -0.6512,-0.195 -0.6599,-0.3122 -1.1756,-1.199 7.2872,-6.3399 -3.3049,-3.7988 m -5.1974,-2.5257 -1.1136,0.879 -1.758,1.7561 -0.1381,0.1798 -0.2011,0.2962 -0.079,0.3358 -0.2022,0.7714 -0.011,1.0645 0.067,0.8836 0.1028,0.6721 0.2179,0.6968 1.0249,1.3301 7.287,-6.3397"
         style="fill:none;stroke:#000000;stroke-width:0.216;stroke-linecap:butt;stroke-linejoin:bevel;stroke-dasharray:none"
         id="path862" />
      <path
         d="m 1179.1855,531.9946 v 0.7448 5.0276"
         style="fill:none;stroke:#000000;stroke-width:0.216;stroke-linecap:butt;stroke-linejoin:miter;stroke-dasharray:none"
         id="path863" />
      <path
         d="m 1163.5162,531.9946 v 0.7445 5.1455"
         style="fill:none;stroke:#000000;stroke-width:0.216;stroke-linecap:butt;stroke-linejoin:miter;stroke-dasharray:none"
         id="path864" />
      <path
         d="m 1179.5474,615.5258 -0.5619,-0.4888 -3.7931,-3.2999"
         style="fill:none;stroke:#000000;stroke-width:0.216;stroke-linecap:butt;stroke-linejoin:miter;stroke-dasharray:none"
         id="path865" />
      <path
         d="m 1189.832,603.7041 -0.5617,-0.4887 -3.8821,-3.3773"
         style="fill:none;stroke:#000000;stroke-width:0.216;stroke-linecap:butt;stroke-linejoin:miter;stroke-dasharray:none"
         id="path866" />
      <path
         d="m 1179.5474,615.5258 1.0245,0.9815 1.9827,1.4978 0.197,0.1117 0.3213,0.1585 0.3436,0.0312 0.7919,0.0935 1.0559,-0.1367 0.8659,-0.1886 0.6512,-0.195 0.6599,-0.3122 1.1756,-1.199 -7.2871,-6.3399 3.3049,-3.7988 m 5.1973,-2.5257 1.1137,0.879 1.7579,1.7561 0.1381,0.1798 0.2011,0.2962 0.079,0.3358 0.2022,0.7714 0.011,1.0645 -0.067,0.8836 -0.1028,0.6721 -0.2178,0.6968 -1.025,1.3301 -7.2869,-6.3397"
         style="fill:none;stroke:#000000;stroke-width:0.216;stroke-linecap:butt;stroke-linejoin:bevel;stroke-dasharray:none"
         id="path867" />
      <path
         d="m 1169.384,543.3433 h -1.8663 l -0.9332,-1.5486 v -1.5488 l 0.9332,-1.5486 v -1.5486 h 1.8663 v 1.5486 l 0.9332,1.5486 v 1.5488 z"
         style="fill:none;stroke:#ff0000;stroke-width:0.216;stroke-linecap:butt;stroke-linejoin:bevel;stroke-dasharray:none"
         id="path868" />
      <path
         d="m 1162.8164,543.3433 h -1.8663 l -0.9332,-1.5486 v -1.5488 l 0.9332,-1.5486 v -1.5486 h 1.8663 v 1.5486 l 0.9335,1.5486 v 1.5488 z"
         style="fill:none;stroke:#ff0000;stroke-width:0.216;stroke-linecap:butt;stroke-linejoin:bevel;stroke-dasharray:none"
         id="path869" />
      <path
         d="m 1175.8997,543.3433 0.9332,-1.5486 v -1.5488 l -0.9332,-1.5486 v -1.5486 h -1.8663 v 1.5486 l -0.9334,1.5486 v 1.5488 l 0.9408,1.5486 z"
         style="fill:none;stroke:#ff0000;stroke-width:0.216;stroke-linecap:butt;stroke-linejoin:bevel;stroke-dasharray:none"
         id="path870" />
      <path
         d="m 1182.7233,543.3433 h -1.8663 l -0.9335,-1.5486 v -1.5488 l 0.9335,-1.5486 v -1.5486 h 1.8663 v 1.5486 l 0.9332,1.5486 v 1.5488 z"
         style="fill:none;stroke:#ff0000;stroke-width:0.216;stroke-linecap:butt;stroke-linejoin:bevel;stroke-dasharray:none"
         id="path871" />
      <path
         d="m 1163.516,531.9947 -0.071,-6.46 0.1658,-2.479 0.045,-0.2223 0.091,-0.3466 0.2016,-0.2802 0.4475,-0.6598 0.7946,-0.7087 0.7094,-0.5308 0.5738,-0.3646 0.668,-0.2945 1.676,-0.1037 0.039,21.829 5.0352,-0.0115 m 5.2945,-9.3674 0.065,-6.4951 -0.1766,-2.4785 -0.045,-0.2216 -0.092,-0.3464 -0.2028,-0.2793 -0.4507,-0.6578 -0.7973,-0.7049 -0.712,-0.5282 -0.5756,-0.362 -0.6691,-0.2915 -1.6764,-0.096 0.039,21.8287"
         style="fill:none;stroke:#000000;stroke-width:0.216;stroke-linecap:butt;stroke-linejoin:bevel;stroke-dasharray:none"
         id="path872" />
    </g>
  </g>
</svg>
