<?xml version="1.0" encoding="UTF-8" standalone="no"?>
<!-- Created with Inkscape (http://www.inkscape.org/) -->

<svg
   width="210mm"
   height="297mm"
   viewBox="0 0 210 297"
   version="1.1"
   id="svg1"
   inkscape:version="1.4.2 (f4327f4, 2025-05-13)"
   sodipodi:docname="perete-spate.svg"
   xmlns:inkscape="http://www.inkscape.org/namespaces/inkscape"
   xmlns:sodipodi="http://sodipodi.sourceforge.net/DTD/sodipodi-0.dtd"
   xmlns="http://www.w3.org/2000/svg"
   xmlns:svg="http://www.w3.org/2000/svg">
  <sodipodi:namedview
     id="namedview1"
     pagecolor="#505050"
     bordercolor="#eeeeee"
     borderopacity="1"
     inkscape:showpageshadow="0"
     inkscape:pageopacity="0"
     inkscape:pagecheckerboard="0"
     inkscape:deskcolor="#505050"
     inkscape:document-units="mm"
     inkscape:zoom="0.74208053"
     inkscape:cx="396.8572"
     inkscape:cy="559.91228"
     inkscape:window-width="1920"
     inkscape:window-height="1051"
     inkscape:window-x="-9"
     inkscape:window-y="-9"
     inkscape:window-maximized="1"
     inkscape:current-layer="layer1" />
  <defs
     id="defs1" />
  <g
     inkscape:label="Layer 1"
     inkscape:groupmode="layer"
     id="layer1">
    <g
       id="Layer1007"
       transform="matrix(0,1.1749118,-1.220702,0,775.7233,-907.57819)">
      <path
         d="m 852.6305,532.4437 -4.1431,0.0796 -4.7069,0.1338 -3.2766,0.0227 -4.4229,0.0791 -3.6391,-0.0666 -4.199,-0.0663 -5.2872,0.1349 -4.8251,-0.0587 -3.6235,0.0272 -3.5402,0.1211 -3.3854,0.0255 -3.1476,0.0226 -4.587,-0.1559 -2.4356,-0.0286 -1.6183,0.0119 -0.3183,-0.2321 4.2103,-0.2708 5.2458,-0.1343 4.86,-0.1831 3.7959,0.0173 4.2803,-0.2226 3.5541,0.1123 6.0474,-0.1429 7.1751,0.1352 5.9771,-0.0476 5.866,0.003 2.7967,0.0759 2.1058,0.1284 1.1401,0.0394 1.9919,-0.1114 1.0605,-0.0578 1.7586,0.1324 -0.076,0.1482 v 9e-4 z"
         style="fill:none;stroke:#ff0000;stroke-width:0.216;stroke-linecap:butt;stroke-linejoin:bevel;stroke-dasharray:none"
         id="path792" />
      <path
         d="m 847.474,541.0797 3.4401,-0.0496 3.9289,-0.129 2.7547,0.0278 3.761,-0.0502 3.1184,0.1965 3.6295,0.2061 4.5912,-0.1248 4.2288,0.2095 3.2229,0.0303 3.1811,-0.138 3.0535,0.0283 2.8406,0.0253 4.1584,0.3827 2.2609,0.1077 1.5148,0.015 0.2501,0.4297 -3.9096,0.3872 -4.8022,0.1205 -4.3959,0.2086 -3.4127,-0.1187 -3.7998,0.2968 -3.1567,-0.2863 -5.2716,0.1136 -6.1446,-0.4045 -5.0817,-0.0502 -4.909,-0.1335 -2.3298,-0.1913 -1.7087,-0.265 -0.919,-0.0976 -1.6651,0.1514 -0.8541,0.0783 -1.4329,-0.2657 0.0612,-0.2491 v -6e-4 z"
         style="fill:none;stroke:#ff0000;stroke-width:0.216;stroke-linecap:butt;stroke-linejoin:bevel;stroke-dasharray:none"
         id="path793" />
      <path
         d="m 942.7561,529.2133 2.7198,-0.0399 3.106,-0.1015 2.1784,0.0227 2.9727,-0.0397 2.467,0.1545 2.8695,0.1635 3.6303,-0.0978 3.3429,0.1653 2.5484,0.0227 2.5157,-0.1083 2.4143,0.0224 2.2459,0.0201 3.2881,0.3024 1.7873,0.0851 1.1982,0.01 0.197,0.3407 -3.0909,0.3065 -3.7967,0.0955 -3.4756,0.1644 -2.6988,-0.0944 -3.0048,0.2353 -2.4956,-0.2259 -4.1678,0.0898 -4.8594,-0.32 -4.0167,-0.04 -3.882,-0.1054 -1.8409,-0.1517 -1.3524,-0.2098 -0.7262,-0.0765 -1.3167,0.1196 -0.6755,0.0618 -1.1322,-0.2103 0.048,-0.1964 v 0 z"
         style="fill:none;stroke:#ff0000;stroke-width:0.216;stroke-linecap:butt;stroke-linejoin:bevel;stroke-dasharray:none"
         id="path794" />
      <path
         d="m 948.5796,550.9199 -4.1428,0.0794 -4.7073,0.1341 -3.2762,0.0226 -4.4229,0.0791 -3.6392,-0.0669 -4.1992,-0.0663 -5.2872,0.1352 -4.8248,-0.0587 -3.6236,0.0272 -3.5404,0.1211 -3.3852,0.0252 -3.1476,0.023 -4.5873,-0.1559 -2.4352,-0.0287 -1.6186,0.0119 -0.3183,-0.2324 4.2103,-0.2707 5.2461,-0.1341 4.86,-0.1834 3.7958,0.0173 4.2801,-0.2225 3.5543,0.1125 6.0472,-0.1429 7.1753,0.1353 5.9769,-0.0477 5.866,0.003 2.7966,0.0759 2.1062,0.1285 1.1401,0.0391 1.9916,-0.1114 1.0604,-0.0579 1.7589,0.1327 -0.0759,0.1483 v 8e-4 z"
         style="fill:none;stroke:#ff0000;stroke-width:0.216;stroke-linecap:butt;stroke-linejoin:bevel;stroke-dasharray:none"
         id="path795" />
      <path
         d="m 988.9339,557.6675 -1.3144,0.0374 -3.2763,0.0227 -4.4229,0.0791 -3.6391,-0.0669 -4.1993,-0.0661 -5.2872,0.135 -4.8248,-0.0587 -3.6235,0.0272 -3.5402,0.121 -3.3854,0.0253 -3.1476,0.0229 -4.5871,-0.1559 -2.4355,-0.0286 -1.6183,0.0119 -0.3186,-0.2324 4.2106,-0.2705 5.2458,-0.1343 4.86,-0.1832 3.7959,0.0173 4.2803,-0.2228 3.554,0.1126 6.0475,-0.1429 7.175,0.1352 5.9772,-0.0476 4.4739,0.002"
         style="fill:none;stroke:#ff0000;stroke-width:0.216;stroke-linecap:butt;stroke-linejoin:bevel;stroke-dasharray:none"
         id="path796" />
      <path
         d="m 848.3071,518.7101 35.583,-0.005 m 15.6691,0 42.41,0.005"
         style="fill:none;stroke:#000000;stroke-width:0.216;stroke-linecap:butt;stroke-linejoin:bevel;stroke-dasharray:none"
         id="path797" />
      <path
         d="m 847.4567,518.7101 h 0.8504"
         style="fill:none;stroke:#0000ff;stroke-width:0.216;stroke-linecap:butt;stroke-linejoin:bevel;stroke-dasharray:none"
         id="path798" />
      <path
         d="m 942.8196,518.7101 h 48.8262 c 0,4.6188 0,8.0068 0,10.5942 m 3e-4,43.2641 h -18.8269 m -15.6691,0 h -14.0207"
         style="fill:none;stroke:#000000;stroke-width:0.216;stroke-linecap:butt;stroke-linejoin:bevel;stroke-dasharray:none"
         id="path799" />
      <path
         d="m 941.9692,518.7101 h 0.8504"
         style="fill:none;stroke:#0000ff;stroke-width:0.216;stroke-linecap:butt;stroke-linejoin:bevel;stroke-dasharray:none"
         id="path800" />
      <path
         d="m 846.7897,572.5684 h -20.5353 m -15.669,0 h -18.7821 m 3e-4,-42.8593 v -10.999 h 55.6531"
         style="fill:none;stroke:#000000;stroke-width:0.216;stroke-linecap:butt;stroke-linejoin:bevel;stroke-dasharray:none"
         id="path801" />
      <path
         d="M 942.279,572.5684 H 847.6401"
         style="fill:none;stroke:#000000;stroke-width:0.216;stroke-linecap:butt;stroke-linejoin:bevel;stroke-dasharray:none"
         id="path802" />
      <path
         d="m 942.279,572.5684 h 0.8504"
         style="fill:none;stroke:#0000ff;stroke-width:0.216;stroke-linecap:butt;stroke-linejoin:bevel;stroke-dasharray:none"
         id="path803" />
      <path
         d="m 846.7897,572.5684 h 0.8504"
         style="fill:none;stroke:#0000ff;stroke-width:0.216;stroke-linecap:butt;stroke-linejoin:bevel;stroke-dasharray:none"
         id="path804" />
      <path
         d="m 899.5593,517.9606 v 0.7447 5.0277"
         style="fill:none;stroke:#000000;stroke-width:0.216;stroke-linecap:butt;stroke-linejoin:miter;stroke-dasharray:none"
         id="path805" />
      <path
         d="m 883.89,517.9606 v 0.7444 5.1456"
         style="fill:none;stroke:#000000;stroke-width:0.216;stroke-linecap:butt;stroke-linejoin:miter;stroke-dasharray:none"
         id="path806" />
      <path
         d="m 899.5593,517.9606 0.068,-1.4172 -0.1713,-2.4789 -0.045,-0.222 -0.0913,-0.3464 -0.202,-0.2797 -0.4492,-0.6588 -0.7959,-0.7069 -0.7109,-0.5295 -0.5746,-0.3633 -0.6687,-0.293 -1.6761,-0.0997 v 12.2123 h -5.0353 m -5.317,-4.8169 -0.0678,-1.4172 0.1711,-2.4789 0.045,-0.222 0.0913,-0.3464 0.202,-0.2797 0.4492,-0.6588 0.7959,-0.7069 0.7109,-0.5295 0.5745,-0.3633 0.6687,-0.293 1.6762,-0.0997 v 12.2123"
         style="fill:none;stroke:#000000;stroke-width:0.216;stroke-linecap:butt;stroke-linejoin:bevel;stroke-dasharray:none"
         id="path807" />
      <path
         d="m 991.6458,544.2871 v 13.5338"
         style="fill:none;stroke:#000000;stroke-width:0.216;stroke-linecap:butt;stroke-linejoin:bevel;stroke-dasharray:none"
         id="path808" />
      <path
         d="m 957.1485,573.2626 0.002,-0.7447 0.0112,-5.0277"
         style="fill:none;stroke:#000000;stroke-width:0.216;stroke-linecap:butt;stroke-linejoin:miter;stroke-dasharray:none"
         id="path809" />
      <path
         d="m 972.8178,573.2975 0.002,-0.7445 0.0115,-5.1455"
         style="fill:none;stroke:#000000;stroke-width:0.216;stroke-linecap:butt;stroke-linejoin:miter;stroke-dasharray:none"
         id="path810" />
      <path
         d="M 998.7324,544.2871 V 529.3043"
         style="fill:none;stroke:#000000;stroke-width:0.216;stroke-linecap:butt;stroke-linejoin:bevel;stroke-dasharray:none"
         id="path811" />
      <path
         d="m 991.6458,529.4177 2.126,-0.3682 1.4822,-0.1134 1.3524,0.1131 2.126,0.3685"
         style="fill:none;stroke:#000000;stroke-width:0.216;stroke-linecap:butt;stroke-linejoin:bevel;stroke-dasharray:none"
         id="path812" />
      <path
         d="m 991.6458,544.1737 2.126,0.3683 1.6826,2e-4 h 1.152 l 2.126,-0.3685"
         style="fill:none;stroke:#000000;stroke-width:0.216;stroke-linecap:butt;stroke-linejoin:bevel;stroke-dasharray:none"
         id="path813" />
      <path
         d="M 998.7324,572.5857 V 557.8209"
         style="fill:none;stroke:#000000;stroke-width:0.216;stroke-linecap:butt;stroke-linejoin:bevel;stroke-dasharray:none"
         id="path814" />
      <path
         d="m 991.6458,557.9909 2.126,-0.3682 1.1222,-0.0859 0.36,-0.0275 1.3524,0.1131 2.126,0.3685"
         style="fill:none;stroke:#000000;stroke-width:0.216;stroke-linecap:butt;stroke-linejoin:bevel;stroke-dasharray:none"
         id="path815" />
      <path
         d="m 991.6461,572.5684 7.0863,0.0173"
         style="fill:none;stroke:#000000;stroke-width:0.216;stroke-linecap:butt;stroke-linejoin:bevel;stroke-dasharray:none"
         id="path816" />
      <path
         d="m 791.8036,544.2871 v 13.5338"
         style="fill:none;stroke:#000000;stroke-width:0.216;stroke-linecap:butt;stroke-linejoin:bevel;stroke-dasharray:none"
         id="path817" />
      <path
         d="m 784.7169,544.2871 v -14.756 -0.2268"
         style="fill:none;stroke:#000000;stroke-width:0.216;stroke-linecap:butt;stroke-linejoin:bevel;stroke-dasharray:none"
         id="path818" />
      <path
         d="m 791.8036,529.5311 -2.126,-0.3682 -1.311,-0.0567 -1.5237,0.0564 -2.126,0.3685"
         style="fill:none;stroke:#000000;stroke-width:0.216;stroke-linecap:butt;stroke-linejoin:bevel;stroke-dasharray:none"
         id="path819" />
      <path
         d="m 791.8036,544.1737 -2.126,0.3683 -1.4069,0.0566 -1.4278,-0.0564 -2.126,-0.3685"
         style="fill:none;stroke:#000000;stroke-width:0.216;stroke-linecap:butt;stroke-linejoin:bevel;stroke-dasharray:none"
         id="path820" />
      <path
         d="M 784.7169,572.5857 V 557.8209"
         style="fill:none;stroke:#000000;stroke-width:0.216;stroke-linecap:butt;stroke-linejoin:bevel;stroke-dasharray:none"
         id="path821" />
      <path
         d="m 791.8036,557.9342 -2.126,-0.3682 -1.4823,-0.1134 -1.3524,0.1131 -2.126,0.3685"
         style="fill:none;stroke:#000000;stroke-width:0.216;stroke-linecap:butt;stroke-linejoin:bevel;stroke-dasharray:none"
         id="path822" />
      <path
         d="m 791.8033,572.5684 -7.0864,0.0173"
         style="fill:none;stroke:#000000;stroke-width:0.216;stroke-linecap:butt;stroke-linejoin:bevel;stroke-dasharray:none"
         id="path823" />
      <path
         d="m 810.5846,573.2626 0.002,-0.7447 0.0112,-5.0277"
         style="fill:none;stroke:#000000;stroke-width:0.216;stroke-linecap:butt;stroke-linejoin:miter;stroke-dasharray:none"
         id="path824" />
      <path
         d="m 826.2538,573.2975 0.002,-0.7445 0.0115,-5.1455"
         style="fill:none;stroke:#000000;stroke-width:0.216;stroke-linecap:butt;stroke-linejoin:miter;stroke-dasharray:none"
         id="path825" />
      <path
         d="m 854.9501,557.6675 -1.3144,0.0374 -3.2763,0.0227 -4.4229,0.0791 -3.6391,-0.0669 -4.1993,-0.0661 -5.2871,0.135 -4.8249,-0.0587 -3.6235,0.0272 -3.5402,0.121 -3.3854,0.0253 -3.1476,0.0229 -4.587,-0.1559 -2.4356,-0.0286 -1.6183,0.0119 -0.3186,-0.2324 4.2106,-0.2705 5.2458,-0.1343 4.86,-0.1832 3.7959,0.0173 4.2803,-0.2228 3.5541,0.1126 6.0474,-0.1429 7.1751,0.1352 5.9771,-0.0476 4.4739,0.002"
         style="fill:none;stroke:#ff0000;stroke-width:0.216;stroke-linecap:butt;stroke-linejoin:bevel;stroke-dasharray:none"
         id="path826" />
      <path
         d="m 957.1485,573.2626 -0.0713,9.9647 0.1658,2.4791 0.0446,0.2222 0.0905,0.3467 0.2016,0.2801 0.4475,0.6599 0.7946,0.7086 0.7094,0.5308 0.5738,0.3646 0.668,0.2945 1.676,0.1037 0.039,-21.8289 5.0352,0.0114 m 5.2946,5.8975 0.0645,9.965 -0.1765,2.4785 -0.0456,0.2216 -0.0918,0.3465 -0.2028,0.2792 -0.4507,0.6579 -0.7973,0.7048 -0.712,0.5282 -0.5756,0.362 -0.6691,0.2915 -1.6764,0.096 0.0387,-21.8287"
         style="fill:none;stroke:#000000;stroke-width:0.216;stroke-linecap:butt;stroke-linejoin:bevel;stroke-dasharray:none"
         id="path827" />
      <path
         d="m 810.5846,573.2626 -0.0713,9.9647 0.1658,2.4791 0.0445,0.2222 0.0905,0.3467 0.2016,0.2801 0.4476,0.6599 0.7946,0.7086 0.7094,0.5308 0.5737,0.3646 0.6681,0.2945 1.6759,0.1037 0.0396,-22.206 5.0355,0.0114 m 5.2937,6.2746 0.0646,9.965 -0.1766,2.4785 -0.0455,0.2216 -0.0918,0.3465 -0.2029,0.2792 -0.4507,0.6579 -0.7972,0.7048 -0.7121,0.5282 -0.5756,0.362 -0.6691,0.2915 -1.6764,0.096 0.0396,-22.2058"
         style="fill:none;stroke:#000000;stroke-width:0.216;stroke-linecap:butt;stroke-linejoin:bevel;stroke-dasharray:none"
         id="path828" />
    </g>
  </g>
</svg>
