<?xml version="1.0" encoding="UTF-8" standalone="no"?>
<!-- Created with Inkscape (http://www.inkscape.org/) -->

<svg
   width="210mm"
   height="297mm"
   viewBox="0 0 210 297"
   version="1.1"
   id="svg1"
   inkscape:version="1.4.2 (f4327f4, 2025-05-13)"
   sodipodi:docname="perete-exterior-stanga.svg"
   xmlns:inkscape="http://www.inkscape.org/namespaces/inkscape"
   xmlns:sodipodi="http://sodipodi.sourceforge.net/DTD/sodipodi-0.dtd"
   xmlns="http://www.w3.org/2000/svg"
   xmlns:svg="http://www.w3.org/2000/svg">
  <sodipodi:namedview
     id="namedview1"
     pagecolor="#505050"
     bordercolor="#eeeeee"
     borderopacity="1"
     inkscape:showpageshadow="0"
     inkscape:pageopacity="0"
     inkscape:pagecheckerboard="0"
     inkscape:deskcolor="#505050"
     inkscape:document-units="mm"
     inkscape:zoom="0.37104025"
     inkscape:cx="-82.201325"
     inkscape:cy="335.54311"
     inkscape:window-width="1920"
     inkscape:window-height="1051"
     inkscape:window-x="-9"
     inkscape:window-y="-9"
     inkscape:window-maximized="1"
     inkscape:current-layer="layer1" />
  <defs
     id="defs1" />
  <g
     inkscape:label="Layer 1"
     inkscape:groupmode="layer"
     id="layer1">
    <path
       d="m 97.58156,203.72362 1.369741,7.55305 -2.473024,6.59992"
       style="fill:none;stroke:#ff0000;stroke-width:0.463533;stroke-linecap:butt;stroke-linejoin:bevel;stroke-dasharray:none"
       id="path540" />
    <path
       d="m 112.98524,203.88621 1.37019,7.39046 -2.47303,6.43687"
       style="fill:none;stroke:#ff0000;stroke-width:0.463533;stroke-linecap:butt;stroke-linejoin:bevel;stroke-dasharray:none"
       id="path541" />
    <path
       d="m 131.00625,217.87601 2.47374,-6.59876 -1.3702,-7.55363"
       style="fill:none;stroke:#ff0000;stroke-width:0.463533;stroke-linecap:butt;stroke-linejoin:bevel;stroke-dasharray:none"
       id="path542" />
    <path
       d="m 152.07021,202.48412 1.37161,8.79255 -2.47374,7.49495"
       style="fill:none;stroke:#ff0000;stroke-width:0.463533;stroke-linecap:butt;stroke-linejoin:bevel;stroke-dasharray:none"
       id="path543" />
    <path
       d="m 115.60264,217.36907 2.47322,-6.0924 -1.37045,-7.39046"
       style="fill:none;stroke:#ff0000;stroke-width:0.463533;stroke-linecap:butt;stroke-linejoin:bevel;stroke-dasharray:none"
       id="path544" />
    <path
       d="m 96.478277,110.76164 2.018743,7.20629 -2.012362,7.14296"
       style="fill:none;stroke:#ff0000;stroke-width:0.463533;stroke-linecap:butt;stroke-linejoin:bevel;stroke-dasharray:none"
       id="path545" />
    <path
       d="m 111.8824,110.92406 2.01868,7.04427 -2.01229,6.98009"
       style="fill:none;stroke:#ff0000;stroke-width:0.463533;stroke-linecap:butt;stroke-linejoin:bevel;stroke-dasharray:none"
       id="path546" />
    <path
       d="m 131.01263,125.11089 2.01236,-7.14296 -2.01874,-7.20629"
       style="fill:none;stroke:#ff0000;stroke-width:0.463533;stroke-linecap:butt;stroke-linejoin:bevel;stroke-dasharray:none"
       id="path547" />
    <path
       d="m 150.96808,109.52151 2.01868,8.44642 -2.0123,8.38304"
       style="fill:none;stroke:#ff0000;stroke-width:0.463533;stroke-linecap:butt;stroke-linejoin:bevel;stroke-dasharray:none"
       id="path548" />
    <path
       d="m 115.60921,124.94842 2.01211,-6.98009 -2.01868,-7.04427"
       style="fill:none;stroke:#ff0000;stroke-width:0.463533;stroke-linecap:butt;stroke-linejoin:bevel;stroke-dasharray:none"
       id="path549" />
    <path
       d="m 64.779829,190.80505 3.527643,-1.88985 h 3.527643 l 3.528094,1.88985 h 3.527643 l 3.527579,-1.88985 h 3.528352 v -3.78006 h -3.528352 l -3.527579,-1.89043 h -3.527643 l -3.528094,1.89043 h -3.527643 l -3.527643,-1.89043 h -3.528288 l -3.527643,1.89043 h -3.528294 v 3.78006 h 3.528294 l 3.527643,1.88985 z"
       style="fill:none;stroke:#000000;stroke-width:0.463533;stroke-linecap:butt;stroke-linejoin:bevel;stroke-dasharray:none"
       id="path550" />
    <path
       d="m 71.835115,173.50775 v -3.78052 l 3.528094,-1.89003 h 3.527643 l 3.527579,1.89003 h 3.528352 v 3.78052 h -3.528352 l -3.527579,1.89003 h -3.527643 z"
       style="fill:none;stroke:#000000;stroke-width:0.463533;stroke-linecap:butt;stroke-linejoin:bevel;stroke-dasharray:none"
       id="path551" />
    <path
       d="m 71.835115,154.52491 3.528094,-1.89003 h 3.527643 l 3.527579,1.89003 h 3.528352 v 3.78052 h -3.528352 l -3.527579,1.88979 h -3.527643 l -3.528094,-1.88979 z"
       style="fill:none;stroke:#000000;stroke-width:0.463533;stroke-linecap:butt;stroke-linejoin:bevel;stroke-dasharray:none"
       id="path552" />
    <path
       d="m 71.835115,127.9052 v -3.78068 l 3.528094,-1.8898 h 3.527643 l 3.527579,1.8898 h 3.528352 v 3.78068 h -3.528352 l -3.527579,1.88986 h -3.527643 z"
       style="fill:none;stroke:#000000;stroke-width:0.463533;stroke-linecap:butt;stroke-linejoin:bevel;stroke-dasharray:none"
       id="path553" />
    <path
       d="m 71.835115,104.19612 h -3.527643 l -3.527643,-1.89043 h -3.528288 l -3.527643,1.89043 h -3.528294 v 3.77988 h 3.528294 l 3.527643,1.89003 h 3.528288 l 3.527643,-1.89003 h 3.527643 l 3.528094,1.89003 h 3.527643 l 3.527579,-1.89003 h 3.528352 v -3.77988 h -3.528352 l -3.527579,-1.89043 h -3.527643 z"
       style="fill:none;stroke:#000000;stroke-width:0.463533;stroke-linecap:butt;stroke-linejoin:bevel;stroke-dasharray:none"
       id="path554" />
    <path
       d="m 92.39245,169.64565 1.102767,32.83807 h 3.720236 l 0.365462,0.57738 v 0.66252 l 14.859545,-0.705 0.54465,0.86759 h 3.72017 l 0.544,-0.86702 14.85955,0.70443 v -0.66252 l 0.3661,-0.57738 19.59573,4e-4 -2.45711,-9.28049 0.83857,-5.8e-4 m 1.93366,5.8e-4 h 0.9482 l -3.57153,-28.97413 2.83094,-1.34566 -2.83094,-1.34623 3.57153,-28.97413 h -0.71674 m -1.93366,0 h -1.07003 l 1.36066,-6.21251 h -19.59502 l -0.36675,-0.57698 v -0.6631 l -14.85954,0.70559 -0.54401,-0.86806 h -3.72043 l -0.54464,0.86806 -14.859549,-0.70559 v 0.6631 l -0.364817,0.57698 h -3.720236 l -0.0064,41.57252"
       style="fill:none;stroke:#000000;stroke-width:0.463533;stroke-linecap:butt;stroke-linejoin:bevel;stroke-dasharray:none"
       id="path555" />
    <path
       d="m 72.926345,84.641354 v 6.618973 h 19.336486 l 0.129555,18.261183 h 3.720171 l 0.365462,0.57761 v 0.66252 l 14.859291,-0.70506 0.54464,0.86748 h 3.72024 l 0.544,-0.86748 14.85948,0.70506 v -0.66252 l 0.36611,-0.57761 h 19.59572 l -1.35427,-9.984237 h 3.72043 l -2.23609,-19.936548 v -2.693094 h 19.11612 v 21.216757 m 10e-4,1.653495 -10e-4,9.776467 8.05763,-0.63152 8.05686,0.63152 v 12.36685 l -8.05686,0.63146 -8.05692,-0.63146 v 21.79597 m 0,1.43534 v 50.30226 m 0,1.72239 v 8.91524 l 8.05692,-0.63146 8.05686,0.63146 v 12.36972 l -8.05686,0.63152 -8.05692,-0.28705 h -26.07981 -12.76281 l -0.36611,-0.26754 v -0.6631 l -14.85948,0.70559 -0.544,-1.21252 -3.72024,0.34446 -0.54464,0.86806 -14.859291,-0.70559 v 0.6631 l -0.365462,0.57698 h -3.720171 v 2.03 H 73.057705 v -14.3527 H 60.899486"
       style="fill:none;stroke:#000000;stroke-width:0.463533;stroke-linecap:butt;stroke-linejoin:bevel;stroke-dasharray:none"
       id="path556" />
    <path
       d="m 92.39245,167.92349 v 1.72216"
       style="fill:none;stroke:#0000ff;stroke-width:0.463533;stroke-linecap:butt;stroke-linejoin:bevel;stroke-dasharray:none"
       id="path557" />
    <path
       d="m 72.926345,82.919024 v 1.72233"
       style="fill:none;stroke:#0000ff;stroke-width:0.463533;stroke-linecap:butt;stroke-linejoin:bevel;stroke-dasharray:none"
       id="path558" />
    <path
       d="M 58.965889,206.79339 H 47.879537 l -0.126912,-38.67545 m -0.0535,-31.73548 0.05092,-59.466332 h 17.467434 7.708993 v 6.002896"
       style="fill:none;stroke:#000000;stroke-width:0.463533;stroke-linecap:butt;stroke-linejoin:bevel;stroke-dasharray:none"
       id="path559" />
    <path
       d="M 58.965889,206.79339 H 60.89955"
       style="fill:none;stroke:#0000ff;stroke-width:0.463533;stroke-linecap:butt;stroke-linejoin:bevel;stroke-dasharray:none"
       id="path560" />
    <path
       d="m 159.36649,76.907631 -0.11537,3.241943 0.21786,8.221831 -0.20626,9.755222 0.0728,8.126013 -0.005,7.97554 -0.11602,3.80233 -0.19594,2.86303 -0.058,1.55015 0.17016,2.70808 0.0883,1.44142 -0.20239,2.39134 -0.22624,-0.10334 h -0.001 l -0.50017,-6.30017 -0.12118,-5.63265 -0.20432,-6.39943 -0.0322,-4.45453 -0.12053,-6.0134 0.10184,-4.947678 0.1012,-5.708779 -0.20626,-7.188491 0.0728,-5.328259"
       style="fill:none;stroke:#ff0000;stroke-width:0.463533;stroke-linecap:butt;stroke-linejoin:bevel;stroke-dasharray:none"
       id="path561" />
    <path
       d="m 166.60296,123.10157 0.0761,4.67727 0.19659,5.34141 -0.0451,3.74561 0.0767,5.11296 -0.29972,4.23981 -0.31454,4.93453 0.19014,6.24224 -0.31969,5.74914 -0.0451,4.38219 0.21077,4.32465 -0.0451,4.15134 -0.0387,3.86209 -0.58396,5.65395 -0.16436,3.07362 -0.0258,2.05933 -0.65603,0.33987 -0.59106,-5.31505 -0.1837,-6.52867 -0.31841,-5.97717 0.18112,-4.63939 -0.45312,-5.16641 0.43701,-4.29148 -0.17338,-7.16702 0.61748,-8.3545 0.0767,-6.90879 0.20368,-6.67409 0.29198,-3.16742 0.40478,-2.32325 0.14889,-1.24938 -0.23139,-2.26371 -0.11924,-1.16137 0.40542,-1.94796 0.38029,0.0833 h 0.001 z"
       style="fill:none;stroke:#ff0000;stroke-width:0.463533;stroke-linecap:butt;stroke-linejoin:bevel;stroke-dasharray:none"
       id="path562" />
    <path
       d="m 156.35185,218.46212 -0.0941,-3.90159 0.72764,-9.84186 0.0909,-8.13514 0.23978,-7.86255 0.34483,-3.72885 0.47697,-2.73845 0.17403,-1.47075 -0.272,-2.6668 -0.14051,-1.3681 0.47826,-2.29369 0.44732,0.0976 h -6.5e-4 l 0.82903,6.08166 0.0909,5.50847 0.23075,6.29047 -0.0516,4.41215 0.0902,6.02075 -0.35128,4.99625 -0.37191,5.81126 0.14438,4.78911"
       style="fill:none;stroke:#ff0000;stroke-width:0.463533;stroke-linecap:butt;stroke-linejoin:bevel;stroke-dasharray:none"
       id="path563" />
    <path
       d="m 51.441729,102.62828 0.294496,99.25773"
       style="fill:none;stroke:#ff0000;stroke-width:0.463533;stroke-linecap:butt;stroke-linejoin:bevel;stroke-dasharray:none"
       id="path564" />
    <path
       d="m 88.182418,102.62828 0.293917,99.25773"
       style="fill:none;stroke:#ff0000;stroke-width:0.463533;stroke-linecap:butt;stroke-linejoin:bevel;stroke-dasharray:none"
       id="path565" />
    <path
       d="m 170.21498,195.4546 v 1.72233"
       style="fill:none;stroke:#0000ff;stroke-width:0.463533;stroke-linecap:butt;stroke-linejoin:bevel;stroke-dasharray:none"
       id="path566" />
    <path
       d="m 150.45257,193.20346 h 1.93373"
       style="fill:none;stroke:#0000ff;stroke-width:0.463533;stroke-linecap:butt;stroke-linejoin:bevel;stroke-dasharray:none"
       id="path567" />
    <path
       d="m 150.68338,132.56325 h 1.93367"
       style="fill:none;stroke:#0000ff;stroke-width:0.463533;stroke-linecap:butt;stroke-linejoin:bevel;stroke-dasharray:none"
       id="path568" />
    <path
       d="m 170.21478,143.43058 v 1.72233"
       style="fill:none;stroke:#0000ff;stroke-width:0.463533;stroke-linecap:butt;stroke-linejoin:bevel;stroke-dasharray:none"
       id="path569" />
    <path
       d="m 170.21478,98.12479 v 1.72233"
       style="fill:none;stroke:#0000ff;stroke-width:0.463533;stroke-linecap:butt;stroke-linejoin:bevel;stroke-dasharray:none"
       id="path570" />
    <path
       d="m 46.078654,168.12036 1.693327,-0.002 11.4322,-0.0172"
       style="fill:none;stroke:#000000;stroke-width:0.463533;stroke-linecap:butt;stroke-linejoin:miter;stroke-dasharray:none"
       id="path571" />
    <path
       d="m 46.022945,136.38504 1.692876,-0.002 11.700031,-0.0172"
       style="fill:none;stroke:#000000;stroke-width:0.463533;stroke-linecap:butt;stroke-linejoin:miter;stroke-dasharray:none"
       id="path572" />
    <path
       d="m 46.078654,168.12036 -3.222253,0.14295 -5.636617,-0.3393 -0.505459,-0.0907 -0.787884,-0.18372 -0.637334,-0.40876 -1.499142,-0.90715 -1.610334,-1.60969 -1.206953,-1.43821 -0.827452,-1.16251 -0.668732,-1.35335 -0.233264,-3.39443 22.365921,-0.0517 -0.01805,-10.19797 m -5.568855,-10.74172 -3.222485,-0.13204 -5.636159,0.35422 -0.504557,0.0919 -0.787207,0.18601 -0.635981,0.40992 -1.495958,0.91197 -1.604417,1.61423 -1.202634,1.44141 -0.822902,1.16436 -0.663961,1.35616 -0.22076,3.39465 22.365921,-0.0517"
       style="fill:none;stroke:#000000;stroke-width:0.463533;stroke-linecap:butt;stroke-linejoin:bevel;stroke-dasharray:none"
       id="path573" />
    <path
       d="m 71.809849,140.19449 3.528352,-1.89003 h 3.527643 l 3.527578,1.89003 h 3.528352 v 3.78052 h -3.528352 l -3.527578,1.89002 h -3.527643 l -3.528352,-1.89002 z"
       style="fill:none;stroke:#000000;stroke-width:0.463533;stroke-linecap:butt;stroke-linejoin:bevel;stroke-dasharray:none"
       id="path574" />
    <path
       d="m 71.835308,173.50775 v -3.78052 l -3.528287,-1.89003 h -3.527643 l -3.527643,1.89003 h -3.528288 v 3.78052 h 3.528288 l 3.527643,1.89003 h 3.527643 z"
       style="fill:none;stroke:#ff0000;stroke-width:0.463533;stroke-linecap:butt;stroke-linejoin:bevel;stroke-dasharray:none"
       id="path631" />
    <path
       d="m 71.835308,154.52491 -3.528287,-1.89003 h -3.527643 l -3.527643,1.89003 h -3.528288 v 3.78052 h 3.528288 l 3.527643,1.88979 h 3.527643 l 3.528287,-1.88979 z"
       style="fill:none;stroke:#ff0000;stroke-width:0.463533;stroke-linecap:butt;stroke-linejoin:bevel;stroke-dasharray:none"
       id="path632" />
    <path
       d="m 71.835308,127.9052 v -3.78068 l -3.528287,-1.8898 h -3.527643 l -3.527643,1.8898 h -3.528288 v 3.78068 h 3.528288 l 3.527643,1.88986 h 3.527643 z"
       style="fill:none;stroke:#ff0000;stroke-width:0.463533;stroke-linecap:butt;stroke-linejoin:bevel;stroke-dasharray:none"
       id="path633" />
    <path
       d="m 71.860317,140.19449 -3.528287,-1.89003 h -3.527644 l -3.527643,1.89003 h -3.528287 v 3.78052 h 3.528287 l 3.527643,1.89002 h 3.527644 l 3.528287,-1.89002 z"
       style="fill:none;stroke:#ff0000;stroke-width:0.463533;stroke-linecap:butt;stroke-linejoin:bevel;stroke-dasharray:none"
       id="path634" />
  </g>
</svg>
