<?xml version="1.0" encoding="UTF-8" standalone="no"?>
<!-- Created with Inkscape (http://www.inkscape.org/) -->

<svg
   width="210mm"
   height="297mm"
   viewBox="0 0 210 297"
   version="1.1"
   id="svg1"
   inkscape:version="1.4.2 (f4327f4, 2025-05-13)"
   sodipodi:docname="perete-exterior-dreapta.svg"
   xmlns:inkscape="http://www.inkscape.org/namespaces/inkscape"
   xmlns:sodipodi="http://sodipodi.sourceforge.net/DTD/sodipodi-0.dtd"
   xmlns="http://www.w3.org/2000/svg"
   xmlns:svg="http://www.w3.org/2000/svg">
  <sodipodi:namedview
     id="namedview1"
     pagecolor="#505050"
     bordercolor="#eeeeee"
     borderopacity="1"
     inkscape:showpageshadow="0"
     inkscape:pageopacity="0"
     inkscape:pagecheckerboard="0"
     inkscape:deskcolor="#505050"
     inkscape:document-units="mm"
     inkscape:zoom="0.52473019"
     inkscape:cx="-216.30164"
     inkscape:cy="418.31022"
     inkscape:window-width="1920"
     inkscape:window-height="1051"
     inkscape:window-x="-9"
     inkscape:window-y="-9"
     inkscape:window-maximized="1"
     inkscape:current-layer="layer1" />
  <defs
     id="defs1" />
  <g
     inkscape:label="Layer 1"
     inkscape:groupmode="layer"
     id="layer1">
    <path
       d="m 118.40756,205.55519 -1.22893,8.12509 2.2189,7.09973"
       style="fill:none;stroke:#ff0000;stroke-width:0.45537;stroke-linecap:butt;stroke-linejoin:bevel;stroke-dasharray:none"
       id="path492" />
    <path
       d="m 104.5882,205.73015 -1.22926,7.95013 2.21866,6.92433"
       style="fill:none;stroke:#ff0000;stroke-width:0.45537;stroke-linecap:butt;stroke-linejoin:bevel;stroke-dasharray:none"
       id="path493" />
    <path
       d="m 88.420657,220.77934 -2.219301,-7.09843 1.229494,-8.12572"
       style="fill:none;stroke:#ff0000;stroke-width:0.45537;stroke-linecap:butt;stroke-linejoin:bevel;stroke-dasharray:none"
       id="path494" />
    <path
       d="m 69.523206,204.22182 -1.230477,9.45846 2.219475,8.06248"
       style="fill:none;stroke:#ff0000;stroke-width:0.45537;stroke-linecap:butt;stroke-linejoin:bevel;stroke-dasharray:none"
       id="path495" />
    <path
       d="m 102.24001,220.23401 -2.21889,-6.55373 1.22949,-7.95013"
       style="fill:none;stroke:#ff0000;stroke-width:0.45537;stroke-linecap:butt;stroke-linejoin:bevel;stroke-dasharray:none"
       id="path496" />
    <path
       d="m 119.39753,105.55326 -1.8111,7.75208 1.8052,7.68382"
       style="fill:none;stroke:#ff0000;stroke-width:0.45537;stroke-linecap:butt;stroke-linejoin:bevel;stroke-dasharray:none"
       id="path497" />
    <path
       d="m 105.5776,105.72803 -1.81111,7.57774 1.80539,7.50868"
       style="fill:none;stroke:#ff0000;stroke-width:0.45537;stroke-linecap:butt;stroke-linejoin:bevel;stroke-dasharray:none"
       id="path498" />
    <path
       d="m 88.414932,120.98916 -1.805383,-7.68382 1.811108,-7.75208"
       style="fill:none;stroke:#ff0000;stroke-width:0.45537;stroke-linecap:butt;stroke-linejoin:bevel;stroke-dasharray:none"
       id="path499" />
    <path
       d="m 70.512204,104.21926 -1.811281,9.08608 1.805382,9.01788"
       style="fill:none;stroke:#ff0000;stroke-width:0.45537;stroke-linecap:butt;stroke-linejoin:bevel;stroke-dasharray:none"
       id="path500" />
    <path
       d="m 102.23406,120.81445 -1.80516,-7.50868 1.81111,-7.57774"
       style="fill:none;stroke:#ff0000;stroke-width:0.45537;stroke-linecap:butt;stroke-linejoin:bevel;stroke-dasharray:none"
       id="path501" />
    <path
       d="m 147.83568,191.65837 -3.16481,-2.03298 h -3.16482 l -3.16538,2.03298 h -3.16482 l -3.1648,-2.03298 h -3.1654 v -4.06631 h 3.1654 l 3.1648,-2.03365 h 3.16482 l 3.16538,2.03365 h 3.16482 l 3.16481,-2.03365 h 3.16539 l 3.16481,2.03365 h 3.16522 v 4.06631 h -3.16522 l -3.16481,2.03298 z"
       style="fill:none;stroke:#000000;stroke-width:0.45537;stroke-linecap:butt;stroke-linejoin:bevel;stroke-dasharray:none"
       id="path502" />
    <path
       d="m 141.50605,173.05108 v -4.06674 l -3.16538,-2.03316 h -3.16482 l -3.1648,2.03316 h -3.1654 v 4.06674 h 3.1654 l 3.1648,2.03316 h 3.16482 z"
       style="fill:none;stroke:#000000;stroke-width:0.45537;stroke-linecap:butt;stroke-linejoin:bevel;stroke-dasharray:none"
       id="path503" />
    <path
       d="m 141.50605,152.63076 -3.16538,-2.03316 h -3.16482 l -3.1648,2.03316 h -3.1654 v 4.06674 h 3.1654 l 3.1648,2.03297 h 3.16482 l 3.16538,-2.03297 z"
       style="fill:none;stroke:#000000;stroke-width:0.45537;stroke-linecap:butt;stroke-linejoin:bevel;stroke-dasharray:none"
       id="path504" />
    <path
       d="m 141.50605,123.99515 v -4.06699 l -3.16538,-2.03298 h -3.16482 l -3.1648,2.03298 h -3.1654 v 4.06699 h 3.1654 l 3.1648,2.03297 h 3.16482 z"
       style="fill:none;stroke:#000000;stroke-width:0.45537;stroke-linecap:butt;stroke-linejoin:bevel;stroke-dasharray:none"
       id="path505" />
    <path
       d="m 141.50605,98.490595 h 3.16482 l 3.16481,-2.033651 h 3.16539 l 3.16481,2.033651 h 3.16522 v 4.066065 h -3.16522 l -3.16481,2.03322 h -3.16539 l -3.16481,-2.03322 h -3.16482 l -3.16538,2.03322 h -3.16482 l -3.1648,-2.03322 h -3.1654 v -4.066065 h 3.1654 l 3.1648,-2.033651 h 3.16482 z"
       style="fill:none;stroke:#000000;stroke-width:0.45537;stroke-linecap:butt;stroke-linejoin:bevel;stroke-dasharray:none"
       id="path506" />
    <path
       d="m 123.06294,168.89651 -0.98939,35.32488 h -3.3376 l -0.32787,0.62116 v 0.71264 l -13.33114,-0.7584 -0.48862,0.93336 h -3.3376 l -0.48804,-0.93268 -13.331193,0.75772 v -0.71264 l -0.328452,-0.62116 -17.580233,4.3e-4 2.204381,-9.98324 -0.752314,-6.7e-4 m -1.734778,6.7e-4 h -0.850446 l 3.20396,-31.16832 -2.539598,-1.44757 2.539598,-1.44817 -3.20396,-31.16833 h 0.642967 m 1.734777,0 h 0.959794 l -1.220704,-6.68297 h 17.579597 l 0.329029,-0.62074 v -0.71332 l 13.331185,0.75908 0.48806,-0.93379 h 3.33782 l 0.48862,0.93379 13.33113,-0.75908 v 0.71332 l 0.3273,0.62074 h 3.3376 V 167.044"
       style="fill:none;stroke:#000000;stroke-width:0.45537;stroke-linecap:butt;stroke-linejoin:bevel;stroke-dasharray:none"
       id="path507" />
    <path
       d="m 140.52707,77.454955 v 7.120225 h -17.34784 l -0.11624,19.64408 h -3.33759 l -0.32788,0.62136 v 0.71264 l -13.33118,-0.7584 -0.48863,0.93317 h -3.3376 l -0.48805,-0.93317 -13.331127,0.7584 v -0.71264 l -0.328452,-0.62136 H 70.512434 L 71.727241,93.478871 H 68.389645 L 70.395568,72.032602 V 69.135563 H 53.245578 V 91.95905 m -0.0012,1.778654 0.0012,10.516826 -7.228824,-0.67928 -7.228209,0.67928 v 13.30339 l 7.228209,0.67935 7.228211,-0.67935 v 23.44663 m 0,1.54402 v 54.11164 m 0,1.85275 v 9.59046 l -7.228211,-0.67929 -7.228209,0.67929 v 13.30646 l 7.228209,0.67929 7.228211,-0.3088 H 76.64256 88.092494 l 0.328452,-0.28779 v -0.71331 l 13.331124,0.75908 0.48805,-1.30441 3.33761,0.37056 0.48862,0.93378 13.33118,-0.75907 v 0.71331 l 0.32788,0.62073 h 3.3376 v 2.18373 h 17.34603 v -15.43962 h 10.9077"
       style="fill:none;stroke:#000000;stroke-width:0.45537;stroke-linecap:butt;stroke-linejoin:bevel;stroke-dasharray:none"
       id="path508" />
    <path
       d="m 123.06294,167.044 v 1.85251"
       style="fill:none;stroke:#0000ff;stroke-width:0.45537;stroke-linecap:butt;stroke-linejoin:bevel;stroke-dasharray:none"
       id="path509" />
    <path
       d="m 140.52707,75.602194 v 1.852761"
       style="fill:none;stroke:#0000ff;stroke-width:0.45537;stroke-linecap:butt;stroke-linejoin:bevel;stroke-dasharray:none"
       id="path510" />
    <path
       d="m 153.05146,208.85749 h 9.94605 l 0.11447,-41.60438 m 0.0521,-34.13879 -0.0463,-63.969617 h -15.67082 -6.91586 v 6.457491"
       style="fill:none;stroke:#000000;stroke-width:0.45537;stroke-linecap:butt;stroke-linejoin:bevel;stroke-dasharray:none"
       id="path511" />
    <path
       d="m 153.05146,208.85749 h -1.73477"
       style="fill:none;stroke:#0000ff;stroke-width:0.45537;stroke-linecap:butt;stroke-linejoin:bevel;stroke-dasharray:none"
       id="path512" />
    <path
       d="m 62.977371,69.135563 0.103502,3.487452 -0.195451,8.844466 0.185043,10.493922 -0.06534,8.741457 0.0042,8.5795 0.104082,4.09029 0.175791,3.07984 0.05204,1.66755 -0.15266,2.91317 -0.07922,1.55056 0.181573,2.57238 0.202969,-0.11115 h 0.0012 l 0.44873,-6.77734 0.108708,-6.05915 0.183308,-6.88405 0.02891,-4.79187 0.108128,-6.468791 -0.09136,-5.322362 -0.09078,-6.141104 0.185043,-7.732932 -0.06534,-5.731702"
       style="fill:none;stroke:#ff0000;stroke-width:0.45537;stroke-linecap:butt;stroke-linejoin:bevel;stroke-dasharray:none"
       id="path513" />
    <path
       d="m 56.48543,118.82768 -0.06824,5.03154 -0.176368,5.7459 0.04048,4.02927 -0.06881,5.50016 0.268891,4.56088 0.28219,5.30823 -0.170587,6.71497 0.286818,6.18445 0.04048,4.7141 -0.189091,4.65217 0.04048,4.4657 0.03469,4.15457 0.523903,6.08207 0.147455,3.30643 0.02313,2.21529 0.588494,0.36561 0.530264,-5.71762 0.164804,-7.02301 0.285659,-6.42983 -0.16249,-4.99078 0.406515,-5.5576 -0.392059,-4.61647 0.155552,-7.70984 -0.553972,-8.98713 -0.06881,-7.43197 -0.182729,-7.17952 -0.261952,-3.40729 -0.363147,-2.49919 -0.133579,-1.34406 0.207596,-2.43514 0.106981,-1.24925 -0.363724,-2.09548 -0.341174,0.0896 h -0.0012 z"
       style="fill:none;stroke:#ff0000;stroke-width:0.45537;stroke-linecap:butt;stroke-linejoin:bevel;stroke-dasharray:none"
       id="path514" />
    <path
       d="m 65.682006,221.40988 0.08443,-4.19706 -0.653028,-10.58723 -0.08153,-8.75121 -0.215113,-8.45791 -0.309367,-4.01124 -0.427912,-2.94583 -0.156131,-1.58219 0.244025,-2.86869 0.126056,-1.47171 -0.429068,-2.46739 -0.401312,0.10504 h 6.36e-4 l -0.743583,6.54223 -0.08154,5.92569 -0.207017,6.76683 0.04627,4.74629 -0.08096,6.47663 0.315151,5.37468 0.333656,6.25134 -0.129531,5.15178"
       style="fill:none;stroke:#ff0000;stroke-width:0.45537;stroke-linecap:butt;stroke-linejoin:bevel;stroke-dasharray:none"
       id="path515" />
    <path
       d="M 159.80171,96.804021 159.53745,203.57848"
       style="fill:none;stroke:#ff0000;stroke-width:0.45537;stroke-linecap:butt;stroke-linejoin:bevel;stroke-dasharray:none"
       id="path516" />
    <path
       d="M 126.84013,96.804021 126.57587,203.57848"
       style="fill:none;stroke:#ff0000;stroke-width:0.45537;stroke-linecap:butt;stroke-linejoin:bevel;stroke-dasharray:none"
       id="path517" />
    <path
       d="m 53.244715,196.66002 v 1.85276"
       style="fill:none;stroke:#0000ff;stroke-width:0.45537;stroke-linecap:butt;stroke-linejoin:bevel;stroke-dasharray:none"
       id="path518" />
    <path
       d="M 70.974695,194.23834 H 69.239859"
       style="fill:none;stroke:#0000ff;stroke-width:0.45537;stroke-linecap:butt;stroke-linejoin:bevel;stroke-dasharray:none"
       id="path519" />
    <path
       d="M 70.767389,129.00595 H 69.032612"
       style="fill:none;stroke:#0000ff;stroke-width:0.45537;stroke-linecap:butt;stroke-linejoin:bevel;stroke-dasharray:none"
       id="path520" />
    <path
       d="m 53.244918,140.69625 v 1.85276"
       style="fill:none;stroke:#0000ff;stroke-width:0.45537;stroke-linecap:butt;stroke-linejoin:bevel;stroke-dasharray:none"
       id="path521" />
    <path
       d="m 53.244918,91.959479 v 1.852768"
       style="fill:none;stroke:#0000ff;stroke-width:0.45537;stroke-linecap:butt;stroke-linejoin:bevel;stroke-dasharray:none"
       id="path522" />
    <path
       d="m 164.61335,167.25577 -1.51938,-0.003 -10.25612,-0.0186"
       style="fill:none;stroke:#000000;stroke-width:0.45537;stroke-linecap:butt;stroke-linejoin:miter;stroke-dasharray:none"
       id="path523" />
    <path
       d="m 164.66314,133.11716 -1.51874,-0.003 -10.49668,-0.0185"
       style="fill:none;stroke:#000000;stroke-width:0.45537;stroke-linecap:butt;stroke-linejoin:miter;stroke-dasharray:none"
       id="path524" />
    <path
       d="m 164.61335,167.25577 2.89066,0.15378 5.05687,-0.36499 0.45336,-0.0976 0.70704,-0.19763 0.57131,-0.43973 1.34497,-0.97584 1.44467,-1.73166 1.08285,-1.54706 0.74254,-1.25061 0.59972,-1.45577 0.20932,-3.65154 -20.06546,-0.0556 0.0231,-10.9702 m 4.99604,-11.55518 2.8913,-0.14205 5.05624,0.38105 0.45278,0.0988 0.70639,0.2001 0.57017,0.44096 1.34214,0.9811 1.43958,1.73641 1.07874,1.55057 0.73826,1.25259 0.59567,1.45881 0.19776,3.65173 -20.06548,-0.0556"
       style="fill:none;stroke:#000000;stroke-width:0.45537;stroke-linecap:butt;stroke-linejoin:bevel;stroke-dasharray:none"
       id="path525" />
    <path
       d="m 141.52849,137.21509 -3.16538,-2.03315 h -3.16482 l -3.16481,2.03315 h -3.16539 v 4.06676 h 3.16539 l 3.16481,2.03321 h 3.16482 l 3.16538,-2.03321 z"
       style="fill:none;stroke:#000000;stroke-width:0.45537;stroke-linecap:butt;stroke-linejoin:bevel;stroke-dasharray:none"
       id="path526" />
    <path
       d="m 113.59158,226.00387 -1.73478,0.013"
       style="fill:none;stroke:#0000ff;stroke-width:0.45537;stroke-linecap:butt;stroke-linejoin:bevel;stroke-dasharray:none"
       id="path620" />
    <path
       d="m 141.50589,173.05108 v -4.06674 l 3.16522,-2.03316 h 3.16475 l 3.1648,2.03316 h 3.16545 v 4.06674 h -3.16545 l -3.1648,2.03316 h -3.16475 z"
       style="fill:none;stroke:#ff0000;stroke-width:0.45537;stroke-linecap:butt;stroke-linejoin:bevel;stroke-dasharray:none"
       id="path627" />
    <path
       d="m 141.50589,152.63076 3.16522,-2.03316 h 3.16475 l 3.1648,2.03316 h 3.16545 v 4.06674 h -3.16545 l -3.1648,2.03297 h -3.16475 l -3.16522,-2.03297 z"
       style="fill:none;stroke:#ff0000;stroke-width:0.45537;stroke-linecap:butt;stroke-linejoin:bevel;stroke-dasharray:none"
       id="path628" />
    <path
       d="m 141.50589,123.99515 v -4.06699 l 3.16522,-2.03298 h 3.16475 l 3.1648,2.03298 h 3.16545 v 4.06699 h -3.16545 l -3.1648,2.03297 h -3.16475 z"
       style="fill:none;stroke:#ff0000;stroke-width:0.45537;stroke-linecap:butt;stroke-linejoin:bevel;stroke-dasharray:none"
       id="path629" />
    <path
       d="m 141.48322,137.21509 3.16538,-2.03315 h 3.16482 l 3.16481,2.03315 h 3.16545 v 4.06676 h -3.16545 l -3.16481,2.03321 h -3.16482 l -3.16538,-2.03321 z"
       style="fill:none;stroke:#ff0000;stroke-width:0.45537;stroke-linecap:butt;stroke-linejoin:bevel;stroke-dasharray:none"
       id="path630" />
  </g>
</svg>
