<?xml version="1.0" encoding="UTF-8" standalone="no"?>
<!-- Created with Inkscape (http://www.inkscape.org/) -->

<svg
   width="210mm"
   height="297mm"
   viewBox="0 0 210 297"
   version="1.1"
   id="svg1"
   inkscape:version="1.4.2 (f4327f4, 2025-05-13)"
   sodipodi:docname="perete-dreapta.svg"
   xmlns:inkscape="http://www.inkscape.org/namespaces/inkscape"
   xmlns:sodipodi="http://sodipodi.sourceforge.net/DTD/sodipodi-0.dtd"
   xmlns="http://www.w3.org/2000/svg"
   xmlns:svg="http://www.w3.org/2000/svg">
  <sodipodi:namedview
     id="namedview1"
     pagecolor="#505050"
     bordercolor="#eeeeee"
     borderopacity="1"
     inkscape:showpageshadow="0"
     inkscape:pageopacity="0"
     inkscape:pagecheckerboard="0"
     inkscape:deskcolor="#505050"
     inkscape:document-units="mm"
     inkscape:zoom="0.52473019"
     inkscape:cx="545.99489"
     inkscape:cy="446.89634"
     inkscape:window-width="1920"
     inkscape:window-height="1051"
     inkscape:window-x="-9"
     inkscape:window-y="-9"
     inkscape:window-maximized="1"
     inkscape:current-layer="layer1" />
  <defs
     id="defs1" />
  <g
     inkscape:label="Layer 1"
     inkscape:groupmode="layer"
     id="layer1">
    <g
       id="Layer1001"
       transform="matrix(1.4898609,0,0,1.6527015,-1526.2413,-799.88532)">
      <path
         d="m 1107.1488,605.4481 h -2.6002 -3.0338 v -1.8201 -3.0883 h 5.634 z"
         style="fill:none;stroke:#000000;stroke-width:0.216;stroke-linecap:butt;stroke-linejoin:bevel;stroke-dasharray:none"
         id="path354" />
      <path
         d="m 1107.1488,612.1483 h -5.634 v -5.0787 h 5.634 z"
         style="fill:none;stroke:#000000;stroke-width:0.216;stroke-linecap:butt;stroke-linejoin:bevel;stroke-dasharray:none"
         id="path355" />
      <path
         d="m 1088.2845,612.1483 h 11.4386 v -5.0787 h -11.4386 z"
         style="fill:none;stroke:#000000;stroke-width:0.216;stroke-linecap:butt;stroke-linejoin:bevel;stroke-dasharray:none"
         id="path356" />
      <path
         d="m 1088.2845,605.4481 h 11.4386 v -4.9084 h -11.4386 z"
         style="fill:none;stroke:#000000;stroke-width:0.216;stroke-linecap:butt;stroke-linejoin:bevel;stroke-dasharray:none"
         id="path357" />
      <path
         d="m 1098.9366,614.9571 -1.4174,-1.4174 -1.4173,1.4174 h -10.652 v 0.7086 h -1.4173 v -1.4173 h 0.8503 l -0.8503,-7.1532 1.4173,-0.8192 -1.4173,-0.8195 0.8503,-7.153 h -0.8503 v -1.4173 h 1.4173 v 0.7087 h 10.652 l 1.4173,1.4173 1.4174,-1.4173 h 10.652 v -0.7087 h 1.4173 v 1.4173 h -0.8504 l 0.8504,7.153 -1.4173,0.8195 1.4173,0.8192 -0.8504,7.1532 h 0.8504 v 1.4173 h -1.4173 v -0.7086 z"
         style="fill:none;stroke:#ff0000;stroke-width:0.216;stroke-linecap:butt;stroke-linejoin:bevel;stroke-dasharray:none"
         id="path358" />
      <path
         d="m 1121.8751,578.7986 v 43.7049 m -53.8636,4.723 v -25.4239"
         style="fill:none;stroke:#000000;stroke-width:0.216;stroke-linecap:butt;stroke-linejoin:bevel;stroke-dasharray:none"
         id="path359" />
      <path
         d="m 1121.8751,578.7986 v -0.8504"
         style="fill:none;stroke:#0000ff;stroke-width:0.216;stroke-linecap:butt;stroke-linejoin:bevel;stroke-dasharray:none"
         id="path360" />
      <path
         d="M 1068.0126,600.9522 V 535.0175"
         style="fill:none;stroke:#000000;stroke-width:0.216;stroke-linecap:butt;stroke-linejoin:bevel;stroke-dasharray:none"
         id="path361" />
      <path
         d="m 1068.0126,601.8026 v -0.8504"
         style="fill:none;stroke:#0000ff;stroke-width:0.216;stroke-linecap:butt;stroke-linejoin:bevel;stroke-dasharray:none"
         id="path362" />
      <path
         d="m 1068.0097,534.1671 -8e-4,-24.4244 m 53.8628,4.7231 v 63.4824"
         style="fill:none;stroke:#000000;stroke-width:0.216;stroke-linecap:butt;stroke-linejoin:bevel;stroke-dasharray:none"
         id="path363" />
      <path
         d="m 1068.0097,535.0175 v -0.8504"
         style="fill:none;stroke:#0000ff;stroke-width:0.216;stroke-linecap:butt;stroke-linejoin:bevel;stroke-dasharray:none"
         id="path364" />
      <path
         d="m 1080.8201,565.7672 -0.079,4.1431 -0.1338,4.7069 -0.023,3.2766 -0.079,4.4229 0.067,3.6391 0.066,4.199 -0.1352,5.2872 0.059,4.8248 -0.027,3.6235 -0.121,3.5405 -0.026,3.3854 -0.023,3.1473 0.1556,4.5873 -0.5219,2.4353 -0.012,1.6186 0.2325,0.3183 0.8212,-4.2103 0.1343,-5.2461 0.1832,-4.8597 -0.017,-3.7959 0.2225,-4.2803 -0.1123,-3.5541 0.1426,-6.0474 -0.1349,-7.1753 0.048,-5.9769 v -5.866 l -0.076,-2.7967 -0.1284,-2.1061 -0.039,-1.1398 0.1114,-1.9919 0.058,-1.0605 -0.1326,-1.7586 -0.1483,0.076 h -6e-4 z"
         style="fill:none;stroke:#ff0000;stroke-width:0.216;stroke-linecap:butt;stroke-linejoin:bevel;stroke-dasharray:none"
         id="path365" />
      <path
         d="m 1076.1097,562.1476 0.05,-3.4401 0.129,-3.9288 -0.028,-2.755 0.05,-3.7607 -0.1964,-3.1184 -0.2061,-3.6295 0.1247,-4.5913 -0.2095,-4.2287 -0.03,-3.223 0.138,-3.1813 -0.028,-3.0532 -0.025,-2.8409 -0.3827,-4.1584 -0.1077,-2.2609 -0.015,-1.5146 -0.43,-0.25 -0.3872,3.9092 -0.1205,4.8022 -0.2086,4.3963 0.1188,3.4123 -0.2968,3.8001 0.2863,3.1564 -0.1137,5.2719 0.4045,6.1447 0.05,5.0816 0.1335,4.9091 0.1913,2.3295 0.2651,1.709 0.098,0.919 -0.1514,1.6648 -0.078,0.8543 0.2656,1.4327 0.2492,-0.0613 h 5e-4 z"
         style="fill:none;stroke:#ff0000;stroke-width:0.216;stroke-linecap:butt;stroke-linejoin:bevel;stroke-dasharray:none"
         id="path366" />
      <path
         d="m 1114.941,553.0569 -0.079,4.1428 -0.1338,4.7073 -0.023,3.2762 -0.079,4.4229 0.067,3.6392 0.066,4.1992 -0.1352,5.2872 0.059,4.8248 -0.027,3.6236 -0.1213,3.5401 -0.025,3.3855 -0.023,3.1476 0.1556,4.587 0.029,2.4355 -0.012,1.6186 0.2325,0.3183 0.2707,-4.2106 0.1341,-5.2458 0.1834,-4.86 -0.017,-3.7958 0.2225,-4.2801 -0.1123,-3.5543 0.1426,-6.0475 -0.1349,-7.175 0.048,-5.9769 v -5.8663 l -0.076,-2.7966 -0.1284,-2.1059 -0.039,-1.1401 0.1114,-1.9919 0.058,-1.0604 -0.1326,-1.7586 -0.1483,0.0759 h -5e-4 z"
         style="fill:none;stroke:#ff0000;stroke-width:0.216;stroke-linecap:butt;stroke-linejoin:bevel;stroke-dasharray:none"
         id="path367" />
      <path
         d="m 1096.7624,568.688 0.033,-2.3094 0.086,-2.6373 -0.019,-1.8494 0.034,-2.5245 -0.1318,-2.0934 -0.1383,-2.4364 0.084,-3.0821 -0.1406,-2.8386 -0.02,-2.1637 0.093,-2.1353 -0.019,-2.0497 -0.017,-1.9069 -0.2568,-2.7916 -0.072,-1.5176 -0.01,-1.0168 -0.2886,-0.1678 -0.26,2.6243 -0.081,3.2235 -0.1401,2.9512 0.08,2.2907 -0.1993,2.5509 0.1922,2.1189 -0.076,3.5387 0.2716,4.125 0.034,3.4112 0.09,3.2953 0.1284,1.5639 0.178,1.1471 0.065,0.6169 -0.1017,1.1177 -0.053,0.5734 0.1783,0.9618 0.1673,-0.0411 h 2e-4 z"
         style="fill:none;stroke:#ff0000;stroke-width:0.216;stroke-linecap:butt;stroke-linejoin:bevel;stroke-dasharray:none"
         id="path368" />
      <path
         d="m 1109.1416,547.4426 0.033,-2.3097 0.087,-2.637 -0.019,-1.8494 0.034,-2.5248 -0.1318,-2.0934 -0.1383,-2.4361 0.084,-3.0821 -0.1406,-2.8389 -0.02,-2.1634 0.093,-2.1356 -0.019,-2.0494 -0.017,-1.9072 -0.2569,-2.7913 -0.072,-1.5176 -0.01,-1.0168 -0.2886,-0.1678 -0.26,2.6243 -0.081,3.2236 -0.1401,2.9511 0.08,2.2907 -0.1993,2.5509 0.1922,2.1189 -0.076,3.5387 0.2716,4.1247 0.034,3.4112 0.09,3.2956 0.1284,1.5639 0.178,1.1472 0.066,0.6168 -0.1017,1.1177 -0.053,0.5731 0.1783,0.9618 0.1673,-0.0411 h 5e-4 z"
         style="fill:none;stroke:#ff0000;stroke-width:0.216;stroke-linecap:butt;stroke-linejoin:bevel;stroke-dasharray:none"
         id="path369" />
      <path
         d="m 1096.6122,627.2269 h 14.4039"
         style="fill:none;stroke:#000000;stroke-width:0.216;stroke-linecap:butt;stroke-linejoin:bevel;stroke-dasharray:none"
         id="path370" />
      <path
         d="m 1068.0089,627.2266 14.487,0.001"
         style="fill:none;stroke:#000000;stroke-width:0.216;stroke-linecap:butt;stroke-linejoin:bevel;stroke-dasharray:none"
         id="path371" />
      <path
         d="m 1111.2925,636.2643 -3e-4,-13.8047 m 7.0591,13.8041 v -9.0371 h -2.8346 v 9.0371 m 6.3607,-8e-4 -3.5261,5e-4 m -2.8346,3e-4 -4.2242,6e-4 m 10.5843,-13.7608 6e-4,13.7594"
         style="fill:none;stroke:#000000;stroke-width:0.216;stroke-linecap:butt;stroke-linejoin:bevel;stroke-dasharray:none"
         id="path372" />
      <path
         d="m 1082.4962,636.2643 -3e-4,-13.8047 m 8.4756,13.8041 v -9.0371 h -2.8346 v 9.0371 m 8.4758,-8e-4 -5.6412,5e-4 m -2.8346,3e-4 -5.6407,6e-4 m 14.116,-13.7608 5e-4,13.7594"
         style="fill:none;stroke:#000000;stroke-width:0.216;stroke-linecap:butt;stroke-linejoin:bevel;stroke-dasharray:none"
         id="path373" />
      <path
         d="m 1096.6122,509.7424 h 14.4039"
         style="fill:none;stroke:#000000;stroke-width:0.216;stroke-linecap:butt;stroke-linejoin:bevel;stroke-dasharray:none"
         id="path374" />
      <path
         d="m 1068.0089,509.7427 14.487,-0.001"
         style="fill:none;stroke:#000000;stroke-width:0.216;stroke-linecap:butt;stroke-linejoin:bevel;stroke-dasharray:none"
         id="path375" />
      <path
         d="m 1111.2925,500.705 -3e-4,13.8047 m 7.0591,-13.8041 v 9.0371 h -2.8346 v -9.0371 m 6.3607,8e-4 -3.5261,-5e-4 m -2.8346,-3e-4 -4.2242,-6e-4 m 10.5843,13.7608 6e-4,-13.7594"
         style="fill:none;stroke:#000000;stroke-width:0.216;stroke-linecap:butt;stroke-linejoin:bevel;stroke-dasharray:none"
         id="path376" />
      <path
         d="m 1082.4962,500.705 -3e-4,13.8047 m 8.4756,-13.8041 v 9.0371 h -2.8346 v -9.0371 m 8.4758,8e-4 -5.6412,-5e-4 m -2.8346,-3e-4 -5.6407,-6e-4 m 14.116,13.7608 5e-4,-13.7594"
         style="fill:none;stroke:#000000;stroke-width:0.216;stroke-linecap:butt;stroke-linejoin:bevel;stroke-dasharray:none"
         id="path377" />
    </g>
  </g>
</svg>
