<?xml version="1.0" encoding="UTF-8" standalone="no"?>
<!-- Created with Inkscape (http://www.inkscape.org/) -->

<svg
   width="210mm"
   height="297mm"
   viewBox="0 0 210 297"
   version="1.1"
   id="svg1"
   inkscape:version="1.4.2 (f4327f4, 2025-05-13)"
   sodipodi:docname="perete-exterior-fata.svg"
   xmlns:inkscape="http://www.inkscape.org/namespaces/inkscape"
   xmlns:sodipodi="http://sodipodi.sourceforge.net/DTD/sodipodi-0.dtd"
   xmlns="http://www.w3.org/2000/svg"
   xmlns:svg="http://www.w3.org/2000/svg">
  <sodipodi:namedview
     id="namedview1"
     pagecolor="#505050"
     bordercolor="#eeeeee"
     borderopacity="1"
     inkscape:showpageshadow="0"
     inkscape:pageopacity="0"
     inkscape:pagecheckerboard="0"
     inkscape:deskcolor="#505050"
     inkscape:document-units="mm"
     inkscape:zoom="0.74208053"
     inkscape:cx="396.8572"
     inkscape:cy="559.91228"
     inkscape:window-width="1920"
     inkscape:window-height="1051"
     inkscape:window-x="-9"
     inkscape:window-y="-9"
     inkscape:window-maximized="1"
     inkscape:current-layer="layer1" />
  <defs
     id="defs1" />
  <g
     inkscape:label="Layer 1"
     inkscape:groupmode="layer"
     id="layer1">
    <g
       id="Layer1005"
       transform="matrix(1.4522512,0,0,1.0400573,-1603.8154,-653.78846)">
      <path
         d="m 1207.0743,682.0492 v 0.8503"
         style="fill:none;stroke:#0000ff;stroke-width:0.216;stroke-linecap:butt;stroke-linejoin:bevel;stroke-dasharray:none"
         id="path654" />
      <path
         d="m 1207.3231,830.6031 v 0.8504"
         style="fill:none;stroke:#0000ff;stroke-width:0.216;stroke-linecap:butt;stroke-linejoin:bevel;stroke-dasharray:none"
         id="path655" />
      <path
         d="m 1188.0304,787.5079 -0.4348,3.599 0.4457,2.9122"
         style="fill:none;stroke:#ff0000;stroke-width:0.216;stroke-linecap:butt;stroke-linejoin:bevel;stroke-dasharray:none"
         id="path656" />
      <path
         d="m 1181.256,787.5994 -0.3754,3.489 0.3864,3.1106"
         style="fill:none;stroke:#ff0000;stroke-width:0.216;stroke-linecap:butt;stroke-linejoin:bevel;stroke-dasharray:none"
         id="path657" />
      <path
         d="m 1172.8568,794.2936 -0.4461,-3.1613 0.4348,-3.599"
         style="fill:none;stroke:#ff0000;stroke-width:0.216;stroke-linecap:butt;stroke-linejoin:bevel;stroke-dasharray:none"
         id="path658" />
      <path
         d="m 1164.066,787.2194 -0.4342,3.9275 0.4467,3.5242"
         style="fill:none;stroke:#ff0000;stroke-width:0.216;stroke-linecap:butt;stroke-linejoin:bevel;stroke-dasharray:none"
         id="path659" />
      <path
         d="m 1179.6312,794.2018 -0.446,-3.0808 0.4349,-3.5188"
         style="fill:none;stroke:#ff0000;stroke-width:0.216;stroke-linecap:butt;stroke-linejoin:bevel;stroke-dasharray:none"
         id="path660" />
      <path
         d="m 1188.1661,868.7765 -0.5612,3.4141 0.571,2.4406"
         style="fill:none;stroke:#ff0000;stroke-width:0.216;stroke-linecap:butt;stroke-linejoin:bevel;stroke-dasharray:none"
         id="path661" />
      <path
         d="m 1181.3917,868.8683 -0.5613,3.3337 0.5709,2.36"
         style="fill:none;stroke:#ff0000;stroke-width:0.216;stroke-linecap:butt;stroke-linejoin:bevel;stroke-dasharray:none"
         id="path662" />
      <path
         d="m 1172.991,874.6565 -0.571,-2.4405 0.5612,-3.4141"
         style="fill:none;stroke:#ff0000;stroke-width:0.216;stroke-linecap:butt;stroke-linejoin:bevel;stroke-dasharray:none"
         id="path663" />
      <path
         d="m 1164.2013,868.2045 -0.5602,4.0262 0.572,3.0525"
         style="fill:none;stroke:#ff0000;stroke-width:0.216;stroke-linecap:butt;stroke-linejoin:bevel;stroke-dasharray:none"
         id="path664" />
      <path
         d="m 1179.7654,874.5647 -0.5709,-2.36 0.5614,-3.3336"
         style="fill:none;stroke:#ff0000;stroke-width:0.216;stroke-linecap:butt;stroke-linejoin:bevel;stroke-dasharray:none"
         id="path665" />
      <path
         d="m 1188.101,829.7852 -0.5629,2.4421 0.5736,3.9491"
         style="fill:none;stroke:#ff0000;stroke-width:0.216;stroke-linecap:butt;stroke-linejoin:bevel;stroke-dasharray:none"
         id="path666" />
      <path
         d="m 1181.3266,829.8767 -0.563,2.3619 0.5734,3.8686"
         style="fill:none;stroke:#ff0000;stroke-width:0.216;stroke-linecap:butt;stroke-linejoin:bevel;stroke-dasharray:none"
         id="path667" />
      <path
         d="m 1172.9268,836.2018 -0.5736,-3.9491 0.5629,-2.4422"
         style="fill:none;stroke:#ff0000;stroke-width:0.216;stroke-linecap:butt;stroke-linejoin:bevel;stroke-dasharray:none"
         id="path668" />
      <path
         d="m 1164.1362,829.2132 -0.5618,3.0541 0.5745,4.5611"
         style="fill:none;stroke:#ff0000;stroke-width:0.216;stroke-linecap:butt;stroke-linejoin:bevel;stroke-dasharray:none"
         id="path669" />
      <path
         d="m 1179.7012,836.11 -0.5734,-3.8687 0.5629,-2.3619"
         style="fill:none;stroke:#ff0000;stroke-width:0.216;stroke-linecap:butt;stroke-linejoin:bevel;stroke-dasharray:none"
         id="path670" />
      <path
         d="m 1197.4746,887.3254 1.547,-0.9358 1.5486,-0.003 1.5501,0.9306 1.5486,-0.003 1.547,-0.9357 1.5486,-0.003 v -1.8666 l -1.5485,0.003 -1.5501,-0.9305 -1.5486,0.003 -1.547,0.9357 -1.5486,0.003 -1.5501,-0.9306 -1.5489,0.003 -1.547,0.9358 -1.5485,0.003 v 1.8667 l 1.5486,-0.003 1.5501,0.9305 z"
         style="fill:none;stroke:#000000;stroke-width:0.216;stroke-linecap:butt;stroke-linejoin:bevel;stroke-dasharray:none"
         id="path671" />
      <path
         d="m 1202.0844,865.7837 -1.5502,-0.9306 -1.5485,0.003 -1.547,0.9357 -1.5489,0.003 -1.5501,-0.9306 -1.5486,0.003 v -1.8666 l 1.5486,-0.003 1.547,-0.9357 1.5488,-0.003 1.5501,0.9306 1.5486,-0.003 1.547,-0.9358 1.5486,-0.003 1.5501,0.9306 1.5486,-0.003 v 1.8667 l -1.5486,0.002 -1.547,0.9358 z"
         style="fill:none;stroke:#000000;stroke-width:0.216;stroke-linecap:butt;stroke-linejoin:bevel;stroke-dasharray:none"
         id="path672" />
      <path
         d="m 1197.3337,802.9579 1.547,-0.9357 1.5486,-0.003 1.5501,0.9306 1.5486,-0.003 1.547,-0.9358 1.5485,-0.003 v -1.8666 l -1.5485,0.003 -1.5502,-0.9306 -1.5485,0.003 -1.547,0.9358 -1.5486,0.003 -1.5501,-0.9306 -1.5489,0.003 -1.547,0.9357 -1.5485,0.003 v 1.8666 l 1.5485,-0.003 1.5502,0.9306 z"
         style="fill:none;stroke:#000000;stroke-width:0.216;stroke-linecap:butt;stroke-linejoin:bevel;stroke-dasharray:none"
         id="path673" />
      <path
         d="m 1205.0844,807.6513 1.5486,-0.002 v 1.8666 l -1.5486,0.003 -1.547,0.9358 -1.5486,0.003 -1.5501,-0.9306 -1.5485,0.003 -1.5471,0.9357 -1.5488,0.003 -1.5501,-0.9305 -1.5486,0.002 v -1.8666 l 1.5486,-0.003 1.547,-0.9357 1.5488,-0.003 1.5501,0.9306 1.5486,-0.003 1.547,-0.9358 1.5486,-0.002 z"
         style="fill:none;stroke:#000000;stroke-width:0.216;stroke-linecap:butt;stroke-linejoin:bevel;stroke-dasharray:none"
         id="path674" />
      <path
         d="m 1192.7081,815.1782 v 1.8666 l 1.5486,-0.003 1.5501,0.9306 1.5489,-0.003 1.547,-0.9358 1.5486,-0.003 1.5501,0.9306 1.5485,-0.003 1.547,-0.9357 1.5486,-0.003 v -1.8666 l -1.5486,0.003 -1.5501,-0.9306 -1.5486,0.003 -1.547,0.9357 -1.5485,0.003 -1.5502,-0.9306 -1.5488,0.003 -1.547,0.9358 z"
         style="fill:none;stroke:#000000;stroke-width:0.216;stroke-linecap:butt;stroke-linejoin:bevel;stroke-dasharray:none"
         id="path675" />
      <path
         d="m 1203.6204,858.275 -1.5486,0.003 -1.5501,-0.9305 -1.5486,0.003 -1.547,0.9357 -1.5488,0.003 -1.5502,-0.9306 -1.5485,0.003 v -1.8666 l 1.5485,-0.003 1.547,-0.9358 1.5489,-0.002 1.5501,0.9305 1.5486,-0.002 1.547,-0.9358 1.5485,-0.003 1.5502,0.9306 1.5485,-0.003 v 1.8666 l -1.5486,0.003 z"
         style="fill:none;stroke:#000000;stroke-width:0.216;stroke-linecap:butt;stroke-linejoin:bevel;stroke-dasharray:none"
         id="path676" />
      <path
         d="m 1198.9449,840.4729 v 1.8667 l -1.5471,0.9357 -1.5488,0.003 -1.5501,-0.9306 -1.5486,0.003 v -1.8666 l 1.5486,-0.003 1.547,-0.9357 1.5488,-0.003 z"
         style="fill:none;stroke:#000000;stroke-width:0.216;stroke-linecap:butt;stroke-linejoin:bevel;stroke-dasharray:none"
         id="path677" />
      <path
         d="m 1198.9575,847.9768 -1.5502,-0.9306 -1.5488,0.003 -1.547,0.9358 -1.5486,0.003 v 1.8666 l 1.5486,-0.003 1.5501,0.9306 1.5489,-0.003 1.547,-0.9358 z"
         style="fill:none;stroke:#000000;stroke-width:0.216;stroke-linecap:butt;stroke-linejoin:bevel;stroke-dasharray:none"
         id="path678" />
      <path
         d="m 1179.45,829.168 -6.5344,0.3591 -5e-4,-0.3272 -0.1615,-0.2846 -8.6179,0.0144 0.5875,-4.8173 -1.6361,0.003 1.5526,-10.8176 -1.2458,-0.6627 1.2436,-0.6668 -1.5888,-10.8123 1.6362,-0.003 -0.606,-6.2326 4.4972,-0.008 4.1207,-0.007 0.1605,-0.2852 -5e-4,-0.3271 6.5355,0.3372 0.2389,-0.429 1.6358,-0.003 0.2403,0.4282 6.5344,-0.359 5e-4,0.3271 0.1615,0.2847 1.6359,-0.003 0.057,34.0095 -1.6359,0.003 -0.1605,0.2852 5e-4,0.3271 -6.5355,-0.3372 -0.2389,0.4287 -1.6358,0.003 z"
         style="fill:none;stroke:#000000;stroke-width:0.216;stroke-linecap:butt;stroke-linejoin:bevel;stroke-dasharray:none"
         id="path679" />
      <path
         d="m 1205.2018,877.9451 1.5486,-0.003 v 1.8666 l -1.5486,0.003 -1.547,0.9357 -1.5485,0.003 -1.5502,-0.9306 -1.5485,0.003 -1.547,0.9358 -1.5489,0.003 -1.5501,-0.9306 -1.5486,0.003 v -1.8666 l 1.5486,-0.003 1.547,-0.9358 1.5488,-0.003 1.5501,0.9306 1.5486,-0.003 1.547,-0.9357 1.5486,-0.003 z"
         style="fill:none;stroke:#000000;stroke-width:0.216;stroke-linecap:butt;stroke-linejoin:bevel;stroke-dasharray:none"
         id="path680" />
      <path
         d="m 1164.1494,837.1119 0.6011,3.3068 -1.6362,0.003 1.5888,10.8124 -1.2436,0.6668 1.2458,0.6626 -1.5515,11.5153 1.6362,-0.003 -0.5892,3.8454 8.6179,-0.0144 0.1615,0.2846 6e-4,0.3271 6.5344,-0.359 0.2402,0.4282 1.6359,-0.003 0.2388,-0.429 6.5355,0.3371 -5e-4,-0.3271 0.1605,-0.2851 1.6359,-0.003 -0.051,-30.8091 -1.6358,0.003 -0.1615,-0.2846 -6e-4,-0.3271 -6.5344,0.359 -0.2402,-0.4282 -1.6359,0.003 -0.2388,0.429 -6.5356,-0.3372 6e-4,0.3272 -0.1605,0.2851 z"
         style="fill:none;stroke:#000000;stroke-width:0.216;stroke-linecap:butt;stroke-linejoin:bevel;stroke-dasharray:none"
         id="path681" />
      <path
         d="m 1195.8226,825.5801 1.5489,-0.003 1.547,-0.9357 1.5486,-0.003 1.5501,0.9305 1.5485,-0.003 1.5471,-0.9358 1.5485,-0.003 v -1.8663 l -1.5486,0.003 -1.5501,-0.9309 -1.5486,0.003 -1.547,0.936 -1.5485,0.003 -1.5501,-0.9308 -1.5489,0.003 -1.547,0.936 -1.5486,0.003 v 1.8663 l 1.5485,-0.003 z"
         style="fill:none;stroke:#000000;stroke-width:0.216;stroke-linecap:butt;stroke-linejoin:bevel;stroke-dasharray:none"
         id="path682" />
      <path
         d="m 1163.6575,766.8242 1.2458,0.6626 -1.5463,14.5617 1.6361,-0.003 -0.5874,4.8896 8.2778,-0.0138 0.1614,0.2846 6e-4,0.3272 6.5344,-0.3591 0.2402,0.428 1.6359,-0.003 0.2388,-0.4287 6.5356,0.3372 -6e-4,-0.3271 0.1606,-0.2852 1.6358,-0.003 -0.01,-3.7517 12.0446,-0.0201 1.0906,-1.3176 -0.025,-15.0475"
         style="fill:none;stroke:#000000;stroke-width:0.216;stroke-linecap:butt;stroke-linejoin:bevel;stroke-dasharray:none"
         id="path683" />
      <path
         d="m 1155.5675,766.87 0.04,24.0622 -7.0866,0.0118 0.037,22.2913"
         style="fill:none;stroke:#000000;stroke-width:0.216;stroke-linecap:butt;stroke-linejoin:bevel;stroke-dasharray:none"
         id="path684" />
      <path
         d="m 1148.5598,814.0857 0.14,83.8337 7.0869,-0.0118 -0.012,-7.0866 8.407,-0.0141 -1.0003,-10.1387 1.6362,-0.003 -0.6041,-5.0988 8.6179,-0.0144 0.1605,-0.2852 -5e-4,-0.3271 6.5355,0.3372 0.2389,-0.429 1.6358,-0.003 0.2403,0.4282 6.5344,-0.359 5e-4,0.3272 0.1615,0.2846 1.6359,-0.003 0.094,22.3267 8.504,-0.0142 -0.012,-7.0866 11.0721,-0.0185 -0.03,-17.8353 m 0,-0.8504 -0.039,-24.595 m -0.026,-15.6691 -0.061,-35.5291"
         style="fill:none;stroke:#000000;stroke-width:0.216;stroke-linecap:butt;stroke-linejoin:bevel;stroke-dasharray:none"
         id="path685" />
      <path
         d="m 1148.5583,813.2353 v 0.8504"
         style="fill:none;stroke:#0000ff;stroke-width:0.216;stroke-linecap:butt;stroke-linejoin:bevel;stroke-dasharray:none"
         id="path686" />
      <path
         d="m 1209.4749,796.2521 -0.049,-29.4856"
         style="fill:none;stroke:#000000;stroke-width:0.216;stroke-linecap:butt;stroke-linejoin:bevel;stroke-dasharray:none"
         id="path687" />
      <path
         d="m 1158.2769,766.8587 -0.049,1.5648 0.032,2.7549 -0.044,3.7608 0.2017,3.1184 0.2119,3.6288 -0.1168,4.5918 0.2165,4.2284 0.036,3.2229 -0.1327,3.1813 0.034,3.0534 0.03,2.8406 0.3896,4.1577 0.1115,2.2608 0.017,1.5148 0.4304,0.249 0.3807,-3.9099 0.1122,-4.8024 0.2016,-4.3966 -0.1245,-3.4121 0.2904,-3.8006 -0.2915,-3.1559 0.1048,-5.2718 -0.4147,-6.1443 -0.059,-5.0815 -0.1179,-4.0817"
         style="fill:none;stroke:#ff0000;stroke-width:0.216;stroke-linecap:butt;stroke-linejoin:bevel;stroke-dasharray:none"
         id="path688" />
      <path
         d="m 1154.4178,897.9099 0.035,-1.3142 0.017,-3.2766 0.072,-4.4231 -0.073,-3.639 -0.073,-4.1988 0.1264,-5.2874 -0.067,-4.8248 0.021,-3.6235 0.1152,-3.5407 0.02,-3.3855 0.018,-3.1473 -0.1635,-4.587 -0.033,-2.4352 0.01,-1.6186 -0.233,-0.318 -0.2637,4.2108 -0.1253,5.2463 -0.1753,4.86 0.024,3.7958 -0.2154,4.2807 0.1182,3.5539 -0.1325,6.0477 0.1472,7.1751 -0.038,5.9769 0.01,4.4739"
         style="fill:none;stroke:#ff0000;stroke-width:0.216;stroke-linecap:butt;stroke-linejoin:bevel;stroke-dasharray:none"
         id="path689" />
      <path
         d="m 1155.3419,799.8031 -0.044,3.4405 -0.1224,3.9287 0.032,2.7549 -0.044,3.7609 0.2017,3.1183 0.2121,3.6288 -0.1171,4.5915 0.2166,4.2284 0.036,3.2232 -0.1327,3.1813 0.033,3.0534 0.03,2.8406 0.3896,4.1577 0.1115,2.2608 0.017,1.5145 0.4304,0.2493 0.3807,-3.9099 0.1124,-4.8024 0.2013,-4.3966 -0.1244,-3.4121 0.2904,-3.8006 -0.2916,-3.1559 0.1049,-5.2718 -0.4148,-6.1443 -0.059,-5.0815 -0.1418,-4.9086 -0.1952,-2.3294 -0.2679,-1.7086 -0.099,-0.9185 0.1486,-1.6654 0.077,-0.8545 -0.268,-1.4321 -0.2491,0.0616 h -6e-4 z"
         style="fill:none;stroke:#ff0000;stroke-width:0.216;stroke-linecap:butt;stroke-linejoin:bevel;stroke-dasharray:none"
         id="path690" />
      <path
         d="m 1159.0271,844.5144 -0.035,2.7199 -0.097,3.1061 0.026,2.1783 -0.035,2.9728 0.1586,2.4667 0.1681,2.8693 -0.091,3.6305 0.1705,3.3426 0.027,2.5483 -0.104,2.5159 0.026,2.4142 0.024,2.2459 0.3079,3.2877 0.088,1.7871 0.012,1.1981 0.341,0.1965 0.3013,-3.0914 0.089,-3.7969 0.1586,-3.4758 -0.099,-2.6987 0.2302,-3.0051 -0.2301,-2.4953 0.083,-4.1679 -0.3284,-4.8589 -0.046,-4.0166 -0.1122,-3.8819 -0.1548,-1.8406 -0.212,-1.352 -0.078,-0.7261 0.1177,-1.3169 0.06,-0.6756 -0.2123,-1.1318 -0.1963,0.0482 h 3e-4 z"
         style="fill:none;stroke:#ff0000;stroke-width:0.216;stroke-linecap:butt;stroke-linejoin:bevel;stroke-dasharray:none"
         id="path691" />
      <path
         d="m 1206.5842,778.4879 0.014,8.0304 0.036,21.637 0.034,20.2921 0.034,20.2921 0.032,19.32 0.035,21.2641"
         style="fill:none;stroke:#ff0000;stroke-width:0.216;stroke-linecap:butt;stroke-linejoin:bevel;stroke-dasharray:none"
         id="path692" />
      <path
         d="m 1192.6736,794.486 9e-4,0.541 0.034,20.2921 0.023,13.9613 m 0.012,7.2617 10e-4,0.5775 0.031,18.7836 0.021,12.5145 m 0.011,6.5495 v 1.2281 l 0.034,20.292"
         style="fill:none;stroke:#ff0000;stroke-width:0.216;stroke-linecap:butt;stroke-linejoin:bevel;stroke-dasharray:none"
         id="path693" />
      <path
         d="m 1191.4636,794.5527 5e-4,0.3474 0.034,20.292 0.024,14.5494 m 0.011,6.4906 v 0.7606 l 0.031,18.7835 0.022,12.9488 m 0.01,6.0746 v 1.2687 l 0.034,20.2921"
         style="fill:none;stroke:#ff0000;stroke-width:0.216;stroke-linecap:butt;stroke-linejoin:bevel;stroke-dasharray:none"
         id="path694" />
      <path
         d="m 1207.5719,778.3573 0.013,8.0304 0.036,21.637 0.034,20.2921 0.034,20.292 0.032,19.3201 0.035,21.264"
         style="fill:none;stroke:#ff0000;stroke-width:0.216;stroke-linecap:butt;stroke-linejoin:bevel;stroke-dasharray:none"
         id="path695" />
      <path
         d="m 1206.6116,794.8622 -9.466,-10e-4 -0.1615,-0.2847 -6e-4,-0.3271 -7.1439,0.6279"
         style="fill:none;stroke:#ff0000;stroke-width:0.216;stroke-linecap:butt;stroke-linejoin:bevel;stroke-dasharray:none"
         id="path696" />
      <path
         d="m 1206.5982,786.8609 -9.466,0.0158 -0.1605,0.2852 5e-4,0.3271 -1.3043,-0.0673 -5.8417,-0.5288"
         style="fill:none;stroke:#ff0000;stroke-width:0.216;stroke-linecap:butt;stroke-linejoin:bevel;stroke-dasharray:none"
         id="path697" />
      <path
         d="m 1207.3442,836.9989 -4.4972,0.008 -4.1207,0.007 -0.1615,-0.2846 -6e-4,-0.3271 -6.5344,0.359 -0.2402,-0.4282 -1.6359,0.003 -0.2388,0.4289"
         style="fill:none;stroke:#ff0000;stroke-width:0.216;stroke-linecap:butt;stroke-linejoin:bevel;stroke-dasharray:none"
         id="path698" />
      <path
         d="m 1207.3305,828.851 -8.6178,0.0144 -0.1606,0.2852 6e-4,0.3271 -1.3044,-0.0673 -5.2312,-0.2699 -0.2388,0.4287 -1.6359,0.003 -0.2402,-0.4279"
         style="fill:none;stroke:#ff0000;stroke-width:0.216;stroke-linecap:butt;stroke-linejoin:bevel;stroke-dasharray:none"
         id="path699" />
      <path
         d="m 1198.1562,829.6796 -0.5629,2.4422 0.5735,3.9488"
         style="fill:none;stroke:#ff0000;stroke-width:0.216;stroke-linecap:butt;stroke-linejoin:bevel;stroke-dasharray:none"
         id="path700" />
      <path
         d="m 1207.447,875.4766 -4.4972,0.008 -4.1207,0.007 -0.1615,-0.2846 -5e-4,-0.3271 -6.5344,0.359 -0.2403,-0.4282 -1.6358,0.003 -0.2389,0.429"
         style="fill:none;stroke:#ff0000;stroke-width:0.216;stroke-linecap:butt;stroke-linejoin:bevel;stroke-dasharray:none"
         id="path701" />
      <path
         d="m 1207.4343,867.8653 -8.6179,0.0144 -0.1605,0.2851 5e-4,0.3272 -1.3043,-0.0673 -5.2313,-0.2699 -0.2388,0.4287 -1.6358,0.003 -0.2403,-0.4279"
         style="fill:none;stroke:#ff0000;stroke-width:0.216;stroke-linecap:butt;stroke-linejoin:bevel;stroke-dasharray:none"
         id="path702" />
      <path
         d="m 1198.2599,868.6939 -0.5612,3.4141 0.571,2.4403"
         style="fill:none;stroke:#ff0000;stroke-width:0.216;stroke-linecap:butt;stroke-linejoin:bevel;stroke-dasharray:none"
         id="path703" />
      <path
         d="m 1148.6781,884.9565 c -5.5054,0.009 -10.8738,-5.8524 -10.886,-13.1198 -0.012,-7.2675 4.4409,-13.1662 9.9466,-13.1754 0.2823,-4e-4 0.5619,0.015 0.838,0.0446"
         style="fill:none;stroke:#000000;stroke-width:0.216;stroke-linecap:butt;stroke-linejoin:miter;stroke-dasharray:none"
         id="path704" />
      <path
         d="m 1209.6015,872.0453 v 0.8504"
         style="fill:none;stroke:#0000ff;stroke-width:0.216;stroke-linecap:butt;stroke-linejoin:bevel;stroke-dasharray:none"
         id="path705" />
      <path
         d="m 1210.3054,847.3356 -0.7447,10e-4 -5.0277,0.008"
         style="fill:none;stroke:#000000;stroke-width:0.216;stroke-linecap:butt;stroke-linejoin:miter;stroke-dasharray:none"
         id="path706" />
      <path
         d="m 1210.2793,831.6664 -0.7445,0.001 -5.1455,0.009"
         style="fill:none;stroke:#000000;stroke-width:0.216;stroke-linecap:butt;stroke-linejoin:miter;stroke-dasharray:none"
         id="path707" />
      <path
         d="m 1210.3054,847.3356 1.4173,0.0657 2.4787,-0.1754 0.2218,-0.0454 0.3463,-0.0919 0.2796,-0.2027 0.6578,-0.4501 0.7056,-0.7971 0.5286,-0.7117 0.362,-0.5752 0.2919,-0.6692 0.097,-1.6763 -11.001,0.0184 -0.01,-5.0353 m 3.5965,-5.3233 1.417,-0.0699 2.4792,0.1669 0.222,0.0447 0.3466,0.0907 0.2803,0.2015 0.6593,0.4482 0.7083,0.7947 0.5309,0.71 0.364,0.5737 0.2941,0.6687 0.1028,1.6757 -11.001,0.0184"
         style="fill:none;stroke:#000000;stroke-width:0.216;stroke-linecap:butt;stroke-linejoin:bevel;stroke-dasharray:none"
         id="path708" />
      <path
         d="m 1187.9611,746.0591 -0.4468,-3.5976 0.436,-2.9136"
         style="fill:none;stroke:#ff0000;stroke-width:0.216;stroke-linecap:butt;stroke-linejoin:bevel;stroke-dasharray:none"
         id="path709" />
      <path
         d="m 1181.1865,745.9901 -0.3871,-3.4876 0.3761,-3.112"
         style="fill:none;stroke:#ff0000;stroke-width:0.216;stroke-linecap:butt;stroke-linejoin:bevel;stroke-dasharray:none"
         id="path710" />
      <path
         d="m 1172.765,739.3241 -0.4355,3.1628 0.4468,3.5975"
         style="fill:none;stroke:#ff0000;stroke-width:0.216;stroke-linecap:butt;stroke-linejoin:bevel;stroke-dasharray:none"
         id="path711" />
      <path
         d="m 1163.9979,746.4276 -0.4473,-3.9261 0.4349,-3.5256"
         style="fill:none;stroke:#ff0000;stroke-width:0.216;stroke-linecap:butt;stroke-linejoin:bevel;stroke-dasharray:none"
         id="path712" />
      <path
         d="m 1179.5396,739.3933 -0.4356,3.0822 0.4466,3.5174"
         style="fill:none;stroke:#ff0000;stroke-width:0.216;stroke-linecap:butt;stroke-linejoin:bevel;stroke-dasharray:none"
         id="path713" />
      <path
         d="m 1187.8254,664.7904 -0.5726,-3.4122 0.5628,-2.4424"
         style="fill:none;stroke:#ff0000;stroke-width:0.216;stroke-linecap:butt;stroke-linejoin:bevel;stroke-dasharray:none"
         id="path714" />
      <path
         d="m 1181.0508,664.7213 -0.5725,-3.3318 0.5629,-2.3619"
         style="fill:none;stroke:#ff0000;stroke-width:0.216;stroke-linecap:butt;stroke-linejoin:bevel;stroke-dasharray:none"
         id="path715" />
      <path
         d="m 1172.6307,658.9611 -0.5628,2.4425 0.5726,3.4122"
         style="fill:none;stroke:#ff0000;stroke-width:0.216;stroke-linecap:butt;stroke-linejoin:bevel;stroke-dasharray:none"
         id="path716" />
      <path
         d="m 1163.8626,665.4425 -0.5736,-4.0243 0.5618,-3.0544"
         style="fill:none;stroke:#ff0000;stroke-width:0.216;stroke-linecap:butt;stroke-linejoin:bevel;stroke-dasharray:none"
         id="path717" />
      <path
         d="m 1179.4054,659.0303 -0.563,2.3619 0.5725,3.3318"
         style="fill:none;stroke:#ff0000;stroke-width:0.216;stroke-linecap:butt;stroke-linejoin:bevel;stroke-dasharray:none"
         id="path718" />
      <path
         d="m 1187.8905,703.7818 -0.571,-2.4403 0.5604,-3.951"
         style="fill:none;stroke:#ff0000;stroke-width:0.216;stroke-linecap:butt;stroke-linejoin:bevel;stroke-dasharray:none"
         id="path719" />
      <path
         d="m 1181.1159,703.7129 -0.5709,-2.36 0.5605,-3.8706"
         style="fill:none;stroke:#ff0000;stroke-width:0.216;stroke-linecap:butt;stroke-linejoin:bevel;stroke-dasharray:none"
         id="path720" />
      <path
         d="m 1172.695,697.4159 -0.5604,3.951 0.571,2.4403"
         style="fill:none;stroke:#ff0000;stroke-width:0.216;stroke-linecap:butt;stroke-linejoin:bevel;stroke-dasharray:none"
         id="path721" />
      <path
         d="m 1163.9278,704.4338 -0.5721,-3.0522 0.5594,-4.563"
         style="fill:none;stroke:#ff0000;stroke-width:0.216;stroke-linecap:butt;stroke-linejoin:bevel;stroke-dasharray:none"
         id="path722" />
      <path
         d="m 1179.4696,697.4851 -0.5605,3.8705 0.5709,2.36"
         style="fill:none;stroke:#ff0000;stroke-width:0.216;stroke-linecap:butt;stroke-linejoin:bevel;stroke-dasharray:none"
         id="path723" />
      <path
         d="m 1197.0719,646.2106 1.5501,0.9306 1.5486,-0.003 1.547,-0.9358 1.5485,-0.003 1.5502,0.9306 1.5485,-0.003 v 1.8666 l -1.5486,0.003 -1.547,0.9358 -1.5486,0.003 -1.5501,-0.9306 -1.5486,0.003 -1.547,0.9357 -1.5488,0.003 -1.5501,-0.9306 -1.5486,0.003 v -1.8666 l 1.5485,-0.003 1.547,-0.9357 z"
         style="fill:none;stroke:#000000;stroke-width:0.216;stroke-linecap:butt;stroke-linejoin:bevel;stroke-dasharray:none"
         id="path724" />
      <path
         d="m 1201.7536,667.7368 -1.5471,0.9357 -1.5485,0.003 -1.5501,-0.9306 -1.5489,0.003 -1.547,0.9358 -1.5486,0.002 v 1.8667 l 1.5485,-0.003 1.5501,0.9305 1.5489,-0.003 1.547,-0.9358 1.5486,-0.003 1.5501,0.9306 1.5486,-0.003 1.547,-0.9357 1.5485,-0.003 v -1.8666 l -1.5486,0.003 -1.5501,-0.9305 z"
         style="fill:none;stroke:#000000;stroke-width:0.216;stroke-linecap:butt;stroke-linejoin:bevel;stroke-dasharray:none"
         id="path725" />
      <path
         d="m 1197.2128,730.578 1.5501,0.9306 1.5486,-0.003 1.547,-0.9357 1.5486,-0.003 1.5501,0.9306 1.5486,-0.003 v 1.8666 l -1.5486,0.003 -1.547,0.9357 -1.5486,0.003 -1.5501,-0.9306 -1.5485,0.003 -1.5471,0.9358 -1.5488,0.003 -1.5501,-0.9306 -1.5486,0.003 v -1.8666 l 1.5486,-0.003 1.547,-0.9358 z"
         style="fill:none;stroke:#000000;stroke-width:0.216;stroke-linecap:butt;stroke-linejoin:bevel;stroke-dasharray:none"
         id="path726" />
      <path
         d="m 1204.9478,725.8587 1.5485,-0.003 v -1.8667 l -1.5485,0.003 -1.5502,-0.9305 -1.5485,0.003 -1.547,0.9358 -1.5486,0.003 -1.5501,-0.9306 -1.5489,0.003 -1.547,0.9357 -1.5485,0.003 v 1.8666 l 1.5485,-0.003 1.5502,0.9305 1.5488,-0.003 1.547,-0.9357 1.5486,-0.003 1.5501,0.9306 1.5486,-0.003 z"
         style="fill:none;stroke:#000000;stroke-width:0.216;stroke-linecap:butt;stroke-linejoin:bevel;stroke-dasharray:none"
         id="path727" />
      <path
         d="m 1192.5464,718.3733 v -1.8666 l 1.5486,-0.003 1.547,-0.9357 1.5488,-0.003 1.5502,0.9306 1.5485,-0.003 1.547,-0.9358 1.5486,-0.003 1.5501,0.9306 1.5486,-0.003 v 1.8666 l -1.5486,0.003 -1.547,0.9358 -1.5485,0.003 -1.5502,-0.9306 -1.5485,0.003 -1.547,0.9357 -1.5489,0.003 -1.5501,-0.9306 z"
         style="fill:none;stroke:#000000;stroke-width:0.216;stroke-linecap:butt;stroke-linejoin:bevel;stroke-dasharray:none"
         id="path728" />
      <path
         d="m 1203.3147,675.2403 -1.5486,0.003 -1.547,0.9357 -1.5486,0.003 -1.5501,-0.9306 -1.5489,0.003 -1.547,0.9358 -1.5485,0.003 v 1.8666 l 1.5486,-0.003 1.5501,0.9306 1.5488,-0.003 1.547,-0.9358 1.5486,-0.003 1.5501,0.9305 1.5486,-0.003 1.547,-0.9357 1.5486,-0.003 v -1.8666 l -1.5485,0.003 z"
         style="fill:none;stroke:#000000;stroke-width:0.216;stroke-linecap:butt;stroke-linejoin:bevel;stroke-dasharray:none"
         id="path729" />
      <path
         d="m 1198.6956,691.1912 -1.5501,-0.9306 -1.5489,0.003 -1.547,0.9358 -1.5486,0.003 v 1.8666 l 1.5485,-0.003 1.5502,0.9306 1.5488,-0.003 1.547,-0.9358 z"
         style="fill:none;stroke:#000000;stroke-width:0.216;stroke-linecap:butt;stroke-linejoin:bevel;stroke-dasharray:none"
         id="path730" />
      <path
         d="m 1198.6831,683.6874 v 1.8666 l -1.547,0.9357 -1.5489,0.003 -1.5501,-0.9306 -1.5486,0.003 v -1.8666 l 1.5486,-0.003 1.547,-0.9357 1.5488,-0.003 z"
         style="fill:none;stroke:#000000;stroke-width:0.216;stroke-linecap:butt;stroke-linejoin:bevel;stroke-dasharray:none"
         id="path731" />
      <path
         d="m 1179.2417,704.4278 -6.5356,-0.3372 6e-4,0.3271 -0.1606,0.2852 -8.6179,0.0144 0.6036,4.8153 -1.6361,0.003 1.5887,10.8123 -1.2435,0.6668 1.2458,0.6627 -1.5527,10.8176 1.6362,-0.003 -0.5851,6.2346 4.4971,-0.008 4.1207,-0.007 0.1615,0.2847 6e-4,0.3271 6.5344,-0.359 0.2402,0.4282 1.6359,-0.003 0.2388,-0.429 6.5356,0.3372 -6e-4,-0.3271 0.1605,-0.2852 1.6359,-0.003 -0.057,-34.0094 -1.6359,0.003 -0.1615,-0.2846 -5e-4,-0.3271 -6.5344,0.359 -0.2402,-0.428 -1.6359,0.003 z"
         style="fill:none;stroke:#000000;stroke-width:0.216;stroke-linecap:butt;stroke-linejoin:bevel;stroke-dasharray:none"
         id="path732" />
      <path
         d="m 1204.8304,655.565 1.5485,-0.003 v -1.8666 l -1.5486,0.003 -1.5501,-0.9306 -1.5485,0.003 -1.5471,0.9358 -1.5485,0.003 -1.5501,-0.9306 -1.5489,0.003 -1.547,0.9357 -1.5486,0.003 v 1.8666 l 1.5485,-0.003 1.5501,0.9306 1.5489,-0.003 1.547,-0.9357 1.5486,-0.003 1.5501,0.9306 1.5486,-0.003 z"
         style="fill:none;stroke:#000000;stroke-width:0.216;stroke-linecap:butt;stroke-linejoin:bevel;stroke-dasharray:none"
         id="path733" />
      <path
         d="m 1163.9146,696.5351 0.59,-3.3088 -1.6361,0.003 1.5526,-10.8177 -1.2458,-0.6626 1.2435,-0.6668 -1.5899,-11.51 1.6362,-0.003 -0.602,-3.8434 8.6179,-0.0144 0.1605,-0.2851 -5e-4,-0.3271 6.5355,0.3371 0.2389,-0.4289 1.6358,-0.003 0.2403,0.4282 6.5344,-0.359 5e-4,0.3271 0.1615,0.2846 1.6359,-0.003 0.051,30.8092 -1.6358,0.003 -0.1606,0.2851 6e-4,0.3272 -6.5356,-0.3372 -0.2388,0.429 -1.6359,0.003 -0.2402,-0.4282 -6.5344,0.359 -6e-4,-0.3271 -0.1614,-0.2846 z"
         style="fill:none;stroke:#000000;stroke-width:0.216;stroke-linecap:butt;stroke-linejoin:bevel;stroke-dasharray:none"
         id="path734" />
      <path
         d="m 1195.6262,707.961 1.5488,-0.003 1.5502,0.9306 1.5485,-0.003 1.547,-0.9357 1.5486,-0.003 1.5501,0.9306 1.5486,-0.003 v 1.8663 l -1.5486,0.003 -1.547,0.936 -1.5485,0.003 -1.5502,-0.9308 -1.5485,0.003 -1.547,0.936 -1.5489,0.003 -1.5501,-0.9309 -1.5486,0.003 v -1.8663 l 1.5486,-0.003 z"
         style="fill:none;stroke:#000000;stroke-width:0.216;stroke-linecap:butt;stroke-linejoin:bevel;stroke-dasharray:none"
         id="path735" />
      <path
         d="m 1163.6575,766.8241 1.2436,-0.6668 -1.595,-14.5564 1.6362,-0.003 -0.6038,-4.8876 8.2778,-0.0138 0.1605,-0.2852 -5e-4,-0.3271 6.5355,0.3372 0.2388,-0.4287 1.6359,-0.003 0.2402,0.428 6.5344,-0.359 6e-4,0.3271 0.1615,0.2846 1.6358,-0.003 0.01,3.7516 12.0447,-0.0201 1.0949,1.314 0.025,15.0474"
         style="fill:none;stroke:#000000;stroke-width:0.216;stroke-linecap:butt;stroke-linejoin:bevel;stroke-dasharray:none"
         id="path736" />
      <path
         d="m 1155.5674,766.8053 -0.04,-24.0622 -7.0866,0.0119 -0.037,-22.2914"
         style="fill:none;stroke:#000000;stroke-width:0.216;stroke-linecap:butt;stroke-linejoin:bevel;stroke-dasharray:none"
         id="path737" />
      <path
         d="m 1148.402,719.6132 -0.1401,-83.8337 7.0869,-0.0118 0.012,7.0866 8.407,-0.014 -0.9664,10.142 1.6362,-0.003 -0.5871,5.1008 8.6179,-0.0144 0.1615,0.2847 6e-4,0.3271 6.5344,-0.359 0.2402,0.4282 1.6359,-0.003 0.2388,-0.429 6.5355,0.3372 -5e-4,-0.3271 0.1605,-0.2852 1.6359,-0.003 0.02,-22.3269 8.5039,-0.0142 0.012,7.0866 11.0722,-0.0185 0.03,17.8353 m 0,0.8504 0.039,23.4612 m 0.026,15.6694 0.061,36.6626"
         style="fill:none;stroke:#000000;stroke-width:0.216;stroke-linecap:butt;stroke-linejoin:bevel;stroke-dasharray:none"
         id="path738" />
      <path
         d="m 1148.4034,720.4636 v -0.8504"
         style="fill:none;stroke:#0000ff;stroke-width:0.216;stroke-linecap:butt;stroke-linejoin:bevel;stroke-dasharray:none"
         id="path739" />
      <path
         d="m 1209.3764,737.2432 0.049,29.4857"
         style="fill:none;stroke:#000000;stroke-width:0.216;stroke-linecap:butt;stroke-linejoin:bevel;stroke-dasharray:none"
         id="path740" />
      <path
         d="m 1158.2768,766.8075 -0.054,-1.5646 0.023,-2.755 -0.056,-3.7607 0.1912,-3.119 0.1997,-3.6295 -0.1321,-4.5914 0.2024,-4.229 0.025,-3.2231 -0.1434,-3.1808 0.023,-3.0535 0.021,-2.8406 0.3757,-4.1591 0.1039,-2.2611 0.012,-1.5148 0.4296,-0.2505 0.3938,3.9086 0.1282,4.802 0.2162,4.3959 -0.113,3.4125 0.3031,3.7997 -0.281,3.1568 0.1225,5.2714 -0.3943,6.1456 -0.042,5.0818 -0.1043,4.082"
         style="fill:none;stroke:#ff0000;stroke-width:0.216;stroke-linecap:butt;stroke-linejoin:bevel;stroke-dasharray:none"
         id="path741" />
      <path
         d="m 1153.98,635.77 0.04,1.3141 0.028,3.2765 0.086,4.4228 -0.061,3.6392 -0.059,4.199 0.144,5.287 -0.051,4.8249 0.033,3.6235 0.1269,3.5403 0.031,3.3853 0.028,3.1473 -0.1482,4.5876 -0.025,2.4353 0.015,1.6185 -0.2319,0.3187 -0.2777,-4.2098 -0.1429,-5.2459 -0.1915,-4.8594 0.011,-3.7959 -0.2297,-4.2799 0.1063,-3.5543 -0.1527,-6.0471 0.1232,-7.1756 -0.058,-5.9768 -0.01,-4.4739"
         style="fill:none;stroke:#ff0000;stroke-width:0.216;stroke-linecap:butt;stroke-linejoin:bevel;stroke-dasharray:none"
         id="path742" />
      <path
         d="m 1155.2318,733.8731 -0.055,-3.4403 -0.1355,-3.9283 0.023,-2.755 -0.057,-3.7607 0.1912,-3.119 0.2,-3.6295 -0.1323,-4.5911 0.2024,-4.229 0.025,-3.2234 -0.1433,-3.1808 0.023,-3.0535 0.02,-2.8406 0.3757,-4.1591 0.104,-2.2611 0.012,-1.5145 0.4296,-0.2508 0.3937,3.9086 0.1285,4.802 0.216,4.3959 -0.1131,3.4125 0.3031,3.7997 -0.281,3.1568 0.1225,5.2714 -0.3943,6.1456 -0.042,5.0818 -0.1254,4.9089 -0.1874,2.3301 -0.2622,1.7095 -0.096,0.9189 0.1542,1.6648 0.08,0.8542 -0.2633,1.4331 -0.2492,-0.0608 h -6e-4 z"
         style="fill:none;stroke:#ff0000;stroke-width:0.216;stroke-linecap:butt;stroke-linejoin:bevel;stroke-dasharray:none"
         id="path743" />
      <path
         d="m 1158.7676,689.1498 -0.044,-2.7198 -0.1069,-3.1057 0.019,-2.1785 -0.044,-2.9726 0.1504,-2.4673 0.1585,-2.8697 -0.1036,-3.6302 0.1594,-3.3432 0.018,-2.5484 -0.1124,-2.5155 0.018,-2.4143 0.016,-2.2459 0.297,-3.2887 0.082,-1.7874 0.01,-1.1982 0.3404,-0.1976 0.3116,3.0904 0.1019,3.7965 0.1702,3.4753 -0.09,2.699 0.2403,3.0044 -0.2218,2.496 0.097,4.1676 -0.3122,4.8599 -0.033,4.0168 -0.099,3.8822 -0.1485,1.8411 -0.2076,1.3527 -0.075,0.7264 0.1221,1.3165 0.063,0.6754 -0.2085,1.1325 -0.1965,-0.0476 h 3e-4 z"
         style="fill:none;stroke:#ff0000;stroke-width:0.216;stroke-linecap:butt;stroke-linejoin:bevel;stroke-dasharray:none"
         id="path744" />
      <path
         d="m 1206.545,755.017 -0.013,-8.0304 -0.036,-21.637 -0.034,-20.2921 -0.034,-20.292 -0.032,-19.3201 -0.036,-21.2641"
         style="fill:none;stroke:#ff0000;stroke-width:0.216;stroke-linecap:butt;stroke-linejoin:bevel;stroke-dasharray:none"
         id="path745" />
      <path
         d="m 1192.581,739.0654 -9e-4,-0.5409 -0.034,-20.2921 -0.023,-13.9613 m -0.012,-7.2618 -9e-4,-0.5775 -0.031,-18.7835 -0.021,-12.5145 m -0.011,-6.5495 v -1.2281 l -0.034,-20.292"
         style="fill:none;stroke:#ff0000;stroke-width:0.216;stroke-linecap:butt;stroke-linejoin:bevel;stroke-dasharray:none"
         id="path746" />
      <path
         d="m 1191.3708,739.0028 -6e-4,-0.3474 -0.034,-20.292 -0.024,-14.5494 m -0.011,-6.4906 v -0.7606 l -0.031,-18.7835 -0.022,-12.9488 m -0.01,-6.0746 v -1.2687 l -0.034,-20.292"
         style="fill:none;stroke:#ff0000;stroke-width:0.216;stroke-linecap:butt;stroke-linejoin:bevel;stroke-dasharray:none"
         id="path747" />
      <path
         d="m 1207.5331,755.1443 -0.013,-8.0304 -0.036,-21.637 -0.034,-20.2921 -0.034,-20.292 -0.032,-19.3201 -0.035,-21.264"
         style="fill:none;stroke:#ff0000;stroke-width:0.216;stroke-linecap:butt;stroke-linejoin:bevel;stroke-dasharray:none"
         id="path748" />
      <path
         d="m 1206.5177,738.6427 -9.466,0.0328 -0.1605,0.2851 5e-4,0.3271 -7.146,-0.604"
         style="fill:none;stroke:#ff0000;stroke-width:0.216;stroke-linecap:butt;stroke-linejoin:bevel;stroke-dasharray:none"
         id="path749" />
      <path
         d="m 1206.5311,746.644 -9.466,0.0158 -0.1615,-0.2846 -6e-4,-0.3271 -1.3041,0.0716 -5.8399,0.5484"
         style="fill:none;stroke:#ff0000;stroke-width:0.216;stroke-linecap:butt;stroke-linejoin:bevel;stroke-dasharray:none"
         id="path750" />
      <path
         d="m 1207.1095,696.5038 -4.4972,0.008 -4.1207,0.007 -0.1605,0.2851 5e-4,0.3271 -6.5355,-0.3372 -0.2389,0.429 -1.6358,0.003 -0.2403,-0.4282"
         style="fill:none;stroke:#ff0000;stroke-width:0.216;stroke-linecap:butt;stroke-linejoin:bevel;stroke-dasharray:none"
         id="path751" />
      <path
         d="m 1207.1231,704.6517 -8.6179,0.0143 -0.1615,-0.2846 -5e-4,-0.3271 -1.3041,0.0716 -5.2303,0.2874 -0.2403,-0.4279 -1.6358,0.003 -0.2388,0.4288"
         style="fill:none;stroke:#ff0000;stroke-width:0.216;stroke-linecap:butt;stroke-linejoin:bevel;stroke-dasharray:none"
         id="path752" />
      <path
         d="m 1197.946,703.8537 -0.571,-2.4402 0.5603,-3.9508"
         style="fill:none;stroke:#ff0000;stroke-width:0.216;stroke-linecap:butt;stroke-linejoin:bevel;stroke-dasharray:none"
         id="path753" />
      <path
         d="m 1207.0838,658.026 -4.4972,0.008 -4.1207,0.007 -0.1605,0.2851 5e-4,0.3271 -6.5356,-0.3371 -0.2388,0.429 -1.6358,0.003 -0.2403,-0.4282"
         style="fill:none;stroke:#ff0000;stroke-width:0.216;stroke-linecap:butt;stroke-linejoin:bevel;stroke-dasharray:none"
         id="path754" />
      <path
         d="m 1207.0965,665.6373 -8.6179,0.0144 -0.1615,-0.2846 -5e-4,-0.3272 -1.3041,0.0717 -5.2303,0.2874 -0.2403,-0.428 -1.6358,0.003 -0.2389,0.4287"
         style="fill:none;stroke:#ff0000;stroke-width:0.216;stroke-linecap:butt;stroke-linejoin:bevel;stroke-dasharray:none"
         id="path755" />
      <path
         d="m 1197.9194,664.8393 -0.5726,-3.4122 0.5628,-2.4421"
         style="fill:none;stroke:#ff0000;stroke-width:0.216;stroke-linecap:butt;stroke-linejoin:bevel;stroke-dasharray:none"
         id="path756" />
      <path
         d="m 1148.2836,648.7424 c -5.5055,0.009 -10.8543,5.8887 -10.8422,13.1562 0.012,7.2674 4.4849,13.1512 9.9906,13.142 0.2823,-5e-4 0.5618,-0.0168 0.8379,-0.0473"
         style="fill:none;stroke:#000000;stroke-width:0.216;stroke-linecap:butt;stroke-linejoin:miter;stroke-dasharray:none"
         id="path757" />
      <path
         d="m 1209.2498,661.45 v -0.8504"
         style="fill:none;stroke:#0000ff;stroke-width:0.216;stroke-linecap:butt;stroke-linejoin:bevel;stroke-dasharray:none"
         id="path758" />
      <path
         d="m 1210.0334,685.1934 -0.7448,10e-4 -5.0276,0.008"
         style="fill:none;stroke:#000000;stroke-width:0.216;stroke-linecap:butt;stroke-linejoin:miter;stroke-dasharray:none"
         id="path759" />
      <path
         d="m 1210.0596,700.8627 -0.7445,10e-4 -5.1456,0.008"
         style="fill:none;stroke:#000000;stroke-width:0.216;stroke-linecap:butt;stroke-linejoin:miter;stroke-dasharray:none"
         id="path760" />
      <path
         d="m 1210.0334,685.1934 1.417,-0.0704 2.4792,0.1672 0.222,0.0447 0.3466,0.0907 0.2803,0.2017 0.6593,0.4479 0.7083,0.7948 0.5309,0.7099 0.364,0.574 0.2941,0.6682 0.1028,1.676 -11.001,0.0184 0.01,5.0352 m 3.6143,5.3113 1.4172,0.0651 2.4787,-0.1752 0.2218,-0.0454 0.3463,-0.0918 0.2796,-0.2025 0.6578,-0.4503 0.7056,-0.7971 0.5286,-0.7118 0.3621,-0.5749 0.2918,-0.6696 0.097,-1.6762 -11.001,0.0184"
         style="fill:none;stroke:#000000;stroke-width:0.216;stroke-linecap:butt;stroke-linejoin:bevel;stroke-dasharray:none"
         id="path761" />
      <path
         d="m 1198.9449,840.4729 v 1.8667 l 1.5501,0.9305 1.5489,-0.003 1.547,-0.9357 1.5485,-0.003 v -1.8666 l -1.5485,0.003 -1.5502,-0.9306 -1.5488,0.003 z"
         style="fill:none;stroke:#ff0000;stroke-width:0.216;stroke-linecap:butt;stroke-linejoin:bevel;stroke-dasharray:none"
         id="path762" />
      <path
         d="m 1198.9574,847.9768 1.547,-0.9357 1.5489,-0.003 1.5501,0.9305 1.5486,-0.003 v 1.8666 l -1.5486,0.003 -1.547,0.9357 -1.5488,0.003 -1.5502,-0.9306 z"
         style="fill:none;stroke:#ff0000;stroke-width:0.216;stroke-linecap:butt;stroke-linejoin:bevel;stroke-dasharray:none"
         id="path763" />
      <path
         d="m 1198.6955,691.1912 1.547,-0.9357 1.5489,-0.003 1.5501,0.9306 1.5486,-0.003 v 1.8666 l -1.5486,0.003 -1.547,0.9357 -1.5488,0.003 -1.5501,-0.9306 z"
         style="fill:none;stroke:#ff0000;stroke-width:0.216;stroke-linecap:butt;stroke-linejoin:bevel;stroke-dasharray:none"
         id="path764" />
      <path
         d="m 1198.683,683.6874 v 1.8666 l 1.5501,0.9305 1.5489,-0.003 1.547,-0.9358 1.5486,-0.003 v -1.8666 l -1.5485,0.003 -1.5501,-0.9306 -1.5489,0.003 z"
         style="fill:none;stroke:#ff0000;stroke-width:0.216;stroke-linecap:butt;stroke-linejoin:bevel;stroke-dasharray:none"
         id="path765" />
    </g>
  </g>
</svg>
