<?xml version="1.0" encoding="UTF-8" standalone="no"?>
<!-- Created with Inkscape (http://www.inkscape.org/) -->

<svg
   width="210mm"
   height="297mm"
   viewBox="0 0 210 297"
   version="1.1"
   id="svg1"
   inkscape:version="1.4.2 (f4327f4, 2025-05-13)"
   sodipodi:docname="perete-fata.svg"
   xmlns:inkscape="http://www.inkscape.org/namespaces/inkscape"
   xmlns:sodipodi="http://sodipodi.sourceforge.net/DTD/sodipodi-0.dtd"
   xmlns="http://www.w3.org/2000/svg"
   xmlns:svg="http://www.w3.org/2000/svg">
  <sodipodi:namedview
     id="namedview1"
     pagecolor="#505050"
     bordercolor="#eeeeee"
     borderopacity="1"
     inkscape:showpageshadow="0"
     inkscape:pageopacity="0"
     inkscape:pagecheckerboard="0"
     inkscape:deskcolor="#505050"
     inkscape:document-units="mm"
     inkscape:zoom="0.74208053"
     inkscape:cx="396.8572"
     inkscape:cy="559.91228"
     inkscape:window-width="1920"
     inkscape:window-height="1051"
     inkscape:window-x="-9"
     inkscape:window-y="-9"
     inkscape:window-maximized="1"
     inkscape:current-layer="layer1" />
  <defs
     id="defs1" />
  <g
     inkscape:label="Layer 1"
     inkscape:groupmode="layer"
     id="layer1">
    <g
       id="Layer1003"
       transform="matrix(0,1.164886,-1.2931406,0,908.59621,-895.19836)">
      <path
         d="m 906.8783,638.5641 v -18.1947 l -2.6031,-2.4207 2.6031,-2.4211 v -18.1947 h 1.3016 v -2.4207 h -2.6032 v 1.4523 l -13.1375,-1.4523 -1.5048,2.4207 -1.5051,-2.4207 -13.1376,1.4523 v -1.4523 h -2.6031 v 2.4207 h 1.3015 v 18.1947 l 2.6032,2.4211 -2.6032,2.4207 v 18.1947 h -1.3015 v 2.4211 h 2.6031 v -1.4527 l 13.1376,1.4527 1.5051,-2.4211 1.5048,2.4211 13.1375,-1.4527 v 1.4527 h 2.6032 v -2.4211 z"
         style="fill:none;stroke:#ff0000;stroke-width:0.216;stroke-linecap:butt;stroke-linejoin:bevel;stroke-dasharray:none"
         id="path403" />
      <path
         d="m 813.7099,627.4495 v 0.8116 h -1.3526 v -1.3526 h 0.6763 v -10.166 l 1.3527,-1.3527 -1.3527,-1.3527 v -10.166 h -0.6763 v -1.3526 h 1.3526 v 0.8116 l 6.8269,-0.8116 0.7818,1.3526 0.7821,-1.3526 6.8266,0.8116 v -0.8116 h 1.3526 v 1.3526 h -0.6763 v 10.166 l -1.3526,1.3527 1.3526,1.3527 v 10.166 h 0.6763 v 1.3526 h -1.3526 v -0.8116 l -6.8266,0.8116 -0.7821,-1.3526 -0.7818,1.3526 z"
         style="fill:none;stroke:#ff0000;stroke-width:0.216;stroke-linecap:butt;stroke-linejoin:bevel;stroke-dasharray:none"
         id="path404" />
      <path
         d="m 859.016,628.2611 v -1.3526 h -0.6763 v -10.166 l -1.3527,-1.3527 1.3527,-1.3527 v -10.166 h 0.6763 v -1.3526 h -1.3527 v 0.8116 l -6.8265,-0.8116 -0.7821,1.3526 -0.7821,-1.3526 -6.8266,0.8116 v -0.8116 h -1.3527 v 1.3526 h 0.6764 v 10.166 l 1.3526,1.3527 -1.3526,1.3527 v 10.166 h -0.6764 v 1.3526 h 1.3527 v -0.8116 l 6.8266,0.8116 0.7821,-1.3526 0.7821,1.3526 6.8265,-0.8116 v 0.8116 z"
         style="fill:none;stroke:#ff0000;stroke-width:0.216;stroke-linecap:butt;stroke-linejoin:bevel;stroke-dasharray:none"
         id="path405" />
      <path
         d="m 850.8859,606.3375 v 2.4816 2.8954 h 1.7371 2.9473 v -5.377 z"
         style="fill:none;stroke:#000000;stroke-width:0.216;stroke-linecap:butt;stroke-linejoin:bevel;stroke-dasharray:none"
         id="path406" />
      <path
         d="m 844.4914,606.3375 v 5.377 h 4.847 v -5.377 z"
         style="fill:none;stroke:#000000;stroke-width:0.216;stroke-linecap:butt;stroke-linejoin:bevel;stroke-dasharray:none"
         id="path407" />
      <path
         d="m 844.4914,624.3411 v -10.9166 h 4.847 v 10.9166 z"
         style="fill:none;stroke:#000000;stroke-width:0.216;stroke-linecap:butt;stroke-linejoin:bevel;stroke-dasharray:none"
         id="path408" />
      <path
         d="m 850.8859,624.3411 v -10.9166 h 4.6844 v 10.9166 z"
         style="fill:none;stroke:#000000;stroke-width:0.216;stroke-linecap:butt;stroke-linejoin:bevel;stroke-dasharray:none"
         id="path409" />
      <path
         d="m 925.1097,614.0371 v -10.166 h -0.6764 v -1.3526 h 1.3527 v 0.8116 l 6.8268,-0.8116 0.7819,1.3526 0.7821,-1.3526 6.8268,0.8116 v -0.8116 h 1.3527 v 1.3526 h -0.6764 v 10.166 l -1.3526,1.3527 1.3526,1.3527 -2e-4,10.166 h 0.6763 v 1.3526 h -1.3526 v -0.8116 l -6.8266,0.8116 -0.7821,-1.3526 -0.7819,1.3526 -6.8268,-0.8116 v 0.8116 h -1.3527 v -1.3526 h 0.6764 v -10.166 l 1.3526,-1.3527 z"
         style="fill:none;stroke:#ff0000;stroke-width:0.216;stroke-linecap:butt;stroke-linejoin:bevel;stroke-dasharray:none"
         id="path410" />
      <path
         d="m 953.1694,602.5185 v 1.3526 h 0.6763 v 10.166 l 1.3527,1.3527 -1.3527,1.3527 v 10.166 h -0.6763 v 1.3526 h 1.3526 v -0.8116 l 6.8269,0.8116 0.7818,-1.3526 0.7821,1.3526 6.8266,-0.8116 v 0.8116 h 1.3527 v -1.3526 h -0.6764 v -10.166 l -1.3526,-1.3527 1.3526,-1.3527 v -10.166 h 0.6764 v -1.3526 h -1.3527 v 0.8116 l -6.8266,-0.8116 -0.7821,1.3526 -0.7818,-1.3526 -6.8269,0.8116 v -0.8116 z"
         style="fill:none;stroke:#ff0000;stroke-width:0.216;stroke-linecap:butt;stroke-linejoin:bevel;stroke-dasharray:none"
         id="path411" />
      <path
         d="m 900.8995,601.7612 v 34.2944 h -18.3367 v -34.2944 z"
         style="fill:none;stroke:#000000;stroke-width:0.216;stroke-linecap:butt;stroke-linejoin:bevel;stroke-dasharray:none"
         id="path412" />
      <path
         d="m 962.9871,606.3375 v 2.4816 2.8954 h 1.7371 2.9473 v -5.377 z"
         style="fill:none;stroke:#000000;stroke-width:0.216;stroke-linecap:butt;stroke-linejoin:bevel;stroke-dasharray:none"
         id="path413" />
      <path
         d="m 956.5926,606.3375 v 5.377 h 4.847 v -5.377 z"
         style="fill:none;stroke:#000000;stroke-width:0.216;stroke-linecap:butt;stroke-linejoin:bevel;stroke-dasharray:none"
         id="path414" />
      <path
         d="m 956.5926,624.3411 v -10.9166 h 4.847 v 10.9166 z"
         style="fill:none;stroke:#000000;stroke-width:0.216;stroke-linecap:butt;stroke-linejoin:bevel;stroke-dasharray:none"
         id="path415" />
      <path
         d="m 962.9871,624.3411 v -10.9166 h 4.6844 v 10.9166 z"
         style="fill:none;stroke:#000000;stroke-width:0.216;stroke-linecap:butt;stroke-linejoin:bevel;stroke-dasharray:none"
         id="path416" />
      <path
         d="m 934.1474,606.3375 v 2.4816 2.8954 h 1.7371 2.9474 v -5.377 z"
         style="fill:none;stroke:#000000;stroke-width:0.216;stroke-linecap:butt;stroke-linejoin:bevel;stroke-dasharray:none"
         id="path417" />
      <path
         d="m 927.753,606.3375 v 5.377 h 4.8469 v -5.377 z"
         style="fill:none;stroke:#000000;stroke-width:0.216;stroke-linecap:butt;stroke-linejoin:bevel;stroke-dasharray:none"
         id="path418" />
      <path
         d="m 927.753,624.3411 v -10.9166 h 4.8469 v 10.9166 z"
         style="fill:none;stroke:#000000;stroke-width:0.216;stroke-linecap:butt;stroke-linejoin:bevel;stroke-dasharray:none"
         id="path419" />
      <path
         d="m 934.1474,624.3411 v -10.9166 h 4.6845 v 10.9166 z"
         style="fill:none;stroke:#000000;stroke-width:0.216;stroke-linecap:butt;stroke-linejoin:bevel;stroke-dasharray:none"
         id="path420" />
      <path
         d="m 822.212,606.4152 v 2.4816 2.8953 h 1.7371 2.9474 v -5.3769 z"
         style="fill:none;stroke:#000000;stroke-width:0.216;stroke-linecap:butt;stroke-linejoin:bevel;stroke-dasharray:none"
         id="path421" />
      <path
         d="m 815.8176,606.4152 v 5.3769 h 4.8469 v -5.3769 z"
         style="fill:none;stroke:#000000;stroke-width:0.216;stroke-linecap:butt;stroke-linejoin:bevel;stroke-dasharray:none"
         id="path422" />
      <path
         d="m 815.8176,624.4188 v -10.9167 h 4.8469 v 10.9167 z"
         style="fill:none;stroke:#000000;stroke-width:0.216;stroke-linecap:butt;stroke-linejoin:bevel;stroke-dasharray:none"
         id="path423" />
      <path
         d="m 822.212,624.4188 v -10.9167 h 4.6845 v 10.9167 z"
         style="fill:none;stroke:#000000;stroke-width:0.216;stroke-linecap:butt;stroke-linejoin:bevel;stroke-dasharray:none"
         id="path424" />
      <path
         d="m 848.3071,590.8629 35.583,-0.005 m 15.6691,0 42.41,0.005"
         style="fill:none;stroke:#000000;stroke-width:0.216;stroke-linecap:butt;stroke-linejoin:bevel;stroke-dasharray:none"
         id="path425" />
      <path
         d="m 847.4567,590.8629 h 0.8504"
         style="fill:none;stroke:#0000ff;stroke-width:0.216;stroke-linecap:butt;stroke-linejoin:bevel;stroke-dasharray:none"
         id="path426" />
      <path
         d="m 942.8196,590.8629 h 48.8262 c 0,4.6188 0,8.0067 0,10.5942 m 3e-4,43.2641 h -18.8269 m -15.6691,0 h -14.0207"
         style="fill:none;stroke:#000000;stroke-width:0.216;stroke-linecap:butt;stroke-linejoin:bevel;stroke-dasharray:none"
         id="path427" />
      <path
         d="m 941.9692,590.8629 h 0.8504"
         style="fill:none;stroke:#0000ff;stroke-width:0.216;stroke-linecap:butt;stroke-linejoin:bevel;stroke-dasharray:none"
         id="path428" />
      <path
         d="m 846.7897,644.7212 h -20.5353 m -15.669,0 h -18.7821 m 3e-4,-42.8593 v -10.999 h 55.6531"
         style="fill:none;stroke:#000000;stroke-width:0.216;stroke-linecap:butt;stroke-linejoin:bevel;stroke-dasharray:none"
         id="path429" />
      <path
         d="M 942.279,644.7212 H 847.6401"
         style="fill:none;stroke:#000000;stroke-width:0.216;stroke-linecap:butt;stroke-linejoin:bevel;stroke-dasharray:none"
         id="path430" />
      <path
         d="m 942.279,644.7212 h 0.8504"
         style="fill:none;stroke:#0000ff;stroke-width:0.216;stroke-linecap:butt;stroke-linejoin:bevel;stroke-dasharray:none"
         id="path431" />
      <path
         d="m 846.7897,644.7212 h 0.8504"
         style="fill:none;stroke:#0000ff;stroke-width:0.216;stroke-linecap:butt;stroke-linejoin:bevel;stroke-dasharray:none"
         id="path432" />
      <path
         d="m 899.5593,590.1133 v 0.7448 5.0277"
         style="fill:none;stroke:#000000;stroke-width:0.216;stroke-linecap:butt;stroke-linejoin:miter;stroke-dasharray:none"
         id="path433" />
      <path
         d="m 883.89,590.1133 v 0.7445 5.1456"
         style="fill:none;stroke:#000000;stroke-width:0.216;stroke-linecap:butt;stroke-linejoin:miter;stroke-dasharray:none"
         id="path434" />
      <path
         d="m 899.5593,590.1133 0.068,-1.4171 -0.1713,-2.4789 -0.045,-0.222 -0.0913,-0.3464 -0.202,-0.2797 -0.4492,-0.6588 -0.7959,-0.707 -0.7109,-0.5294 -0.5746,-0.3633 -0.6687,-0.293 -1.6761,-0.0997 v 10.7387 h -5.0353 m -5.317,-3.3434 -0.0678,-1.4171 0.1711,-2.4789 0.045,-0.222 0.0913,-0.3464 0.202,-0.2797 0.4492,-0.6588 0.7959,-0.707 0.7109,-0.5294 0.5745,-0.3633 0.6687,-0.293 1.6762,-0.0997 v 10.7387"
         style="fill:none;stroke:#000000;stroke-width:0.216;stroke-linecap:butt;stroke-linejoin:bevel;stroke-dasharray:none"
         id="path435" />
      <path
         d="m 991.6458,616.4399 v 13.5337"
         style="fill:none;stroke:#000000;stroke-width:0.216;stroke-linecap:butt;stroke-linejoin:bevel;stroke-dasharray:none"
         id="path436" />
      <path
         d="m 957.1485,645.4154 0.002,-0.7447 0.0112,-5.0277"
         style="fill:none;stroke:#000000;stroke-width:0.216;stroke-linecap:butt;stroke-linejoin:miter;stroke-dasharray:none"
         id="path437" />
      <path
         d="m 972.8178,645.4503 0.002,-0.7445 0.0115,-5.1455"
         style="fill:none;stroke:#000000;stroke-width:0.216;stroke-linecap:butt;stroke-linejoin:miter;stroke-dasharray:none"
         id="path438" />
      <path
         d="m 957.1485,645.4154 -0.0713,9.9647 0.1658,2.479 0.0446,0.2223 0.0905,0.3466 0.2016,0.2802 0.4475,0.6598 0.7946,0.7087 0.7094,0.5308 0.5738,0.3646 0.668,0.2945 1.676,0.1037 0.039,-21.8289 5.0352,0.0114 m 5.2946,5.8975 0.0645,9.965 -0.1765,2.4785 -0.0456,0.2216 -0.0918,0.3465 -0.2028,0.2792 -0.4507,0.6578 -0.7973,0.7049 -0.712,0.5282 -0.5756,0.362 -0.6691,0.2915 -1.6764,0.096 0.0387,-21.8287"
         style="fill:none;stroke:#000000;stroke-width:0.216;stroke-linecap:butt;stroke-linejoin:bevel;stroke-dasharray:none"
         id="path439" />
      <path
         d="M 998.7324,616.4399 V 601.4571"
         style="fill:none;stroke:#000000;stroke-width:0.216;stroke-linecap:butt;stroke-linejoin:bevel;stroke-dasharray:none"
         id="path440" />
      <path
         d="m 991.6458,601.4571 2.126,-0.3682 1.4822,-0.1134 1.3524,0.1131 2.126,0.3685"
         style="fill:none;stroke:#000000;stroke-width:0.216;stroke-linecap:butt;stroke-linejoin:bevel;stroke-dasharray:none"
         id="path441" />
      <path
         d="m 991.6458,616.4399 2.126,0.3682 1.4822,0.1134 1.3524,-0.1131 2.126,-0.3685"
         style="fill:none;stroke:#000000;stroke-width:0.216;stroke-linecap:butt;stroke-linejoin:bevel;stroke-dasharray:none"
         id="path442" />
      <path
         d="M 998.7324,644.7385 V 629.9736"
         style="fill:none;stroke:#000000;stroke-width:0.216;stroke-linecap:butt;stroke-linejoin:bevel;stroke-dasharray:none"
         id="path443" />
      <path
         d="m 991.6458,629.9736 2.126,-0.3682 1.4822,-0.1134 1.3524,0.1131 2.126,0.3685"
         style="fill:none;stroke:#000000;stroke-width:0.216;stroke-linecap:butt;stroke-linejoin:bevel;stroke-dasharray:none"
         id="path444" />
      <path
         d="m 991.6461,644.7212 7.0863,0.0173"
         style="fill:none;stroke:#000000;stroke-width:0.216;stroke-linecap:butt;stroke-linejoin:bevel;stroke-dasharray:none"
         id="path445" />
      <path
         d="m 791.8036,616.4399 v 13.5337"
         style="fill:none;stroke:#000000;stroke-width:0.216;stroke-linecap:butt;stroke-linejoin:bevel;stroke-dasharray:none"
         id="path446" />
      <path
         d="M 784.7169,616.4399 V 601.4571"
         style="fill:none;stroke:#000000;stroke-width:0.216;stroke-linecap:butt;stroke-linejoin:bevel;stroke-dasharray:none"
         id="path447" />
      <path
         d="m 791.8036,601.6272 -2.126,-0.2549 -1.4823,-0.1133 -1.3524,0.1131 -2.126,0.2551"
         style="fill:none;stroke:#000000;stroke-width:0.216;stroke-linecap:butt;stroke-linejoin:bevel;stroke-dasharray:none"
         id="path448" />
      <path
         d="m 791.8036,616.3265 -2.126,0.4249 -1.5319,0.057 -1.3028,-0.0567 -2.126,-0.4252"
         style="fill:none;stroke:#000000;stroke-width:0.216;stroke-linecap:butt;stroke-linejoin:bevel;stroke-dasharray:none"
         id="path449" />
      <path
         d="M 784.7169,644.7385 V 629.9736"
         style="fill:none;stroke:#000000;stroke-width:0.216;stroke-linecap:butt;stroke-linejoin:bevel;stroke-dasharray:none"
         id="path450" />
      <path
         d="m 791.8036,630.087 -2.126,-0.3682 -1.4823,-0.1134 -1.3524,0.1131 -2.126,0.3685"
         style="fill:none;stroke:#000000;stroke-width:0.216;stroke-linecap:butt;stroke-linejoin:bevel;stroke-dasharray:none"
         id="path451" />
      <path
         d="m 791.8033,644.7212 -7.0864,0.0173"
         style="fill:none;stroke:#000000;stroke-width:0.216;stroke-linecap:butt;stroke-linejoin:bevel;stroke-dasharray:none"
         id="path452" />
      <path
         d="m 810.5846,645.4154 0.002,-0.7447 0.0112,-5.0277"
         style="fill:none;stroke:#000000;stroke-width:0.216;stroke-linecap:butt;stroke-linejoin:miter;stroke-dasharray:none"
         id="path453" />
      <path
         d="m 826.2538,645.4503 0.002,-0.7445 0.0115,-5.1455"
         style="fill:none;stroke:#000000;stroke-width:0.216;stroke-linecap:butt;stroke-linejoin:miter;stroke-dasharray:none"
         id="path454" />
      <path
         d="m 810.5846,645.4154 -0.0713,9.9647 0.1658,2.479 0.0445,0.2223 0.0905,0.3466 0.2016,0.2802 0.4476,0.6598 0.7946,0.7087 0.7094,0.5308 0.5737,0.3646 0.6681,0.2945 1.6759,0.1037 0.0396,-22.2061 5.0355,0.0115 m 5.2937,6.2746 0.0646,9.965 -0.1766,2.4785 -0.0455,0.2216 -0.0918,0.3465 -0.2029,0.2792 -0.4507,0.6578 -0.7972,0.7049 -0.7121,0.5282 -0.5756,0.362 -0.6691,0.2915 -1.6764,0.096 0.0396,-22.2058"
         style="fill:none;stroke:#000000;stroke-width:0.216;stroke-linecap:butt;stroke-linejoin:bevel;stroke-dasharray:none"
         id="path455" />
      <path
         d="m 846.7897,644.7212 h 0.8504"
         style="fill:none;stroke:#0000ff;stroke-width:0.216;stroke-linecap:butt;stroke-linejoin:bevel;stroke-dasharray:none"
         id="path456" />
    </g>
  </g>
</svg>
