<?xml version="1.0" encoding="UTF-8" standalone="no"?>
<!-- Created with Inkscape (http://www.inkscape.org/) -->

<svg
   width="210mm"
   height="297mm"
   viewBox="0 0 210 297"
   version="1.1"
   id="svg1"
   inkscape:version="1.4.2 (f4327f4, 2025-05-13)"
   sodipodi:docname="portita-dreapta-extrem.svg"
   xmlns:inkscape="http://www.inkscape.org/namespaces/inkscape"
   xmlns:sodipodi="http://sodipodi.sourceforge.net/DTD/sodipodi-0.dtd"
   xmlns="http://www.w3.org/2000/svg"
   xmlns:svg="http://www.w3.org/2000/svg">
  <sodipodi:namedview
     id="namedview1"
     pagecolor="#505050"
     bordercolor="#eeeeee"
     borderopacity="1"
     inkscape:showpageshadow="0"
     inkscape:pageopacity="0"
     inkscape:pagecheckerboard="0"
     inkscape:deskcolor="#505050"
     inkscape:document-units="mm"
     inkscape:zoom="0.52473017"
     inkscape:cx="652.71642"
     inkscape:cy="698.45422"
     inkscape:window-width="1920"
     inkscape:window-height="1051"
     inkscape:window-x="-9"
     inkscape:window-y="-9"
     inkscape:window-maximized="1"
     inkscape:current-layer="layer1" />
  <defs
     id="defs1" />
  <g
     inkscape:label="Layer 1"
     inkscape:groupmode="layer"
     id="layer1">
    <path
       d="m 77.988178,164.66103 0.02775,-4.77185 43.419282,0.40699 4.00826,0.0369"
       style="fill:none;stroke:#ff0000;stroke-width:0.812689;stroke-linecap:butt;stroke-linejoin:bevel;stroke-dasharray:none"
       id="path575" />
    <path
       d="m 125.84191,84.856407 -4.00863,-0.03689 -0.40056,75.477753 -0.0278,4.77186"
       style="fill:none;stroke:#ff0000;stroke-width:0.812689;stroke-linecap:butt;stroke-linejoin:bevel;stroke-dasharray:none"
       id="path576" />
    <path
       d="m 73.740693,159.84922 4.272925,0.0369 0.400566,-75.477873 -4.272925,-0.03689"
       style="fill:none;stroke:#ff0000;stroke-width:0.812689;stroke-linecap:butt;stroke-linejoin:bevel;stroke-dasharray:none"
       id="path577" />
    <path
       d="m 121.85946,79.91057 -0.0277,4.908089 -43.418913,-0.406989 0.02775,-4.908089"
       style="fill:none;stroke:#ff0000;stroke-width:0.812689;stroke-linecap:butt;stroke-linejoin:bevel;stroke-dasharray:none"
       id="path578" />
    <path
       d="m 96.180003,132.38361 -3.009614,-6.74544 0.037,-6.71691 3.081124,-6.68815 0.037,-6.71728 -3.009615,-6.745566 0.037,-6.716793 -6.091756,-0.06148 -0.037,6.716916 -3.081124,6.688633 -0.037,6.7168 3.009707,6.74556 -0.037,6.71728 -3.081124,6.68827 z"
       style="fill:none;stroke:#000000;stroke-width:0.812689;stroke-linecap:butt;stroke-linejoin:bevel;stroke-dasharray:none"
       id="path579" />
    <path
       d="m 74.036076,104.18936 0.131363,-24.726355 51.700181,0.484452 -0.13136,24.726363"
       style="fill:none;stroke:#000000;stroke-width:0.812689;stroke-linecap:butt;stroke-linejoin:bevel;stroke-dasharray:none"
       id="path580" />
    <path
       d="m 74.016464,107.87759 0.0185,-3.68823"
       style="fill:none;stroke:#0000ff;stroke-width:0.812689;stroke-linecap:butt;stroke-linejoin:bevel;stroke-dasharray:none"
       id="path581" />
    <path
       d="m 125.71693,108.36254 -0.0463,8.71878 23.12694,0.21641 -0.25533,48.02469 -12.36159,-0.13402 m -50.314118,3.6e-4 -12.009132,-8.6e-4 0.159116,-57.31043"
       style="fill:none;stroke:#000000;stroke-width:0.812689;stroke-linecap:butt;stroke-linejoin:bevel;stroke-dasharray:none"
       id="path582" />
    <path
       d="m 125.71693,108.36254 0.0185,-3.68823"
       style="fill:none;stroke:#0000ff;stroke-width:0.812689;stroke-linecap:butt;stroke-linejoin:bevel;stroke-dasharray:none"
       id="path583" />
    <path
       d="m 114.75408,132.38361 -3.00962,-6.74544 0.037,-6.71691 3.08112,-6.68815 0.037,-6.71728 -3.00962,-6.745566 0.037,-6.716793 -6.09166,-0.06148 -0.037,6.716916 -3.08103,6.688633 -0.037,6.7168 3.00962,6.74556 -0.037,6.71728 -3.08112,6.68827 z"
       style="fill:none;stroke:#000000;stroke-width:0.812689;stroke-linecap:butt;stroke-linejoin:bevel;stroke-dasharray:none"
       id="path584" />
    <path
       d="m 85.866017,168.41873 v -3.23021 -21.80846"
       style="fill:none;stroke:#000000;stroke-width:0.812689;stroke-linecap:butt;stroke-linejoin:miter;stroke-dasharray:none"
       id="path585" />
    <path
       d="m 136.18143,168.41873 v -3.22935 -22.31947"
       style="fill:none;stroke:#000000;stroke-width:0.812689;stroke-linecap:butt;stroke-linejoin:miter;stroke-dasharray:none"
       id="path586" />
    <path
       d="m 85.866017,168.41873 -0.222023,6.14726 0.558758,10.75262 0.14709,0.96275 0.297881,1.50303 0.659593,1.21359 1.030557,2.8568 2.597484,3.06631 2.320048,2.29807 1.874892,1.57459 2.182301,1.27089 5.470272,0.43404 v -48.33664 h 16.43285 m 16.96515,16.25669 0.21925,6.14726 -0.55876,10.75262 -0.14616,0.96275 -0.29881,1.50303 -0.65959,1.21359 -1.466,2.8568 -2.20876,3.06631 -2.32005,2.29807 -1.87424,1.57459 -2.18397,1.27089 -5.46935,0.43404 v -48.33664"
       style="fill:none;stroke:#000000;stroke-width:0.812689;stroke-linecap:butt;stroke-linejoin:bevel;stroke-dasharray:none"
       id="path587" />
  </g>
</svg>
