<?xml version="1.0" encoding="UTF-8" standalone="no"?>
<!-- Created with Inkscape (http://www.inkscape.org/) -->

<svg
   width="210mm"
   height="297mm"
   viewBox="0 0 210 297"
   version="1.1"
   id="svg1"
   inkscape:version="1.4.2 (f4327f4, 2025-05-13)"
   sodipodi:docname="portita-stanga.svg"
   xmlns:inkscape="http://www.inkscape.org/namespaces/inkscape"
   xmlns:sodipodi="http://sodipodi.sourceforge.net/DTD/sodipodi-0.dtd"
   xmlns="http://www.w3.org/2000/svg"
   xmlns:svg="http://www.w3.org/2000/svg">
  <sodipodi:namedview
     id="namedview1"
     pagecolor="#505050"
     bordercolor="#eeeeee"
     borderopacity="1"
     inkscape:showpageshadow="0"
     inkscape:pageopacity="0"
     inkscape:pagecheckerboard="0"
     inkscape:deskcolor="#505050"
     inkscape:document-units="mm"
     inkscape:zoom="0.74208053"
     inkscape:cx="330.82663"
     inkscape:cy="557.21715"
     inkscape:window-width="1920"
     inkscape:window-height="1051"
     inkscape:window-x="-9"
     inkscape:window-y="-9"
     inkscape:window-maximized="1"
     inkscape:current-layer="layer1" />
  <defs
     id="defs1" />
  <g
     inkscape:label="Layer 1"
     inkscape:groupmode="layer"
     id="layer1">
    <path
       d="m 128.92171,90.927357 -4.54369,0.03781 0.38753,59.148593 0.0351,5.4603"
       style="fill:none;stroke:#ff0000;stroke-width:0.925584;stroke-linecap:butt;stroke-linejoin:bevel;stroke-dasharray:none"
       id="path601" />
    <path
       d="m 52.932625,156.11684 -0.03512,-5.46081 71.869215,-0.54568 4.54369,-0.0378"
       style="fill:none;stroke:#ff0000;stroke-width:0.925584;stroke-linecap:butt;stroke-linejoin:bevel;stroke-dasharray:none"
       id="path602" />
    <path
       d="m 124.33962,85.141154 0.0351,5.820859 -71.868758,0.545678 -0.03512,-5.820859"
       style="fill:none;stroke:#ff0000;stroke-width:0.925584;stroke-linecap:butt;stroke-linejoin:bevel;stroke-dasharray:none"
       id="path603" />
    <path
       d="m 48.223274,150.69157 4.673408,-0.0378 -0.387529,-59.148085 -4.673758,0.03781"
       style="fill:none;stroke:#ff0000;stroke-width:0.925584;stroke-linecap:butt;stroke-linejoin:bevel;stroke-dasharray:none"
       id="path604" />
    <path
       d="m 98.187766,115.70945 -6.422905,-4.09989 -6.396095,0.0504 -6.368464,4.19718 -6.395744,0.0504 -6.423373,-4.09989 -6.395627,0.0504 -0.05854,-8.29847 6.396095,-0.0504 6.368464,-4.19718 6.395626,-0.05041 6.423374,4.0999 6.395744,-0.0504 6.368347,-4.197314 z"
       style="fill:none;stroke:#000000;stroke-width:0.925584;stroke-linecap:butt;stroke-linejoin:bevel;stroke-dasharray:none"
       id="path605" />
    <path
       d="m 71.341168,85.543923 -23.543707,0.178952 0.461288,70.429755 23.543707,-0.17895"
       style="fill:none;stroke:#000000;stroke-width:0.925584;stroke-linecap:butt;stroke-linejoin:bevel;stroke-dasharray:none"
       id="path606" />
    <path
       d="m 74.853512,85.517206 -3.512344,0.0252"
       style="fill:none;stroke:#0000ff;stroke-width:0.925584;stroke-linecap:butt;stroke-linejoin:bevel;stroke-dasharray:none"
       id="path607" />
    <path
       d="m 75.315268,155.94659 8.301775,-0.063 0.206058,31.50502 45.728019,-0.34782 -0.12761,-16.84015 m 4.6e-4,-68.54119 -8.2e-4,-16.359623 -54.569638,0.216759"
       style="fill:none;stroke:#000000;stroke-width:0.925584;stroke-linecap:butt;stroke-linejoin:bevel;stroke-dasharray:none"
       id="path608" />
    <path
       d="m 75.315268,155.94659 -3.512343,0.0252"
       style="fill:none;stroke:#0000ff;stroke-width:0.925584;stroke-linecap:butt;stroke-linejoin:bevel;stroke-dasharray:none"
       id="path609" />
    <path
       d="m 98.187766,141.01228 -6.422905,-4.0999 -6.396095,0.0504 -6.368464,4.19731 -6.395744,0.0504 -6.423373,-4.09989 -6.395627,0.0504 -0.05854,-8.29846 6.396095,-0.0504 6.368464,-4.19731 6.395626,-0.0504 6.423374,4.0999 6.395744,-0.0504 6.368347,-4.19719 z"
       style="fill:none;stroke:#000000;stroke-width:0.925584;stroke-linecap:butt;stroke-linejoin:bevel;stroke-dasharray:none"
       id="path610" />
    <path
       d="m 132.49973,101.65907 h -3.07611 -20.76567"
       style="fill:none;stroke:#000000;stroke-width:0.925584;stroke-linecap:butt;stroke-linejoin:miter;stroke-dasharray:none"
       id="path611" />
    <path
       d="m 132.49973,170.20201 h -3.07494 -21.2526"
       style="fill:none;stroke:#000000;stroke-width:0.925584;stroke-linecap:butt;stroke-linejoin:miter;stroke-dasharray:none"
       id="path612" />
    <path
       d="m 132.49973,101.65907 5.85309,-0.30246 10.23836,0.76118 0.91673,0.20037 1.43081,0.4058 1.15556,0.89854 2.72019,1.40402 2.92005,3.53846 2.18784,3.16039 1.49918,2.55423 1.21024,2.97287 0.41328,7.45197 h -46.02504 v 22.38591 m 15.47936,23.11103 5.85297,0.29868 10.23848,-0.75992 0.91672,-0.19911 1.4307,-0.40706 1.15556,-0.89854 2.72019,-1.99695 2.92005,-3.00892 2.18784,-3.16052 1.4993,-2.55322 1.21012,-2.97514 0.41329,-7.45071 h -46.02494"
       style="fill:none;stroke:#000000;stroke-width:0.925584;stroke-linecap:butt;stroke-linejoin:bevel;stroke-dasharray:none"
       id="path613" />
  </g>
</svg>
