<?xml version="1.0" encoding="UTF-8" standalone="no"?>
<!-- Created with Inkscape (http://www.inkscape.org/) -->

<svg
   width="210mm"
   height="297mm"
   viewBox="0 0 210 297"
   version="1.1"
   id="svg1"
   inkscape:version="1.4.2 (f4327f4, 2025-05-13)"
   sodipodi:docname="portita-stanga-extrem.svg"
   xmlns:inkscape="http://www.inkscape.org/namespaces/inkscape"
   xmlns:sodipodi="http://sodipodi.sourceforge.net/DTD/sodipodi-0.dtd"
   xmlns="http://www.w3.org/2000/svg"
   xmlns:svg="http://www.w3.org/2000/svg">
  <sodipodi:namedview
     id="namedview1"
     pagecolor="#505050"
     bordercolor="#eeeeee"
     borderopacity="1"
     inkscape:showpageshadow="0"
     inkscape:pageopacity="0"
     inkscape:pagecheckerboard="0"
     inkscape:deskcolor="#505050"
     inkscape:document-units="mm"
     inkscape:zoom="0.74208053"
     inkscape:cx="396.8572"
     inkscape:cy="559.91228"
     inkscape:window-width="1920"
     inkscape:window-height="1051"
     inkscape:window-x="-9"
     inkscape:window-y="-9"
     inkscape:window-maximized="1"
     inkscape:current-layer="layer1" />
  <defs
     id="defs1" />
  <g
     inkscape:label="Layer 1"
     inkscape:groupmode="layer"
     id="layer1">
    <path
       d="m 79.115671,98.869908 5.216569,0.03568 -0.444918,55.826412 -0.04032,5.15366"
       style="fill:none;stroke:#ff0000;stroke-width:0.963505;stroke-linecap:butt;stroke-linejoin:bevel;stroke-dasharray:none"
       id="path588" />
    <path
       d="m 166.35775,160.39808 0.0403,-5.15367 -82.511968,-0.51503 -5.216569,-0.0357"
       style="fill:none;stroke:#ff0000;stroke-width:0.963505;stroke-linecap:butt;stroke-linejoin:bevel;stroke-dasharray:none"
       id="path589" />
    <path
       d="m 84.375926,93.408652 -0.04033,5.494085 82.512104,0.515034 0.0403,-5.493967"
       style="fill:none;stroke:#ff0000;stroke-width:0.963505;stroke-linecap:butt;stroke-linejoin:bevel;stroke-dasharray:none"
       id="path590" />
    <path
       d="m 171.76452,155.27796 -5.3655,-0.0357 0.44491,-55.826878 5.36551,0.03568"
       style="fill:none;stroke:#ff0000;stroke-width:0.963505;stroke-linecap:butt;stroke-linejoin:bevel;stroke-dasharray:none"
       id="path591" />
    <path
       d="m 114.40121,122.25992 7.37409,-3.86965 7.3429,0.0476 7.31145,3.96111 7.34331,0.0476 7.37422,-3.86965 7.34277,0.0476 0.0672,-7.83243 -7.34291,-0.0476 -7.31198,-3.96159 -7.34277,-0.0476 -7.37423,3.86965 -7.3433,-0.0476 -7.31145,-3.96148 z"
       style="fill:none;stroke:#000000;stroke-width:0.963505;stroke-linecap:butt;stroke-linejoin:bevel;stroke-dasharray:none"
       id="path592" />
    <path
       d="m 145.22304,93.788444 27.03075,0.168903 -0.5296,66.474513 -27.03075,-0.1689"
       style="fill:none;stroke:#000000;stroke-width:0.963505;stroke-linecap:butt;stroke-linejoin:bevel;stroke-dasharray:none"
       id="path593" />
    <path
       d="m 140.66095,160.23774 -9.53134,-0.0595 -0.23657,29.73538 -52.50053,-0.3271 0.146514,-15.89407 m -4.03e-4,-64.69235 9.41e-4,-15.440537 62.651528,0.204586"
       style="fill:none;stroke:#000000;stroke-width:0.963505;stroke-linecap:butt;stroke-linejoin:bevel;stroke-dasharray:none"
       id="path595" />
    <path
       d="m 114.40121,146.14176 7.37409,-3.86964 7.3429,0.0476 7.31145,3.96112 7.34331,0.0476 7.37422,-3.87012 7.34277,0.0476 0.0672,-7.83243 -7.34291,-0.0476 -7.31198,-3.96159 -7.34277,-0.0476 -7.37423,3.86965 -7.3433,-0.0476 -7.31145,-3.96159 z"
       style="fill:none;stroke:#000000;stroke-width:0.963505;stroke-linecap:butt;stroke-linejoin:bevel;stroke-dasharray:none"
       id="path597" />
    <path
       d="m 75.007769,173.69224 h 3.530314 24.399547"
       style="fill:none;stroke:#000000;stroke-width:0.963505;stroke-linecap:butt;stroke-linejoin:miter;stroke-dasharray:none"
       id="path599" />
    <path
       d="m 75.007769,108.99894 -6.720152,-0.28547 -11.754722,0.71843 -1.052481,0.18912 -1.643107,0.38301 -1.326691,0.84808 -3.123033,1.32517 -3.352078,3.33963 -2.512244,2.98267 -1.721338,2.41102 -1.389328,2.80592 -0.474491,7.0336 H 92.77951 v 21.12826 m -17.771741,21.81315 -6.720152,0.28309 -11.754722,-0.71843 -1.052481,-0.18793 -1.643107,-0.3842 -1.326691,-0.84808 -3.123033,-1.88492 -3.352078,-2.8403 -2.512244,-2.98267 -1.721338,-2.41019 -1.389328,-2.80759 -0.474491,-7.03276 H 92.77951"
       style="fill:none;stroke:#000000;stroke-width:0.963505;stroke-linecap:butt;stroke-linejoin:bevel;stroke-dasharray:none"
       id="path600" />
  </g>
</svg>
