<?xml version="1.0" encoding="UTF-8" standalone="no"?>
<!-- Created with Inkscape (http://www.inkscape.org/) -->

<svg
   width="210mm"
   height="297mm"
   viewBox="0 0 210 297"
   version="1.1"
   id="svg1"
   inkscape:version="1.4.2 (f4327f4, 2025-05-13)"
   sodipodi:docname="portita-dreapta.svg"
   xmlns:inkscape="http://www.inkscape.org/namespaces/inkscape"
   xmlns:sodipodi="http://sodipodi.sourceforge.net/DTD/sodipodi-0.dtd"
   xmlns="http://www.w3.org/2000/svg"
   xmlns:svg="http://www.w3.org/2000/svg">
  <sodipodi:namedview
     id="namedview1"
     pagecolor="#505050"
     bordercolor="#eeeeee"
     borderopacity="1"
     inkscape:showpageshadow="0"
     inkscape:pageopacity="0"
     inkscape:pagecheckerboard="0"
     inkscape:deskcolor="#505050"
     inkscape:document-units="mm"
     inkscape:zoom="1.0494603"
     inkscape:cx="343.5099"
     inkscape:cy="636.99408"
     inkscape:window-width="1920"
     inkscape:window-height="1051"
     inkscape:window-x="-9"
     inkscape:window-y="-9"
     inkscape:window-maximized="1"
     inkscape:current-layer="layer1" />
  <defs
     id="defs1" />
  <g
     inkscape:label="Layer 1"
     inkscape:groupmode="layer"
     id="layer1">
    <path
       d="m 127.79962,106.67229 -3.70354,0.0258 0.31683,40.27375 0.0382,3.71788"
       style="fill:none;stroke:#ff0000;stroke-width:0.68954;stroke-linecap:butt;stroke-linejoin:bevel;stroke-dasharray:none"
       id="path614" />
    <path
       d="m 65.861197,151.05924 -0.03817,-3.71822 58.579953,-0.37155 3.70354,-0.0257"
       style="fill:none;stroke:#ff0000;stroke-width:0.68954;stroke-linecap:butt;stroke-linejoin:bevel;stroke-dasharray:none"
       id="path615" />
    <path
       d="m 124.06478,102.73252 0.0382,3.96337 -58.579957,0.37155 -0.03817,-3.96337"
       style="fill:none;stroke:#ff0000;stroke-width:0.68954;stroke-linecap:butt;stroke-linejoin:bevel;stroke-dasharray:none"
       id="path616" />
    <path
       d="m 62.022623,147.36522 3.809277,-0.0257 -0.316828,-40.27341 -3.809563,0.0257"
       style="fill:none;stroke:#ff0000;stroke-width:0.68954;stroke-linecap:butt;stroke-linejoin:bevel;stroke-dasharray:none"
       id="path617" />
    <path
       d="m 102.7485,123.54621 -5.235672,-2.79159 -5.213147,0.0343 -5.190816,2.85782 -5.213433,0.0343 -5.235383,-2.79159 -5.213051,0.0343 -0.04771,-5.65035 5.213433,-0.0343 5.190912,-2.85782 5.213052,-0.0343 5.235382,2.79159 5.213433,-0.0343 5.19082,-2.85791 z"
       style="fill:none;stroke:#000000;stroke-width:0.68954;stroke-linecap:butt;stroke-linejoin:bevel;stroke-dasharray:none"
       id="path618" />
    <path
       d="m 80.865933,103.00676 -19.190389,0.12185 0.375994,47.955 19.190676,-0.12185"
       style="fill:none;stroke:#000000;stroke-width:0.68954;stroke-linecap:butt;stroke-linejoin:bevel;stroke-dasharray:none"
       id="path619" />
    <path
       d="m 83.728832,102.98857 -2.862899,0.0172"
       style="fill:none;stroke:#0000ff;stroke-width:0.68954;stroke-linecap:butt;stroke-linejoin:bevel;stroke-dasharray:none"
       id="path620" />
    <path
       d="m 84.104826,150.94331 6.766746,-0.0429 0.167957,21.45149 37.273121,-0.23597 -0.10402,-11.46631 m 3.9e-4,-46.66908 -6.7e-4,-11.13913 -44.479518,0.14759"
       style="fill:none;stroke:#000000;stroke-width:0.68954;stroke-linecap:butt;stroke-linejoin:bevel;stroke-dasharray:none"
       id="path621" />
    <path
       d="m 84.104826,150.94331 -2.862517,0.0172"
       style="fill:none;stroke:#0000ff;stroke-width:0.68954;stroke-linecap:butt;stroke-linejoin:bevel;stroke-dasharray:none"
       id="path622" />
    <path
       d="m 102.7485,140.77467 -5.235672,-2.79158 -5.213147,0.0343 -5.190816,2.85791 -5.213433,0.0343 -5.235383,-2.79158 -5.213051,0.0343 -0.04771,-5.65035 5.213433,-0.0343 5.190912,-2.85791 5.213052,-0.0343 5.235382,2.79158 5.213433,-0.0343 5.19082,-2.85782 z"
       style="fill:none;stroke:#000000;stroke-width:0.68954;stroke-linecap:butt;stroke-linejoin:bevel;stroke-dasharray:none"
       id="path623" />
    <path
       d="M 130.71577,113.97942 H 128.20863 111.2827"
       style="fill:none;stroke:#000000;stroke-width:0.68954;stroke-linecap:butt;stroke-linejoin:miter;stroke-dasharray:none"
       id="path624" />
    <path
       d="m 130.71577,160.64971 h -2.50609 -17.32292"
       style="fill:none;stroke:#000000;stroke-width:0.68954;stroke-linecap:butt;stroke-linejoin:miter;stroke-dasharray:none"
       id="path625" />
    <path
       d="m 130.71577,113.97942 4.77102,-0.20594 8.34535,0.51828 0.74721,0.13643 1.16616,0.27631 0.94189,0.6118 2.21722,0.95599 2.37983,2.40931 1.78359,2.15188 1.22207,1.73915 0.98637,2.02421 0.33687,5.07398 h -37.51514 v 15.24236 m 12.61718,15.7361 4.77102,0.20336 8.34535,-0.51742 0.74721,-0.13557 1.16616,-0.27716 0.94189,-0.61181 2.21722,-1.35971 2.37983,-2.04874 1.78359,-2.15197 1.22207,-1.73847 0.98637,-2.02575 0.33686,-5.07312 h -37.51513"
       style="fill:none;stroke:#000000;stroke-width:0.68954;stroke-linecap:butt;stroke-linejoin:bevel;stroke-dasharray:none"
       id="path626" />
  </g>
</svg>
