<?xml version="1.0" encoding="UTF-8" standalone="no"?>
<!-- Created with Inkscape (http://www.inkscape.org/) -->

<svg
   width="210mm"
   height="297mm"
   viewBox="0 0 210 297"
   version="1.1"
   id="svg1"
   inkscape:version="1.4.2 (f4327f4, 2025-05-13)"
   sodipodi:docname="schela-acoperis-verticala.svg"
   xmlns:inkscape="http://www.inkscape.org/namespaces/inkscape"
   xmlns:sodipodi="http://sodipodi.sourceforge.net/DTD/sodipodi-0.dtd"
   xmlns="http://www.w3.org/2000/svg"
   xmlns:svg="http://www.w3.org/2000/svg">
  <sodipodi:namedview
     id="namedview1"
     pagecolor="#505050"
     bordercolor="#eeeeee"
     borderopacity="1"
     inkscape:showpageshadow="0"
     inkscape:pageopacity="0"
     inkscape:pagecheckerboard="0"
     inkscape:deskcolor="#505050"
     inkscape:document-units="mm"
     inkscape:zoom="0.74208053"
     inkscape:cx="396.8572"
     inkscape:cy="561.25984"
     inkscape:window-width="1920"
     inkscape:window-height="1051"
     inkscape:window-x="-9"
     inkscape:window-y="-9"
     inkscape:window-maximized="1"
     inkscape:current-layer="layer1" />
  <defs
     id="defs1" />
  <g
     inkscape:label="Layer 1"
     inkscape:groupmode="layer"
     id="layer1">
    <path
       d="m 129.43715,104.12529 27.95368,-26.476383 -3.19916,30.492563 m -1.22957,12.94042 -2.26676,22.35669 m -1.31404,12.92672 -0.58203,5.72645 -8.35494,7.91321"
       style="fill:none;stroke:#000000;stroke-width:0.175954;stroke-linecap:butt;stroke-linejoin:bevel;stroke-dasharray:none"
       id="path321" />
    <path
       d="m 139.94222,170.48087 -7.9121,7.49413 -5.61846,0.0938 m -12.53282,0.18012 -21.384582,0.33264 m -12.53313,0.17119 -29.829116,0.45781 25.059539,-23.73372"
       style="fill:none;stroke:#000000;stroke-width:0.175954;stroke-linecap:butt;stroke-linejoin:bevel;stroke-dasharray:none"
       id="path322" />
    <path
       d="m 75.155155,155.47263 10.861917,-10.25452 m 9.241021,-8.7805 5.886597,-5.5417 15.29121,17.364 4.25274,-4.0278 -15.29128,-17.3639 5.80668,-5.49946 m 9.25462,-8.76665 8.25767,-7.82204"
       style="fill:none;stroke:#000000;stroke-width:0.175954;stroke-linecap:butt;stroke-linejoin:bevel;stroke-dasharray:none"
       id="path324" />
    <path
       d="m 149.91709,156.42354 1.12166,0.17942 1.98638,0.0743 0.18038,-0.0188 0.28318,-0.0452 0.2395,-0.14227 0.56179,-0.31333 0.62914,-0.59511 0.48084,-0.54044 0.33717,-0.44231 0.28917,-0.52619 0.21991,-1.37416 -9.37349,-1.07559 0.42236,-4.15395 m 3.93621,-3.95402 1.1331,0.0673 1.95767,0.35679 0.17278,0.0564 0.2679,0.10535 0.20557,0.19094 0.48644,0.42794 0.49563,0.71807 0.36157,0.63253 0.24086,0.50552 0.17693,0.57719 -0.0616,1.39148 -9.37341,-1.07558"
       style="fill:none;stroke:#000000;stroke-width:0.175954;stroke-linecap:butt;stroke-linejoin:bevel;stroke-dasharray:none"
       id="path328" />
    <path
       d="m 110.82048,120.93281 -0.80473,-0.82996 -1.23613,-1.61412 -0.0931,-0.16108 -0.13295,-0.2632 -0.032,-0.28438 -0.0902,-0.65484 0.0888,-0.87823 0.13424,-0.72204 0.14335,-0.54395 0.23686,-0.55356 0.93624,-0.99883 6.50198,7.30854 1.34308,-1.27212 1.63098,-1.54485 m 0.62802,-5.7534 -0.72441,-0.90595 -1.43844,-1.42267 -0.1463,-0.11075 -0.24077,-0.16131 -0.27022,-0.0583 -0.62075,-0.15214 -0.85144,0.0118 -0.70554,0.0734 -0.53531,0.099 -0.55307,0.1947 -1.04375,0.87668 6.50198,7.30855"
       style="fill:none;stroke:#000000;stroke-width:0.175954;stroke-linecap:butt;stroke-linejoin:bevel;stroke-dasharray:none"
       id="path331" />
    <path
       d="m 85.623587,144.771 -0.80465,-0.83005 -1.23605,-1.61421 -0.09311,-0.16132 -0.132944,-0.2632 -0.032,-0.28436 -0.09007,-0.65486 0.0888,-0.87823 0.134305,-0.72205 0.143353,-0.54394 0.23694,-0.55354 0.936316,-0.99878 5.910836,6.93235 2.974136,-2.8168 m 1.219173,-5.3767 -0.724495,-0.90604 -1.438272,-1.42274 -0.146301,-0.11075 -0.240779,-0.16108 -0.270136,-0.0583 -0.620825,-0.15237 -0.851444,0.0117 -0.705539,0.0734 -0.535312,0.0988 -0.553071,0.19447 -1.043828,0.87668 5.910836,6.93226"
       style="fill:none;stroke:#000000;stroke-width:0.175954;stroke-linecap:butt;stroke-linejoin:bevel;stroke-dasharray:none"
       id="path332" />
    <path
       d="m 79.969847,179.37079 -0.0376,1.1763 0.165823,2.0541 0.03839,0.18342 0.0768,0.28627 0.164872,0.2295 0.366928,0.54105 0.644901,0.57677 0.57475,0.43063 0.463719,0.2944 0.538271,0.23492 1.341882,0.0625 -0.206865,-10.97604 4.027481,-0.0609 m 4.373452,4.77768 0.07041,1.17463 -0.107911,2.0582 -0.03361,0.18459 -0.0688,0.28844 -0.158318,0.23444 -0.351649,0.55189 -0.628344,0.59603 -0.562431,0.44772 -0.455318,0.30835 -0.531393,0.25109 -1.339561,0.10299 -0.206775,-10.97605"
       style="fill:none;stroke:#000000;stroke-width:0.175954;stroke-linecap:butt;stroke-linejoin:bevel;stroke-dasharray:none"
       id="path333" />
    <path
       d="m 113.88756,178.86658 -0.0376,1.1763 0.16592,2.05413 0.0384,0.18342 0.0768,0.28627 0.16487,0.2295 0.36693,0.5411 0.6449,0.5767 0.57475,0.43063 0.46372,0.2944 0.53827,0.23491 1.34188,0.0626 -0.20766,-11.02416 1.29101,-0.0188 2.73639,-0.0414 m 4.37434,4.82579 0.0704,1.17466 -0.10791,2.05827 -0.0336,0.18459 -0.0688,0.2885 -0.15823,0.23444 -0.35165,0.5519 -0.62842,0.59595 -0.56243,0.44779 -0.45533,0.30826 -0.53139,0.25109 -1.33956,0.10299 -0.20766,-11.02416"
       style="fill:none;stroke:#000000;stroke-width:0.175954;stroke-linecap:butt;stroke-linejoin:bevel;stroke-dasharray:none"
       id="path336" />
    <path
       d="m 152.87731,121.06828 1.12166,0.17941 1.98646,0.0743 0.18032,-0.0188 0.28325,-0.0451 0.23942,-0.14227 0.56179,-0.31323 0.62914,-0.59512 0.48084,-0.54044 0.33717,-0.4424 0.28918,-0.52617 0.2199,-1.37415 -10.14454,-1.16925 0.42228,-4.15395 m 4.70735,-3.86037 1.13309,0.0673 1.95767,0.35672 0.17279,0.0564 0.26789,0.10534 0.20558,0.19094 0.48643,0.42788 0.49564,0.71814 0.36157,0.63245 0.24086,0.50559 0.17702,0.57712 -0.0616,1.39149 -10.14463,-1.16925"
       style="fill:none;stroke:#000000;stroke-width:0.175954;stroke-linecap:butt;stroke-linejoin:bevel;stroke-dasharray:none"
       id="path337" />
  </g>
</svg>
