<?xml version="1.0" encoding="UTF-8" standalone="no"?>
<!-- Created with Inkscape (http://www.inkscape.org/) -->

<svg
   width="210mm"
   height="297mm"
   viewBox="0 0 210 297"
   version="1.1"
   id="svg1"
   inkscape:version="1.4.2 (f4327f4, 2025-05-13)"
   sodipodi:docname="tavan.svg"
   xmlns:inkscape="http://www.inkscape.org/namespaces/inkscape"
   xmlns:sodipodi="http://sodipodi.sourceforge.net/DTD/sodipodi-0.dtd"
   xmlns="http://www.w3.org/2000/svg"
   xmlns:svg="http://www.w3.org/2000/svg">
  <sodipodi:namedview
     id="namedview1"
     pagecolor="#505050"
     bordercolor="#eeeeee"
     borderopacity="1"
     inkscape:showpageshadow="0"
     inkscape:pageopacity="0"
     inkscape:pagecheckerboard="0"
     inkscape:deskcolor="#505050"
     inkscape:document-units="mm"
     inkscape:zoom="0.74208053"
     inkscape:cx="396.8572"
     inkscape:cy="411.68039"
     inkscape:window-width="1920"
     inkscape:window-height="1051"
     inkscape:window-x="-9"
     inkscape:window-y="-9"
     inkscape:window-maximized="1"
     inkscape:current-layer="layer1" />
  <defs
     id="defs1" />
  <g
     inkscape:label="Layer 1"
     inkscape:groupmode="layer"
     id="layer1">
    <g
       id="Layer1000"
       transform="matrix(0,-1.048641,0.87926781,0,-383.18533,831.40362)">
      <path
         d="m 655.2522,490.2763 h -14.4567 v -7.37 l 14.4567,0.003 z"
         style="fill:none;stroke:#000000;stroke-width:0.216;stroke-linecap:butt;stroke-linejoin:bevel;stroke-dasharray:none"
         id="path294" />
      <path
         d="m 644.3643,523.8757 7.361,0.005 -0.009,14.4521 -7.361,-0.004 z"
         style="fill:none;stroke:#000000;stroke-width:0.216;stroke-linecap:butt;stroke-linejoin:bevel;stroke-dasharray:none"
         id="path295" />
      <path
         d="m 644.3641,580.9011 7.3609,-0.005 -0.009,-14.4521 -7.361,0.004 z"
         style="fill:none;stroke:#000000;stroke-width:0.216;stroke-linecap:butt;stroke-linejoin:bevel;stroke-dasharray:none"
         id="path296" />
      <path
         d="m 576.1803,636.1529 h -59.2314 v -9.025 h 7.0946 v -6.1066 h -7.0946 v -13.7909 m 0,-0.8319 v -26.9351 h 7.0946 v -6.1093 h -7.0946 l 6e-4,-84.9863 m 0,-0.9006 3e-4,-25.8752 130.5402,0.001"
         style="fill:none;stroke:#000000;stroke-width:0.216;stroke-linecap:butt;stroke-linejoin:bevel;stroke-dasharray:none"
         id="path297" />
      <path
         d="m 576.1803,636.1529 h 0.8504"
         style="fill:none;stroke:#0000ff;stroke-width:0.216;stroke-linecap:butt;stroke-linejoin:bevel;stroke-dasharray:none"
         id="path298" />
      <path
         d="m 720.898,636.1529 h -48.7766 v 22.9283 h -48.189 v -22.9283 h -46.9017"
         style="fill:none;stroke:#000000;stroke-width:0.216;stroke-linecap:butt;stroke-linejoin:bevel;stroke-dasharray:none"
         id="path299" />
      <path
         d="m 720.898,636.1529 h 0.8504"
         style="fill:none;stroke:#0000ff;stroke-width:0.216;stroke-linecap:butt;stroke-linejoin:bevel;stroke-dasharray:none"
         id="path300" />
      <path
         d="m 648.3404,461.5934 68.8743,6e-4 m 0.8473,-0.005 0.4966,0.005 21.7908,3e-4 38.7484,3e-4 -5e-4,21.9016 m 2e-4,0.8472 -5e-4,89.0107 h -7.0866 v 6.1084 h 7.0866 l 10e-4,33.8593 m -10e-4,0.8504 v 6.8485 h -7.0866 v 6.1067 h 7.0866 v 9.0255 h -29.7734 m -0.8504,0 h -26.7248"
         style="fill:none;stroke:#000000;stroke-width:0.216;stroke-linecap:butt;stroke-linejoin:bevel;stroke-dasharray:none"
         id="path301" />
      <path
         d="m 647.49,461.5934 h 0.8504"
         style="fill:none;stroke:#0000ff;stroke-width:0.216;stroke-linecap:butt;stroke-linejoin:bevel;stroke-dasharray:none"
         id="path302" />
      <path
         d="m 718.0619,461.5886 -0.8471,0.006"
         style="fill:none;stroke:#0000ff;stroke-width:0.216;stroke-linecap:butt;stroke-linejoin:bevel;stroke-dasharray:none"
         id="path303" />
      <path
         d="m 516.9494,488.3678 2e-4,-0.9007"
         style="fill:none;stroke:#0000ff;stroke-width:0.216;stroke-linecap:butt;stroke-linejoin:bevel;stroke-dasharray:none"
         id="path304" />
      <path
         d="m 516.9491,607.2305 3e-4,-0.9008"
         style="fill:none;stroke:#0000ff;stroke-width:0.216;stroke-linecap:butt;stroke-linejoin:bevel;stroke-dasharray:none"
         id="path305" />
      <path
         d="m 779.0969,614.1721 10e-4,-0.8504"
         style="fill:none;stroke:#0000ff;stroke-width:0.216;stroke-linecap:butt;stroke-linejoin:bevel;stroke-dasharray:none"
         id="path306" />
      <path
         d="m 748.4732,636.1529 h 0.8504"
         style="fill:none;stroke:#0000ff;stroke-width:0.216;stroke-linecap:butt;stroke-linejoin:bevel;stroke-dasharray:none"
         id="path307" />
      <path
         d="m 779.0975,484.3434 -3e-4,-0.8471"
         style="fill:none;stroke:#0000ff;stroke-width:0.216;stroke-linecap:butt;stroke-linejoin:bevel;stroke-dasharray:none"
         id="path308" />
      <path
         d="m 655.2522,614.7357 h -14.4567 v -7.3701 l 14.4567,0.003 z"
         style="fill:none;stroke:#000000;stroke-width:0.216;stroke-linecap:butt;stroke-linejoin:bevel;stroke-dasharray:none"
         id="path309" />
    </g>
  </g>
</svg>
